<svg viewBox="0 0 330 200" xmlns="http://www.w3.org/2000/svg"><g><g><g><g><g><line x1="30.78125" y1="170.81818181818187" x2="25.78125" y2="170.81818181818187" style="visibility: inherit;" fill="rgb(0, 0, 0)" stroke="rgb(204, 204, 204)" stroke-width="1px"></line><line x1="30.78125" y1="154.63636363636365" x2="25.78125" y2="154.63636363636365" style="visibility: inherit;" fill="rgb(0, 0, 0)" stroke="rgb(204, 204, 204)" stroke-width="1px"></line><line x1="30.78125" y1="138.45454545454544" x2="25.78125" y2="138.45454545454544" style="visibility: inherit;" fill="rgb(0, 0, 0)" stroke="rgb(204, 204, 204)" stroke-width="1px"></line><line x1="30.78125" y1="122.27272727272721" x2="25.78125" y2="122.27272727272721" style="visibility: inherit;" fill="rgb(0, 0, 0)" stroke="rgb(204, 204, 204)" stroke-width="1px"></line><line x1="30.78125" y1="106.09090909090901" x2="25.78125" y2="106.09090909090901" style="visibility: inherit;" fill="rgb(0, 0, 0)" stroke="rgb(204, 204, 204)" stroke-width="1px"></line><line x1="30.78125" y1="89.90909090909079" x2="25.78125" y2="89.90909090909079" style="visibility: inherit;" fill="rgb(0, 0, 0)" stroke="rgb(204, 204, 204)" stroke-width="1px"></line><line x1="30.78125" y1="73.72727272727258" x2="25.78125" y2="73.72727272727258" style="visibility: inherit;" fill="rgb(0, 0, 0)" stroke="rgb(204, 204, 204)" stroke-width="1px"></line><line x1="30.78125" y1="57.54545454545435" x2="25.78125" y2="57.54545454545435" style="visibility: inherit;" fill="rgb(0, 0, 0)" stroke="rgb(204, 204, 204)" stroke-width="1px"></line><line x1="30.78125" y1="41.36363636363612" x2="25.78125" y2="41.36363636363612" style="visibility: inherit;" fill="rgb(0, 0, 0)" stroke="rgb(204, 204, 204)" stroke-width="1px"></line><line x1="30.78125" y1="25.181818181817892" x2="25.78125" y2="25.181818181817892" style="visibility: inherit;" fill="rgb(0, 0, 0)" stroke="rgb(204, 204, 204)" stroke-width="1px"></line><line x1="30.78125" y1="8.999999999999686" x2="25.78125" y2="8.999999999999686" style="visibility: inherit;" fill="rgb(0, 0, 0)" stroke="rgb(204, 204, 204)" stroke-width="1px"></line></g><g transform="translate(20.78125, 0)"><text x="0" y="170.81818181818187" dx="0em" dy="0.3em" style="text-anchor: end; visibility: inherit; font-family: Roboto, sans-serif; font-size: 12px; font-weight: 200;" fill="rgb(50, 49, 63)" stroke="none" stroke-width="1px">0</text><text x="0" y="154.63636363636365" dx="0em" dy="0.3em" style="text-anchor: end; visibility: hidden; font-family: Roboto, sans-serif; font-size: 12px; font-weight: 200;" fill="rgb(50, 49, 63)" stroke="none" stroke-width="1px">2</text><text x="0" y="138.45454545454544" dx="0em" dy="0.3em" style="text-anchor: end; visibility: inherit; font-family: Roboto, sans-serif; font-size: 12px; font-weight: 200;" fill="rgb(50, 49, 63)" stroke="none" stroke-width="1px">4</text><text x="0" y="122.27272727272721" dx="0em" dy="0.3em" style="text-anchor: end; visibility: hidden; font-family: Roboto, sans-serif; font-size: 12px; font-weight: 200;" fill="rgb(50, 49, 63)" stroke="none" stroke-width="1px">6</text><text x="0" y="106.09090909090901" dx="0em" dy="0.3em" style="text-anchor: end; visibility: inherit; font-family: Roboto, sans-serif; font-size: 12px; font-weight: 200;" fill="rgb(50, 49, 63)" stroke="none" stroke-width="1px">8</text><text x="0" y="89.90909090909079" dx="0em" dy="0.3em" style="text-anchor: end; visibility: hidden; font-family: Roboto, sans-serif; font-size: 12px; font-weight: 200;" fill="rgb(50, 49, 63)" stroke="none" stroke-width="1px">10</text><text x="0" y="73.72727272727258" dx="0em" dy="0.3em" style="text-anchor: end; visibility: inherit; font-family: Roboto, sans-serif; font-size: 12px; font-weight: 200;" fill="rgb(50, 49, 63)" stroke="none" stroke-width="1px">12</text><text x="0" y="57.54545454545435" dx="0em" dy="0.3em" style="text-anchor: end; visibility: hidden; font-family: Roboto, sans-serif; font-size: 12px; font-weight: 200;" fill="rgb(50, 49, 63)" stroke="none" stroke-width="1px">14</text><text x="0" y="41.36363636363612" dx="0em" dy="0.3em" style="text-anchor: end; visibility: inherit; font-family: Roboto, sans-serif; font-size: 12px; font-weight: 200;" fill="rgb(50, 49, 63)" stroke="none" stroke-width="1px">16</text><text x="0" y="25.181818181817892" dx="0em" dy="0.3em" style="text-anchor: end; visibility: hidden; font-family: Roboto, sans-serif; font-size: 12px; font-weight: 200;" fill="rgb(50, 49, 63)" stroke="none" stroke-width="1px">18</text><text x="0" y="8.999999999999686" dx="0em" dy="0.3em" style="text-anchor: end; visibility: inherit; font-family: Roboto, sans-serif; font-size: 12px; font-weight: 200;" fill="rgb(50, 49, 63)" stroke="none" stroke-width="1px">20</text></g><line x1="30.78125" y1="0" x2="30.78125" y2="178" fill="rgb(0, 0, 0)" stroke="rgb(204, 204, 204)" stroke-width="1px"></line></g></g><g transform="translate(30, 0)" clip-path="url(#clip_0)"><clipPath id="clip_0"><rect width="299" height="178"></rect></clipPath><g><g><g><line x1="13.934895833333327" y1="0" x2="13.934895833333327" y2="178" fill="rgb(0, 0, 0)" stroke="rgb(60, 60, 60)" stroke-width="1px" opacity="0.25"></line><line x1="38.86979166666666" y1="0" x2="38.86979166666666" y2="178" fill="rgb(0, 0, 0)" stroke="rgb(60, 60, 60)" stroke-width="1px" opacity="0.25"></line><line x1="63.804687499999986" y1="0" x2="63.804687499999986" y2="178" fill="rgb(0, 0, 0)" stroke="rgb(60, 60, 60)" stroke-width="1px" opacity="0.25"></line><line x1="88.73958333333331" y1="0" x2="88.73958333333331" y2="178" fill="rgb(0, 0, 0)" stroke="rgb(60, 60, 60)" stroke-width="1px" opacity="0.25"></line><line x1="113.67447916666664" y1="0" x2="113.67447916666664" y2="178" fill="rgb(0, 0, 0)" stroke="rgb(60, 60, 60)" stroke-width="1px" opacity="0.25"></line><line x1="138.60937499999997" y1="0" x2="138.60937499999997" y2="178" fill="rgb(0, 0, 0)" stroke="rgb(60, 60, 60)" stroke-width="1px" opacity="0.25"></line><line x1="163.5442708333333" y1="0" x2="163.5442708333333" y2="178" fill="rgb(0, 0, 0)" stroke="rgb(60, 60, 60)" stroke-width="1px" opacity="0.25"></line><line x1="188.47916666666663" y1="0" x2="188.47916666666663" y2="178" fill="rgb(0, 0, 0)" stroke="rgb(60, 60, 60)" stroke-width="1px" opacity="0.25"></line><line x1="213.41406249999994" y1="0" x2="213.41406249999994" y2="178" fill="rgb(0, 0, 0)" stroke="rgb(60, 60, 60)" stroke-width="1px" opacity="0.25"></line><line x1="238.3489583333333" y1="0" x2="238.3489583333333" y2="178" fill="rgb(0, 0, 0)" stroke="rgb(60, 60, 60)" stroke-width="1px" opacity="0.25"></line><line x1="263.28385416666663" y1="0" x2="263.28385416666663" y2="178" fill="rgb(0, 0, 0)" stroke="rgb(60, 60, 60)" stroke-width="1px" opacity="0.25"></line><line x1="288.21874999999994" y1="0" x2="288.21874999999994" y2="178" fill="rgb(0, 0, 0)" stroke="rgb(60, 60, 60)" stroke-width="1px" opacity="0.25"></line></g><g><line x1="0" y1="170.81818181818187" x2="299.21875" y2="170.81818181818187" fill="rgb(0, 0, 0)" stroke="rgb(60, 60, 60)" stroke-width="1px" opacity="0.25"></line><line x1="0" y1="154.63636363636365" x2="299.21875" y2="154.63636363636365" fill="rgb(0, 0, 0)" stroke="rgb(60, 60, 60)" stroke-width="1px" opacity="0.25"></line><line x1="0" y1="138.45454545454544" x2="299.21875" y2="138.45454545454544" fill="rgb(0, 0, 0)" stroke="rgb(60, 60, 60)" stroke-width="1px" opacity="0.25"></line><line x1="0" y1="122.27272727272721" x2="299.21875" y2="122.27272727272721" fill="rgb(0, 0, 0)" stroke="rgb(60, 60, 60)" stroke-width="1px" opacity="0.25"></line><line x1="0" y1="106.09090909090901" x2="299.21875" y2="106.09090909090901" fill="rgb(0, 0, 0)" stroke="rgb(60, 60, 60)" stroke-width="1px" opacity="0.25"></line><line x1="0" y1="89.90909090909079" x2="299.21875" y2="89.90909090909079" fill="rgb(0, 0, 0)" stroke="rgb(60, 60, 60)" stroke-width="1px" opacity="0.25"></line><line x1="0" y1="73.72727272727258" x2="299.21875" y2="73.72727272727258" fill="rgb(0, 0, 0)" stroke="rgb(60, 60, 60)" stroke-width="1px" opacity="0.25"></line><line x1="0" y1="57.54545454545435" x2="299.21875" y2="57.54545454545435" fill="rgb(0, 0, 0)" stroke="rgb(60, 60, 60)" stroke-width="1px" opacity="0.25"></line><line x1="0" y1="41.36363636363612" x2="299.21875" y2="41.36363636363612" fill="rgb(0, 0, 0)" stroke="rgb(60, 60, 60)" stroke-width="1px" opacity="0.25"></line><line x1="0" y1="25.181818181817892" x2="299.21875" y2="25.181818181817892" fill="rgb(0, 0, 0)" stroke="rgb(60, 60, 60)" stroke-width="1px" opacity="0.25"></line><line x1="0" y1="8.999999999999686" x2="299.21875" y2="8.999999999999686" fill="rgb(0, 0, 0)" stroke="rgb(60, 60, 60)" stroke-width="1px" opacity="0.25"></line></g></g></g><g><g><line x1="0" y1="170.81818181818187" x2="299.21875" y2="170.81818181818187" fill="rgb(0, 0, 0)" stroke="rgb(153, 153, 153)" stroke-width="1.5px"></line></g></g><g><g><line x1="13.934895833333327" y1="0" x2="13.934895833333327" y2="178" fill="rgb(0, 0, 0)" stroke="rgb(153, 153, 153)" stroke-width="1.5px"></line></g></g><g><g><g><g><g><path stroke="rgb(204, 51, 17)" stroke-width="2px" d="M14.04211588541666,122.27272727272721L14.171777343749994,81.20212275034596L14.353802083333326,100.87041183763836L14.508398437499993,95.88757771378178L14.52086588541666,96.33618304072314L14.61811197916666,92.27538287895861L14.710371093749993,86.84931639642211L14.73031901041666,78.29455044043691L15.11930338541666,81.77244359388241L15.273899739583326,78.08003677556002L15.381119791666661,77.62136601685228L15.398574218749992,77.23978873833903L15.518261718749994,70.97873896761998L15.550677083333325,69.81790761773941L15.717740885416658,72.78503392316308L15.952128906249992,66.56590680845589L16.46578776041666,62.893602076856844L16.595449218749994,46.985295301592124L17.261210937499992,51.02084324124208L17.271184895833326,49.85373040342394L17.390872395833327,50.85576102788026L17.40832682291666,49.27855635498484L17.518040364583328,51.21661709606146L18.153880208333327,50.646622421223945L18.261100260416658,53.76716588602205L18.268580729166658,54.41808627429755L18.617669270833325,51.55472100071556L18.71740885416666,49.752863702541504L19.014134114583324,50.97898667182583L19.163743489583325,48.06605722979444L19.420572916666657,43.36726200989939L19.577662760416658,41.711520300474845L19.689869791666656,40.92937214368013L19.894335937499992,42.07854999386654L20.01152994791666,39.08413104064892L20.13371093749999,42.10257974554207L20.136204427083324,42.787921352441735L20.166126302083324,46.26538624040039L20.25090494791666,42.56207766721498L20.63240885416666,44.57888183949114L20.769550781249993,43.42256313841889L21.512610677083327,44.34587564753854L21.991360677083325,47.21540807065784L22.031256510416657,47.63521031912161L22.178372395833325,48.03371259867588L22.958834635416657,49.056436914125804L22.963821614583324,46.52069633849049L23.08849609374999,48.84693852171555L23.26553385416666,50.43605091965133L23.447558593749992,48.84629969442344L23.465013020833325,50.10081565771914L23.73181640624999,50.38180823921775L23.801634114583322,53.0744272562784L24.00111328124999,53.84224022641191L24.400071614583325,52.48566844710713L24.701783854166656,52.37455115004262L24.908743489583323,54.03606119095832L25.13814453124999,50.94265780196129L25.180533854166658,48.85240052180945L25.596946614583324,45.981538361260895L25.876217447916655,46.680155080181606L26.332526041666657,48.20822465866159L26.669147135416658,49.95891625393809L26.73896484374999,44.280913609774984L27.265091145833324,44.46098923697478L27.29999999999999,47.43665096121682L27.77376302083332,46.66930553041586L28.097916666666656,45.93172246084145L28.207630208333324,42.73372382797316L28.419576822916657,43.51324019087513L28.559212239583324,45.63457759316103L28.576666666666654,46.583200560427585L28.666432291666656,45.04668435589385L28.873391927083322,45.19443065885469L29.397024739583323,46.687957855832714L29.444401041666655,49.473359253334415L29.61894531249999,49.204287000292645L30.32958984374999,49.21256400570384L30.401901041666658,49.487320052267236L30.641276041666657,50.81617599140603L30.671197916666657,49.445419912914055L31.02776692708332,50.50367345059304L31.307037760416655,50.99702851893381L31.778307291666653,49.36830239510952L32.34432942708332,49.10866559999553L32.53882161458332,50.69063615775347L32.54630208333332,50.38955325000713L32.66598958333332,49.05650623351224L33.35668619791666,47.249209239701L33.38162109374999,46.282096335893854L33.46889322916665,47.93715765128205L33.86286458333332,47.98561964773539L34.04987630208332,50.09569036215821L34.33413411458332,52.13467528353075L34.43636718749999,53.848251820486404L34.79044270833332,51.91342254106516L34.82535156249999,48.762772331103L35.12706380208332,49.04027775095793L35.15199869791665,50.32954621677265L35.38389322916666,47.498681475878705L36.07458984374999,48.069124140650686L36.199264322916655,48.36672956053279L36.21671874999999,49.162063250233636L36.36134114583332,48.15764472133149L37.02710286458332,47.18596411715425L37.54574869791665,46.75135206862158L37.76018880208332,45.32113291021573L37.792604166666656,47.97117222932529L38.11925130208332,49.52832969609902L38.48080729166666,47.26210235549497L38.64039062499999,47.07891745574775L39.56048828124999,45.14454555500921L39.57794270833332,44.77661573418142L39.867187499999986,43.919434189061064L40.066666666666656,44.59116983448666L40.17388671874998,43.99136953704414L40.38583333333332,43.91023886466185L40.75985677083332,45.8283751729768L40.81720703124999,37.96013166164831L41.12141276041665,40.05831136186969L41.12889322916666,38.85361738362079L41.28099609374999,40.67225733718927L41.30094401041665,40.19631154937106L41.41564453124999,42.96470705438437L41.62011067708332,43.66030302973304L42.41054687499999,44.5821687805837L42.542701822916655,44.97936617931032L42.69231119791666,47.098385157200624L42.77708984374999,43.45656765466595L43.073815104166655,44.13489651373877L43.25833333333332,45.28669977631294L43.78196614583332,45.4140195071226L43.794433593749986,42.57306499883706L44.26819661458332,43.7706353505532L44.582376302083325,42.46338261489959L45.53239583333332,43.416437502035784L46.04605468749999,44.83304322667698L46.20065104166665,46.94507097786433L46.43753255208332,46.52886705677173L46.50485677083332,43.909808572637736L46.624544270833326,39.895025379650185L47.35513671874998,42.64547436308889L47.71419921874998,42.360636373583596L47.84136718749999,42.82192341858537L47.898717447916646,42.5319459406331L48.37248046874999,40.77725278384358L48.55699869791665,43.00469739761676L49.045722656249986,40.25516325297955L49.39730468749998,41.27017730476772L49.57932942708332,41.27301045504272L49.68904296874998,40.54017622385056L49.96083333333332,42.28095522127313L50.43708984374999,38.57747679549325L50.511894531249986,40.621645422289205L50.55927083333332,40.15428894042372L50.788671874999984,42.149622335762416L50.86347656249999,42.61539978249949L51.02305989583332,43.311687477127485L51.07043619791665,43.74209349089204L52.14762369791666,41.713408728948146L52.51915364583332,43.41462499647564L52.52414062499999,46.2864851757014L52.60393229166665,47.115494451148656L53.18491536458331,45.71985438921306L53.24475911458332,45.83263570343349L54.122467447916655,47.65197223705026L54.454101562499986,47.2179130747581L54.63363281249999,47.04122586974471L55.57118489583332,47.602341941472005L55.850455729166654,49.3669494109208L55.970143229166645,47.6611561401053L56.07486979166665,43.810893323264516L56.49128255208331,42.51718119123226L56.56858072916665,42.97029135522275L57.054811197916656,42.677948816591645L57.11714843749998,44.3454426548854L57.17200520833332,45.2309319694566L57.680677083333315,47.79625041025399L57.71558593749998,49.06507491241555L57.78789713541665,49.07680781720736L57.80784505208332,48.844475557458225L58.98227864583332,50.08125292378043L59.94476562499998,49.33142417928175L61.20896484374999,49.82237970882148L61.60293619791665,51.51648497537758L61.73509114583331,49.74941524878008L61.98942708333332,46.817992869312384L62.63773437499998,46.1667853351161L62.90952473958331,46.75272498131334L62.94443359374998,43.42539483562257L63.13643229166665,43.60680895467237L63.42318359374998,42.078741389930094L63.65258463541665,43.76108740388929L63.79471354166665,44.90590804229633L63.894453124999984,45.286095557149146L63.93933593749998,46.62821349493437L63.96177734374998,39.41330960717663L64.15128255208332,40.44520843695981L64.41559244791665,41.68929783010357L64.43554036458332,43.38244751470334L64.61257812499998,41.13240246831663L64.90431640624998,39.193395869687826L65.15117187499999,35.123740600971544L65.15366536458332,34.58167050701029L65.20852213541664,30.894333030214742L65.24841796874998,33.154487426883925L65.74960937499998,32.67169799930477L65.75708984374998,33.662393711680124L65.87927083333331,34.38011935418932L65.9391145833333,36.77816905172711L66.50014973958332,36.91595593708173L66.65973307291665,36.56337863009102L66.82180989583331,38.409286514940256L66.87916015624998,39.713478648762404L67.09609374999998,39.519979028882084L67.27562499999998,41.033754983079554L67.60476562499998,42.50199322747473L68.41514973958331,41.009528402173544L68.80912109374998,39.804988305408514L69.40506510416665,42.52509252349542L69.52225911458332,41.51813869296857L69.61701171874998,43.94358253492068L69.68682942708331,44.8380971261661L69.97108723958331,45.94870867906854L70.88869140624999,44.110124161250596L71.6317513020833,44.513597335858144L71.65668619791664,44.9049418670892L71.7663997395833,43.826754529511504L71.83123046874998,43.266883061056944L71.94343749999999,39.808467842235004L72.00078776041664,40.82692779603528L72.18779947916664,42.54358458507089L72.35236979166665,42.75108513608127L72.63413411458332,44.65280648088331L72.95828776041665,44.06822162891713L72.98571614583331,45.44448722418833L73.03558593749997,46.29359289294801L73.62654296874997,47.36008849546416L73.97812499999998,43.05086069674816L74.14768229166664,44.70043790977775L74.48430338541664,38.52814859683602L74.48929036458331,40.55630744393171L74.58404296874998,42.28067057048953L74.64139322916664,42.01027220255844L75.32959635416664,43.933795826247206L75.57395833333331,46.7709986058757L75.59390624999997,46.60869004664662L76.02777343749999,46.936965020992986L76.11005859374997,48.955336652684586L76.29457682291665,50.18455540613996L76.39182291666664,51.61970518387081L76.60626302083332,53.25459982067654L76.90548177083332,52.412037186671846L77.10246744791665,53.29460679941504L77.24958333333332,53.907846447660816L77.98516276041664,53.77419252123617L78.29934244791664,54.37302351067995L78.3866145833333,55.68233880671739L78.57113281249998,56.466708132567305L78.9326888020833,55.77063559904354L78.99502604166663,57.280776451553166L79.15460937499996,57.2887195119496L79.18951822916665,56.568000560811825L79.52364583333332,56.84013905786343L79.77299479166665,54.918880417808644L79.94005859374998,55.48330314366687L80.75542968749997,54.81679004542333L80.75792317708331,51.25672631825581L80.83522135416665,50.717057162248466L81.61568359374998,52.378718284740955L81.64560546874998,52.04817985413447L81.65557942708331,51.970351186223915L81.65807291666664,51.894858539117806L81.94482421874997,52.30720157651892L82.52082031249998,52.4643853594268L82.76518229166663,52.37406998975259L82.80757161458331,53.25758476323724L82.85245442708332,52.415134719727845L83.31873697916664,50.384084827435856L83.54564453124999,50.84174368730475L83.6304231770833,52.01398894511631L83.67530598958331,52.9082811141321L84.55550781249997,50.619710575488135L84.84724609374997,53.25521697832112L84.8796614583333,55.3260939273869L85.10906249999998,55.63545297271912L85.18137369791664,57.39212458756865L85.27861979166664,56.425665619168065L86.17378255208331,55.97373680530465L86.23861328124997,55.535369871471964L86.34084635416664,57.29501220598318L86.40318359374997,59.001850559325334L86.74977864583332,59.68643160225806L86.90437499999997,59.136676777694646L87.42302083333331,60.54548015253841L87.46291666666663,59.24168466166514L87.64743489583331,60.40457112870058L87.77210937499999,60.076032812548306L88.11122395833331,61.21387796203819L88.31569010416663,62.80308705259979L88.7545442708333,60.217815701526426L88.81937499999997,60.13763675491615L88.9714778645833,55.690343932847284L89.17594401041664,53.318498739747916L89.34799479166664,55.14456693790807L89.45022786458331,56.43034509376761L89.55744791666663,57.4347947353361L89.88658854166664,55.010637508683885L89.91401692708331,56.543170934448476L90.26809244791664,56.57324182720518L90.50248046874998,57.330648282625624L90.53738932291664,58.308074484510435L92.24792317708331,58.042449390577815L92.34018229166665,59.72674868870834L92.97103515624998,60.389536813182666L93.25030598958331,62.003411849511245L93.41238281249997,63.326121509841634L93.4298372395833,62.90994836478675L93.56947265624997,64.20545528152324L93.59191406249997,65.70483384161166L93.73902994791663,64.00359233406078L93.77144531249996,63.56709691292222L94.16292317708331,64.35739890859925L94.2452083333333,62.453851130173625L94.8137239583333,64.00576806767367L95.08052734374998,63.32647103048963L95.36727864583331,63.881248564660545L95.48945963541665,63.205689239244265L95.6290950520833,61.09397014447196L95.95823567708331,62.686674261974815L95.97818359374997,64.23159319700862L96.30732421874997,59.41899560371806L96.6015559895833,59.848260810674326L96.6688802083333,56.38086244263811L96.67386718749997,56.65853776022866L96.89828124999997,57.413354192875055L97.0728255208333,59.60193890763999L97.15760416666664,58.56930038835028L97.22742187499998,58.05311354665482L98.0378059895833,57.0669433282023L98.06024739583331,57.08129910750003L98.09016927083331,58.79436593132904L98.13754557291664,60.21330340438784L98.1799348958333,61.83240442521436L98.3145833333333,61.46105851635083L98.3445052083333,61.34358728585455L98.40684244791665,61.71510739405717L98.49910156249996,62.31821465674984L98.75842447916664,64.11689351516442L98.80580078124999,60.521484222503645L99.06761718749996,60.917666888671775L99.61867838541664,61.54469617025489L99.67104166666664,62.39564622310427L99.80818359374997,62.25013745224514L100.02511718749997,63.565387084811974L100.20963541666664,64.11298162220012L100.66843749999998,64.64414769135726L102.03985677083331,65.88757338410673L102.0922200520833,64.66637895909143L102.11216796874997,65.66640488193514L102.14957031249997,66.63642900514188L102.4138802083333,67.33462022131488L102.63829427083331,68.49732723629415L103.1320052083333,67.19784207246987L103.14945963541663,65.694611762286L103.3264973958333,62.78009506782496L103.58582031249998,64.07943764159008L103.62820963541664,61.21337930834701L103.79527343749999,61.831531509427755L104.31641276041664,62.43113866423599L104.3887239583333,61.556375503072765L105.2714192708333,63.135157724630076L105.34622395833331,64.90930545758353L105.39360026041663,64.68838743643032L105.6155208333333,62.77498758954607L105.74518229166664,63.58901933509649L105.82248046874997,64.13589984384096L105.96460937499997,62.96726571529062L106.6179036458333,58.6782061671944L106.7001888020833,58.158764188858115L107.33104166666664,57.8976352451358L107.41582031249996,59.3434462517893L108.10152994791663,61.23134088379623L108.38080078124997,61.84895125298089L109.1687434895833,62.93349147255286L109.30588541666664,64.47095331569635L109.78463541666663,64.74864500775988L109.82453124999996,63.80436051688652L109.85195963541665,65.07296604251889L110.29081380208329,63.63349435284564L110.43543619791663,64.42176755135151L110.48530598958331,63.73001910269206L110.7845247395833,58.93263362454713L111.13610677083331,56.94918789494538L111.19595052083329,57.69526215503666L111.53506510416663,53.56438043153425L111.77444010416663,53.68381332406947L111.9215559895833,55.2560347411279L111.94898437499997,56.29563190624881L112.93391276041663,58.032226374089646L113.00373046874996,60.444907912956374L113.13089843749997,62.54247985793765L113.3727669270833,63.36348202083445L113.45006510416663,64.88803900685906L113.46253255208329,65.63867385987973L113.72684244791664,66.85224608561076L114.41504557291664,68.27213911462415L114.92371744791663,67.70760904249852L115.29026041666664,68.85911252010018L115.33015624999997,69.97607062883236L115.3401302083333,70.08860710338624L115.4224153645833,71.89686439646086L115.47228515624997,73.40814548356497L115.65430989583331,73.17499124985922L116.27020182291663,69.79336692647983L116.48962890624996,69.66865643608456L116.77887369791662,69.54768728355023L116.84619791666664,68.94489124730526L117.02074218749996,69.81654700851445L117.19029947916663,69.93386910629542L117.39476562499996,69.07675981228977L117.51445312499996,64.1189895019204L117.5543489583333,64.16451084147407L118.34229166666664,64.45139440423708L118.69636718749997,65.45785497527629L118.9980794270833,65.70593808242344L119.27236328124997,66.91748993458033L119.50924479166663,68.09269507030773L119.78602213541663,69.4753716864229L119.83090494791664,71.30202337216753L120.35453776041663,71.37478099752983L121.06767578124997,71.93081136759997L121.11006510416664,72.71288849013192L121.20731119791664,72.25786464581674L121.85063151041663,70.8455807651795L122.44906901041664,72.3883977954663L122.5363411458333,70.97219806081712L122.6709895833333,72.51121641039815L122.75078124999997,72.79042580786424L122.93031249999997,74.27489709638903L122.99763671874997,74.98665122741157L123.0076106770833,74.70614220060615L123.1647005208333,74.67677607588098L123.60106119791664,74.16283574200894L123.63347656249996,74.8779515982834L123.83295572916663,76.78525181618994L123.84292968749996,77.66442260851605L123.93269531249997,78.03176309285041L124.14962890624996,76.93171802647304L124.1670833333333,77.32103964705071L124.27679687499996,76.7277714523454L124.40895182291663,75.42411875927276L125.10962239583331,76.34412340545849L125.25923177083331,75.05198024598381L125.65070963541663,74.52678397209215L125.68561848958329,75.71643610330386L126.05465494791663,75.65676114826103L126.40374348958329,75.59887644504678L126.91740234374996,76.75636567831704L126.93984374999997,77.15094775968082L127.07199869791664,77.53369235942918L127.40861979166664,78.87586444519168L127.49838541666662,80.42049876189236L127.78513671874997,81.43333908175865L128.2364583333333,82.65852159256961L128.72019531249995,82.87603882104311L128.86232421874996,81.87339335393611L129.0593098958333,82.599919294236L129.1490755208333,84.27555912647296L129.43083984374996,84.6872926023286L129.4707356770833,85.32940147464124L129.66772135416664,86.43770188087348L129.8821614583333,87.51275323755038L131.6251106770833,89.04100782440752L131.73233072916662,90.28068732606499L131.88194010416663,90.75499421856513L131.9318098958333,91.4577992817747L132.22105468749996,91.89679278466444L132.3507161458333,92.80807123936683L132.5003255208333,92.47837440931438L132.5900911458333,91.43038635887072L132.72224609374996,92.35565697555084L132.76463541666664,91.06862310470505L132.79954427083328,92.24747396910898L132.8593880208333,93.6336866459286L132.8893098958333,93.76467609533718L132.9865559895833,93.89173585838026L133.02146484374995,95.22862061475516L133.3306575520833,96.28267144551567L133.49273437499997,94.39237249705619L133.55008463541662,95.22878340783704L133.81439453124997,96.04010197548462L134.07621093749998,96.09889893391382L134.19091145833332,96.39865932612426L134.92649088541663,97.41760892575984L135.72939453124997,97.92053534157051L136.07349609374995,89.6701898106144L136.79660807291663,90.4055388517783L136.93125651041663,90.63337274333516L136.99359374999997,90.85437161477012L137.30777343749995,91.06874051688627L137.50974609374998,90.54849636417843L137.6618489583333,91.0147688494522L137.70922526041664,92.4379624539551L138.6268294270833,93.57573290880943L138.75150390624998,94.67937023597811L138.98339843749997,95.74989843012146L139.0232942708333,93.63285561924008L139.09809895833328,93.52114265728578L139.28012369791662,94.3836903504053L139.56438151041664,94.49217965876191L140.18027343749995,95.568323541459L140.18526041666664,93.94218266001636L140.65403645833328,93.82118988828286L141.05299479166663,88.60655338872375L141.4394856770833,89.13108413812974L141.6713802083333,88.91169703674808L141.80852213541664,88.21343693661247L141.95813151041662,89.23521578597536L142.97547526041663,88.76997743269979L143.09516276041663,90.01778736066548L143.1151106770833,87.58725343746974L143.48414713541663,86.20054475791378L143.6013411458333,86.79725575775144L143.7659114583333,87.37606542346597L144.18980468749996,85.02478320179942L144.3269466145833,84.68585785135532L144.47904947916663,85.57073675296712L144.56382812499996,86.42906928211124L144.87052734374996,84.34892427355423L144.91541015624998,84.27300199271245L145.2994075520833,82.74299361074868L145.5986263020833,81.0161581942121L145.85794921874995,79.34112784925344L145.94023437499996,78.20180300928993L146.0998177083333,78.79574896725005L146.12475260416664,80.10005841916912L146.32173828124996,75.78251088211222L146.35914062499995,77.6626720586522L147.09222656249997,78.5155192309407L147.11217447916664,78.12914453615598L147.25929036458328,78.96799752954854L147.29419921874995,61.57713828061499L147.85274088541664,62.912551489927765L147.87019531249996,64.20790229793744L147.88016927083328,58.425301246305594L147.89014322916663,59.12708770423217L148.24172526041664,60.29327513882235L148.32401041666662,60.69629508850556L148.3514388020833,61.81540629518761L148.76535807291663,63.87185330300634L148.80276041666662,66.10933417917629L148.85512369791664,66.09514506220525L148.89252604166663,68.02319989175061L149.18675781249996,70.13614035483992L149.74779296874996,70.4866016142185L150.14425781249997,71.06927631802684L150.1991145833333,67.75083425422311L150.30882812499996,67.68740013313035L150.37864583333328,68.59677816469268L150.59807291666664,69.47887485320675L150.92222656249996,69.36359951246062L151.03443359374995,70.22269155774354L151.56055989583328,69.8423744342104L151.82486979166663,71.17255779130096L151.83235026041663,72.46283564503926L151.8971809895833,73.71440516068185L151.97447916666664,75.17115486868381L152.4208138020833,76.34147480286519L152.43328124999996,76.74850329778778L152.45322916666663,77.62877549620082L152.85717447916664,78.48263952720644L152.98932942708328,79.55361491502752L153.48802734374996,80.59246103954838L153.79971354166665,79.6583235488692L154.33082682291663,80.20857385561851L154.41311197916664,80.25686209562033L154.51783854166663,82.00279263584194L154.6499934895833,82.96816342338184L154.8370052083333,83.90457308604495L154.87191406249994,83.5992540689848L154.8893684895833,84.51673101072437L155.08884765624995,76.66850165537785L155.53518229166662,77.30844661776231L155.61746744791662,77.201011399086L156.0638020833333,78.79589017626897L156.81184895833331,79.85746803467269L156.8268098958333,80.88719855624652L157.27314453124998,81.886037161159L157.96134765624996,82.8549106069699L159.2953645833333,83.55199057208982L159.4225325520833,83.98543086132146L159.65692057291665,76.88132237927684L159.9461653645833,78.7285190971752L160.0833072916666,80.52029991202127L160.15811197916665,81.53014547330406L160.35260416666662,79.83969563314402L160.41992838541663,81.1126865979746L160.4623177083333,82.5902151085563L160.52465494791662,83.29523593617847L161.08818359374996,83.2509243121416L161.12807942708326,84.90703296443034L161.14304036458327,85.54254925493099L161.71155598958327,86.64445460674393L161.82874999999996,87.71330279733584L162.1304622395833,87.77917644132293L162.6092122395833,87.8430738759529L162.64910807291662,88.63323621228915L162.72391276041662,89.1569664032513L162.89097656249996,90.87862106219666L162.92588541666663,91.09226243209767L163.76120442708333,90.8140400114482L163.99309895833332,91.02961881278229L164.0080598958333,91.72418479909611L164.06291666666664,92.64064108001514L164.28733072916665,93.52960367211003L164.73117187499997,94.63462466046836L164.80098958333332,95.70649501872606L165.0328841145833,96.98893654011333L165.2198958333333,97.74745026686088L166.34445963541663,97.75502675890125L166.5514192708333,96.54873958536162L166.72845703124995,97.32045922041102L166.9703255208333,98.06902726614723L167.0002473958333,98.06695644815164L167.13240234375,99.03585685069059L167.37177734374998,99.004781145012L167.73582682291664,100.18827408012997L168.88033854166665,101.09353495296223L169.0798177083333,101.9716379993538L169.8203841145833,103.06612522793192L169.89768229166663,103.88505056557563L169.91763020833332,104.4366808691245L170.71305338541666,105.45721681087609L171.08707682291666,105.47622757935275L171.57580078125,105.98012257210009L171.91990234374998,105.98344616767682L172.0944466145833,106.2293973289948L172.09694010416663,106.46796995542041L172.30639322916662,106.4566581294464L172.7003645833333,106.20295838472161L172.97464843749998,107.17050599992895L173.18410156249996,105.19629990467962L173.49080078125,106.19404727419568L173.76508463541666,105.94822585524805L173.95209635416666,106.4379608991672L174.08175781249997,106.42754934489068L174.79489583333333,107.14563195737729L174.81983072916665,107.35671754465918L174.8248177083333,107.80419783762946L175.23374999999996,107.02461735513945L175.7374348958333,107.72478792705535L175.98678385416665,108.16122610842982L176.0142122395833,107.61366205122742L176.14886067708332,106.59707036930772L176.62511718749997,105.6109764379757L176.69742838541663,104.41173805148425L176.74231119791665,104.46211318276656L176.94927083333332,103.7827952405269L177.13628255208332,104.33749320252424L177.21358072916664,103.66191385977557L177.32828124999997,98.63751098064716L177.51279947916666,96.91929473922116L177.61752604166665,95.49535225833706L177.78209635416664,95.81321896382173L178.27580729166664,95.3933678488023L178.3780403645833,93.77247590181227L178.62988281249997,95.11293799034762L179.25076171874997,71.65500436293429L179.83922526041664,73.41626332537017L180.12098958333328,74.39650269964001L180.47007812499996,75.83278943868551L180.87152994791663,77.22598757545013L180.94134765624997,78.33466249498689L181.05355468749997,79.65280443987108L182.09832682291662,79.2323112152856L182.18310546874997,79.55261460645461L182.28035156249996,80.59149071483186L184.15046875,82.32738235883264L184.1529622395833,83.04028816151572L184.19535156249998,82.5181704252491L184.4372200520833,74.00171621348072L184.5643880208333,73.99348290888688L184.77134765624996,74.47095114932036L184.96583984375,75.90500443426767L185.81113281249998,77.78149066645635L185.95824869791664,79.11622776573486L186.41455729166663,80.41092275197059L186.41705078124997,79.72495870524784L186.4494661458333,81.24411903613215L186.80104817708332,82.96043182992582L186.92572265624995,84.1398006940372L187.1227083333333,84.7983339463915L187.1750716145833,72.57256573811178L187.6388606770833,74.30629785798754L187.7061848958333,74.04619983117728L187.7809895833333,75.00754110954834L187.97797526041666,75.69731487666498L188.26971354166662,76.12366815787942L189.62367838541664,77.99359447780748L189.63365234374996,79.80742300807698L189.7109505208333,81.32410940952836L189.8007161458333,82.79529521888985L189.9278841145833,84.22234545392685L190.11738932291664,85.36385690902982L190.76320312499996,86.71385029328627L190.96517578124997,88.02334387597851L191.65337890624997,88.80809810549184L191.75810546874996,87.1420369798125L192.04236328124995,88.68141223467863L192.35654296874995,89.20369714057097L192.4213736979166,90.68122259055384L192.71061848958328,92.11442227700395L193.09461588541666,91.56280779031403L193.2342513020833,92.48410537510719L193.3614192708333,91.92140039548211L193.41627604166663,92.83194020209777L193.49856119791664,93.2297092688885L193.5608984375,93.37281799086595L193.9598567708333,94.23981526958102L194.15434895833332,95.32352990271696L194.20671223958328,96.37473309684027L194.20920572916663,97.3944001951224L194.21419270833331,98.62620455323112L194.46852864583332,99.57832750778775L194.4760091145833,100.74461404648096L194.57574869791665,101.14773017063844L194.86000651041664,100.56784371992885L195.27143229166663,101.70444477222568L195.64545572916666,102.56422052015758L195.83246744791666,103.15547572286111L195.98457031249998,103.9717205422537L196.40846354166663,104.76347801705451L196.75505859374996,103.58966458540466L197.82725911458328,103.17924737503753L197.92949218749996,104.2375063176171L197.94195963541665,104.05038112805528L198.0591536458333,104.83977878525913L198.2087630208333,104.87731269443492L198.26611328124997,105.64190240463526L198.48304687499996,105.41264533246003L198.92190104166662,106.16117506350983L198.93935546874997,107.12997617538466L200.61248697916662,107.82698598113252L200.70225260416663,108.7458127654632L201.2981966145833,107.69525656417521L201.37549479166665,107.88985341273006L202.11855468749997,108.80679417410137L202.16343749999996,109.21077216711008L202.36291666666665,109.84535809308194L202.5175130208333,99.53817916727259L202.68707031249997,100.70567015602249L203.26306640624995,101.1099545968406L203.2680533854166,102.23029232269063L203.5822330729166,102.83156537125362L203.68945312499994,103.65752750110762L203.98617838541665,104.21598349431028L204.51729166666664,104.27223126221352L204.64445963541664,105.29770068807696L205.00352213541663,106.29240603115898L205.12071614583328,106.52908839569903L205.20050781249995,106.03048847105931L205.41245442708328,107.00321018064238L205.70169921874995,107.21856842069452L205.7191536458333,107.42746591354408L205.74658203124997,108.11555102709752L206.11811197916663,109.02572085998598L206.4297981770833,109.90858559788396L206.74397786458331,110.52223712089777L207.08309244791664,110.87475182547564L207.25763671874998,111.2166910889148L207.53940104166662,111.30564490170735L207.93586588541663,112.12011191834097L208.18272135416663,112.91014492447269L208.66147135416665,113.6764769404178L208.76619791666664,113.44890990492017L208.94822265624995,114.19907897144844L209.09035156249996,114.44128842049919L210.36203124999994,114.19077704059907L210.53158854166662,114.67596282031352L210.7235872395833,115.14659302663514L210.75849609374995,115.36037705402757L210.85574218749997,115.81047483333558L210.93553385416664,116.48979695200079L211.21231119791665,116.42055758889245L211.69355468749998,115.62521358846655L211.86560546874998,116.31009354447552L211.96534505208328,116.97442710180266L212.41167968749997,117.61883065240849L212.46902994791662,118.00117482375889L212.65853515624994,118.61477594270359L212.94777994791662,118.96724175534334L213.01011718749996,119.55186086633833L213.33676432291665,119.39075958579762L213.35421874999994,119.71994588914283L213.41156901041663,119.79652933065263L213.49385416666664,119.87081526891699L213.50382812499998,118.97196353809723L213.66590494791663,119.31371372287259L213.8279817708333,119.40248412937055L214.2917708333333,119.24586415094004L214.3890169270833,119.57939731732911L214.4289127604166,119.66019721599298L214.7879752604166,119.73857311769684L214.85280598958332,120.3000522878149L214.94506510416662,119.14559617370075L215.47617838541663,119.48213737940594L215.57342447916665,119.80858234893955L215.5784114583333,120.12523396938674L215.77539713541663,120.67511331395212L215.90007161458328,121.20849627817988L215.94744791666665,120.75496866255351L216.20178385416665,120.80050142085953L216.86006510416664,120.60194092368492L217.14182942708328,120.40933724142572L217.22910156249995,120.950693487828L218.28384765624997,121.47580904683771L218.60301432291664,121.74244386634571L219.0269075520833,122.24380691399905L219.4782291666666,122.2446745247609L219.6178645833333,108.6527888342851L219.71511067708332,108.57593244198281L220.01931640624997,108.2586544687192L220.12154947916665,108.19362210738409L220.23874348958327,108.13054071688904L220.32352213541662,108.79753358629935L220.47562499999998,109.68724394235697L220.52050781249997,110.55026298773224L220.70751953124997,111.38739146174568L221.08403645833332,112.19940608153819L221.21369791666663,112.74433299000667L221.56278645833328,113.51563936395046L222.1687044270833,113.05017018302746L222.7970638020833,113.8123014411801L223.19851562499997,113.82338694339933L223.31820312499997,113.10595806236381L223.80194010416665,113.8664156841357L223.88173177083328,114.60405957725406L223.90167968749995,115.3195741535785L224.02635416666664,116.01362329261289L224.37294921874997,116.2013964120177L224.41035156249995,115.65535451965322L224.57492187499994,115.61114842951784L224.88910156249995,116.29645034027338L225.1010481770833,116.71846592097705L225.2356966145833,117.12782103425948L225.4301888020833,117.52489549414327L225.78426432291664,117.18187590204415L225.93387369791662,117.82005598862295L225.97376953124996,118.43909067260415L226.01366536458332,118.7968270433371L226.10592447916662,119.14383132294793L226.30540364583328,119.48042547417035L226.48992187499996,120.04964907358446L226.68192057291662,120.601795965016L227.15069661458327,121.13737844970441L227.22799479166662,121.17143891439524L227.31027994791663,121.20447756514538L227.46986328124996,121.47925232910129L227.56710937499994,121.74578385013845L227.59453776041664,122.2470466982727L227.75162760416663,122.24781711550635L228.3400911458333,122.73401896567938L228.41240234375,123.20563476034712L228.5794661458333,123.66310208117471L229.50455078124995,124.10684538237739L229.89104166666664,124.53727638454392L229.9783138020833,124.71206718391727L229.99576822916663,124.88161425930936L230.3224153645833,125.28880219516772L230.35483072916662,125.1983199474942L230.46953124999996,125.35327943997893L230.53436197916662,125.50359014768907L230.66901041666665,125.40666426143994L230.8909309895833,125.79810069723418L231.85092447916662,126.17779403995448L231.9930533854166,126.54609658239312L232.25736328124995,126.90335004855858L232.41944010416663,127.00715863801115L232.53164713541662,127.10785296978013L232.90816406249996,126.7200719261404L232.93808593749995,126.82937885926553L233.43678385416663,127.17813385712466L233.59636718749996,127.03097165959244L233.6736653645833,127.13095160071394L233.70608072916664,127.22793214360179L234.29703776041663,127.32200327020298L234.46410156249996,127.65597953573388L235.0450846354166,127.25175469511568L235.27448567708328,127.34511114517147L235.39666666666662,126.95021235627021L235.6634700520833,127.05261507649136L236.2544270833333,126.66649116965058L236.51125651041662,126.53467825274267L236.72320312499997,126.40681972334202L236.7630989583333,126.76825149527865L237.71561197916662,126.87611304132952L237.75800130208327,127.22346601372645L238.03477864583328,127.56039839695146L238.08215494791665,127.6444955359521L238.28412760416663,126.99788794260004L238.4237630208333,127.09886039523124L238.43872395833327,127.19680367428352L238.94240885416662,127.29180865496419L239.11445963541664,127.14123621349691L239.14687499999997,127.23790821800121L239.47352213541663,126.84622551691531L240.64546223958328,127.19447511504455L241.0294596354166,127.53227722522989L241.07932942708328,127.61721799938216L241.59298828124994,127.45688327758239L241.83735026041663,127.78681314289156L241.95454427083328,128.10684511224144L242.02685546874997,127.93182157705587L242.40087890624997,128.2475032933808L242.45074869791662,128.31098728548852L242.4582291666666,128.61529403056048L242.6128255208333,128.9104715732802L242.67017578124995,128.95406651699093L242.67765624999996,129.23908088511774L243.17884765624996,127.57372664038131L243.36087239583327,127.65742393207901L243.57281901041662,127.98133757775321L243.63764973958328,128.05280654132974L243.95182942708328,126.9084950723619L244.1089192708333,127.01214931110019L244.94922526041663,127.11269392267634L245.15618489583326,127.45294946863258L245.30330078124993,127.29754280275534L245.30828776041662,127.6322528823092L245.38558593749994,127.71419438674906L245.56262369791662,127.06549582787356L246.1461002604166,127.40716731667388L246.38796874999994,127.01040684262802L247.00635416666663,127.1110037282583L247.51003906249994,127.45130998004707L248.07855468749995,127.78140704428216L248.47751302083327,127.61614665113544L249.27293619791664,126.9703895243284L249.36270182291662,121.73218692950569L249.3826497395833,122.23385768525706L249.6619205729166,122.72047831833588L249.7566731770833,123.19250033242231L250.2803059895833,123.65036168608617L250.54710937499993,123.85175992641271L250.8937044270833,124.28984349225685L250.9610286458333,124.47205727839828L251.2777018229166,124.40607737822813L251.61930989583328,124.82753142051777L251.75894531249995,125.23634184153869L251.83873697916664,125.63288794992901L252.0157747395833,126.01753767506762L252.1080338541666,126.1479206357247L252.96330078124996,126.51711938028943L253.18522135416663,126.87524216251718L253.24257161458328,126.73716671582346L253.3921809895833,126.84596080525786L253.41212890624993,127.19421834473658L253.62158203124994,127.5320281580309L254.06292968749995,127.61697640419908L254.26240885416664,127.94210347570954L254.47186197916662,127.77202218962003L254.57160156249998,127.84977061484054L254.64640624999996,128.16791386003175L254.80848307291663,128.4765128078672L254.8882747395833,128.53312651454027L255.85076171874994,128.34531453728587L256.1948632812499,128.64859146480373L256.36940755208326,128.942770084496L256.54395182291665,129.22812334559754L256.63870442708327,129.504916008866L256.8431705729166,129.7734048922364L256.9528841145833,130.0338391091057L257.10249348958325,130.28646029946896L257.2919986979166,130.5315028541213L257.43412760416663,130.76919413213403L257.6560481770833,130.99975467180641L257.78321614583325,131.2233983952886L257.7906966145833,130.95487826161175L257.99017578124995,131.17986827739978L258.2644596354166,131.39810859271415L258.28939453124997,131.12434715311454L258.6459635416666,131.34425310215747L258.82798828124993,130.82938005454724L259.30673828125,131.05813501654723L259.48128255208326,131.03730005695988L259.6034635416666,130.7743628734329L259.6483463541666,131.0047683508663L259.80792968749995,130.7428071185221L260.1794596354166,130.97415926860282L260.7679231770833,131.19857085418113L260.92999999999995,130.6880682740102L261.4661002604166,130.92106258942627L262.0545638020833,131.14706707537985L262.1069270833333,131.36629142675483L262.3188736979166,131.33621177486128L262.3238606770833,131.54976178525183L262.99710286458327,131.75690529533065L263.2389713541666,131.71510722737978L263.28385416666663,131.91729037419478" style="fill: none;" fill="none"></path></g></g></g></g><g opacity="0.2"><g><g><g><path stroke="rgb(204, 51, 17)" stroke-width="2px" d="M14.04211588541666,122.27272727272721L14.171777343749994,41.36363636363612L14.353802083333326,138.45454545454544L14.508398437499993,81.81818181818167L14.52086588541666,97.99999999999989L14.61811197916666,73.72727272727258L14.710371093749993,57.54545454545435L14.73031901041666,25.181818181817892L15.11930338541666,106.09090909090901L15.273899739583326,49.45454545454524L15.381119791666661,73.72727272727258L15.398574218749992,73.72727272727258L15.518261718749994,8.999999999999686L15.550677083333325,57.54545454545435L15.717740885416658,106.09090909090901L15.952128906249992,-7.181818181818521L16.46578776041666,17.090909090908788L16.595449218749994,-160.90909090909162L17.261210937499992,106.09090909090901L17.271184895833326,33.27272727272702L17.390872395833327,65.63636363636347L17.40832682291666,25.181818181817892L17.518040364583328,81.81818181818167L18.153880208333327,41.36363636363612L18.261100260416658,106.09090909090901L18.268580729166658,65.63636363636347L18.617669270833325,0.9090909090905628L18.71740885416666,17.090909090908788L19.014134114583324,73.72727272727258L19.163743489583325,-7.181818181818521L19.420572916666657,-47.636363636364095L19.577662760416658,8.999999999999686L19.689869791666656,25.181818181817892L19.894335937499992,65.63636363636347L20.01152994791666,-23.36363636363677L20.13371093749999,106.09090909090901L20.136204427083324,57.54545454545435L20.166126302083324,122.27272727272721L20.25090494791666,-39.54545454545497L20.63240885416666,89.90909090909079L20.769550781249993,17.090909090908788L21.512610677083327,65.63636363636347L21.991360677083325,114.18181818181812L22.031256510416657,57.54545454545435L22.178372395833325,57.54545454545435L22.958834635416657,73.72727272727258L22.963821614583324,-15.272727272727645L23.08849609374999,106.09090909090901L23.26553385416666,89.90909090909079L23.447558593749992,8.999999999999686L23.465013020833325,81.81818181818167L23.73181640624999,57.54545454545435L23.801634114583322,122.27272727272721L24.00111328124999,73.72727272727258L24.400071614583325,17.090909090908788L24.701783854166656,49.45454545454524L24.908743489583323,97.99999999999989L25.13814453124999,-31.45454545454585L25.596946614583324,-31.45454545454585L25.876217447916655,65.63636363636347L26.332526041666657,89.90909090909079L26.669147135416658,97.99999999999989L26.73896484374999,-112.36363636363697L27.265091145833324,49.45454545454524L27.29999999999999,130.36363636363635L27.77376302083332,25.181818181817892L28.097916666666656,25.181818181817892L28.207630208333324,-47.636363636364095L28.419576822916657,65.63636363636347L28.559212239583324,106.09090909090901L28.576666666666654,73.72727272727258L28.666432291666656,0.9090909090905628L28.873391927083322,49.45454545454524L29.397024739583323,89.90909090909079L29.444401041666655,130.36363636363635L29.61894531249999,41.36363636363612L30.32958984374999,49.45454545454524L30.401901041666658,57.54545454545435L30.641276041666657,89.90909090909079L30.671197916666657,8.999999999999686L31.02776692708332,81.81818181818167L31.307037760416655,65.63636363636347L31.778307291666653,0.9090909090905628L32.34432942708332,41.36363636363612L32.53882161458332,97.99999999999989L32.54630208333332,41.36363636363612L32.66598958333332,8.999999999999686L33.35668619791666,-7.181818181818521L33.38162109374999,17.090909090908788L33.46889322916665,97.99999999999989L33.86286458333332,49.45454545454524L34.04987630208332,114.18181818181812L34.33413411458332,114.18181818181812L34.43636718749999,106.09090909090901L34.79044270833332,-7.181818181818521L34.82535156249999,-47.636363636364095L35.12706380208332,57.54545454545435L35.15199869791665,89.90909090909079L35.38389322916666,-39.54545454545497L36.07458984374999,65.63636363636347L36.199264322916655,57.54545454545435L36.21671874999999,73.72727272727258L36.36134114583332,17.090909090908788L37.02710286458332,17.090909090908788L37.54574869791665,33.27272727272702L37.76018880208332,0.9090909090905628L37.792604166666656,130.36363636363635L38.11925130208332,97.99999999999989L38.48080729166666,-23.36363636363677L38.64039062499999,41.36363636363612L39.56048828124999,-15.272727272727645L39.57794270833332,33.27272727272702L39.867187499999986,17.090909090908788L40.066666666666656,65.63636363636347L40.17388671874998,25.181818181817892L40.38583333333332,41.36363636363612L40.75985677083332,106.09090909090901L40.81720703124999,-209.45454545454623L41.12141276041665,106.09090909090901L41.12889322916666,0.9090909090905628L41.28099609374999,97.99999999999989L41.30094401041665,25.181818181817892L41.41564453124999,130.36363636363635L41.62011067708332,65.63636363636347L42.41054687499999,73.72727272727258L42.542701822916655,57.54545454545435L42.69231119791666,114.18181818181812L42.77708984374999,-71.90909090909143L43.073815104166655,65.63636363636347L43.25833333333332,81.81818181818167L43.78196614583332,49.45454545454524L43.794433593749986,-47.636363636364095L44.26819661458332,81.81818181818167L44.582376302083325,0.9090909090905628L45.53239583333332,73.72727272727258L46.04605468749999,89.90909090909079L46.20065104166665,114.18181818181812L46.43753255208332,33.27272727272702L46.50485677083332,-39.54545454545497L46.624544270833326,-88.09090909090963L47.35513671874998,130.36363636363635L47.71419921874998,33.27272727272702L47.84136718749999,57.54545454545435L47.898717447916646,33.27272727272702L48.37248046874999,-15.272727272727645L48.55699869791665,114.18181818181812L49.045722656249986,-47.636363636364095L49.39730468749998,73.72727272727258L49.57932942708332,41.36363636363612L49.68904296874998,17.090909090908788L49.96083333333332,97.99999999999989L50.43708984374999,-80.00000000000051L50.511894531249986,106.09090909090901L50.55927083333332,25.181818181817892L50.788671874999984,106.09090909090901L50.86347656249999,57.54545454545435L51.02305989583332,65.63636363636347L51.07043619791665,57.54545454545435L52.14762369791666,-23.36363636363677L52.51915364583332,97.99999999999989L52.52414062499999,138.45454545454544L52.60393229166665,73.72727272727258L53.18491536458331,0.9090909090905628L53.24475911458332,49.45454545454524L54.122467447916655,106.09090909090901L54.454101562499986,33.27272727272702L54.63363281249999,41.36363636363612L55.57118489583332,65.63636363636347L55.850455729166654,106.09090909090901L55.970143229166645,-7.181818181818521L56.07486979166665,-80.00000000000051L56.49128255208331,0.9090909090905628L56.56858072916665,57.54545454545435L57.054811197916656,33.27272727272702L57.11714843749998,97.99999999999989L57.17200520833332,73.72727272727258L57.680677083333315,130.36363636363635L57.71558593749998,89.90909090909079L57.78789713541665,49.45454545454524L57.80784505208332,41.36363636363612L58.98227864583332,89.90909090909079L59.94476562499998,25.181818181817892L61.20896484374999,65.63636363636347L61.60293619791665,106.09090909090901L61.73509114583331,-7.181818181818521L61.98942708333332,-47.636363636364095L62.63773437499998,25.181818181817892L62.90952473958331,65.63636363636347L62.94443359374998,-63.8181818181823L63.13643229166665,49.45454545454524L63.42318359374998,-7.181818181818521L63.65258463541665,97.99999999999989L63.79471354166665,81.81818181818167L63.894453124999984,57.54545454545435L63.93933593749998,89.90909090909079L63.96177734374998,-193.27272727272808L64.15128255208332,73.72727272727258L64.41559244791665,81.81818181818167L64.43554036458332,97.99999999999989L64.61257812499998,-31.45454545454585L65.15117187499999,-96.18181818181876L65.15366536458332,17.090909090908788L65.20852213541664,-88.09090909090963L65.24841796874998,106.09090909090901L65.74960937499998,17.090909090908788L65.75708984374998,65.63636363636347L65.87927083333331,57.54545454545435L65.9391145833333,114.18181818181812L66.50014973958332,41.36363636363612L66.65973307291665,25.181818181817892L66.82180989583331,97.99999999999989L66.87916015624998,81.81818181818167L67.09609374999998,33.27272727272702L67.27562499999998,89.90909090909079L67.60476562499998,89.90909090909079L68.41514973958331,-7.181818181818521L68.80912109374998,0.9090909090905628L69.40506510416665,130.36363636363635L69.52225911458332,8.999999999999686L69.61701171874998,122.27272727272721L69.68682942708331,73.72727272727258L69.97108723958331,81.81818181818167L70.88869140624999,-15.272727272727645L71.6317513020833,57.54545454545435L71.65668619791664,57.54545454545435L71.7663997395833,8.999999999999686L71.83123046874998,25.181818181817892L71.94343749999999,-71.90909090909143L72.00078776041664,73.72727272727258L72.18779947916664,97.99999999999989L72.35236979166665,49.45454545454524L72.63413411458332,106.09090909090901L72.95828776041665,25.181818181817892L72.98571614583331,89.90909090909079L73.03558593749997,73.72727272727258L73.62654296874997,81.81818181818167L73.97812499999998,-96.18181818181876L74.14768229166664,97.99999999999989L74.48430338541664,-160.90909090909162L74.48929036458331,106.09090909090901L74.58404296874998,97.99999999999989L74.64139322916664,33.27272727272702L75.32959635416664,106.09090909090901L75.57395833333331,138.45454545454544L75.59390624999997,41.36363636363612L76.02777343749999,57.54545454545435L76.11005859374997,114.18181818181812L76.29457682291665,89.90909090909079L76.39182291666664,97.99999999999989L76.60626302083332,106.09090909090901L76.90548177083332,25.181818181817892L77.10246744791665,81.81818181818167L77.24958333333332,73.72727272727258L77.98516276041664,49.45454545454524L78.29934244791664,73.72727272727258L78.3866145833333,97.99999999999989L78.57113281249998,81.81818181818167L78.9326888020833,33.27272727272702L78.99502604166663,106.09090909090901L79.15460937499996,57.54545454545435L79.18951822916665,33.27272727272702L79.52364583333332,65.63636363636347L79.77299479166665,-7.181818181818521L79.94005859374998,73.72727272727258L80.75542968749997,33.27272727272702L80.75792317708331,-63.8181818181823L80.83522135416665,33.27272727272702L81.61568359374998,106.09090909090901L81.64560546874998,41.36363636363612L81.65557942708331,49.45454545454524L81.65807291666664,49.45454545454524L81.94482421874997,65.63636363636347L82.52082031249998,57.54545454545435L82.76518229166663,49.45454545454524L82.80757161458331,81.81818181818167L82.85245442708332,25.181818181817892L83.31873697916664,-15.272727272727645L83.54564453124999,65.63636363636347L83.6304231770833,89.90909090909079L83.67530598958331,81.81818181818167L84.55550781249997,-23.36363636363677L84.84724609374997,138.45454545454544L84.8796614583333,122.27272727272721L85.10906249999998,65.63636363636347L85.18137369791664,114.18181818181812L85.27861979166664,25.181818181817892L86.17378255208331,41.36363636363612L86.23861328124997,41.36363636363612L86.34084635416664,114.18181818181812L86.40318359374997,114.18181818181812L86.74977864583332,81.81818181818167L86.90437499999997,41.36363636363612L87.42302083333331,106.09090909090901L87.46291666666663,17.090909090908788L87.64743489583331,97.99999999999989L87.77210937499999,49.45454545454524L88.11122395833331,97.99999999999989L88.31569010416663,114.18181818181812L88.7545442708333,-23.36363636363677L88.81937499999997,57.54545454545435L88.9714778645833,-88.09090909090963L89.17594401041664,-23.36363636363677L89.34799479166664,114.18181818181812L89.45022786458331,97.99999999999989L89.55744791666663,89.90909090909079L89.88658854166664,-23.36363636363677L89.91401692708331,106.09090909090901L90.26809244791664,57.54545454545435L90.50248046874998,81.81818181818167L90.53738932291664,89.90909090909079L92.24792317708331,49.45454545454524L92.34018229166665,114.18181818181812L92.97103515624998,81.81818181818167L93.25030598958331,114.18181818181812L93.41238281249997,106.09090909090901L93.4298372395833,49.45454545454524L93.56947265624997,106.09090909090901L93.59191406249997,114.18181818181812L93.73902994791663,8.999999999999686L93.77144531249996,49.45454545454524L94.16292317708331,89.90909090909079L94.2452083333333,0.9090909090905628L94.8137239583333,114.18181818181812L95.08052734374998,41.36363636363612L95.36727864583331,81.81818181818167L95.48945963541665,41.36363636363612L95.6290950520833,-7.181818181818521L95.95823567708331,114.18181818181812L95.97818359374997,114.18181818181812L96.30732421874997,-96.18181818181876L96.6015559895833,73.72727272727258L96.6688802083333,-55.72727272727318L96.67386718749997,65.63636363636347L96.89828124999997,81.81818181818167L97.0728255208333,130.36363636363635L97.15760416666664,25.181818181817892L97.22742187499998,41.36363636363612L98.0378059895833,25.181818181817892L98.06024739583331,57.54545454545435L98.09016927083331,114.18181818181812L98.13754557291664,106.09090909090901L98.1799348958333,114.18181818181812L98.3145833333333,49.45454545454524L98.3445052083333,57.54545454545435L98.40684244791665,73.72727272727258L98.49910156249996,81.81818181818167L98.75842447916664,122.27272727272721L98.80580078124999,-55.72727272727318L99.06761718749996,73.72727272727258L99.61867838541664,81.81818181818167L99.67104166666664,89.90909090909079L99.80818359374997,57.54545454545435L100.02511718749997,106.09090909090901L100.20963541666664,81.81818181818167L100.66843749999998,81.81818181818167L102.03985677083331,106.09090909090901L102.0922200520833,25.181818181817892L102.11216796874997,97.99999999999989L102.14957031249997,97.99999999999989L102.4138802083333,89.90909090909079L102.63829427083331,106.09090909090901L103.1320052083333,25.181818181817892L103.14945963541663,17.090909090908788L103.3264973958333,-31.45454545454585L103.58582031249998,106.09090909090901L103.62820963541664,-31.45454545454585L103.79527343749999,81.81818181818167L104.31641276041664,81.81818181818167L104.3887239583333,33.27272727272702L105.2714192708333,114.18181818181812L105.34622395833331,122.27272727272721L105.39360026041663,57.54545454545435L105.6155208333333,0.9090909090905628L105.74518229166664,89.90909090909079L105.82248046874997,81.81818181818167L105.96460937499997,25.181818181817892L106.6179036458333,-80.00000000000051L106.7001888020833,41.36363636363612L107.33104166666664,49.45454545454524L107.41582031249996,106.09090909090901L108.10152994791663,122.27272727272721L108.38080078124997,81.81818181818167L109.1687434895833,97.99999999999989L109.30588541666664,114.18181818181812L109.78463541666663,73.72727272727258L109.82453124999996,33.27272727272702L109.85195963541665,106.09090909090901L110.29081380208329,17.090909090908788L110.43543619791663,89.90909090909079L110.48530598958331,41.36363636363612L110.7845247395833,-96.18181818181876L111.13610677083331,-7.181818181818521L111.19595052083329,81.81818181818167L111.53506510416663,-80.00000000000051L111.77444010416663,57.54545454545435L111.9215559895833,106.09090909090901L111.94898437499997,89.90909090909079L112.93391276041663,114.18181818181812L113.00373046874996,138.45454545454544L113.13089843749997,130.36363636363635L113.3727669270833,89.90909090909079L113.45006510416663,114.18181818181812L113.46253255208329,89.90909090909079L113.72684244791664,106.09090909090901L114.41504557291664,114.18181818181812L114.92371744791663,49.45454545454524L115.29026041666664,106.09090909090901L115.33015624999997,106.09090909090901L115.3401302083333,73.72727272727258L115.4224153645833,130.36363636363635L115.47228515624997,122.27272727272721L115.65430989583331,65.63636363636347L116.27020182291663,-39.54545454545497L116.48962890624996,65.63636363636347L116.77887369791662,65.63636363636347L116.84619791666664,49.45454545454524L117.02074218749996,97.99999999999989L117.19029947916663,73.72727272727258L117.39476562499996,41.36363636363612L117.51445312499996,-96.18181818181876L117.5543489583333,65.63636363636347L118.34229166666664,73.72727272727258L118.69636718749997,97.99999999999989L118.9980794270833,73.72727272727258L119.27236328124997,106.09090909090901L119.50924479166663,106.09090909090901L119.78602213541663,114.18181818181812L119.83090494791664,130.36363636363635L120.35453776041663,73.72727272727258L121.06767578124997,89.90909090909079L121.11006510416664,97.99999999999989L121.20731119791664,57.54545454545435L121.85063151041663,25.181818181817892L122.44906901041664,122.27272727272721L122.5363411458333,25.181818181817892L122.6709895833333,122.27272727272721L122.75078124999997,81.81818181818167L122.93031249999997,122.27272727272721L122.99763671874997,97.99999999999989L123.0076106770833,65.63636363636347L123.1647005208333,73.72727272727258L123.60106119791664,57.54545454545435L123.63347656249996,97.99999999999989L123.83295572916663,138.45454545454544L123.84292968749996,106.09090909090901L123.93269531249997,89.90909090909079L124.14962890624996,41.36363636363612L124.1670833333333,89.90909090909079L124.27679687499996,57.54545454545435L124.40895182291663,33.27272727272702L125.10962239583331,106.09090909090901L125.25923177083331,33.27272727272702L125.65070963541663,57.54545454545435L125.68561848958329,114.18181818181812L126.05465494791663,73.72727272727258L126.40374348958329,73.72727272727258L126.91740234374996,114.18181818181812L126.93984374999997,89.90909090909079L127.07199869791664,89.90909090909079L127.40861979166664,122.27272727272721L127.49838541666662,130.36363636363635L127.78513671874997,114.18181818181812L128.2364583333333,122.27272727272721L128.72019531249995,89.90909090909079L128.86232421874996,49.45454545454524L129.0593098958333,106.09090909090901L129.1490755208333,138.45454545454544L129.43083984374996,97.99999999999989L129.4707356770833,106.09090909090901L129.66772135416664,122.27272727272721L129.8821614583333,122.27272727272721L131.6251106770833,138.45454545454544L131.73233072916662,130.36363636363635L131.88194010416663,106.09090909090901L131.9318098958333,114.18181818181812L132.22105468749996,106.09090909090901L132.3507161458333,122.27272727272721L132.5003255208333,81.81818181818167L132.5900911458333,57.54545454545435L132.72224609374996,122.27272727272721L132.76463541666664,49.45454545454524L132.79954427083328,130.36363636363635L132.8593880208333,138.45454545454544L132.8893098958333,97.99999999999989L132.9865559895833,97.99999999999989L133.02146484374995,138.45454545454544L133.3306575520833,130.36363636363635L133.49273437499997,33.27272727272702L133.55008463541662,122.27272727272721L133.81439453124997,122.27272727272721L134.07621093749998,97.99999999999989L134.19091145833332,106.09090909090901L134.92649088541663,130.36363636363635L135.72939453124997,114.18181818181812L136.07349609374995,-177.09090909090983L136.79660807291663,114.18181818181812L136.93125651041663,97.99999999999989L136.99359374999997,97.99999999999989L137.30777343749995,97.99999999999989L137.50974609374998,73.72727272727258L137.6618489583333,106.09090909090901L137.70922526041664,138.45454545454544L138.6268294270833,130.36363636363635L138.75150390624998,130.36363636363635L138.98339843749997,130.36363636363635L139.0232942708333,25.181818181817892L139.09809895833328,89.90909090909079L139.28012369791662,122.27272727272721L139.56438151041664,97.99999999999989L140.18027343749995,130.36363636363635L140.18526041666664,41.36363636363612L140.65403645833328,89.90909090909079L141.05299479166663,-80.00000000000051L141.4394856770833,106.09090909090901L141.6713802083333,81.81818181818167L141.80852213541664,65.63636363636347L141.95813151041662,122.27272727272721L142.97547526041663,73.72727272727258L143.09516276041663,130.36363636363635L143.1151106770833,8.999999999999686L143.48414713541663,41.36363636363612L143.6013411458333,106.09090909090901L143.7659114583333,106.09090909090901L144.18980468749996,8.999999999999686L144.3269466145833,73.72727272727258L144.47904947916663,114.18181818181812L144.56382812499996,114.18181818181812L144.87052734374996,17.090909090908788L144.91541015624998,81.81818181818167L145.2994075520833,33.27272727272702L145.5986263020833,25.181818181817892L145.85794921874995,25.181818181817892L145.94023437499996,41.36363636363612L146.0998177083333,97.99999999999989L146.12475260416664,122.27272727272721L146.32173828124996,-63.8181818181823L146.35914062499995,138.45454545454544L147.09222656249997,106.09090909090901L147.11217447916664,65.63636363636347L147.25929036458328,106.09090909090901L147.29419921874995,-500.7272727272742L147.85274088541664,106.09090909090901L147.87019531249996,106.09090909090901L147.88016927083328,-128.5454545454552L147.89014322916663,81.81818181818167L148.24172526041664,97.99999999999989L148.32401041666662,73.72727272727258L148.3514388020833,97.99999999999989L148.76535807291663,130.36363636363635L148.80276041666662,138.45454545454544L148.85512369791664,65.63636363636347L148.89252604166663,130.36363636363635L149.18675781249996,138.45454545454544L149.74779296874996,81.81818181818167L150.14425781249997,89.90909090909079L150.1991145833333,-39.54545454545497L150.30882812499996,65.63636363636347L150.37864583333328,97.99999999999989L150.59807291666664,97.99999999999989L150.92222656249996,65.63636363636347L151.03443359374995,97.99999999999989L151.56055989583328,57.54545454545435L151.82486979166663,114.18181818181812L151.83235026041663,114.18181818181812L151.8971809895833,114.18181818181812L151.97447916666664,122.27272727272721L152.4208138020833,114.18181818181812L152.43328124999996,89.90909090909079L152.45322916666663,106.09090909090901L152.85717447916664,106.09090909090901L152.98932942708328,114.18181818181812L153.48802734374996,114.18181818181812L153.79971354166665,49.45454545454524L154.33082682291663,97.99999999999989L154.41311197916664,81.81818181818167L154.51783854166663,138.45454545454544L154.6499934895833,114.18181818181812L154.8370052083333,114.18181818181812L154.87191406249994,73.72727272727258L154.8893684895833,114.18181818181812L155.08884765624995,-177.09090909090983L155.53518229166662,97.99999999999989L155.61746744791662,73.72727272727258L156.0638020833333,130.36363636363635L156.81184895833331,114.18181818181812L156.8268098958333,114.18181818181812L157.27314453124998,114.18181818181812L157.96134765624996,114.18181818181812L159.2953645833333,106.09090909090901L159.4225325520833,97.99999999999989L159.65692057291665,-152.8181818181825L159.9461653645833,138.45454545454544L160.0833072916666,138.45454545454544L160.15811197916665,114.18181818181812L160.35260416666662,25.181818181817892L160.41992838541663,122.27272727272721L160.4623177083333,130.36363636363635L160.52465494791662,106.09090909090901L161.08818359374996,81.81818181818167L161.12807942708326,138.45454545454544L161.14304036458327,106.09090909090901L161.71155598958327,122.27272727272721L161.82874999999996,122.27272727272721L162.1304622395833,89.90909090909079L162.6092122395833,89.90909090909079L162.64910807291662,114.18181818181812L162.72391276041662,106.09090909090901L162.89097656249996,146.54545454545453L162.92588541666663,97.99999999999989L163.76120442708333,81.81818181818167L163.99309895833332,97.99999999999989L164.0080598958333,114.18181818181812L164.06291666666664,122.27272727272721L164.28733072916665,122.27272727272721L164.73117187499997,130.36363636363635L164.80098958333332,130.36363636363635L165.0328841145833,138.45454545454544L165.2198958333333,122.27272727272721L166.34445963541663,97.99999999999989L166.5514192708333,57.54545454545435L166.72845703124995,122.27272727272721L166.9703255208333,122.27272727272721L167.0002473958333,97.99999999999989L167.13240234375,130.36363636363635L167.37177734374998,97.99999999999989L167.73582682291664,138.45454545454544L168.88033854166665,130.36363636363635L169.0798177083333,130.36363636363635L169.8203841145833,138.45454545454544L169.89768229166663,130.36363636363635L169.91763020833332,122.27272727272721L170.71305338541666,138.45454545454544L171.08707682291666,106.09090909090901L171.57580078125,122.27272727272721L171.91990234374998,106.09090909090901L172.0944466145833,114.18181818181812L172.09694010416663,114.18181818181812L172.30639322916662,106.09090909090901L172.7003645833333,97.99999999999989L172.97464843749998,138.45454545454544L173.18410156249996,41.36363636363612L173.49080078125,138.45454545454544L173.76508463541666,97.99999999999989L173.95209635416666,122.27272727272721L174.08175781249997,106.09090909090901L174.79489583333333,130.36363636363635L174.81983072916665,114.18181818181812L174.8248177083333,122.27272727272721L175.23374999999996,81.81818181818167L175.7374348958333,130.36363636363635L175.98678385416665,122.27272727272721L176.0142122395833,89.90909090909079L176.14886067708332,73.72727272727258L176.62511718749997,73.72727272727258L176.69742838541663,65.63636363636347L176.74231119791665,106.09090909090901L176.94927083333332,81.81818181818167L177.13628255208332,122.27272727272721L177.21358072916664,81.81818181818167L177.32828124999997,-63.8181818181823L177.51279947916666,41.36363636363612L177.61752604166665,49.45454545454524L177.78209635416664,106.09090909090901L178.27580729166664,81.81818181818167L178.3780403645833,41.36363636363612L178.62988281249997,138.45454545454544L179.25076171874997,-686.8181818181838L179.83922526041664,130.36363636363635L180.12098958333328,106.09090909090901L180.47007812499996,122.27272727272721L180.87152994791663,122.27272727272721L180.94134765624997,114.18181818181812L181.05355468749997,122.27272727272721L182.09832682291662,65.63636363636347L182.18310546874997,89.90909090909079L182.28035156249996,114.18181818181812L184.15046875,138.45454545454544L184.1529622395833,106.09090909090901L184.19535156249998,65.63636363636347L184.4372200520833,-201.36363636363717L184.5643880208333,73.72727272727258L184.77134765624996,89.90909090909079L184.96583984375,122.27272727272721L185.81113281249998,138.45454545454544L185.95824869791664,122.27272727272721L186.41455729166663,122.27272727272721L186.41705078124997,57.54545454545435L186.4494661458333,130.36363636363635L186.80104817708332,138.45454545454544L186.92572265624995,122.27272727272721L187.1227083333333,106.09090909090901L187.1750716145833,-322.7272727272738L187.6388606770833,130.36363636363635L187.7061848958333,65.63636363636347L187.7809895833333,106.09090909090901L187.97797526041666,97.99999999999989L188.26971354166662,89.90909090909079L189.62367838541664,138.45454545454544L189.63365234374996,138.45454545454544L189.7109505208333,130.36363636363635L189.8007161458333,130.36363636363635L189.9278841145833,130.36363636363635L190.11738932291664,122.27272727272721L190.76320312499996,130.36363636363635L190.96517578124997,130.36363636363635L191.65337890624997,114.18181818181812L191.75810546874996,33.27272727272702L192.04236328124995,138.45454545454544L192.35654296874995,106.09090909090901L192.4213736979166,138.45454545454544L192.71061848958328,138.45454545454544L193.09461588541666,73.72727272727258L193.2342513020833,122.27272727272721L193.3614192708333,73.72727272727258L193.41627604166663,122.27272727272721L193.49856119791664,106.09090909090901L193.5608984375,97.99999999999989L193.9598567708333,122.27272727272721L194.15434895833332,130.36363636363635L194.20671223958328,130.36363636363635L194.20920572916663,130.36363636363635L194.21419270833331,138.45454545454544L194.46852864583332,130.36363636363635L194.4760091145833,138.45454545454544L194.57574869791665,114.18181818181812L194.86000651041664,81.81818181818167L195.27143229166663,138.45454545454544L195.64545572916666,130.36363636363635L195.83246744791666,122.27272727272721L195.98457031249998,130.36363636363635L196.40846354166663,130.36363636363635L196.75505859374996,65.63636363636347L197.82725911458328,89.90909090909079L197.92949218749996,138.45454545454544L197.94195963541665,97.99999999999989L198.0591536458333,130.36363636363635L198.2087630208333,106.09090909090901L198.26611328124997,130.36363636363635L198.48304687499996,97.99999999999989L198.92190104166662,130.36363636363635L198.93935546874997,138.45454545454544L200.61248697916662,130.36363636363635L200.70225260416663,138.45454545454544L201.2981966145833,73.72727272727258L201.37549479166665,114.18181818181812L202.11855468749997,138.45454545454544L202.16343749999996,122.27272727272721L202.36291666666665,130.36363636363635L202.5175130208333,-233.72727272727357L202.68707031249997,138.45454545454544L203.26306640624995,114.18181818181812L203.2680533854166,138.45454545454544L203.5822330729166,122.27272727272721L203.68945312499994,130.36363636363635L203.98617838541665,122.27272727272721L204.51729166666664,106.09090909090901L204.64445963541664,138.45454545454544L205.00352213541663,138.45454545454544L205.12071614583328,114.18181818181812L205.20050781249995,89.90909090909079L205.41245442708328,138.45454545454544L205.70169921874995,114.18181818181812L205.7191536458333,114.18181818181812L205.74658203124997,130.36363636363635L206.11811197916663,138.45454545454544L206.4297981770833,138.45454545454544L206.74397786458331,130.36363636363635L207.08309244791664,122.27272727272721L207.25763671874998,122.27272727272721L207.53940104166662,114.18181818181812L207.93586588541663,138.45454545454544L208.18272135416663,138.45454545454544L208.66147135416665,138.45454545454544L208.76619791666664,106.09090909090901L208.94822265624995,138.45454545454544L209.09035156249996,122.27272727272721L210.36203124999994,106.09090909090901L210.53158854166662,130.36363636363635L210.7235872395833,130.36363636363635L210.75849609374995,122.27272727272721L210.85574218749997,130.36363636363635L210.93553385416664,138.45454545454544L211.21231119791665,114.18181818181812L211.69355468749998,89.90909090909079L211.86560546874998,138.45454545454544L211.96534505208328,138.45454545454544L212.41167968749997,138.45454545454544L212.46902994791662,130.36363636363635L212.65853515624994,138.45454545454544L212.94777994791662,130.36363636363635L213.01011718749996,138.45454545454544L213.33676432291665,114.18181818181812L213.35421874999994,130.36363636363635L213.41156901041663,122.27272727272721L213.49385416666664,122.27272727272721L213.50382812499998,89.90909090909079L213.66590494791663,130.36363636363635L213.8279817708333,122.27272727272721L214.2917708333333,114.18181818181812L214.3890169270833,130.36363636363635L214.4289127604166,122.27272727272721L214.7879752604166,122.27272727272721L214.85280598958332,138.45454545454544L214.94506510416662,81.81818181818167L215.47617838541663,130.36363636363635L215.57342447916665,130.36363636363635L215.5784114583333,130.36363636363635L215.77539713541663,138.45454545454544L215.90007161458328,138.45454545454544L215.94744791666665,106.09090909090901L216.20178385416665,122.27272727272721L216.86006510416664,114.18181818181812L217.14182942708328,114.18181818181812L217.22910156249995,138.45454545454544L218.28384765624997,138.45454545454544L218.60301432291664,130.36363636363635L219.0269075520833,138.45454545454544L219.4782291666666,122.27272727272721L219.6178645833333,-330.8181818181829L219.71511067708332,106.09090909090901L220.01931640624997,97.99999999999989L220.12154947916665,106.09090909090901L220.23874348958327,106.09090909090901L220.32352213541662,130.36363636363635L220.47562499999998,138.45454545454544L220.52050781249997,138.45454545454544L220.70751953124997,138.45454545454544L221.08403645833332,138.45454545454544L221.21369791666663,130.36363636363635L221.56278645833328,138.45454545454544L222.1687044270833,97.99999999999989L222.7970638020833,138.45454545454544L223.19851562499997,114.18181818181812L223.31820312499997,89.90909090909079L223.80194010416665,138.45454545454544L223.88173177083328,138.45454545454544L223.90167968749995,138.45454545454544L224.02635416666664,138.45454545454544L224.37294921874997,122.27272727272721L224.41035156249995,97.99999999999989L224.57492187499994,114.18181818181812L224.88910156249995,138.45454545454544L225.1010481770833,130.36363636363635L225.2356966145833,130.36363636363635L225.4301888020833,130.36363636363635L225.78426432291664,106.09090909090901L225.93387369791662,138.45454545454544L225.97376953124996,138.45454545454544L226.01366536458332,130.36363636363635L226.10592447916662,130.36363636363635L226.30540364583328,130.36363636363635L226.48992187499996,138.45454545454544L226.68192057291662,138.45454545454544L227.15069661458327,138.45454545454544L227.22799479166662,122.27272727272721L227.31027994791663,122.27272727272721L227.46986328124996,130.36363636363635L227.56710937499994,130.36363636363635L227.59453776041664,138.45454545454544L227.75162760416663,122.27272727272721L228.3400911458333,138.45454545454544L228.41240234375,138.45454545454544L228.5794661458333,138.45454545454544L229.50455078124995,138.45454545454544L229.89104166666664,138.45454545454544L229.9783138020833,130.36363636363635L229.99576822916663,130.36363636363635L230.3224153645833,138.45454545454544L230.35483072916662,122.27272727272721L230.46953124999996,130.36363636363635L230.53436197916662,130.36363636363635L230.66901041666665,122.27272727272721L230.8909309895833,138.45454545454544L231.85092447916662,138.45454545454544L231.9930533854166,138.45454545454544L232.25736328124995,138.45454545454544L232.41944010416663,130.36363636363635L232.53164713541662,130.36363636363635L232.90816406249996,114.18181818181812L232.93808593749995,130.36363636363635L233.43678385416663,138.45454545454544L233.59636718749996,122.27272727272721L233.6736653645833,130.36363636363635L233.70608072916664,130.36363636363635L234.29703776041663,130.36363636363635L234.46410156249996,138.45454545454544L235.0450846354166,114.18181818181812L235.27448567708328,130.36363636363635L235.39666666666662,114.18181818181812L235.6634700520833,130.36363636363635L236.2544270833333,114.18181818181812L236.51125651041662,122.27272727272721L236.72320312499997,122.27272727272721L236.7630989583333,138.45454545454544L237.71561197916662,130.36363636363635L237.75800130208327,138.45454545454544L238.03477864583328,138.45454545454544L238.08215494791665,130.36363636363635L238.28412760416663,106.09090909090901L238.4237630208333,130.36363636363635L238.43872395833327,130.36363636363635L238.94240885416662,130.36363636363635L239.11445963541664,122.27272727272721L239.14687499999997,130.36363636363635L239.47352213541663,114.18181818181812L240.64546223958328,138.45454545454544L241.0294596354166,138.45454545454544L241.07932942708328,130.36363636363635L241.59298828124994,122.27272727272721L241.83735026041663,138.45454545454544L241.95454427083328,138.45454545454544L242.02685546874997,122.27272727272721L242.40087890624997,138.45454545454544L242.45074869791662,130.36363636363635L242.4582291666666,138.45454545454544L242.6128255208333,138.45454545454544L242.67017578124995,130.36363636363635L242.67765624999996,138.45454545454544L243.17884765624996,73.72727272727258L243.36087239583327,130.36363636363635L243.57281901041662,138.45454545454544L243.63764973958328,130.36363636363635L243.95182942708328,89.90909090909079L244.1089192708333,130.36363636363635L244.94922526041663,130.36363636363635L245.15618489583326,138.45454545454544L245.30330078124993,122.27272727272721L245.30828776041662,138.45454545454544L245.38558593749994,130.36363636363635L245.56262369791662,106.09090909090901L246.1461002604166,138.45454545454544L246.38796874999994,114.18181818181812L247.00635416666663,130.36363636363635L247.51003906249994,138.45454545454544L248.07855468749995,138.45454545454544L248.47751302083327,122.27272727272721L249.27293619791664,106.09090909090901L249.36270182291662,-47.636363636364095L249.3826497395833,138.45454545454544L249.6619205729166,138.45454545454544L249.7566731770833,138.45454545454544L250.2803059895833,138.45454545454544L250.54710937499993,130.36363636363635L250.8937044270833,138.45454545454544L250.9610286458333,130.36363636363635L251.2777018229166,122.27272727272721L251.61930989583328,138.45454545454544L251.75894531249995,138.45454545454544L251.83873697916664,138.45454545454544L252.0157747395833,138.45454545454544L252.1080338541666,130.36363636363635L252.96330078124996,138.45454545454544L253.18522135416663,138.45454545454544L253.24257161458328,122.27272727272721L253.3921809895833,130.36363636363635L253.41212890624993,138.45454545454544L253.62158203124994,138.45454545454544L254.06292968749995,130.36363636363635L254.26240885416664,138.45454545454544L254.47186197916662,122.27272727272721L254.57160156249998,130.36363636363635L254.64640624999996,138.45454545454544L254.80848307291663,138.45454545454544L254.8882747395833,130.36363636363635L255.85076171874994,122.27272727272721L256.1948632812499,138.45454545454544L256.36940755208326,138.45454545454544L256.54395182291665,138.45454545454544L256.63870442708327,138.45454545454544L256.8431705729166,138.45454545454544L256.9528841145833,138.45454545454544L257.10249348958325,138.45454545454544L257.2919986979166,138.45454545454544L257.43412760416663,138.45454545454544L257.6560481770833,138.45454545454544L257.78321614583325,138.45454545454544L257.7906966145833,122.27272727272721L257.99017578124995,138.45454545454544L258.2644596354166,138.45454545454544L258.28939453124997,122.27272727272721L258.6459635416666,138.45454545454544L258.82798828124993,114.18181818181812L259.30673828125,138.45454545454544L259.48128255208326,130.36363636363635L259.6034635416666,122.27272727272721L259.6483463541666,138.45454545454544L259.80792968749995,122.27272727272721L260.1794596354166,138.45454545454544L260.7679231770833,138.45454545454544L260.92999999999995,114.18181818181812L261.4661002604166,138.45454545454544L262.0545638020833,138.45454545454544L262.1069270833333,138.45454545454544L262.3188736979166,130.36363636363635L262.3238606770833,138.45454545454544L262.99710286458327,138.45454545454544L263.2389713541666,130.36363636363635L263.28385416666663,138.45454545454544" style="fill: none;" fill="none"></path></g></g></g></g></g></g><g transform="translate(30, 178)" clip-path="url(#clip_1)"><clipPath id="clip_1"><rect width="299" height="22"></rect></clipPath><g><g><line x1="13.934895833333327" y1="0" x2="13.934895833333327" y2="5" style="visibility: inherit;" fill="rgb(0, 0, 0)" stroke="rgb(204, 204, 204)" stroke-width="1px"></line><line x1="38.86979166666666" y1="0" x2="38.86979166666666" y2="5" style="visibility: inherit;" fill="rgb(0, 0, 0)" stroke="rgb(204, 204, 204)" stroke-width="1px"></line><line x1="63.804687499999986" y1="0" x2="63.804687499999986" y2="5" style="visibility: inherit;" fill="rgb(0, 0, 0)" stroke="rgb(204, 204, 204)" stroke-width="1px"></line><line x1="88.73958333333331" y1="0" x2="88.73958333333331" y2="5" style="visibility: inherit;" fill="rgb(0, 0, 0)" stroke="rgb(204, 204, 204)" stroke-width="1px"></line><line x1="113.67447916666664" y1="0" x2="113.67447916666664" y2="5" style="visibility: inherit;" fill="rgb(0, 0, 0)" stroke="rgb(204, 204, 204)" stroke-width="1px"></line><line x1="138.60937499999997" y1="0" x2="138.60937499999997" y2="5" style="visibility: inherit;" fill="rgb(0, 0, 0)" stroke="rgb(204, 204, 204)" stroke-width="1px"></line><line x1="163.5442708333333" y1="0" x2="163.5442708333333" y2="5" style="visibility: inherit;" fill="rgb(0, 0, 0)" stroke="rgb(204, 204, 204)" stroke-width="1px"></line><line x1="188.47916666666663" y1="0" x2="188.47916666666663" y2="5" style="visibility: inherit;" fill="rgb(0, 0, 0)" stroke="rgb(204, 204, 204)" stroke-width="1px"></line><line x1="213.41406249999994" y1="0" x2="213.41406249999994" y2="5" style="visibility: inherit;" fill="rgb(0, 0, 0)" stroke="rgb(204, 204, 204)" stroke-width="1px"></line><line x1="238.3489583333333" y1="0" x2="238.3489583333333" y2="5" style="visibility: inherit;" fill="rgb(0, 0, 0)" stroke="rgb(204, 204, 204)" stroke-width="1px"></line><line x1="263.28385416666663" y1="0" x2="263.28385416666663" y2="5" style="visibility: inherit;" fill="rgb(0, 0, 0)" stroke="rgb(204, 204, 204)" stroke-width="1px"></line><line x1="288.21874999999994" y1="0" x2="288.21874999999994" y2="5" style="visibility: inherit;" fill="rgb(0, 0, 0)" stroke="rgb(204, 204, 204)" stroke-width="1px"></line></g><g transform="translate(0, 8)"><text x="13.934895833333327" y="0" dx="0em" dy="0.95em" style="text-anchor: middle; visibility: inherit; font-family: Roboto, sans-serif; font-size: 12px; font-weight: 200;" fill="rgb(50, 49, 63)" stroke="none" stroke-width="1px">0</text><text x="38.86979166666666" y="0" dx="0em" dy="0.95em" style="text-anchor: middle; visibility: hidden; font-family: Roboto, sans-serif; font-size: 12px; font-weight: 200;" fill="rgb(50, 49, 63)" stroke="none" stroke-width="1px">10k</text><text x="63.804687499999986" y="0" dx="0em" dy="0.95em" style="text-anchor: middle; visibility: inherit; font-family: Roboto, sans-serif; font-size: 12px; font-weight: 200;" fill="rgb(50, 49, 63)" stroke="none" stroke-width="1px">20k</text><text x="88.73958333333331" y="0" dx="0em" dy="0.95em" style="text-anchor: middle; visibility: hidden; font-family: Roboto, sans-serif; font-size: 12px; font-weight: 200;" fill="rgb(50, 49, 63)" stroke="none" stroke-width="1px">30k</text><text x="113.67447916666664" y="0" dx="0em" dy="0.95em" style="text-anchor: middle; visibility: inherit; font-family: Roboto, sans-serif; font-size: 12px; font-weight: 200;" fill="rgb(50, 49, 63)" stroke="none" stroke-width="1px">40k</text><text x="138.60937499999997" y="0" dx="0em" dy="0.95em" style="text-anchor: middle; visibility: hidden; font-family: Roboto, sans-serif; font-size: 12px; font-weight: 200;" fill="rgb(50, 49, 63)" stroke="none" stroke-width="1px">50k</text><text x="163.5442708333333" y="0" dx="0em" dy="0.95em" style="text-anchor: middle; visibility: inherit; font-family: Roboto, sans-serif; font-size: 12px; font-weight: 200;" fill="rgb(50, 49, 63)" stroke="none" stroke-width="1px">60k</text><text x="188.47916666666663" y="0" dx="0em" dy="0.95em" style="text-anchor: middle; visibility: hidden; font-family: Roboto, sans-serif; font-size: 12px; font-weight: 200;" fill="rgb(50, 49, 63)" stroke="none" stroke-width="1px">70k</text><text x="213.41406249999994" y="0" dx="0em" dy="0.95em" style="text-anchor: middle; visibility: inherit; font-family: Roboto, sans-serif; font-size: 12px; font-weight: 200;" fill="rgb(50, 49, 63)" stroke="none" stroke-width="1px">80k</text><text x="238.3489583333333" y="0" dx="0em" dy="0.95em" style="text-anchor: middle; visibility: hidden; font-family: Roboto, sans-serif; font-size: 12px; font-weight: 200;" fill="rgb(50, 49, 63)" stroke="none" stroke-width="1px">90k</text><text x="263.28385416666663" y="0" dx="0em" dy="0.95em" style="text-anchor: middle; visibility: inherit; font-family: Roboto, sans-serif; font-size: 12px; font-weight: 200;" fill="rgb(50, 49, 63)" stroke="none" stroke-width="1px">100k</text><text x="288.21874999999994" y="0" dx="0em" dy="0.95em" style="text-anchor: middle; visibility: hidden; font-family: Roboto, sans-serif; font-size: 12px; font-weight: 200;" fill="rgb(50, 49, 63)" stroke="none" stroke-width="1px">110k</text></g><line x1="0" y1="0" x2="299.21875" y2="0" fill="rgb(0, 0, 0)" stroke="rgb(204, 204, 204)" stroke-width="1px"></line></g></g></g></g></svg>