<svg viewBox="0 0 330 200" xmlns="http://www.w3.org/2000/svg"><g><g><g><g><g><line x1="30" y1="174" x2="25" y2="174" style="visibility: inherit;" fill="rgb(0, 0, 0)" stroke="rgb(204, 204, 204)" stroke-width="1px"></line><line x1="30" y1="152.25" x2="25" y2="152.25" style="visibility: inherit;" fill="rgb(0, 0, 0)" stroke="rgb(204, 204, 204)" stroke-width="1px"></line><line x1="30" y1="130.5" x2="25" y2="130.5" style="visibility: inherit;" fill="rgb(0, 0, 0)" stroke="rgb(204, 204, 204)" stroke-width="1px"></line><line x1="30" y1="108.75" x2="25" y2="108.75" style="visibility: inherit;" fill="rgb(0, 0, 0)" stroke="rgb(204, 204, 204)" stroke-width="1px"></line><line x1="30" y1="87" x2="25" y2="87" style="visibility: inherit;" fill="rgb(0, 0, 0)" stroke="rgb(204, 204, 204)" stroke-width="1px"></line><line x1="30" y1="65.25" x2="25" y2="65.25" style="visibility: inherit;" fill="rgb(0, 0, 0)" stroke="rgb(204, 204, 204)" stroke-width="1px"></line><line x1="30" y1="43.5" x2="25" y2="43.5" style="visibility: inherit;" fill="rgb(0, 0, 0)" stroke="rgb(204, 204, 204)" stroke-width="1px"></line><line x1="30" y1="21.75" x2="25" y2="21.75" style="visibility: inherit;" fill="rgb(0, 0, 0)" stroke="rgb(204, 204, 204)" stroke-width="1px"></line><line x1="30" y1="0" x2="25" y2="0" style="visibility: inherit;" fill="rgb(0, 0, 0)" stroke="rgb(204, 204, 204)" stroke-width="1px"></line></g><g transform="translate(20, 0)"><text x="0" y="174" dx="0em" dy="0.3em" style="text-anchor: end; visibility: hidden; font-family: Roboto, sans-serif; font-size: 12px; font-weight: 200;" fill="rgb(50, 49, 63)" stroke="none" stroke-width="1px">-1</text><text x="0" y="152.25" dx="0em" dy="0.3em" style="text-anchor: end; visibility: inherit; font-family: Roboto, sans-serif; font-size: 12px; font-weight: 200;" fill="rgb(50, 49, 63)" stroke="none" stroke-width="1px">0</text><text x="0" y="130.5" dx="0em" dy="0.3em" style="text-anchor: end; visibility: hidden; font-family: Roboto, sans-serif; font-size: 12px; font-weight: 200;" fill="rgb(50, 49, 63)" stroke="none" stroke-width="1px">1</text><text x="0" y="108.75" dx="0em" dy="0.3em" style="text-anchor: end; visibility: inherit; font-family: Roboto, sans-serif; font-size: 12px; font-weight: 200;" fill="rgb(50, 49, 63)" stroke="none" stroke-width="1px">2</text><text x="0" y="87" dx="0em" dy="0.3em" style="text-anchor: end; visibility: hidden; font-family: Roboto, sans-serif; font-size: 12px; font-weight: 200;" fill="rgb(50, 49, 63)" stroke="none" stroke-width="1px">3</text><text x="0" y="65.25" dx="0em" dy="0.3em" style="text-anchor: end; visibility: inherit; font-family: Roboto, sans-serif; font-size: 12px; font-weight: 200;" fill="rgb(50, 49, 63)" stroke="none" stroke-width="1px">4</text><text x="0" y="43.5" dx="0em" dy="0.3em" style="text-anchor: end; visibility: hidden; font-family: Roboto, sans-serif; font-size: 12px; font-weight: 200;" fill="rgb(50, 49, 63)" stroke="none" stroke-width="1px">5</text><text x="0" y="21.75" dx="0em" dy="0.3em" style="text-anchor: end; visibility: inherit; font-family: Roboto, sans-serif; font-size: 12px; font-weight: 200;" fill="rgb(50, 49, 63)" stroke="none" stroke-width="1px">6</text><text x="0" y="0" dx="0em" dy="0.3em" style="text-anchor: end; visibility: hidden; font-family: Roboto, sans-serif; font-size: 12px; font-weight: 200;" fill="rgb(50, 49, 63)" stroke="none" stroke-width="1px">7</text></g><line x1="30" y1="0" x2="30" y2="174" fill="rgb(0, 0, 0)" stroke="rgb(204, 204, 204)" stroke-width="1px"></line></g></g><g transform="translate(30, 0)" clip-path="url(#clip_0)"><clipPath id="clip_0"><rect width="300" height="174"></rect></clipPath><g><g><g><line x1="0" y1="0" x2="0" y2="174" fill="rgb(0, 0, 0)" stroke="rgb(60, 60, 60)" stroke-width="1px" opacity="0.25"></line><line x1="25" y1="0" x2="25" y2="174" fill="rgb(0, 0, 0)" stroke="rgb(60, 60, 60)" stroke-width="1px" opacity="0.25"></line><line x1="50" y1="0" x2="50" y2="174" fill="rgb(0, 0, 0)" stroke="rgb(60, 60, 60)" stroke-width="1px" opacity="0.25"></line><line x1="75" y1="0" x2="75" y2="174" fill="rgb(0, 0, 0)" stroke="rgb(60, 60, 60)" stroke-width="1px" opacity="0.25"></line><line x1="100" y1="0" x2="100" y2="174" fill="rgb(0, 0, 0)" stroke="rgb(60, 60, 60)" stroke-width="1px" opacity="0.25"></line><line x1="125" y1="0" x2="125" y2="174" fill="rgb(0, 0, 0)" stroke="rgb(60, 60, 60)" stroke-width="1px" opacity="0.25"></line><line x1="150" y1="0" x2="150" y2="174" fill="rgb(0, 0, 0)" stroke="rgb(60, 60, 60)" stroke-width="1px" opacity="0.25"></line><line x1="175" y1="0" x2="175" y2="174" fill="rgb(0, 0, 0)" stroke="rgb(60, 60, 60)" stroke-width="1px" opacity="0.25"></line><line x1="200" y1="0" x2="200" y2="174" fill="rgb(0, 0, 0)" stroke="rgb(60, 60, 60)" stroke-width="1px" opacity="0.25"></line><line x1="225" y1="0" x2="225" y2="174" fill="rgb(0, 0, 0)" stroke="rgb(60, 60, 60)" stroke-width="1px" opacity="0.25"></line><line x1="250" y1="0" x2="250" y2="174" fill="rgb(0, 0, 0)" stroke="rgb(60, 60, 60)" stroke-width="1px" opacity="0.25"></line><line x1="275" y1="0" x2="275" y2="174" fill="rgb(0, 0, 0)" stroke="rgb(60, 60, 60)" stroke-width="1px" opacity="0.25"></line><line x1="300" y1="0" x2="300" y2="174" fill="rgb(0, 0, 0)" stroke="rgb(60, 60, 60)" stroke-width="1px" opacity="0.25"></line></g><g><line x1="0" y1="174" x2="300" y2="174" fill="rgb(0, 0, 0)" stroke="rgb(60, 60, 60)" stroke-width="1px" opacity="0.25"></line><line x1="0" y1="152.25" x2="300" y2="152.25" fill="rgb(0, 0, 0)" stroke="rgb(60, 60, 60)" stroke-width="1px" opacity="0.25"></line><line x1="0" y1="130.5" x2="300" y2="130.5" fill="rgb(0, 0, 0)" stroke="rgb(60, 60, 60)" stroke-width="1px" opacity="0.25"></line><line x1="0" y1="108.75" x2="300" y2="108.75" fill="rgb(0, 0, 0)" stroke="rgb(60, 60, 60)" stroke-width="1px" opacity="0.25"></line><line x1="0" y1="87" x2="300" y2="87" fill="rgb(0, 0, 0)" stroke="rgb(60, 60, 60)" stroke-width="1px" opacity="0.25"></line><line x1="0" y1="65.25" x2="300" y2="65.25" fill="rgb(0, 0, 0)" stroke="rgb(60, 60, 60)" stroke-width="1px" opacity="0.25"></line><line x1="0" y1="43.5" x2="300" y2="43.5" fill="rgb(0, 0, 0)" stroke="rgb(60, 60, 60)" stroke-width="1px" opacity="0.25"></line><line x1="0" y1="21.75" x2="300" y2="21.75" fill="rgb(0, 0, 0)" stroke="rgb(60, 60, 60)" stroke-width="1px" opacity="0.25"></line><line x1="0" y1="0" x2="300" y2="0" fill="rgb(0, 0, 0)" stroke="rgb(60, 60, 60)" stroke-width="1px" opacity="0.25"></line></g></g></g><g><g><line x1="0" y1="152.25" x2="300" y2="152.25" fill="rgb(0, 0, 0)" stroke="rgb(153, 153, 153)" stroke-width="1.5px"></line></g></g><g><g><line x1="25" y1="0" x2="25" y2="174" fill="rgb(0, 0, 0)" stroke="rgb(153, 153, 153)" stroke-width="1.5px"></line></g></g><g><g><g><g><g><path stroke="rgb(204, 51, 17)" stroke-width="2px" d="M25.107499999999998,152.25L25.2375,152.25L25.419999999999998,152.25L25.575000000000003,152.25L25.587500000000002,152.25L25.685,152.25L25.7775,152.25L25.7975,152.25L26.1875,152.25L26.3425,152.25L26.450000000000003,152.25L26.4675,152.25L26.5875,132.2942183320197L26.619999999999997,120.59356953866563L26.7875,123.18306099905989L27.0225,125.44363502096796L27.537499999999998,118.93648753105185L27.6675,57.20079339992902L28.335,63.690458344912805L28.345000000000002,61.10072945194821L28.465,66.88774605038137L28.482499999999998,72.13173006271134L28.592499999999998,76.90357581686902L29.23,73.39838368301716L29.3375,77.83635034769183L29.345,81.91728005697081L29.695,80.13861535681255L29.794999999999998,77.9238047352972L30.0925,81.72506862211739L30.2425,80.3057511700403L30.5,71.97272432385475L30.6575,75.84031300804146L30.77,68.02072655018074L30.974999999999998,71.93841986441895L31.0925,67.3198104678004L31.215,71.1456535848581L31.2175,74.74499527601864L31.247500000000002,78.13584374634156L31.3325,66.89348336356115L31.715,70.52934900948696L31.852500000000003,69.15154847420612L32.5975,65.6514071550763L33.0775,69.20971052934576L33.1175,66.27082955668384L33.265,63.48106182382823L34.0475,67.01448230254178L34.0525,59.19153903445911L34.1775,62.82551157546292L34.355000000000004,66.28625474094267L34.5375,65.41202866030068L34.555,68.71604451408075L34.8225,71.86897404481303L34.8925,74.87958347932167L35.0925,77.75599144899556L35.4925,80.50572776072217L35.795,77.82026164829459L36.0025,80.53071734201876L36.232499999999995,67.38571994080806L36.275,56.21635377422067L36.6925,53.42916454513139L36.9725,56.94168052327842L37.43,60.310668002980265L37.767500000000005,63.54327850339133L37.8375,53.603767631319165L38.364999999999995,51.990358829301904L38.4,55.46334582908544L38.875,50.46789115050139L39.199999999999996,45.66619083685774L39.31,43.802540143996886L39.5225,47.49366789958173L39.6625,51.04483126691484L39.68,54.4622871930184L39.77,57.75194968407082L39.9775,60.91941282746642L40.502500000000005,63.96997197506572L40.55,66.90864325705847L40.725,69.7401815782548L41.4375,72.46909723304412L41.51,75.09967126146098L41.75,77.6359696565475L41.78,69.38721120850536L42.137499999999996,72.09596493292194L42.4175,74.70914203248955L42.89,77.23056389695486L43.4575,70.84541959367021L43.652499999999996,73.47941703002243L43.66,71.63402387185508L43.78,67.22535488898407L44.4725,60.426377670338645L44.4975,63.37096704013726L44.585,66.21524801015407L44.980000000000004,68.96300691320471L45.1675,71.61786397292389L45.4525,74.18328203032183L45.55500000000001,76.6625747234987L45.91,72.7903892684531L45.945,57.45869158322111L46.2475,60.45380186943995L46.2725,63.34965164793693L46.505,52.975256073228906L47.1975,50.835572882577765L47.3225,54.020506488215446L47.339999999999996,57.101088201253546L47.485,56.4958665031428L48.1525,52.329954693111745L48.6725,51.4546500970027L48.8875,51.36804006984153L48.92,54.511658255425445L49.247499999999995,57.55378407406906L49.61,49.22770564794339L49.769999999999996,39.762030446523454L50.692499999999995,34.45055355723337L50.71,38.10137840922627L51.00000000000001,41.63555194827568L51.199999999999996,45.057014813720095L51.307500000000005,48.36956154629681L51.519999999999996,47.37980696079646L51.894999999999996,50.61482073913917L51.9525,29.49992048794004L52.2575,33.28017567877766L52.265,27.37984377531957L52.4175,31.219366076986972L52.4375,27.51280832998737L52.5525,31.342597906628033L52.7575,35.05219459983402L53.55,38.645527880843524L53.6825,42.12638926335812L53.8325,45.498437714131136L53.9175,26.579055881281263L54.214999999999996,30.422473927732156L54.400000000000006,34.14617638275226L54.925,37.75402278385055L54.9375,28.952388132499845L55.4125,32.71483238995046L55.7275,30.042847730600826L56.68,33.768235815535725L57.19499999999999,37.37831037806504L57.35,40.876745591437505L57.587500000000006,44.26709227883635L57.655,34.825739016803126L57.775,23.926361785677667L58.5075,27.827688626433677L58.8675,23.83261523021094L58.995,27.733700859082255L59.0525,27.629698745442877L59.527499999999996,22.800877740832338L59.7125,26.728981511634075L60.2025,23.205783565506866L60.555,27.118942761033527L60.7375,30.912208962565618L60.847500000000004,34.58932888984216L61.12,38.15392779792703L61.597500000000004,26.73486923525941L61.6725,30.5352106454664L61.72,30.56189205406094L61.949999999999996,34.244342641397054L62.025,37.81442401383614L62.185,41.27562068190951L62.2325,44.63130579344832L63.3125,39.66564540440667L63.684999999999995,43.06841560565719L63.69,46.36760023266061L63.769999999999996,49.566396599156114L64.35249999999999,49.53958033771706L64.4125,52.641260211903436L65.2925,55.64867826715887L65.625,54.70263763231682L65.80499999999999,57.64670257212891L66.745,60.501396701928265L67.025,63.26946366923181L67.145,54.024676943284305L67.25,40.05862792091637L67.6675,40.31856401086127L67.745,43.693354322516065L68.2325,35.395165543643756L68.295,38.91735447667541L68.35,36.87050833426428L68.86,40.34725842421178L68.895,43.71879401023654L68.9675,46.98832576957065L68.9875,50.15896482331669L70.165,53.23372591701597L71.13,52.57672085406596L72.39750000000001,55.57796766475558L72.7925,58.48852176855546L72.925,58.33492503705361L73.18,51.462621167169445L73.83,50.859276362103884L74.10249999999999,48.87549623608147L74.1375,36.18782529674945L74.33,39.680077938890065L74.6175,31.168983306477912L74.8475,34.81160814832636L74.99,38.344350119364435L75.09,41.77054155313113L75.135,45.09341268199381L75.1575,20.697667893621134L75.3475,24.653745397135225L75.6125,28.490577366972378L75.6325,32.21177456968426L75.80999999999999,27.973625360098527L76.10249999999999,23.53622558012966L76.35,7.592006469833317L76.3525,8.49935216159024L76.4075,-3.523975355885196L76.4475,1.1580627598272728L76.95,2.2586211520133133L76.9575,6.76635126382479L77.08,11.138376524342812L77.14,15.378796101447277L77.7025,11.32212067219282L77.8625,15.556600717479688L78.025,19.663653122318383L78.0825,23.647124008691655L78.3,23.66700353368074L78.48,27.52985883924971L78.81,31.276510962025686L79.6225,26.001093759485336L80.0175,23.571194956388926L80.615,27.436311848951775L80.7325,31.185194012298584L80.82750000000001,34.821345137878055L80.8975,38.34816281984093L81.1825,41.76894179648864L82.1025,42.24692179428962L82.8475,45.55039777225595L82.8725,48.75456929936656L82.9825,45.33113295181348L83.0475,44.91330851166169L83.16,32.89751323517908L83.2175,36.48123997815958L83.405,39.95726846829805L83.57000000000001,38.97523780135412L83.8525,42.37621083301539L84.17750000000001,42.04716842843395L84.205,45.35575240546188L84.255,48.56493106222554L84.8475,51.677695302832326L85.19999999999999,36.88921489620846L85.37,40.35235417004157L85.70750000000001,18.2315203670312L85.7125,22.254605912296405L85.80749999999999,26.1568492085189L85.86500000000001,18.42035826247244L86.55499999999999,22.437554250715465L86.8,26.33409795523111L86.82,30.113617012650604L87.255,33.77962975310036L87.3375,37.33554850766229L87.52250000000001,40.78468281493585L87.61999999999999,44.130242529827356L87.83500000000001,47.37534083759361L88.135,50.52299717607013L88.3325,53.576140068921035L88.48,56.53760987265765L89.2175,59.410161440086206L89.5325,62.196466702760105L89.62,64.89911717493194L89.805,67.52062638142056L90.16749999999999,58.544538018350956L90.23,61.35669376437748L90.39,64.08442619746364L90.425,62.890762051028204L90.75999999999999,65.57240244307086L91.01,65.20670711691355L91.1775,67.81879707273744L91.99499999999999,66.51311432894522L91.99749999999999,46.57954077988041L92.075,49.75053113624438L92.8575,52.82633996215842L92.88749999999999,55.80982576729754L92.8975,58.70376112487214L92.89999999999999,61.51083526043866L93.1875,59.2132341585524L93.765,62.00497997365462L94.01,60.361963699740365L94.0525,63.11920216055159L94.0975,47.66487772111201L94.565,47.9655362115272L94.7925,41.054242262774366L94.8775,37.86450319064465L94.9225,41.29670665548115L95.805,31.029702172677833L96.09750000000001,34.666947822619896L96.13000000000001,38.19503846680923L96.36,41.617250980279216L96.4325,44.93676380027426L96.52999999999999,48.15665988716149L97.4275,51.27992959605528L97.4925,46.152033982809286L97.595,49.33542322441226L97.6575,52.4232841746855L98.005,55.41848425558001L98.16,58.32380477338368L98.68,61.141943507690115L98.72,57.006261895365206L98.905,59.863910715880394L99.03,62.635810171873004L99.36999999999999,65.32453392056185L99.575,67.93257833991349L100.01499999999999,62.305264050421684L100.08,65.00387915534209L100.2325,51.30741864276458L100.4375,48.89796692680505L100.61,51.99881424404333L100.7125,47.75597007213827L100.82000000000001,50.891063348513335L101.15,48.494129656038055L101.1775,43.45014344125097L101.5325,42.053314137253956L101.7675,45.35946900504985L101.8025,48.56642419703849L103.51750000000001,51.67715659185157L103.61,54.69455370925143L104.24249999999999,57.621416394001145L104.5225,60.460461419035155L104.68499999999999,63.21432401036203L104.70249999999999,61.53529004892331L104.8425,64.25689540959958L104.86500000000001,66.89684291281587L105.01249999999999,66.19489781197827L105.045,68.77669292074035L105.4375,71.28102578104304L105.52,58.173701738275945L106.09,60.996132408012386L106.35749999999999,63.733881781485366L106.645,66.38949079265018L106.7675,68.96542411818176L106.9075,65.5319906431465L107.2375,68.13364310544165L107.2575,70.65723936365869L107.5875,59.26365035219664L107.8825,62.05335062714889L107.95,53.107122531777556L107.955,56.08151899195998L108.17999999999999,53.03464586174103L108.355,56.0112101885068L108.44,55.273349085478316L108.51,50.02622660868778L109.3225,53.09303732659426L109.345,56.06783795958028L109.375,58.953389150825L109.4225,61.75236870407938L109.465,64.46737407003926L109.60000000000001,62.750806080098435L109.63,65.43585301445142L109.6925,68.04034433766556L109.785,70.56669696648814L110.045,73.01725529548199L110.0925,47.42935157994029L110.355,50.57404255735032L110.9075,53.62438857822861L110.96000000000001,56.58322024110737L111.09750000000001,59.45328321179672L111.315,62.23724077223926L111.5,64.93767629284717L111.96,67.55709563062067L113.33500000000001,70.09792945527742L113.3875,65.31240654170865L113.4075,67.92057944381379L113.445,70.45050449349819L113.71,72.90452928386104L113.93499999999999,75.28493097089836L114.43,77.59391838716637L114.4475,66.0965881430182L114.625,45.1908893927139L114.885,48.402707583139346L114.9275,43.688062463537L115.095,46.94496340251585L115.6175,50.10415478305153L115.69,53.16856804143938L116.575,56.14104666204766L116.64999999999999,59.024348816397755L116.6975,61.821149923041034L116.92,45.89098403049865L117.05,49.081788399637794L117.12750000000001,52.17686663477994L117.27000000000001,55.17909063831952L117.925,43.35723271580714L118.0075,46.624046451658046L118.64,32.392695672303155L118.725,35.98844661421601L119.41250000000001,39.47632314776132L119.69250000000001,42.859561616305996L120.4825,46.14130126634891L120.62,49.324587160815035L121.10000000000001,52.4123730049278L121.14,51.56926038062573L121.16749999999999,54.58970416033764L121.6075,40.348361197659194L121.7525,43.70543294093827L121.80250000000001,46.96179119747904L122.1025,24.415748950274363L122.455,28.250800023283556L122.515,31.970798172790516L122.85499999999999,20.845239362977352L123.095,24.78740426789598L123.24249999999999,28.61130292038869L123.27,32.32048338517086L124.25750000000001,35.91838728045716L124.3275,39.408352971626165L124.455,42.79361866905884L124.6975,46.077325433027085L124.77499999999999,49.262520088421404L124.7875,52.3521580520236L125.0525,55.34910607494865L125.7425,58.25614490280174L126.2525,61.07597185601937L126.61999999999999,63.81120333279005L126.66000000000001,66.46437723687738L126.67,69.03795533259931L126.7525,71.53432552914946L126.80250000000001,73.9558040963805L126.985,76.30463781410643L127.6025,63.52526480159141L127.82249999999999,61.16776882747088L128.11249999999998,63.900244087362786L128.18,66.55074459746575L128.355,69.12172962935034L128.525,71.61558467472149L128.73,74.0346236589161L128.85,50.67647800775834L128.89,43.68520467437696L129.68,46.94215655141861L130.035,50.10139939832707L130.3375,53.16586451400927L130.6125,56.13839525675001L130.85,59.021749682528366L131.1275,61.81860310417887L131.17249999999999,64.53155057377248L131.6975,67.16310929052094L132.4125,69.71572093643918L132.455,72.19175394193348L132.5525,74.59350568341745L133.1975,76.92320461499568L133.7975,79.18301233619319L133.885,77.75001973032944L134.01999999999998,79.98502273010023L134.1,82.15297542760926L134.28,84.25588934446945L134.3475,86.29571565590396L134.35750000000002,88.2743470011817L134.51500000000001,90.19361923973702L134.9525,92.05531315460375L134.985,93.86115610474361L135.185,95.61282362780273L135.195,97.31194099478341L135.285,98.96008471807387L135.5025,100.55878401423526L135.51999999999998,102.10952222290342L135.63,103.61373818312188L135.7625,101.23458832071275L136.465,102.76505222855786L136.61499999999998,104.24960212712128L137.0075,101.02889673821379L137.0425,102.5655312632561L137.4125,104.05606666820024L137.7625,105.50188593163404L138.2775,106.9043305424931L138.3,108.26470174476776L138.4325,109.58426174486786L138.77,110.86423488276552L138.85999999999999,112.1058087680028L139.1475,113.31013538161825L139.6,114.47833214501489L140.08499999999998,115.61148295676122L140.2275,108.01063362582383L140.425,109.3378154723168L140.515,110.62518181286865L140.79749999999999,111.87392711564488L140.8375,113.0852100145895L141.035,114.26015438446208L141.25,115.39985038362316L142.9975,116.50535546553529L143.105,117.57769535991886L143.255,118.61786502447247L143.305,119.62682956804119L143.595,120.60552514608952L143.725,121.55485982930959L143.875,122.47571444617074L143.965,123.3689434001922L144.0975,124.23537546269725L144.14,120.7258128703384L144.17499999999998,121.67153885858417L144.235,122.58889304505813L144.265,123.47872658512098L144.3625,124.34186509939533L144.3975,125.17910943981241L144.7075,125.99123643267708L144.87,126.77899959944075L144.92749999999998,127.54312985585061L145.1925,128.28433619012455L145.455,129.00330632078024L145.57,129.70070733472943L146.3075,130.377186306229L147.1125,131.03337089726347L147.4575,101.32102510843802L148.1825,102.84889475001472L148.3175,104.33092827900968L148.38,105.7685007801794L148.695,107.16294608565619L148.8975,108.51555801253176L149.05,109.82759156331282L149.0975,111.10026409036308L150.0175,112.3347564254114L150.1425,113.53221397517471L150.375,114.69374778411185L150.415,112.19543501278262L150.49,113.39707218451834L150.6725,114.56266022797473L150.9575,115.69328061777603L151.575,116.7899823842618L151.57999999999998,113.77565741945823L152.05,114.92988788009072L152.45,97.10593950999422L152.8375,98.76026157177289L153.07,100.36495395709585L153.2075,101.92150555711977L153.35750000000002,103.43136059621564L154.3775,99.45841946044543L154.49749999999997,101.04216707975526L154.51749999999998,76.47839901145458L154.88750000000002,70.595296331168L155.00500000000002,73.04493772797493L155.17,75.42108986593121L155.59500000000003,74.46345706448272L155.7325,76.79705360185251L155.885,79.06064222836734L155.97,81.2563231822236L156.2775,79.95192286600899L156.3225,82.12086538516333L156.7075,68.87179732449155L157.00750000000002,60.49814307444537L157.2675,63.25069901980974L157.35,57.764427589853376L157.51000000000002,60.59899499237424L157.535,63.34852535921366L157.7325,41.26556816840411L157.77,44.59510137015368L158.505,47.82474856126477L158.525,50.95750632291859L158.67249999999999,53.99628133880994L158.70749999999998,12.919794057480559L159.26749999999998,17.09970050182251L159.285,21.154209737109696L159.29500000000002,-3.1291348310458473L159.305,1.532239484688013L159.6575,6.053772554945412L159.73999999999998,10.439659618036535L159.7675,14.693970055066304L160.1825,18.82065116565394L160.22,22.823531830380606L160.27249999999998,26.706326063363406L160.31,30.47263645825219L160.605,34.12595753084604L161.1675,37.66967896143127L161.565,41.10708873984918L161.61999999999998,14.325989966432244L161.73000000000002,18.46371043422566L161.8,22.477299278128218L162.02,26.37048044743913L162.345,25.12763536266386L162.4575,28.94130643787502L162.985,32.64056737278687L163.25,36.2288504720837L163.2575,39.70948507128127L163.32250000000002,43.085700625803305L163.39999999999998,46.36062970738605L163.8475,49.53731091059021L163.86,52.6186916721177L163.88,55.607631005548605L164.285,58.506902154036155L164.4175,61.319195163420616L164.91750000000002,64.04711937814984L165.23,66.69320586232193L165.76250000000002,69.25990974809683L165.845,71.7496125136553L165.95000000000002,74.1646241928191L166.0825,76.50718551838271L166.27,78.77947000114474L166.305,80.98358594656857L166.3225,83.12157841094314L166.5225,47.25938442992725L166.97,50.409102956317135L167.0525,53.464329923411405L167.5,56.42790007819603L168.25,59.30256312523516L168.265,62.090986277944445L168.71249999999998,64.79575673332629L169.4025,67.41938407246282L170.74,69.96430258899409L170.8675,72.43287354774195L171.1025,40.571136885369484L171.39249999999998,43.92150282531371L171.53,47.171357784311134L171.605,50.32371709195259L171.8,49.75650571029107L171.8675,52.8313105767669L171.91,55.81387129501542L171.9725,58.7069551896154L172.5375,61.513246565400436L172.5775,64.23534919805185L172.5925,66.87578874997355L173.1625,69.4370151136909L173.28,71.92140468494732L173.58249999999998,74.33126256760822L174.0625,76.66882471241762L174.1025,78.93625999159215L174.17749999999998,81.13567221117711L174.34500000000003,83.26910206303194L174.38000000000002,85.3385290182561L175.2175,87.345873163812L175.45,89.29299698404954L175.465,91.18170708878446L175.51999999999998,93.0137558895348L175.745,94.79084322546986L176.19000000000003,96.51461794058095L176.26000000000002,98.18667941353688L176.4925,99.80857904164381L176.68,101.38182168028618L177.80749999999998,102.90786703918471L178.01500000000001,99.72741676792779L178.1925,101.3030942739318L178.435,102.83150145422134L178.465,104.31405641859939L178.5975,105.75213473357302L178.8375,107.14707069865233L179.2025,108.50015858436046L180.35,109.81265383310327L180.55,111.08577422401302L181.2925,112.32070100284663L181.37,113.51857997798697L181.39000000000001,114.68052258356428L182.1875,115.80760691068369L182.5625,116.90087870771607L183.0525,117.96135235058027L183.3975,118.99001178391646L183.57250000000002,119.9878114340248L183.575,120.95567709441562L183.785,121.8945067847931L184.18,122.80517158426953L184.455,123.6885164395832L184.66500000000002,116.38911092361784L184.9725,117.46493759916571L185.2475,118.5084894742547L185.435,119.52073479290993L185.56500000000003,120.50261275183514L186.28,121.45503437183227L186.305,122.37888334307866L186.31,123.27501684504574L186.72,124.14426634182027L187.225,124.98743835356592L187.475,125.805315204841L187.50250000000003,126.59865575046659L187.6375,127.36819607961876L188.115,128.1146501987979L188.1875,118.80024942259998L188.23250000000002,119.80374194190495L188.44,120.77712968551357L188.6275,121.72131579670366L188.705,122.63717632445432L188.82,96.52556081737974L189.005,85.96291897493442L189.10999999999999,87.95153140895968L189.275,89.8804854697707L189.77,91.75157090857537L189.8725,93.56652378404466L190.125,95.32702807308873L190.7475,50.25169876889796L191.3375,53.31164781002645L191.62,56.279798379673124L191.97,59.15890443199711L192.3725,61.95163730253189L192.4425,64.66058818674406L192.555,67.28827054423557L193.60250000000002,69.83712243081945L193.6875,72.30950876063382L193.785,74.70772350039184L195.66,77.03399179780486L195.6625,79.29047204615216L195.70499999999998,71.44079662581028L195.9475,44.07703041317796L196.075,47.32221950377718L196.28250000000003,50.47005292148146L196.4775,53.52345133648811L197.325,56.48524779888785L197.4725,59.358190367268186L197.92999999999998,62.14494465845842L197.9325,64.84809632078245L197.965,67.47015343311392L198.3175,70.01354883195995L198.44250000000002,72.48064236873188L198.64000000000001,74.87372309929835L198.69250000000002,38.68681576285069L199.1575,42.093711292146466L199.225,45.39839995543445L199.3,48.6039479587025L199.4975,51.71332952175838L199.79000000000002,54.7294296378152L201.1475,57.6550467502893L201.1575,60.49289534929407L201.23499999999999,63.245608490239285L201.32500000000002,65.91574023687198L201.45250000000001,68.50576803102652L201.64249999999998,71.0180949912819L202.29,73.4550521426595L202.4925,75.81890057942982L203.18249999999998,78.11183356303498L203.28750000000002,76.49774333456014L203.57250000000002,78.77031103544473L203.88750000000002,80.97470170524835L203.95250000000001,83.11296065490662L204.2425,85.18707183602692L204.6275,87.19895968166826L204.7675,89.15049089189766L204.895,91.04347616578005L204.95000000000002,92.87967188140816L205.03249999999997,94.66078172553189L205.095,96.38845827429847L205.495,98.06430452657057L205.69,99.6898753912449L205.7425,101.26667912995113L205.74499999999998,102.79617875646997L205.75,104.27979339416855L206.005,105.718899592713L206.01250000000002,107.11483260527926L206.1125,108.46888762744798L206.3975,109.78232099893232L206.81,111.05635136925393L207.185,112.29216082844877L207.3725,113.49089600385169L207.525,114.65366912397735L207.95000000000002,115.781559050485L208.29749999999999,116.87561227918398L209.3725,117.93684391100939L209.47500000000002,118.96623859386817L209.48749999999998,119.96475143623L209.605,120.93330889331047L209.75500000000002,121.87280962666863L209.8125,122.78412533801674L210.02999999999997,123.66810157801565L210.47,124.52555853080636L210.4875,125.35729177500558L212.16500000000002,126.16407302187153L212.255,126.94665083132465L212.8525,127.70575130648773L212.93,128.44207876738983L213.675,129.15631640445915L213.72,129.84912691241098L213.92,130.52115310511925L214.07500000000002,90.71801850733661L214.24499999999998,92.56397795232475L214.8225,94.35455861395093L214.82750000000001,96.09142185571676L215.1425,97.7761792002187L215.25,99.41039382437536L215.54749999999999,100.99558200979767L216.08,102.53321454964822L216.20749999999998,104.02471811329472L216.56750000000002,105.4714765700238L216.685,106.87483227304344L216.76500000000001,108.23608730496538L216.9775,109.55650468592296L217.2675,110.83730954544552L217.285,112.07969025917649L217.3125,113.28479955148994L217.685,114.45375556502876L217.9975,115.58764289815646L218.3125,116.6875136112857L218.6525,117.75438820301669L218.8275,118.78925655699165L219.11,119.79307886034347L219.5075,120.76678649459112L219.75500000000002,121.71128289980788L220.23499999999999,122.62744441286493L220.34,123.51612108052726L220.5225,124.37813744815685L220.66500000000002,125.21429332475488L221.94,126.02536452505242L222.10999999999999,126.81210358933869L222.3025,127.57524048169411L222.3375,128.31548326727676L222.435,129.03351876929L222.51500000000001,129.73001320624093L222.7925,130.4056128100816L223.27499999999998,131.0609444258054L223.4475,131.69661609305592L223.5475,132.3132176102875L223.995,132.9113210820007L224.05249999999998,133.49148144956126L224.2425,134.05423700609379L224.5325,134.60010989592917L224.595,135.12960659906844L224.92249999999999,135.6432184011125L224.94,136.14142184909431L224.99749999999997,136.62467919363573L225.07999999999998,137.09343881784008L225.09,137.54813565331753L225.2525,137.9891915837299L225.415,138.41701583622918L225.88,138.83200536115282L225.97750000000002,139.23454520032814L226.0175,139.62500884432762L226.3775,140.00375857900656L226.4425,140.3711458216446L226.535,140.72751144700302L227.0675,141.07318610360025L227.165,141.4084905204991L227.17,141.7337358048906L227.36749999999998,142.04922373074996L227.4925,142.35524701883318L227.54,142.65208960827357L227.795,142.94002692003045L228.45499999999998,143.2193261124343L228.7375,143.49024632906574L228.82500000000002,143.753038939198L229.88250000000002,144.007947771026L230.20250000000001,144.255209337899L230.6275,144.49505305776555L231.07999999999998,144.72770146603588L231.22000000000003,99.6993402509931L231.3175,101.2758600434844L231.62249999999997,102.80508424219971L231.725,104.2884317149524L231.8425,105.72727876352138L231.92749999999998,107.12296040063227L232.07999999999998,108.47677158862885L232.12500000000003,109.78996844098461L232.3125,111.06376938776886L232.69,112.29935630614874L232.82,113.49787561697646L233.17,114.66043934847863L233.7775,115.78812616803506L234.40750000000003,116.88198238300417L234.80999999999997,117.9430229115236L234.93,118.9722322241869L235.415,119.97056525746974L235.495,120.9389482997536L235.51500000000001,121.87827985076846L235.64,122.78943145525248L235.9875,123.67324851160153L236.02499999999998,124.53055105625971L236.19,125.36213452457778L236.505,126.168770488846L236.7175,126.9512073741858L236.85250000000002,127.71017115296512L237.04749999999999,128.44636601838076L237.4025,129.16047503783366L237.5525,129.85316078670272L237.5925,130.52506596310548L237.6325,131.17681398421593L237.725,131.80900956469281L237.925,132.42223927775524L238.10999999999999,133.01707209942558L238.30249999999998,133.59405993644566L238.7725,134.15373813835492L238.85,134.69662599420678L238.9325,135.22322721438294L239.0925,135.73403039795366L239.19,136.22950948601712L239.21750000000003,136.7101242014386L239.37500000000003,137.17632047539726L239.96499999999997,137.62853086113708L240.0375,138.0671749353046L240.20499999999998,138.49265968724703L241.1325,138.90537989663105L241.52,139.30571849973344L241.6075,139.69404694474275L241.625,140.07072553640168L241.95250000000001,140.43610377031075L241.98499999999999,140.7905206572025L242.10000000000002,141.13430503748742L242.16500000000002,141.46777588636374L242.29999999999998,141.79124260977372L242.52249999999998,142.10500533148135L243.48499999999999,142.4093551715377L243.6275,142.70457451639228L243.8925,142.99093728090122L244.055,143.26870916247483L244.16750000000002,143.5381478876012L244.54500000000002,143.79950345097376L244.57500000000002,144.0530183474451L245.075,144.29892779702226L245.235,144.53745996311207L245.3125,144.76883616421918L245.345,144.993271079293L245.9375,145.2109729469146L246.10500000000002,145.42214375850756L246.6875,145.62697944575268L246.9175,145.82567006238045L247.04,146.01839996050936L247.3075,146.20534796169437L247.9,146.38668752284383L248.1575,146.56258689715878L248.37,146.73320929024425L248.41,146.89871301153715L249.365,147.05925162119127L249.4075,147.21497407255572L249.685,147.36602485037926L249.7325,147.51254410486806L249.93499999999997,147.6546677817222L250.075,147.7925277482707L250.09,147.92625191582272L250.595,148.05596435834818L250.7675,148.18178542759784L250.79999999999998,148.30383186477005L251.1275,148.42221690882707L252.3025,148.53705040156237L252.6875,148.6484388895156L252.73749999999998,148.75648572283023L253.2525,148.86129115114542L253.4975,148.96295241661113L253.615,149.0615638441129L253.6875,149.1572169287896L254.0625,149.25000042092597L254.1125,149.34000040829827L254.12,149.4273003960494L254.275,149.51198138416794L254.33249999999998,149.59412194264297L254.34,149.67379828436373L254.8425,149.75108433583287L255.02499999999998,149.82605180575794L255.23749999999998,149.89877025158523L255.3025,149.96930714403774L255.6175,150.03772792971662L255.775,150.10409609182517L256.6175,150.16847320907044L256.825,150.23091901279838L256.97249999999997,150.29149144241444L256.97749999999996,150.35024669914205L257.055,150.4072392981678L257.2325,150.46252211922283L257.8175,150.51614645564615L258.06,150.56816206197678L258.68,150.6186172001175L259.185,150.667558684114L259.755,150.7150319235906L260.155,150.76108096588288L260.9525,150.80574853690644L261.0425,104.93241033600084L261.0625,106.35193802592133L261.34250000000003,107.72887988514415L261.4375,109.0645134885903L261.96250000000003,110.360078083933L262.23,111.6167757414154L262.5775,112.83577246917334L262.645,114.01819929509848L262.9625,115.16515331624586L263.305,116.27769871675879L263.445,117.35686775525632L263.525,118.4036617225989L263.7025,119.41905187092121L263.795,120.4039803147938L264.65250000000003,121.35936090535023L264.875,122.28608007818994L264.9325,123.18499767584444L265.0825,124.05694774556929L265.1025,124.9027393132024L265.3125,125.7231571338065L265.755,126.51896241979246L265.955,127.29089354719883L266.165,128.03966674078302L266.265,128.76597673855966L266.34000000000003,129.47049743640298L266.5025,130.15388251331103L266.5825,130.8167660379118L267.5475,131.45976305677456L267.8925,132.08347016507142L268.0675,132.68846606011937L268.2425,133.2753120783159L268.33750000000003,133.84455271596647L268.54249999999996,134.39671613448758L268.65250000000003,134.932314650453L268.8025,135.45184521093947L268.9925,135.95578985461137L269.135,136.44461615897308L269.3575,136.91877767420394L269.485,137.3787143439779L269.4925,137.8248529136586L269.6925,138.2576073262489L269.9675,138.67737910646147L269.9925,139.08455773326767L270.35,139.4795210012697L270.53249999999997,139.86263537123162L271.0125,140.2342563100947L271.1875,140.5947286207919L271.31,140.94438676216816L271.355,141.28355515930318L271.515,141.61254850452409L271.8875,141.9316720493884L272.47749999999996,142.24122188790676L272.64000000000004,142.54148523126958L273.1775,142.83274067433152L273.7675,143.1152584541016L273.82,143.38930070047857L274.0325,143.65512167946423L274.0375,143.91296802908033L274.7125,144.16307898820793L274.955,144.4056866185617L275,144.64101602000486" style="fill: none;" fill="none"></path></g></g></g></g><g opacity="0.2"><g><g><g><path stroke="rgb(204, 51, 17)" stroke-width="2px" d="M25.107499999999998,152.25L25.2375,152.25L25.419999999999998,152.25L25.575000000000003,152.25L25.587500000000002,152.25L25.685,152.25L25.7775,152.25L25.7975,152.25L26.1875,152.25L26.3425,152.25L26.450000000000003,152.25L26.4675,152.25L26.5875,-65.25L26.619999999999997,-3.107141375541687L26.7875,152.25L27.0225,152.25L27.537499999999998,37.77631688117981L27.6675,-749.5792379379272L28.335,152.25L28.345000000000002,24.308825969696045L28.465,152.25L28.482499999999998,152.25L28.592499999999998,152.25L29.23,16.3125L29.3375,152.25L29.345,152.25L29.695,48.67857241630554L29.794999999999998,37.77631688117981L30.0925,152.25L30.2425,53.386364579200745L30.5,-89.41665744781494L30.6575,152.25L30.77,-89.41665744781494L30.974999999999998,152.25L31.0925,-28.999993085861206L31.215,152.25L31.2175,152.25L31.247500000000002,152.25L31.3325,-182.36537504196167L31.715,152.25L31.852500000000003,37.77631688117981L32.5975,-15.057687520980835L33.0775,152.25L33.1175,-3.107141375541687L33.265,-3.107141375541687L34.0475,152.25L34.0525,-131.4456467628479L34.1775,152.25L34.355000000000004,152.25L34.5375,43.5L34.555,152.25L34.8225,152.25L34.8925,152.25L35.0925,152.25L35.4925,152.25L35.795,7.250003457069397L36.0025,152.25L36.232499999999995,-282.75L36.6925,-21.75L36.9725,152.25L37.43,152.25L37.767500000000005,152.25L37.8375,-220.6071310043335L38.364999999999995,7.250003457069397L38.4,152.25L38.875,-89.41665744781494L39.31,-8.861108422279358L39.5225,152.25L39.6625,152.25L39.68,152.25L39.77,152.25L39.9775,152.25L40.502500000000005,152.25L40.55,152.25L40.725,152.25L41.4375,152.25L41.51,152.25L41.75,152.25L41.78,-174L42.137499999999996,152.25L42.4175,152.25L42.89,152.25L43.4575,-119.625L43.652499999999996,152.25L43.66,16.3125L43.78,-65.25L44.4725,-144.34091663360596L44.4975,152.25L44.585,152.25L44.980000000000004,152.25L45.1675,152.25L45.4525,152.25L45.55500000000001,152.25L45.91,-45.47727084159851L45.945,-411.63889503479004L46.2475,152.25L46.2725,152.25L46.505,-266.01924991607666L47.1975,-15.057687520980835L47.3225,152.25L47.339999999999996,152.25L47.485,37.77631688117981L48.1525,-76.69736623764038L48.6725,24.308825969696045L48.8875,48.67857241630554L48.92,152.25L49.247499999999995,152.25L49.61,-210.2499861717224L50.692499999999995,-131.4456467628479L50.71,152.25L51.00000000000001,152.25L51.199999999999996,152.25L51.307500000000005,152.25L51.519999999999996,16.3125L51.894999999999996,152.25L51.9525,-634.4521064758301L52.2575,152.25L52.265,-158.46428275108337L52.4175,152.25L52.4375,-89.41665744781494L52.5525,152.25L52.7575,152.25L53.55,152.25L53.6825,152.25L53.8325,152.25L53.9175,-572.7499723434448L54.214999999999996,152.25L54.400000000000006,152.25L54.925,152.25L54.9375,-250.5277762413025L55.4125,152.25L55.7275,-54.892855167388916L56.68,152.25L57.19499999999999,152.25L57.35,152.25L57.587500000000006,152.25L57.655,-266.01924991607666L57.775,-323.53125L58.5075,152.25L58.8675,-103.63234806060791L58.995,152.25L59.0525,24.308825969696045L59.527499999999996,-131.4456467628479L59.7125,152.25L60.2025,-89.41665744781494L60.555,152.25L60.7375,152.25L60.847500000000004,152.25L61.12,152.25L61.597500000000004,-338.8790202140808L61.6725,152.25L61.72,31.41667127609253L61.949999999999996,152.25L62.025,152.25L62.185,152.25L62.2325,152.25L63.3125,-119.625L63.684999999999995,152.25L63.69,152.25L63.769999999999996,152.25L64.35249999999999,48.67857241630554L64.4125,152.25L65.2925,152.25L65.625,24.308825969696045L65.80499999999999,152.25L66.745,152.25L67.025,152.25L67.145,-243.20454168319702L67.25,-409.0403265953064L67.6675,48.67857241630554L67.745,152.25L68.2325,-231.57352209091187L68.295,152.25L68.35,-28.999993085861206L68.86,152.25L68.895,152.25L68.9675,152.25L68.9875,152.25L70.165,152.25L71.13,31.41667127609253L72.39750000000001,152.25L72.7925,152.25L72.925,53.386364579200745L73.18,-169.97221684455872L73.83,31.41667127609253L74.10249999999999,-15.057687520980835L74.1375,-372.7500171661377L74.33,152.25L74.6175,-243.20454168319702L74.8475,152.25L74.99,152.25L75.09,152.25L75.135,152.25L75.1575,-766.0833148956299L75.3475,152.25L75.6125,152.25L75.6325,152.25L75.80999999999999,-108.75L76.35,-506.84090280532837L76.3525,37.77631688117981L76.4075,-391.5L76.4475,152.25L76.95,37.77631688117981L76.9575,152.25L77.08,152.25L77.14,152.25L77.7025,-119.625L77.8625,152.25L78.025,152.25L78.0825,152.25L78.3,24.308825969696045L78.48,152.25L78.81,152.25L79.6225,-144.34091663360596L80.0175,-54.892855167388916L80.615,152.25L80.7325,152.25L80.82750000000001,152.25L80.8975,152.25L81.1825,152.25L82.1025,57.68478441238403L82.8475,152.25L82.8725,152.25L82.9825,-65.25L83.0475,31.41667127609253L83.16,-355.2500138282776L83.2175,152.25L83.405,152.25L83.57000000000001,7.250003457069397L83.8525,152.25L84.17750000000001,31.41667127609253L84.205,152.25L84.255,152.25L84.8475,152.25L85.19999999999999,-440.9318332672119L85.37,152.25L85.70750000000001,-696.5305080413818L85.7125,152.25L85.80749999999999,152.25L85.86500000000001,-231.57352209091187L86.55499999999999,152.25L86.8,152.25L86.82,152.25L87.255,152.25L87.3375,152.25L87.52250000000001,152.25L87.61999999999999,152.25L87.83500000000001,152.25L88.135,152.25L88.3325,152.25L88.48,152.25L89.2175,152.25L89.5325,152.25L89.62,152.25L89.805,152.25L90.16749999999999,-231.57352209091187L90.23,152.25L90.39,152.25L90.425,24.308825969696045L90.75999999999999,152.25L91.01,53.386364579200745L91.1775,152.25L91.99499999999999,24.308825969696045L91.99749999999999,-597.7499771118164L92.075,152.25L92.8575,152.25L92.88749999999999,152.25L92.8975,152.25L92.89999999999999,152.25L93.1875,-15.057687520980835L93.765,152.25L94.01,7.250003457069397L94.0525,152.25L94.0975,-451.9166851043701L94.565,57.68478441238403L94.7925,-182.36537504196167L94.8775,-65.25L94.9225,152.25L95.805,-300.8750138282776L96.09750000000001,152.25L96.13000000000001,152.25L96.36,152.25L96.4325,152.25L96.52999999999999,152.25L97.4275,152.25L97.4925,-119.625L97.595,152.25L97.6575,152.25L98.005,152.25L98.16,152.25L98.68,152.25L98.72,-76.69736623764038L98.905,152.25L99.03,152.25L99.36999999999999,152.25L99.575,152.25L100.01499999999999,-119.625L100.08,152.25L100.2325,-391.5L100.4375,-28.999993085861206L100.61,152.25L100.7125,-89.41665744781494L100.82000000000001,152.25L101.15,-28.999993085861206L101.5325,-3.107141375541687L101.7675,152.25L101.8025,152.25L103.51750000000001,152.25L103.61,152.25L104.24249999999999,152.25L104.5225,152.25L104.68499999999999,152.25L104.70249999999999,7.250003457069397L104.8425,152.25L104.86500000000001,152.25L105.01249999999999,43.5L105.045,152.25L105.4375,152.25L105.52,-365.6071586608887L106.09,152.25L106.35749999999999,152.25L106.645,152.25L106.7675,152.25L106.9075,-45.47727084159851L107.2375,152.25L107.2575,152.25L107.5875,-309.11365270614624L107.8825,152.25L107.95,-236.1428689956665L107.955,152.25L108.17999999999999,-45.47727084159851L108.355,152.25L108.44,31.41667127609253L108.51,-119.625L109.3225,152.25L109.345,152.25L109.375,152.25L109.4225,152.25L109.465,152.25L109.60000000000001,7.250003457069397L109.63,152.25L109.6925,152.25L109.785,152.25L110.045,152.25L110.0925,-779.8928689956665L110.355,152.25L110.9075,152.25L110.96000000000001,152.25L111.09750000000001,152.25L111.315,152.25L111.5,152.25L111.96,152.25L113.33500000000001,152.25L113.3875,-89.41665744781494L113.4075,152.25L113.445,152.25L113.71,152.25L113.93499999999999,152.25L114.43,152.25L114.4475,-305.64473247528076L114.625,-630.75L114.885,152.25L114.9275,-108.75L115.095,152.25L115.6175,152.25L115.69,152.25L116.575,152.25L116.64999999999999,152.25L116.6975,152.25L116.92,-469.17856550216675L117.05,152.25L117.12750000000001,152.25L117.27000000000001,152.25L117.925,-338.8790202140808L118.0075,152.25L118.64,-427.7499861717224L118.725,152.25L119.41250000000001,152.25L119.69250000000001,152.25L120.4825,152.25L120.62,152.25L121.10000000000001,152.25L121.14,24.308825969696045L121.16749999999999,152.25L121.6075,-420.11843633651733L121.7525,152.25L121.80250000000001,152.25L122.1025,-704.5681943893433L122.455,152.25L122.515,152.25L122.85499999999999,-338.8790202140808L123.095,152.25L123.24249999999999,152.25L123.27,152.25L124.25750000000001,152.25L124.3275,152.25L124.455,152.25L124.6975,152.25L124.77499999999999,152.25L124.7875,152.25L125.0525,152.25L125.7425,152.25L126.2525,152.25L126.61999999999999,152.25L126.66000000000001,152.25L126.67,152.25L126.7525,152.25L126.80250000000001,152.25L126.985,152.25L127.6025,-349.6730833053589L127.82249999999999,-15.057687520980835L128.11249999999998,152.25L128.18,152.25L128.355,152.25L128.525,152.25L128.73,152.25L128.85,-704.5681943893433L128.89,-182.36537504196167L129.68,152.25L130.035,152.25L130.3375,152.25L130.6125,152.25L130.85,152.25L131.1275,152.25L131.17249999999999,152.25L131.6975,152.25L132.4125,152.25L132.455,152.25L132.5525,152.25L133.1975,152.25L133.7975,152.25L133.885,31.41667127609253L134.01999999999998,152.25L134.1,152.25L134.28,152.25L134.3475,152.25L134.35750000000002,152.25L134.51500000000001,152.25L134.9525,152.25L134.985,152.25L135.185,152.25L135.195,152.25L135.285,152.25L135.5025,152.25L135.51999999999998,152.25L135.63,152.25L135.7625,24.308825969696045L136.465,152.25L136.61499999999998,152.25L137.0075,-3.107141375541687L137.0425,152.25L137.4125,152.25L137.7625,152.25L138.2775,152.25L138.3,152.25L138.4325,152.25L138.77,152.25L138.85999999999999,152.25L139.1475,152.25L139.6,152.25L140.08499999999998,152.25L140.2275,-137.7499930858612L140.425,152.25L140.515,152.25L140.79749999999999,152.25L140.8375,152.25L141.035,152.25L141.25,152.25L142.9975,152.25L143.105,152.25L143.255,152.25L143.305,152.25L143.595,152.25L143.725,152.25L143.875,152.25L143.965,152.25L144.0975,152.25L144.14,7.250003457069397L144.17499999999998,152.25L144.235,152.25L144.265,152.25L144.3625,152.25L144.3975,152.25L144.7075,152.25L144.87,152.25L144.92749999999998,152.25L145.1925,152.25L145.455,152.25L145.57,152.25L146.3075,152.25L147.1125,152.25L147.4575,-859.3778915405273L148.1825,152.25L148.3175,152.25L148.38,152.25L148.695,152.25L148.8975,152.25L149.05,152.25L149.0975,152.25L150.0175,152.25L150.1425,152.25L150.375,152.25L150.415,31.41667127609253L150.49,152.25L150.6725,152.25L150.9575,152.25L151.575,152.25L151.57999999999998,16.3125L152.05,152.25L152.45,-479.201632976532L152.8375,152.25L153.07,152.25L153.2075,152.25L153.35750000000002,152.25L154.3775,-28.999993085861206L154.49749999999997,152.25L154.51749999999998,-717.75L154.88750000000002,-119.625L155.00500000000002,152.25L155.17,152.25L155.59500000000003,43.5L155.7325,152.25L155.885,152.25L155.97,152.25L156.2775,37.77631688117981L156.3225,152.25L156.7075,-359.5146961212158L157.00750000000002,-210.2499861717224L157.2675,152.25L157.35,-119.625L157.51000000000002,152.25L157.535,152.25L157.7325,-672.7499914169312L157.77,152.25L158.505,152.25L158.525,152.25L158.67249999999999,152.25L158.70749999999998,-1315.219871520996L159.26749999999998,152.25L159.285,152.25L159.29500000000002,-788.2905607223511L159.305,152.25L159.6575,152.25L159.73999999999998,152.25L159.7675,152.25L160.1825,152.25L160.22,152.25L160.27249999999998,152.25L160.31,152.25L160.605,152.25L161.1675,152.25L161.565,152.25L161.61999999999998,-851.5961666107178L161.73000000000002,152.25L161.8,152.25L162.02,152.25L162.345,-15.057687520980835L162.4575,152.25L162.985,152.25L163.25,152.25L163.2575,152.25L163.32250000000002,152.25L163.39999999999998,152.25L163.8475,152.25L163.86,152.25L163.88,152.25L164.285,152.25L164.4175,152.25L164.91750000000002,152.25L165.23,152.25L165.76250000000002,152.25L165.845,152.25L165.95000000000002,152.25L166.0825,152.25L166.27,152.25L166.305,152.25L166.3225,152.25L166.5225,-1112.2848644256592L166.97,152.25L167.0525,152.25L167.5,152.25L168.25,152.25L168.265,152.25L168.71249999999998,152.25L169.4025,152.25L170.74,152.25L170.8675,152.25L171.1025,-989.625L171.39249999999998,152.25L171.53,152.25L171.605,152.25L171.8,31.41667127609253L171.8675,152.25L171.91,152.25L171.9725,152.25L172.5375,152.25L172.5775,152.25L172.5925,152.25L173.1625,152.25L173.28,152.25L173.58249999999998,152.25L174.0625,152.25L174.1025,152.25L174.17749999999998,152.25L174.34500000000003,152.25L174.38000000000002,152.25L175.2175,152.25L175.45,152.25L175.465,152.25L175.51999999999998,152.25L175.745,152.25L176.19000000000003,152.25L176.26000000000002,152.25L176.4925,152.25L176.68,152.25L177.80749999999998,152.25L178.01500000000001,-3.107141375541687L178.1925,152.25L178.435,152.25L178.465,152.25L178.5975,152.25L178.8375,152.25L179.2025,152.25L180.35,152.25L180.55,152.25L181.2925,152.25L181.37,152.25L181.39000000000001,152.25L182.1875,152.25L182.5625,152.25L183.0525,152.25L183.3975,152.25L183.57250000000002,152.25L183.575,152.25L183.785,152.25L184.18,152.25L184.455,152.25L184.66500000000002,-119.625L184.9725,152.25L185.2475,152.25L185.435,152.25L185.56500000000003,152.25L186.28,152.25L186.305,152.25L186.31,152.25L186.72,152.25L187.225,152.25L187.475,152.25L187.50250000000003,152.25L187.6375,152.25L188.115,152.25L188.1875,-182.36537504196167L188.23250000000002,152.25L188.44,152.25L188.6275,152.25L188.705,152.25L188.82,-747.7500057220459L189.005,-255.5625L189.10999999999999,152.25L189.275,152.25L189.77,152.25L189.8725,152.25L190.125,152.25L190.7475,-1407.183946609497L191.3375,152.25L191.62,152.25L191.97,152.25L192.3725,152.25L192.4425,152.25L192.555,152.25L193.60250000000002,152.25L193.6875,152.25L193.785,152.25L195.66,152.25L195.6625,152.25L195.70499999999998,-182.36537504196167L195.9475,-840.6847429275513L196.075,152.25L196.28250000000003,152.25L196.4775,152.25L197.325,152.25L197.4725,152.25L197.92999999999998,152.25L197.9325,152.25L197.965,152.25L198.3175,152.25L198.44250000000002,152.25L198.64000000000001,152.25L198.69250000000002,-1131.356520652771L199.1575,152.25L199.225,152.25L199.3,152.25L199.4975,152.25L199.79000000000002,152.25L201.1475,152.25L201.1575,152.25L201.23499999999999,152.25L201.32500000000002,152.25L201.45250000000001,152.25L201.64249999999998,152.25L202.29,152.25L202.4925,152.25L203.18249999999998,152.25L203.28750000000002,24.308825969696045L203.57250000000002,152.25L203.88750000000002,152.25L203.95250000000001,152.25L204.2425,152.25L204.6275,152.25L204.7675,152.25L204.895,152.25L204.95000000000002,152.25L205.03249999999997,152.25L205.095,152.25L205.495,152.25L205.69,152.25L205.7425,152.25L205.74499999999998,152.25L205.75,152.25L206.005,152.25L206.01250000000002,152.25L206.1125,152.25L206.3975,152.25L206.81,152.25L207.185,152.25L207.3725,152.25L207.525,152.25L207.95000000000002,152.25L208.29749999999999,152.25L209.3725,152.25L209.47500000000002,152.25L209.48749999999998,152.25L209.605,152.25L209.75500000000002,152.25L209.8125,152.25L210.02999999999997,152.25L210.47,152.25L210.4875,152.25L212.16500000000002,152.25L212.255,152.25L212.8525,152.25L212.93,152.25L213.675,152.25L213.72,152.25L213.92,152.25L214.07500000000002,-1196.25L214.24499999999998,152.25L214.8225,152.25L214.82750000000001,152.25L215.1425,152.25L215.25,152.25L215.54749999999999,152.25L216.08,152.25L216.20749999999998,152.25L216.56750000000002,152.25L216.685,152.25L216.76500000000001,152.25L216.9775,152.25L217.2675,152.25L217.285,152.25L217.3125,152.25L217.685,152.25L217.9975,152.25L218.3125,152.25L218.6525,152.25L218.8275,152.25L219.11,152.25L219.5075,152.25L219.75500000000002,152.25L220.23499999999999,152.25L220.34,152.25L220.5225,152.25L220.66500000000002,152.25L221.94,152.25L222.10999999999999,152.25L222.3025,152.25L222.3375,152.25L222.435,152.25L222.51500000000001,152.25L222.7925,152.25L223.27499999999998,152.25L223.4475,152.25L223.5475,152.25L223.995,152.25L224.05249999999998,152.25L224.2425,152.25L224.5325,152.25L224.595,152.25L224.92249999999999,152.25L224.94,152.25L224.99749999999997,152.25L225.07999999999998,152.25L225.09,152.25L225.2525,152.25L225.415,152.25L225.88,152.25L225.97750000000002,152.25L226.0175,152.25L226.3775,152.25L226.4425,152.25L226.535,152.25L227.0675,152.25L227.165,152.25L227.17,152.25L227.36749999999998,152.25L227.4925,152.25L227.54,152.25L227.795,152.25L228.45499999999998,152.25L228.7375,152.25L228.82500000000002,152.25L229.88250000000002,152.25L230.20250000000001,152.25L230.6275,152.25L231.07999999999998,152.25L231.22000000000003,-1356.2176723480225L231.3175,152.25L231.62249999999997,152.25L231.725,152.25L231.8425,152.25L231.92749999999998,152.25L232.07999999999998,152.25L232.12500000000003,152.25L232.3125,152.25L232.69,152.25L232.82,152.25L233.17,152.25L233.7775,152.25L234.40750000000003,152.25L234.80999999999997,152.25L234.93,152.25L235.415,152.25L235.495,152.25L235.51500000000001,152.25L235.64,152.25L235.9875,152.25L236.02499999999998,152.25L236.19,152.25L236.505,152.25L236.7175,152.25L236.85250000000002,152.25L237.04749999999999,152.25L237.4025,152.25L237.5525,152.25L237.5925,152.25L237.6325,152.25L237.725,152.25L237.925,152.25L238.10999999999999,152.25L238.30249999999998,152.25L238.7725,152.25L238.85,152.25L238.9325,152.25L239.0925,152.25L239.19,152.25L239.21750000000003,152.25L239.37500000000003,152.25L239.96499999999997,152.25L240.0375,152.25L240.20499999999998,152.25L241.1325,152.25L241.52,152.25L241.6075,152.25L241.625,152.25L241.95250000000001,152.25L241.98499999999999,152.25L242.10000000000002,152.25L242.16500000000002,152.25L242.29999999999998,152.25L242.52249999999998,152.25L243.48499999999999,152.25L243.6275,152.25L243.8925,152.25L244.055,152.25L244.16750000000002,152.25L244.54500000000002,152.25L244.57500000000002,152.25L245.075,152.25L245.235,152.25L245.3125,152.25L245.345,152.25L245.9375,152.25L246.10500000000002,152.25L246.6875,152.25L246.9175,152.25L247.04,152.25L247.3075,152.25L247.9,152.25L248.1575,152.25L248.37,152.25L248.41,152.25L249.365,152.25L249.4075,152.25L249.685,152.25L249.7325,152.25L249.93499999999997,152.25L250.075,152.25L250.09,152.25L250.595,152.25L250.7675,152.25L250.79999999999998,152.25L251.1275,152.25L252.3025,152.25L252.6875,152.25L252.73749999999998,152.25L253.2525,152.25L253.4975,152.25L253.615,152.25L253.6875,152.25L254.0625,152.25L254.1125,152.25L254.12,152.25L254.275,152.25L254.33249999999998,152.25L254.34,152.25L254.8425,152.25L255.02499999999998,152.25L255.23749999999998,152.25L255.3025,152.25L255.6175,152.25L255.775,152.25L256.6175,152.25L256.825,152.25L256.97249999999997,152.25L256.97749999999996,152.25L257.055,152.25L257.2325,152.25L257.8175,152.25L258.06,152.25L258.68,152.25L259.185,152.25L259.755,152.25L260.155,152.25L260.9525,152.25L261.0425,-1378.3055248260498L261.0625,152.25L261.34250000000003,152.25L261.4375,152.25L261.96250000000003,152.25L262.23,152.25L262.5775,152.25L262.645,152.25L262.9625,152.25L263.305,152.25L263.445,152.25L263.525,152.25L263.7025,152.25L263.795,152.25L264.65250000000003,152.25L264.875,152.25L264.9325,152.25L265.0825,152.25L265.1025,152.25L265.3125,152.25L265.755,152.25L265.955,152.25L266.165,152.25L266.265,152.25L266.34000000000003,152.25L266.5025,152.25L266.5825,152.25L267.5475,152.25L267.8925,152.25L268.0675,152.25L268.2425,152.25L268.33750000000003,152.25L268.54249999999996,152.25L268.65250000000003,152.25L268.8025,152.25L268.9925,152.25L269.135,152.25L269.3575,152.25L269.485,152.25L269.4925,152.25L269.6925,152.25L269.9675,152.25L269.9925,152.25L270.35,152.25L270.53249999999997,152.25L271.0125,152.25L271.1875,152.25L271.31,152.25L271.355,152.25L271.515,152.25L271.8875,152.25L272.47749999999996,152.25L272.64000000000004,152.25L273.1775,152.25L273.7675,152.25L273.82,152.25L274.0325,152.25L274.0375,152.25L274.7125,152.25L274.955,152.25L275,152.25" style="fill: none;" fill="none"></path></g></g></g></g></g></g><g transform="translate(30, 174)" clip-path="url(#clip_1)"><clipPath id="clip_1"><rect width="300" height="26"></rect></clipPath><g><g><line x1="0" y1="0" x2="0" y2="5" style="visibility: inherit;" fill="rgb(0, 0, 0)" stroke="rgb(204, 204, 204)" stroke-width="1px"></line><line x1="25" y1="0" x2="25" y2="5" style="visibility: inherit;" fill="rgb(0, 0, 0)" stroke="rgb(204, 204, 204)" stroke-width="1px"></line><line x1="50" y1="0" x2="50" y2="5" style="visibility: inherit;" fill="rgb(0, 0, 0)" stroke="rgb(204, 204, 204)" stroke-width="1px"></line><line x1="75" y1="0" x2="75" y2="5" style="visibility: inherit;" fill="rgb(0, 0, 0)" stroke="rgb(204, 204, 204)" stroke-width="1px"></line><line x1="100" y1="0" x2="100" y2="5" style="visibility: inherit;" fill="rgb(0, 0, 0)" stroke="rgb(204, 204, 204)" stroke-width="1px"></line><line x1="125" y1="0" x2="125" y2="5" style="visibility: inherit;" fill="rgb(0, 0, 0)" stroke="rgb(204, 204, 204)" stroke-width="1px"></line><line x1="150" y1="0" x2="150" y2="5" style="visibility: inherit;" fill="rgb(0, 0, 0)" stroke="rgb(204, 204, 204)" stroke-width="1px"></line><line x1="175" y1="0" x2="175" y2="5" style="visibility: inherit;" fill="rgb(0, 0, 0)" stroke="rgb(204, 204, 204)" stroke-width="1px"></line><line x1="200" y1="0" x2="200" y2="5" style="visibility: inherit;" fill="rgb(0, 0, 0)" stroke="rgb(204, 204, 204)" stroke-width="1px"></line><line x1="225" y1="0" x2="225" y2="5" style="visibility: inherit;" fill="rgb(0, 0, 0)" stroke="rgb(204, 204, 204)" stroke-width="1px"></line><line x1="250" y1="0" x2="250" y2="5" style="visibility: inherit;" fill="rgb(0, 0, 0)" stroke="rgb(204, 204, 204)" stroke-width="1px"></line><line x1="275" y1="0" x2="275" y2="5" style="visibility: inherit;" fill="rgb(0, 0, 0)" stroke="rgb(204, 204, 204)" stroke-width="1px"></line><line x1="300" y1="0" x2="300" y2="5" style="visibility: inherit;" fill="rgb(0, 0, 0)" stroke="rgb(204, 204, 204)" stroke-width="1px"></line></g><g transform="translate(0, 8)"><text x="0" y="0" dx="0em" dy="0.95em" style="text-anchor: middle; visibility: hidden; font-family: Roboto, sans-serif; font-size: 12px; font-weight: 200;" fill="rgb(50, 49, 63)" stroke="none" stroke-width="1px">-10k</text><text x="25" y="0" dx="0em" dy="0.95em" style="text-anchor: middle; visibility: inherit; font-family: Roboto, sans-serif; font-size: 12px; font-weight: 200;" fill="rgb(50, 49, 63)" stroke="none" stroke-width="1px">0</text><text x="50" y="0" dx="0em" dy="0.95em" style="text-anchor: middle; visibility: hidden; font-family: Roboto, sans-serif; font-size: 12px; font-weight: 200;" fill="rgb(50, 49, 63)" stroke="none" stroke-width="1px">10k</text><text x="75" y="0" dx="0em" dy="0.95em" style="text-anchor: middle; visibility: inherit; font-family: Roboto, sans-serif; font-size: 12px; font-weight: 200;" fill="rgb(50, 49, 63)" stroke="none" stroke-width="1px">20k</text><text x="100" y="0" dx="0em" dy="0.95em" style="text-anchor: middle; visibility: hidden; font-family: Roboto, sans-serif; font-size: 12px; font-weight: 200;" fill="rgb(50, 49, 63)" stroke="none" stroke-width="1px">30k</text><text x="125" y="0" dx="0em" dy="0.95em" style="text-anchor: middle; visibility: inherit; font-family: Roboto, sans-serif; font-size: 12px; font-weight: 200;" fill="rgb(50, 49, 63)" stroke="none" stroke-width="1px">40k</text><text x="150" y="0" dx="0em" dy="0.95em" style="text-anchor: middle; visibility: hidden; font-family: Roboto, sans-serif; font-size: 12px; font-weight: 200;" fill="rgb(50, 49, 63)" stroke="none" stroke-width="1px">50k</text><text x="175" y="0" dx="0em" dy="0.95em" style="text-anchor: middle; visibility: inherit; font-family: Roboto, sans-serif; font-size: 12px; font-weight: 200;" fill="rgb(50, 49, 63)" stroke="none" stroke-width="1px">60k</text><text x="200" y="0" dx="0em" dy="0.95em" style="text-anchor: middle; visibility: hidden; font-family: Roboto, sans-serif; font-size: 12px; font-weight: 200;" fill="rgb(50, 49, 63)" stroke="none" stroke-width="1px">70k</text><text x="225" y="0" dx="0em" dy="0.95em" style="text-anchor: middle; visibility: inherit; font-family: Roboto, sans-serif; font-size: 12px; font-weight: 200;" fill="rgb(50, 49, 63)" stroke="none" stroke-width="1px">80k</text><text x="250" y="0" dx="0em" dy="0.95em" style="text-anchor: middle; visibility: hidden; font-family: Roboto, sans-serif; font-size: 12px; font-weight: 200;" fill="rgb(50, 49, 63)" stroke="none" stroke-width="1px">90k</text><text x="275" y="0" dx="0em" dy="0.95em" style="text-anchor: middle; visibility: inherit; font-family: Roboto, sans-serif; font-size: 12px; font-weight: 200;" fill="rgb(50, 49, 63)" stroke="none" stroke-width="1px">100k</text><text x="300" y="0" dx="0em" dy="0.95em" style="text-anchor: middle; visibility: hidden; font-family: Roboto, sans-serif; font-size: 12px; font-weight: 200;" fill="rgb(50, 49, 63)" stroke="none" stroke-width="1px">110k</text></g><line x1="0" y1="0" x2="300" y2="0" fill="rgb(0, 0, 0)" stroke="rgb(204, 204, 204)" stroke-width="1px"></line></g></g></g></g></svg>