<svg viewBox="0 0 330 200" xmlns="http://www.w3.org/2000/svg"><g><g><g><g><g><line x1="51.5625" y1="178" x2="46.5625" y2="178" style="visibility: inherit;" fill="rgb(0, 0, 0)" stroke="rgb(204, 204, 204)" stroke-width="1px"></line><line x1="51.5625" y1="164.30769230769232" x2="46.5625" y2="164.30769230769232" style="visibility: inherit;" fill="rgb(0, 0, 0)" stroke="rgb(204, 204, 204)" stroke-width="1px"></line><line x1="51.5625" y1="150.6153846153846" x2="46.5625" y2="150.6153846153846" style="visibility: inherit;" fill="rgb(0, 0, 0)" stroke="rgb(204, 204, 204)" stroke-width="1px"></line><line x1="51.5625" y1="136.9230769230769" x2="46.5625" y2="136.9230769230769" style="visibility: inherit;" fill="rgb(0, 0, 0)" stroke="rgb(204, 204, 204)" stroke-width="1px"></line><line x1="51.5625" y1="123.23076923076923" x2="46.5625" y2="123.23076923076923" style="visibility: inherit;" fill="rgb(0, 0, 0)" stroke="rgb(204, 204, 204)" stroke-width="1px"></line><line x1="51.5625" y1="109.53846153846155" x2="46.5625" y2="109.53846153846155" style="visibility: inherit;" fill="rgb(0, 0, 0)" stroke="rgb(204, 204, 204)" stroke-width="1px"></line><line x1="51.5625" y1="95.84615384615387" x2="46.5625" y2="95.84615384615387" style="visibility: inherit;" fill="rgb(0, 0, 0)" stroke="rgb(204, 204, 204)" stroke-width="1px"></line><line x1="51.5625" y1="82.15384615384616" x2="46.5625" y2="82.15384615384616" style="visibility: inherit;" fill="rgb(0, 0, 0)" stroke="rgb(204, 204, 204)" stroke-width="1px"></line><line x1="51.5625" y1="68.46153846153848" x2="46.5625" y2="68.46153846153848" style="visibility: inherit;" fill="rgb(0, 0, 0)" stroke="rgb(204, 204, 204)" stroke-width="1px"></line><line x1="51.5625" y1="54.769230769230774" x2="46.5625" y2="54.769230769230774" style="visibility: inherit;" fill="rgb(0, 0, 0)" stroke="rgb(204, 204, 204)" stroke-width="1px"></line><line x1="51.5625" y1="41.07692307692309" x2="46.5625" y2="41.07692307692309" style="visibility: inherit;" fill="rgb(0, 0, 0)" stroke="rgb(204, 204, 204)" stroke-width="1px"></line><line x1="51.5625" y1="27.384615384615387" x2="46.5625" y2="27.384615384615387" style="visibility: inherit;" fill="rgb(0, 0, 0)" stroke="rgb(204, 204, 204)" stroke-width="1px"></line><line x1="51.5625" y1="13.692307692307683" x2="46.5625" y2="13.692307692307683" style="visibility: inherit;" fill="rgb(0, 0, 0)" stroke="rgb(204, 204, 204)" stroke-width="1px"></line><line x1="51.5625" y1="0" x2="46.5625" y2="0" style="visibility: inherit;" fill="rgb(0, 0, 0)" stroke="rgb(204, 204, 204)" stroke-width="1px"></line></g><g transform="translate(41.5625, 0)"><text x="0" y="178" dx="0em" dy="0.3em" style="text-anchor: end; visibility: hidden; font-family: Roboto, sans-serif; font-size: 12px; font-weight: 200;" fill="rgb(50, 49, 63)" stroke="none" stroke-width="1px">-0.1</text><text x="0" y="164.30769230769232" dx="0em" dy="0.3em" style="text-anchor: end; visibility: inherit; font-family: Roboto, sans-serif; font-size: 12px; font-weight: 200;" fill="rgb(50, 49, 63)" stroke="none" stroke-width="1px">0</text><text x="0" y="150.6153846153846" dx="0em" dy="0.3em" style="text-anchor: end; visibility: hidden; font-family: Roboto, sans-serif; font-size: 12px; font-weight: 200;" fill="rgb(50, 49, 63)" stroke="none" stroke-width="1px">0.1</text><text x="0" y="136.9230769230769" dx="0em" dy="0.3em" style="text-anchor: end; visibility: inherit; font-family: Roboto, sans-serif; font-size: 12px; font-weight: 200;" fill="rgb(50, 49, 63)" stroke="none" stroke-width="1px">0.2</text><text x="0" y="123.23076923076923" dx="0em" dy="0.3em" style="text-anchor: end; visibility: hidden; font-family: Roboto, sans-serif; font-size: 12px; font-weight: 200;" fill="rgb(50, 49, 63)" stroke="none" stroke-width="1px">0.3</text><text x="0" y="109.53846153846155" dx="0em" dy="0.3em" style="text-anchor: end; visibility: inherit; font-family: Roboto, sans-serif; font-size: 12px; font-weight: 200;" fill="rgb(50, 49, 63)" stroke="none" stroke-width="1px">0.4</text><text x="0" y="95.84615384615387" dx="0em" dy="0.3em" style="text-anchor: end; visibility: hidden; font-family: Roboto, sans-serif; font-size: 12px; font-weight: 200;" fill="rgb(50, 49, 63)" stroke="none" stroke-width="1px">0.5</text><text x="0" y="82.15384615384616" dx="0em" dy="0.3em" style="text-anchor: end; visibility: inherit; font-family: Roboto, sans-serif; font-size: 12px; font-weight: 200;" fill="rgb(50, 49, 63)" stroke="none" stroke-width="1px">0.6</text><text x="0" y="68.46153846153848" dx="0em" dy="0.3em" style="text-anchor: end; visibility: hidden; font-family: Roboto, sans-serif; font-size: 12px; font-weight: 200;" fill="rgb(50, 49, 63)" stroke="none" stroke-width="1px">0.7</text><text x="0" y="54.769230769230774" dx="0em" dy="0.3em" style="text-anchor: end; visibility: inherit; font-family: Roboto, sans-serif; font-size: 12px; font-weight: 200;" fill="rgb(50, 49, 63)" stroke="none" stroke-width="1px">0.8</text><text x="0" y="41.07692307692309" dx="0em" dy="0.3em" style="text-anchor: end; visibility: hidden; font-family: Roboto, sans-serif; font-size: 12px; font-weight: 200;" fill="rgb(50, 49, 63)" stroke="none" stroke-width="1px">0.9</text><text x="0" y="27.384615384615387" dx="0em" dy="0.3em" style="text-anchor: end; visibility: inherit; font-family: Roboto, sans-serif; font-size: 12px; font-weight: 200;" fill="rgb(50, 49, 63)" stroke="none" stroke-width="1px">1</text><text x="0" y="13.692307692307683" dx="0em" dy="0.3em" style="text-anchor: end; visibility: hidden; font-family: Roboto, sans-serif; font-size: 12px; font-weight: 200;" fill="rgb(50, 49, 63)" stroke="none" stroke-width="1px">1.1</text><text x="0" y="0" dx="0em" dy="0.3em" style="text-anchor: end; visibility: hidden; font-family: Roboto, sans-serif; font-size: 12px; font-weight: 200;" fill="rgb(50, 49, 63)" stroke="none" stroke-width="1px">1.2</text></g><line x1="51.5625" y1="0" x2="51.5625" y2="178" fill="rgb(0, 0, 0)" stroke="rgb(204, 204, 204)" stroke-width="1px"></line></g></g><g transform="translate(51, 0)" clip-path="url(#clip_0)"><clipPath id="clip_0"><rect width="278" height="178"></rect></clipPath><g><g><g><line x1="0" y1="0" x2="0" y2="178" fill="rgb(0, 0, 0)" stroke="rgb(60, 60, 60)" stroke-width="1px" opacity="0.25"></line><line x1="23.203125" y1="0" x2="23.203125" y2="178" fill="rgb(0, 0, 0)" stroke="rgb(60, 60, 60)" stroke-width="1px" opacity="0.25"></line><line x1="46.40625" y1="0" x2="46.40625" y2="178" fill="rgb(0, 0, 0)" stroke="rgb(60, 60, 60)" stroke-width="1px" opacity="0.25"></line><line x1="69.609375" y1="0" x2="69.609375" y2="178" fill="rgb(0, 0, 0)" stroke="rgb(60, 60, 60)" stroke-width="1px" opacity="0.25"></line><line x1="92.8125" y1="0" x2="92.8125" y2="178" fill="rgb(0, 0, 0)" stroke="rgb(60, 60, 60)" stroke-width="1px" opacity="0.25"></line><line x1="116.015625" y1="0" x2="116.015625" y2="178" fill="rgb(0, 0, 0)" stroke="rgb(60, 60, 60)" stroke-width="1px" opacity="0.25"></line><line x1="139.21875" y1="0" x2="139.21875" y2="178" fill="rgb(0, 0, 0)" stroke="rgb(60, 60, 60)" stroke-width="1px" opacity="0.25"></line><line x1="162.421875" y1="0" x2="162.421875" y2="178" fill="rgb(0, 0, 0)" stroke="rgb(60, 60, 60)" stroke-width="1px" opacity="0.25"></line><line x1="185.625" y1="0" x2="185.625" y2="178" fill="rgb(0, 0, 0)" stroke="rgb(60, 60, 60)" stroke-width="1px" opacity="0.25"></line><line x1="208.828125" y1="0" x2="208.828125" y2="178" fill="rgb(0, 0, 0)" stroke="rgb(60, 60, 60)" stroke-width="1px" opacity="0.25"></line><line x1="232.03125" y1="0" x2="232.03125" y2="178" fill="rgb(0, 0, 0)" stroke="rgb(60, 60, 60)" stroke-width="1px" opacity="0.25"></line><line x1="255.234375" y1="0" x2="255.234375" y2="178" fill="rgb(0, 0, 0)" stroke="rgb(60, 60, 60)" stroke-width="1px" opacity="0.25"></line><line x1="278.4375" y1="0" x2="278.4375" y2="178" fill="rgb(0, 0, 0)" stroke="rgb(60, 60, 60)" stroke-width="1px" opacity="0.25"></line></g><g><line x1="0" y1="178" x2="278.4375" y2="178" fill="rgb(0, 0, 0)" stroke="rgb(60, 60, 60)" stroke-width="1px" opacity="0.25"></line><line x1="0" y1="164.30769230769232" x2="278.4375" y2="164.30769230769232" fill="rgb(0, 0, 0)" stroke="rgb(60, 60, 60)" stroke-width="1px" opacity="0.25"></line><line x1="0" y1="150.6153846153846" x2="278.4375" y2="150.6153846153846" fill="rgb(0, 0, 0)" stroke="rgb(60, 60, 60)" stroke-width="1px" opacity="0.25"></line><line x1="0" y1="136.9230769230769" x2="278.4375" y2="136.9230769230769" fill="rgb(0, 0, 0)" stroke="rgb(60, 60, 60)" stroke-width="1px" opacity="0.25"></line><line x1="0" y1="123.23076923076923" x2="278.4375" y2="123.23076923076923" fill="rgb(0, 0, 0)" stroke="rgb(60, 60, 60)" stroke-width="1px" opacity="0.25"></line><line x1="0" y1="109.53846153846155" x2="278.4375" y2="109.53846153846155" fill="rgb(0, 0, 0)" stroke="rgb(60, 60, 60)" stroke-width="1px" opacity="0.25"></line><line x1="0" y1="95.84615384615387" x2="278.4375" y2="95.84615384615387" fill="rgb(0, 0, 0)" stroke="rgb(60, 60, 60)" stroke-width="1px" opacity="0.25"></line><line x1="0" y1="82.15384615384616" x2="278.4375" y2="82.15384615384616" fill="rgb(0, 0, 0)" stroke="rgb(60, 60, 60)" stroke-width="1px" opacity="0.25"></line><line x1="0" y1="68.46153846153848" x2="278.4375" y2="68.46153846153848" fill="rgb(0, 0, 0)" stroke="rgb(60, 60, 60)" stroke-width="1px" opacity="0.25"></line><line x1="0" y1="54.769230769230774" x2="278.4375" y2="54.769230769230774" fill="rgb(0, 0, 0)" stroke="rgb(60, 60, 60)" stroke-width="1px" opacity="0.25"></line><line x1="0" y1="41.07692307692309" x2="278.4375" y2="41.07692307692309" fill="rgb(0, 0, 0)" stroke="rgb(60, 60, 60)" stroke-width="1px" opacity="0.25"></line><line x1="0" y1="27.384615384615387" x2="278.4375" y2="27.384615384615387" fill="rgb(0, 0, 0)" stroke="rgb(60, 60, 60)" stroke-width="1px" opacity="0.25"></line><line x1="0" y1="13.692307692307683" x2="278.4375" y2="13.692307692307683" fill="rgb(0, 0, 0)" stroke="rgb(60, 60, 60)" stroke-width="1px" opacity="0.25"></line><line x1="0" y1="0" x2="278.4375" y2="0" fill="rgb(0, 0, 0)" stroke="rgb(60, 60, 60)" stroke-width="1px" opacity="0.25"></line></g></g></g><g><g><line x1="0" y1="164.30769230769232" x2="278.4375" y2="164.30769230769232" fill="rgb(0, 0, 0)" stroke="rgb(153, 153, 153)" stroke-width="1.5px"></line></g></g><g><g><line x1="23.203125" y1="0" x2="23.203125" y2="178" fill="rgb(0, 0, 0)" stroke="rgb(153, 153, 153)" stroke-width="1.5px"></line></g></g><g><g><g><g><g><path stroke="rgb(204, 51, 17)" stroke-width="2px" d="M23.302898437499998,27.440364892666146L23.4235546875,27.509384595430816L23.592937499999998,27.606274971595163L23.736796875000003,27.688573030325077L23.7483984375,27.695208127682015L23.838890624999998,27.74697494506836L23.9247421875,27.796081194510812L23.9433046875,27.8066989825322L24.305273437500002,28.013766252077545L24.4491328125,28.09605614955607L24.54890625,28.153127780327427L24.5651484375,28.162423445628235L24.6765234375,28.22613017375651L24.7066875,28.243391220386204L24.8621484375,28.332316215221688L25.0802578125,28.457085426037118L25.5582421875,28.730511830403238L25.6788984375,28.799531533167908L26.298421875000003,29.153925712292L26.307703125,29.15923868692838L26.419078125,29.22294541505667L26.435320312499996,29.23224108035746L26.537414062499998,29.290642995100743L27.12909375,29.629106411567086L27.2288671875,29.68617804233844L27.235828124999998,29.690160733002873L27.560671875,29.87598426525409L27.653484374999998,29.929081366612344L27.9296015625,30.0870260642125L28.0688203125,30.16667171624991L28.3078125,30.303380837807286L28.4539921875,30.387001019257756L28.55840625,30.446733217972966L28.748671875,30.55557166613065L28.8577265625,30.617956271538365L28.971421875,30.682993283638584L28.9737421875,30.68432356761051L29.0015859375,30.700246169016907L29.0804765625,30.7453778890463L29.435484375,30.94845430667582L29.5631015625,31.021456700104924L30.254554687499997,31.416999908593972L30.7000546875,31.67184314360984L30.7371796875,31.69307871965262L30.874078125,31.77139408771808L31.600335937500002,32.186842588277955L31.6049765625,32.18949499497046L31.7209921875,32.25586229104261L31.885734375000002,32.35010026051447L32.0551171875,32.446998797930206L32.071359375,32.456286301979645L32.3196328125,32.5983083981734L32.3846015625,32.63547473687391L32.5702265625,32.74166077833908L32.9414765625,32.95403286126944L33.222234375,33.114638126813446L33.4148203125,33.224806858943055L33.628289062499995,33.346915501814614L33.667734375,33.369481361829315L34.0552265625,33.59114094880911L34.3151015625,33.7397981423598L34.73971875,33.982701466633706L35.0529609375,34.161889901527985L35.117929687499995,34.199056240228494L35.607515625,34.47911774195157L35.64,34.49770091130183L36.080859374999996,34.74989173962519L36.38249999999999,34.92243691591116L36.48459375,34.98083883065443L36.6818203125,35.093668130727906L36.811757812500005,35.16799264687757L36.828,35.17728831217838L36.91153125,35.225064277648926L37.1041171875,35.335233009778534L37.5913828125,35.613972388781036L37.635468749999994,35.63919065548823L37.797890625,35.73210650223951L38.4591796875,36.11038866409888L38.52646875,36.14887712551997L38.74921875,36.2762987430279L38.7770625,36.29222950568565L39.108867187499996,36.482035728601296L39.3687421875,36.63069292215201L39.807281249999996,36.88156162775479L40.3339921875,37.18285870552063L40.514976562499996,37.28639234029328L40.52193749999999,37.29037503095773L40.6333125,37.35408175908601L41.2760390625,37.72174613292399L41.299242187500006,37.73502448888925L41.380453125,37.7814783316392L41.7470625,37.99118984662568L41.921085937499996,38.09074079073392L42.1856015625,38.242058552228485L42.280734375,38.29647777630732L42.61021875,38.48495371525104L42.642703125000004,38.50353688460129L42.9234609375,38.6641421501453L42.9466640625,38.67741234485919L43.162453125,38.80085943295405L43.8051796875,39.16852380679203L43.921195312500004,39.234891102864175L43.9374375,39.244178606913636L44.072015625,39.32116369100717L44.6915390625,39.675557870131264L45.174164062500004,39.95163668118989L45.3737109375,40.06578810398395L45.403875,40.083040989362274L45.7078359375,40.25692461087153L46.04428125,40.44938324047968L46.192781249999996,40.5343337059021L47.048976562499995,41.02410672261164L47.06521875,41.033402387912446L47.334375,41.18737255609954L47.519999999999996,41.2935585975647L47.6197734375,41.35063022833605L47.81699999999999,41.463451367158164L48.165046874999994,41.66254509412326L48.218414062499996,41.69307633546683L48.5014921875,41.85501188498278L48.508453124999996,41.858994575647216L48.6499921875,41.93995418915383L48.668554687500006,41.95058013842657L48.7752890625,42.01163445986236L48.9655546875,42.12047290802002L49.70109375,42.54123438321628L49.8240703125,42.61157620870151L49.9632890625,42.691221860738914L50.042179687499996,42.73634541951694L50.318296875,42.89429827836844L50.49,42.99251893850473L50.977265624999994,43.27125831750723L50.988867187500006,43.27789341486419L51.4297265625,43.53008424318755L51.7220859375,43.6973246060885L52.606125000000006,44.2030283854558L53.084109375,44.47645478982193L53.22796875,44.55875284855184L53.4483984375,44.68484418208783L53.511046875000005,44.720680236816406L53.622421875,44.78439512619607L54.3022734375,45.17329507607681L54.636398437500006,45.364431582964386L54.754734375,45.43212100175711L54.8081015625,45.46265224310068L55.248960937499994,45.71484307142404L55.4206640625,45.813063731560355L55.8754453125,46.073219941212585L56.202609375,46.26037375743573L56.3719921875,46.3572641336001L56.4740859375,46.415666048343375L56.727,46.560340551229636L57.1701796875,46.81386166352493L57.2397890625,46.85368040891794L57.283874999999995,46.87889867562515L57.49734375,47.00101547974808L57.566953125,47.04083422514108L57.715453125,47.125776529312134L57.7595390625,47.15099479601934L58.7619140625,47.724396155430725L59.107640624999995,47.922167759675254L59.112281249999995,47.92482016636776L59.186531249999994,47.96729947970464L59.7271640625,48.27656193879935L59.7828515625,48.308415302863494L60.599601562500006,48.775630620809714L60.908203125,48.952166649011474L61.075265625,49.04773490245526L61.947703125000004,49.54680358446563L62.207578125000005,49.69546077801632L62.318953125,49.759175667395965L62.416406249999994,49.81491701419537L62.8038984375,50.036584762426536L62.875828125,50.07772563054012L63.3282890625,50.33655971747179L63.386296875,50.3697352042565L63.43734375,50.39893616162814L63.9106875,50.66971015930176L63.943171875,50.68829332865203L64.0104609375,50.72678995132446L64.0290234375,50.737407739345855L65.121890625,51.36256775489221L66.01753125,51.87491479286782L67.1939296875,52.54786709638742L67.5605390625,52.7575786113739L67.683515625,52.8279285981105L67.9201875,52.96331559694732L68.52346875,53.3084141107706L68.7763828125,53.45308861365686L68.8088671875,53.47167178300711L68.98753125,53.57387513380785L69.2543671875,53.726523179274345L69.4678359375,53.848631822145904L69.60009375,53.92428662226751L69.69290625000001,53.977383723625785L69.734671875,54.001271706361045L69.7555546875,54.01321977835436L69.9318984375,54.11409284518316L70.1778515625,54.25479281865634L70.1964140625,54.265410606677726L70.36115625,54.35964857614959L70.63263281249999,54.514949028308585L70.86234375000001,54.646353336480956L70.8646640625,54.64767545920153L70.9157109375,54.67687641657317L70.95283593750001,54.69811199261593L71.41921875,54.964903299625114L71.4261796875,54.96888599028955L71.53987500000001,55.03392300238977L71.5955625,55.06578452770528L72.1176328125,55.364429198778595L72.2661328125,55.449371502949646L72.416953125,55.53565225234399L72.4703203125,55.56617533243621L72.6721875,55.68165703920218L72.83924999999999,55.777225292645966L73.14553124999999,55.952431036875815L73.8996328125,56.38380213884207L74.2662421875,56.59352181507992L74.820796875,56.9107496555035L74.9298515625,56.973134260911216L75.0180234375,57.023570794325614L75.0829921875,57.06073713302612L75.3475078125,57.21204673326934L76.2013828125,57.70050578850967L76.8928359375,58.09604083574737L76.9160390625,58.10931919171261L77.0181328125,58.16772110645589L77.0784609375,58.202226877212524L77.182875,58.261959075927734L77.2362421875,58.29248215601995L77.41026562500001,58.392033100128174L77.56340625,58.479635972243095L77.82560156250001,58.62962344976572L78.1272421875,58.80217678730306L78.152765625,58.81677726598886L78.19917187499999,58.84331765541665L78.7490859375,59.15789308914773L79.07624999999999,59.34504690537087L79.23403125,59.43530218417828L79.5472734375,59.61449061907256L79.5519140625,59.61714302576507L79.64008593749999,59.66758772043082L79.693453125,59.69811080052303L80.33385937499999,60.06445305164044L80.56125,60.19452707584088L80.5798125,60.205144863862266L80.983546875,60.436100116142875L81.06011718750001,60.47990155220032L81.2318203125,60.57812221233663L81.3223125,60.62988902972295L81.521859375,60.744040452517L81.800296875,60.90331543408908L81.9836015625,61.00817119158233L82.12049999999999,61.08648655964779L82.8049921875,61.47803891622104L83.0973515625,61.64528744037335L83.1785625,61.69174128312332L83.350265625,61.78996194325961L83.6867109375,61.98242057286777L83.74471875,62.01560422090384L83.89321875,62.100554686326255L83.925703125,62.11913785567651L84.23662499999999,62.296996006598846L84.46865625,62.429730598743156L84.6241171875,62.51865559357864L85.382859375,62.95268726348877L85.3851796875,62.954017547460715L85.457109375,62.99516657682565L86.1833671875,63.41061507738555L86.2112109375,63.42653767879193L86.2204921875,63.431850653428306L86.22281249999999,63.43318093740024L86.4896484375,63.58582082161538L87.025640625,63.89243087401758L87.25303125,64.02250489821802L87.2924765625,64.04507075823273L87.3342421875,64.06895874096799L87.768140625,64.3171668786269L87.9792890625,64.43795339877789L88.05817968749999,64.48308511880728L88.0999453125,64.50697310154256L88.919015625,64.9755187034607L89.19049218750001,65.13081099436835L89.22065625,65.14807204099802L89.434125,65.2701806838696L89.5014140625,65.30867730654205L89.59190625,65.36044412392837L90.42489843749999,65.83694694592404L90.4852265625,65.87146087793204L90.580359375,65.9258801020109L90.63836718750001,65.9590555887956L90.960890625,66.14355699832623L91.10475,66.22584689580478L91.58737500000001,66.50193386811478L91.6245,66.52316944415753L91.796203125,66.62139010429382L91.91221875000001,66.687757400366L92.22778124999999,66.86826795798083L92.418046875,66.97711456738986L92.826421875,67.21072222636298L92.88675,67.24522799711963L93.02828906250001,67.3261957718776L93.2185546875,67.43503422003528L93.37865624999999,67.52661978281463L93.4737890625,67.58103900689346L93.57356250000001,67.6381106376648L93.87984375,67.81331638189462L93.9053671875,67.82791686058044L94.2348515625,68.01640096077554L94.4529609375,68.14117017159097L94.48544531249999,68.15974517968985L96.0771796875,69.07028783284701L96.16303125,69.11939408228949L96.7500703125,69.45520509206332L97.0099453125,69.60387044686539L97.160765625,69.69014303500836L97.1770078125,69.69943870030917L97.30694531249999,69.77376321645883L97.32782812500001,69.78571128845215L97.46472656249999,69.86401849526627L97.49489062500001,69.88127954189594L97.85917968749999,70.08966893416186L97.93575,70.1334703702193L98.46478125,70.43609773195709L98.71305468749999,70.57811982815082L98.979890625,70.73075971236597L99.0935859375,70.79579672446619L99.2235234375,70.87012940186722L99.5298046875,71.04533514609705L99.54836718749999,71.05595293411844L99.8546484375,71.23115867834827L100.12844531249999,71.38778125322784L100.19109375000001,71.42361730795642L100.195734375,71.42626971464892L100.4045625,71.54573411207934L100.566984375,71.63864179757925L100.645875,71.68377351760864L100.71084375000001,71.72093985630917L101.4649453125,72.15231095827545L101.485828125,72.16425903026874L101.513671875,72.18018979292651L101.5577578125,72.2054080596337L101.59720312500001,72.2279739196484L101.7225,72.29964602910556L101.75034375,72.3155767917633L101.8083515625,72.34876043979938L101.894203125,72.39786668924185L102.13551562500001,72.53590609477118L102.1796015625,72.56112436147836L102.423234375,72.70049405097961L102.9360234375,72.99383390866794L102.98475,73.02170458206766L103.1123671875,73.09470697549673L103.314234375,73.21018052101135L103.48593749999999,73.30840934239902L103.912875,73.5526347893935L105.189046875,74.28265872368448L105.2377734375,74.31052939708417L105.2563359375,74.32114718510556L105.291140625,74.34106063842773L105.53709375,74.48175245064957L105.745921875,74.60120868682861L106.20534375,74.86401730317337L106.2215859375,74.87331296847418L106.386328125,74.96755093794604L106.627640625,75.10559034347534L106.6670859375,75.12815620349005L106.822546875,75.2170893595769L107.3074921875,75.49449845460745L107.37478125,75.53298691602853L108.196171875,76.00285464066727L108.26578124999999,76.04267338606027L108.3098671875,76.06789165276749L108.516375,76.18602576622598L108.63703124999999,76.25504546899063L108.70896093750001,76.29619449835559L108.84121875000001,76.37184929847717L109.449140625,76.71960838024432L109.5257109375,76.76340981630179L110.11275,77.09922082607562L110.19164062499999,77.14434438485367L110.8297265625,77.50935635199914L111.08960156250001,77.65802170680121L111.8228203125,78.07745289802551L111.9504375,78.15045529145462L112.3959375,78.40529852647049L112.43306249999999,78.42653410251324L112.45858593749999,78.44113458119907L112.8669609375,78.67474224017218L113.0015390625,78.75172732426572L113.0479453125,78.77827587494485L113.32638281250001,78.9375508565169L113.653546875,79.12470467274005L113.709234375,79.1565580368042L114.02479687499999,79.33707675567041L114.247546875,79.46449837317834L114.3844453125,79.54280557999246L114.40996874999999,79.55740605867828L115.32649218750001,80.08169300739581L115.3914609375,80.11885934609634L115.50979687499999,80.18655692614044L115.7348671875,80.31530066636893L115.806796875,80.35644969573389L115.8183984375,80.36308479309082L116.0643515625,80.50378476656402L116.7047578125,80.87011885643005L117.1781015625,81.1408928541037L117.5191875,81.3360120516557L117.5563125,81.35724762769846L117.56559375,81.36255244108347L117.6421640625,81.40635387714093L117.6885703125,81.43290242782007L117.85795312500001,81.52980096523578L118.4310703125,81.85764659368076L118.6352578125,81.9744504231673L118.9044140625,82.12842059135437L118.96706250000001,82.16425664608295L119.129484375,82.25716433158289L119.287265625,82.34742777164166L119.47753125,82.45626621979935L119.58890625,82.51997294792764L119.62603125,82.54121668522174L120.35925,82.96064787644607L120.688734375,83.1491238153898L120.9694921875,83.3097290809338L121.22472656250001,83.45573386779199L121.44515625,83.581825201328L121.7027109375,83.72916027215811L121.7444765625,83.75304825489337L122.2317421875,84.03178763389587L122.89535156250001,84.41140007972717L122.934796875,84.43396593974188L123.02528906250001,84.4857327571282L123.6239296875,84.828178864259L124.1808046875,85.14673698865451L124.26201562499999,85.19319083140448L124.3873125,85.26486294086163L124.4615625,85.30734225419852L124.628625,85.40290234639096L124.69127343749999,85.43874656237091L124.7005546875,85.44405137575592L124.84673437500001,85.52767155720639L125.25278906249999,85.75994893220755L125.282953125,85.77720997883725L125.468578125,85.88339602030243L125.477859375,85.88870083368744L125.561390625,85.93648496040933L125.7632578125,86.05195850592395L125.7795,86.06125417122476L125.88159375000001,86.11965608596802L126.00457031250001,86.19000607270462L126.656578125,86.56297525992761L126.795796875,86.64262091196503L127.1600859375,86.85101030423093L127.1925703125,86.8695853123298L127.53597656250001,87.06603479385376L127.8608203125,87.25185832610498L128.3388046875,87.5252847304711L128.3596875,87.53722464121307L128.48266406250002,87.60757462794965L128.79590625,87.78676306284393L128.8794375,87.83454718956582L129.14627343749999,87.98718707378094L129.56625,88.22742983011099L130.01639062499999,88.48493363307074L130.1486484375,88.56058843319232L130.331953125,88.66544419068558L130.415484375,88.71322831740747L130.6776796875,88.86321579493011L130.7148046875,88.88445137097287L130.89810937500002,88.98931528971747L131.09765625,89.10345855126013L132.7195546875,90.03125408979564L132.819328125,90.08832572056698L132.958546875,90.16797137260437L133.00495312500001,90.19451176203216L133.274109375,90.34848193021922L133.39476562500002,90.41750163298389L133.533984375,90.4971391237699L133.617515625,90.54492325049182L133.7404921875,90.6152732372284L133.7799375,90.6378390972431L133.81242187499998,90.65642226659335L133.868109375,90.6882756306575L133.895953125,90.70420639331525L133.9864453125,90.75596504945023L134.0189296875,90.77454821880048L134.3066484375,90.93913617500891L134.45746875,91.02541692440326L134.5108359375,91.05594000449548L134.7567890625,91.19663997796866L135.000421875,91.33600150621857L135.10715625,91.3970639889057L135.79164843750002,91.78861634547894L136.5387890625,92.21601291803213L136.8589921875,92.39918404359085L137.5318828125,92.78410946405853L137.6571796875,92.85578157351569L137.71518749999998,92.88896522155176L138.007546875,93.0562055844527L138.1954921875,93.16372190988983L138.33703125,93.24468152339642L138.3811171875,93.26990795135498L139.2349921875,93.75835884534396L139.3510078125,93.82472614141612L139.566796875,93.94816506825961L139.603921875,93.96940064430237L139.67353125000002,94.0092193896954L139.8429140625,94.10610976585974L140.1074296875,94.25742752735431L140.680546875,94.58527315579929L140.68518749999998,94.58792556249179L141.12140625,94.83746398412265L141.49265625,95.04983606705298L141.8523046875,95.25556489137503L142.06809375,95.37901197946991L142.1957109375,95.45201437289899L142.33492968750002,95.53165186368503L143.2816171875,96.07319577840659L143.3929921875,96.13690658716055L143.41155468749997,96.14752437518194L143.75496093750002,96.34396569545453L143.864015625,96.40635030086224L144.01715625,96.49395317297717L144.411609375,96.7195954506214L144.53922656249998,96.79259784405048L144.680765625,96.87356561880847L144.75965625,96.91869325821216L145.0450546875,97.08195501107437L145.08682031249998,97.1058470744353L145.44414843750002,97.31025377603679L145.7225859375,97.46952875760886L145.9638984375,97.60757224376385L146.04046875,97.65137367982132L146.18896875000002,97.73632006461804L146.212171875,97.74959433995761L146.3954765625,97.85445009745087L146.43028125,97.87436355077304L147.112453125,98.26459378462573L147.131015625,98.2752115726471L147.26791406249998,98.35352286008688L147.30039843749998,98.37210602943713L147.8201484375,98.66942449716421L147.836390625,98.67871608183935L147.84567187500002,98.68402497585004L147.854953125,98.68933386986072L148.18211718749998,98.87648360545819L148.2586875,98.92028504151565L148.2842109375,98.93488552020148L148.6693828125,99.15522298446069L148.70418750000002,99.1751323571572L148.7529140625,99.20300303055691L148.78771875,99.22291240325342L149.061515625,99.37953905875867L149.58358593749998,99.678183729832L149.952515625,99.8892255287904L150.0035625,99.91842648616205L150.10565625,99.97682840090533L150.170625,100.01399473960583L150.37481250000002,100.1307985690924L150.676453125,100.30334782600403L150.7808671875,100.36308002471924L151.270453125,100.64314152644232L151.51640625000002,100.7838374192898L151.52336718749999,100.78782010995425L151.58369531250003,100.82232996133658L151.655625,100.86347491007587L152.0709609375,101.10106525971338L152.0825625,101.10770443769603L152.101125,101.1183222257174L152.47701562499998,101.33334671534027L152.5999921875,101.40369262145117L153.0640546875,101.66915772511408L153.35409374999998,101.83507188466879L153.84832031250002,102.11778987371005L153.924890625,102.16159130976752L154.02234375,102.2173367371926L154.14532031250002,102.2876867239292L154.31934375,102.38723358741174L154.351828125,102.405816756762L154.36807031249998,102.41510834143713L154.5536953125,102.52129438290228L154.96903125,102.75888473253985L155.0456015625,102.80268616859729L155.4609375,103.04027243760916L156.15703125,103.43846805279071L156.17095312499998,103.4464334341196L156.5862890625,103.68402378375714L157.2266953125,104.05036195424887L158.4680625,104.76047651584332L158.5863984375,104.82816593463605L158.8045078125,104.95293514545148L159.0736640625,105.10690531363855L159.20128125,105.17990770706763L159.270890625,105.21972645246066L159.451875,105.32325600660766L159.5145234375,105.35909614196191L159.55396875,105.38165792135092L159.6119765625,105.41484156938701L160.13636718749999,105.71481652443225L160.1734921875,105.73605210047504L160.18741406249998,105.7440174818039L160.71644531249999,106.04664484354167L160.8255,106.10902944894939L161.1062578125,106.2696306338677L161.5517578125,106.52447794950928L161.5888828125,106.545713525552L161.65849218749997,106.58553227094504L161.813953125,106.67446542703189L161.8464375,106.69304451575647L162.6237421875,107.13769805431366L162.83953125,107.26113698115716L162.853453125,107.26910236248602L162.90449999999998,107.29830331985767L163.113328125,107.41775955603674L163.52634375000002,107.65402370232803L163.59131250000002,107.69118596040286L163.8071015625,107.81462896787204L163.981125,107.91417583135458L165.0275859375,108.51279545747317L165.220171875,108.62296418960278L165.3849140625,108.71720215907465L165.609984375,108.8459540605545L165.637828125,108.86188074258658L165.76080468749998,108.93222664869751L165.9835546875,109.05964826620544L166.3223203125,109.25343717978552L167.38734374999999,109.86267459392548L167.57296875,109.96886063539066L168.2621015625,110.36307355990778L168.33403125,110.4042225892727L168.35259375,110.41484037729411L169.0927734375,110.83825425918286L169.4408203125,111.03735206677362L169.89560156250002,111.2975041958002L170.2158046875,111.48067532135889L170.3782265625,111.5735870874845L170.380546875,111.57491329083075L170.575453125,111.68640822630664L170.9420625,111.89612382191879L171.197296875,112.04212860877698L171.392203125,112.15362354425284L171.6776015625,112.31688121648936L171.9328359375,112.46288600334753L172.106859375,112.56243694745578L172.22751562500002,112.63145665022044L172.891125,113.01106909605174L172.914328125,113.0243433713913L172.91896875,113.0269957780838L173.2995,113.24467675502484L173.76820312499999,113.51279426538028L174.000234375,113.64552477689891L174.02575781250002,113.66012525558472L174.1510546875,113.73180144566757L174.59423437499998,113.98531847733719L174.6615234375,114.02381101938396L174.7032890625,114.0477030827449L174.895875,114.15786773424884L175.0698984375,114.25741867835706L175.141828125,114.29856362709631L175.2485625,114.35962202915778L175.420265625,114.45784268929407L175.51771875,114.51358811671918L175.670859375,114.6011909888341L176.13028125000002,114.86399960517883L176.2254140625,114.91841882925769L176.45976562500002,115.05247962474823L177.0375234375,115.38298174051138L177.5851171875,115.69622689027054L177.84731250000002,115.84621436779315L178.17215625,116.03203790004437L178.54572656250002,116.24573618632098L178.6106953125,116.28290252502148L178.715109375,116.34263064311102L179.68732031250002,116.8987750365184L179.7662109375,116.94390267592212L179.856703125,116.99566949330844L181.5969375,117.99115445063666L181.59925781249999,117.99248473460858L181.638703125,118.0150465139976L181.8637734375,118.14379841547748L181.982109375,118.21149191489587L182.1746953125,118.32165656639978L182.3556796875,118.42519020117248L183.142265625,118.87514855311468L183.27916406249997,118.95345984055444L183.70378125,119.1963590842027L183.7061015625,119.19768528754895L183.73626562500002,119.21494225355296L184.0634296875,119.40209198915042L184.1794453125,119.46845928522258L184.36275,119.57331504271582L184.4114765625,119.60118979674121L184.8430546875,119.84807173105388L184.905703125,119.88390778578247L184.9753125,119.92372653117548L185.1586171875,120.02858636929437L185.43009375,120.1838827408277L186.6900234375,120.90461509044354L186.69930468750002,120.90992398445422L186.77123437499998,120.95106893319351L186.854765625,120.9988530599154L186.9731015625,121.0665465593338L187.14944531249998,121.16742370678827L187.75040625,121.51119601726532L187.9383515625,121.61870826207675L188.5787578125,121.98505051319415L188.6762109375,122.04079594061926L188.9407265625,122.19210962148814L189.23308593750002,122.3593499843891L189.2934140625,122.39385983577142L189.56257031250001,122.5478300039585L189.9198984375,122.75223670555994L190.0498359375,122.82656530233531L190.168171875,122.89425880175372L190.21921875,122.92345975912536L190.29578906249998,122.9672611951828L190.353796875,123.00044484321887L190.725046875,123.21281692614923L190.90603124999998,123.3163464802962L190.9547578125,123.3442212343216L190.95707812499998,123.34554743766785L190.96171875,123.34819984436035L191.198390625,123.48358684319717L191.2053515625,123.4875695338616L191.2981640625,123.54066255459418L191.5626796875,123.69197623546307L191.94553125000002,123.91098341575037L192.293578125,124.11008122334113L192.4676015625,124.20962808682367L192.60914062499998,124.29059586158166L193.00359375000002,124.51623813922589L193.3261171875,124.70073546813086L194.3238515625,125.27148034022406L194.418984375,125.32590364492859L194.43058593749998,125.33253874228552L194.539640625,125.39492334769324L194.678859375,125.47456083847925L194.7322265625,125.50508799919714L194.93409375,125.62056562533746L195.34246875,125.85417328431055L195.3587109375,125.8634648689857L196.915640625,126.75409406882068L196.999171875,126.80187819554254L197.5537265625,127.11910603596613L197.62565625,127.16025098470541L198.317109375,127.55579011256879L198.358875,127.57968217592975L198.5445,127.6858682173949L198.688359375,127.76816219549914L198.84614062499998,127.85842155493225L199.3821328125,128.16503160733444L199.3867734375,128.16768401402695L199.6791328125,128.33492437692792L199.77890625,128.39200008832492L200.05502343749998,128.54995294717642L200.54925000000003,128.83267093621768L200.66758593749998,128.9003644356361L201.0017109375,129.091496861898L201.11076562500003,129.15388146730572L201.185015625,129.19635261939123L201.3822421875,129.30917783883902L201.6513984375,129.4631439264004L201.667640625,129.47243551107556L201.6931640625,129.48703598976135L202.038890625,129.6848075940059L202.3289296875,129.8507217535606L202.62128906249998,130.01796211646155L202.9368515625,130.19847675470206L203.0992734375,130.29138852082767L203.36146875000003,130.44137599835028L203.73039843749999,130.65241983762155L203.960109375,130.78382414579391L204.40560937499998,131.03866738080978L204.5030625,131.09441484854773L204.6724453125,131.19130930533777L204.804703125,131.2669661457722L205.9880625,131.9438970593306L206.14584374999998,132.03415437845084L206.3245078125,132.13635772925159L206.3569921875,132.15494089860184L206.44748437500002,132.20670567567532L206.521734375,132.24917886807367L206.7792890625,132.39651189859097L207.227109375,132.65268337726593L207.3872109375,132.7442689400453L207.48002343750002,132.7973619607779L207.895359375,133.03495027010257L207.94872656249998,133.0654794711333L208.12507031250001,133.16635457827493L208.3942265625,133.32032270614917L208.45223437500002,133.35350635418524L208.75619531249998,133.527383854756L208.7724375,133.53667543943112L208.82580468749998,133.56720464046185L208.90237499999998,133.61100607651932L208.91165625,133.61631497053L209.0624765625,133.7025895989858L209.213296875,133.78886626775449L209.644875,134.03574616175433L209.7353671875,134.08751093882782L209.7724921875,134.1087485551834L210.1066171875,134.29988302175815L210.1669453125,134.33439287314047L210.252796875,134.38350320320865L210.7470234375,134.6662211922499L210.837515625,134.7179859693234L210.84215625,134.72064041632873L211.0254609375,134.82549821413483L211.1414765625,134.89186551020697L211.18556249999997,134.91708377691415L211.422234375,135.05247077575098L212.03479687499998,135.40288226421063L212.2969921875,135.55286770142044L212.378203125,135.59932358448322L213.3596953125,136.16077891221414L213.6566953125,136.3306757624333L214.0511484375,136.5563180400775L214.471125,136.7965628367204L214.6010625,136.8708934738086L214.6915546875,136.92265825088208L214.97463281249998,137.08458971977234L215.069765625,137.13901098416403L215.1788203125,137.2013935492589L215.25771093749998,137.24652322897543L215.39925,137.3274889634206L215.441015625,137.35138102678152L215.61503906250002,137.45092993057693L215.96540625,137.65135394151395L216.0860625,137.7203736442786L216.41090625,137.90619921684265L216.97474218750003,138.22873595127692L217.5594609375,138.56322075770453L217.93303125,138.77691700366827L218.04440625,138.84062781242224L218.494546875,139.09812753475632L218.568796875,139.1406027674675L218.587359375,139.1512205554889L218.703375,139.2175858112482L219.02589843750002,139.40208314015317L219.06070312499997,139.42199251284967L219.21384375,139.5095953849646L219.50620312499998,139.67683778817837L219.7034296875,139.7896589270005L219.8287265625,139.86133511708334L220.0097109375,139.96486467123032L220.3391953125,140.1533446907997L220.4784140625,140.23298218158575L220.51553906249998,140.25421979794135L220.55266406249999,140.27545741429697L220.638515625,140.3245677443651L220.824140625,140.43075174551745L220.99584374999998,140.52897444596658L221.1745078125,140.6311777967673L221.6107265625,140.8807121377725L221.68265625,140.92185912682461L221.7592265625,140.96566056288208L221.9077265625,141.05060898799164L221.99821875,141.10237376506512L222.0237421875,141.11697424375095L222.16992187500003,141.20059646551425L222.71751562499998,141.5138416152734L222.78480468749999,141.55233415732016L222.940265625,141.64126527309418L223.8011015625,142.1336988577476L224.16075,142.3394317626953L224.24196093749998,142.38588764575812L224.258203125,142.39517923043326L224.56216406250002,142.56905877131683L224.592328125,142.586313697008L224.69906250000003,142.64737005875662L224.759390625,142.68187991013895L224.88468749999998,142.75355405990894L225.0911953125,142.8716861330546L225.984515625,143.38270288705826L226.1167734375,143.4583597274927L226.3627265625,143.5990556203402L226.513546875,143.68533024879602L226.61796093750002,143.7450604071984L226.968328125,143.94548441813544L226.99617187500002,143.96141110016748L227.460234375,144.22687620383044L227.608734375,144.31182258862717L227.6806640625,144.35296957767926L227.71082812499998,144.37022450337042L228.2607421875,144.6847999371015L228.416203125,144.77372901256268L228.9568359375,145.08299351197024L229.1703046875,145.20510623546747L229.284,145.27014528788052L229.53227343749998,145.41216738407428L230.0821875,145.72674077749252L230.3211796875,145.86345601998843L230.51840625,145.97627715881055L230.55553125,145.99751477516614L231.441890625,146.50454883850537L231.4813359375,146.52711265820724L231.738890625,146.67444568872452L231.78297656249998,146.69966395543173L231.970921875,146.80717620024313L232.100859375,146.88150683733133L232.11478125,146.88947017834738L232.583484375,147.1575876887028L232.7435859375,147.24917223132573L232.77374999999998,147.26642817717334L233.0777109375,147.44030567774405L234.1682578125,148.06414459072627L234.5255859375,148.26855129232774L234.5719921875,148.29509780269404L235.0499765625,148.56852420706016L235.2773671875,148.69860129172986L235.38642187500002,148.76098487698115L235.45371093749998,148.7994774190279L235.8017578125,148.99857420646228L235.84816406250002,149.02512071682855L235.855125,149.0291023873366L235.998984375,149.1113963654408L236.05235156249998,149.14192454631512L236.0593125,149.14590621682314L236.5256953125,149.41269752383232L236.69507812499998,149.50959096046594L236.89230468749997,149.62241311944447L236.9526328125,149.65692297082683L237.2449921875,149.82416435388419L237.391171875,149.90778555549107L238.1731171875,150.3550915007408L238.36570312499998,150.46525819255754L238.5026015625,150.54356947999736L238.5072421875,150.5462249471591L238.57917187500001,150.5873709160548L238.7439140625,150.6816109258395L239.2868671875,150.99220264874972L239.5119375,151.12095250991675L240.08737499999998,151.4501263820208L240.556078125,151.71824389237622L241.085109375,152.02087227427043L241.456359375,152.23324231688792L242.1965390625,152.6566561987767L242.28007031250002,152.70443930534216L242.29863281250002,152.71505811351994L242.5585078125,152.8637173473835L242.6466796875,152.91415592111073L243.1339453125,153.19289121948756L243.38221875,153.33491433583774L243.70474218750002,153.51941166474268L243.767390625,153.5552487396277L244.0620703125,153.72381836634418L244.37995312500001,153.90566022808736L244.509890625,153.97998984501913L244.58414062499997,154.0224640575739L244.74888281249997,154.11670304720218L244.83473437499998,154.16581439742674L245.6306015625,154.6210836836925L245.837109375,154.73921473668173L245.89047656250003,154.76974291755602L246.0296953125,154.84938142849848L246.0482578125,154.86000023667629L246.2431640625,154.97149415199573L246.653859375,155.2064290344715L246.83948437499998,155.3126150759367L247.034390625,155.42410899125613L247.127203125,155.4772020119887L247.19681250000002,155.51702075738172L247.3476328125,155.60329640599397L247.4218828125,155.64577061854877L248.3175234375,156.1581145960551L248.63772656249998,156.34128419137917L248.8001484375,156.434196467583L248.9625703125,156.5271082337086L249.0507421875,156.57754629735763L249.2410078125,156.68638627574995L249.3431015625,156.7447881904932L249.48232031249998,156.8244272115139L249.6586640625,156.92530282873375L249.790921875,157.0009601792464L249.9974296875,157.1190912322356L250.115765625,157.1867842215758L250.12272656250002,157.19076589208382L250.30835156249998,157.2969514234708L250.5635859375,157.442956210329L250.5867890625,157.45622895543391L250.91859375,157.46153835952282L251.0879765625,157.46153835952282L251.5334765625,157.46153835952282L251.6958984375,157.46153835952282L251.80959375,157.46153835952282L251.851359375,157.46153835952282L251.999859375,157.46153835952282L252.3455859375,157.46153835952282L252.89317968749998,157.46153835952282L253.044,157.46153835952282L253.5428671875,157.46153835952282L254.0904609375,157.46153835952282L254.1391875,157.46153835952282L254.3364140625,157.46153835952282L254.34105468750002,157.46153835952282L254.9675390625,157.46153835952282L255.192609375,157.46153835952282L255.234375,157.46153835952282" style="fill: none;" fill="none"></path></g></g></g></g></g></g><g transform="translate(51, 178)" clip-path="url(#clip_1)"><clipPath id="clip_1"><rect width="278" height="22"></rect></clipPath><g><g><line x1="0" y1="0" x2="0" y2="5" style="visibility: inherit;" fill="rgb(0, 0, 0)" stroke="rgb(204, 204, 204)" stroke-width="1px"></line><line x1="23.203125" y1="0" x2="23.203125" y2="5" style="visibility: inherit;" fill="rgb(0, 0, 0)" stroke="rgb(204, 204, 204)" stroke-width="1px"></line><line x1="46.40625" y1="0" x2="46.40625" y2="5" style="visibility: inherit;" fill="rgb(0, 0, 0)" stroke="rgb(204, 204, 204)" stroke-width="1px"></line><line x1="69.609375" y1="0" x2="69.609375" y2="5" style="visibility: inherit;" fill="rgb(0, 0, 0)" stroke="rgb(204, 204, 204)" stroke-width="1px"></line><line x1="92.8125" y1="0" x2="92.8125" y2="5" style="visibility: inherit;" fill="rgb(0, 0, 0)" stroke="rgb(204, 204, 204)" stroke-width="1px"></line><line x1="116.015625" y1="0" x2="116.015625" y2="5" style="visibility: inherit;" fill="rgb(0, 0, 0)" stroke="rgb(204, 204, 204)" stroke-width="1px"></line><line x1="139.21875" y1="0" x2="139.21875" y2="5" style="visibility: inherit;" fill="rgb(0, 0, 0)" stroke="rgb(204, 204, 204)" stroke-width="1px"></line><line x1="162.421875" y1="0" x2="162.421875" y2="5" style="visibility: inherit;" fill="rgb(0, 0, 0)" stroke="rgb(204, 204, 204)" stroke-width="1px"></line><line x1="185.625" y1="0" x2="185.625" y2="5" style="visibility: inherit;" fill="rgb(0, 0, 0)" stroke="rgb(204, 204, 204)" stroke-width="1px"></line><line x1="208.828125" y1="0" x2="208.828125" y2="5" style="visibility: inherit;" fill="rgb(0, 0, 0)" stroke="rgb(204, 204, 204)" stroke-width="1px"></line><line x1="232.03125" y1="0" x2="232.03125" y2="5" style="visibility: inherit;" fill="rgb(0, 0, 0)" stroke="rgb(204, 204, 204)" stroke-width="1px"></line><line x1="255.234375" y1="0" x2="255.234375" y2="5" style="visibility: inherit;" fill="rgb(0, 0, 0)" stroke="rgb(204, 204, 204)" stroke-width="1px"></line><line x1="278.4375" y1="0" x2="278.4375" y2="5" style="visibility: inherit;" fill="rgb(0, 0, 0)" stroke="rgb(204, 204, 204)" stroke-width="1px"></line></g><g transform="translate(0, 8)"><text x="0" y="0" dx="0em" dy="0.95em" style="text-anchor: middle; visibility: hidden; font-family: Roboto, sans-serif; font-size: 12px; font-weight: 200;" fill="rgb(50, 49, 63)" stroke="none" stroke-width="1px">-10k</text><text x="23.203125" y="0" dx="0em" dy="0.95em" style="text-anchor: middle; visibility: inherit; font-family: Roboto, sans-serif; font-size: 12px; font-weight: 200;" fill="rgb(50, 49, 63)" stroke="none" stroke-width="1px">0</text><text x="46.40625" y="0" dx="0em" dy="0.95em" style="text-anchor: middle; visibility: hidden; font-family: Roboto, sans-serif; font-size: 12px; font-weight: 200;" fill="rgb(50, 49, 63)" stroke="none" stroke-width="1px">10k</text><text x="69.609375" y="0" dx="0em" dy="0.95em" style="text-anchor: middle; visibility: inherit; font-family: Roboto, sans-serif; font-size: 12px; font-weight: 200;" fill="rgb(50, 49, 63)" stroke="none" stroke-width="1px">20k</text><text x="92.8125" y="0" dx="0em" dy="0.95em" style="text-anchor: middle; visibility: hidden; font-family: Roboto, sans-serif; font-size: 12px; font-weight: 200;" fill="rgb(50, 49, 63)" stroke="none" stroke-width="1px">30k</text><text x="116.015625" y="0" dx="0em" dy="0.95em" style="text-anchor: middle; visibility: inherit; font-family: Roboto, sans-serif; font-size: 12px; font-weight: 200;" fill="rgb(50, 49, 63)" stroke="none" stroke-width="1px">40k</text><text x="139.21875" y="0" dx="0em" dy="0.95em" style="text-anchor: middle; visibility: hidden; font-family: Roboto, sans-serif; font-size: 12px; font-weight: 200;" fill="rgb(50, 49, 63)" stroke="none" stroke-width="1px">50k</text><text x="162.421875" y="0" dx="0em" dy="0.95em" style="text-anchor: middle; visibility: inherit; font-family: Roboto, sans-serif; font-size: 12px; font-weight: 200;" fill="rgb(50, 49, 63)" stroke="none" stroke-width="1px">60k</text><text x="185.625" y="0" dx="0em" dy="0.95em" style="text-anchor: middle; visibility: hidden; font-family: Roboto, sans-serif; font-size: 12px; font-weight: 200;" fill="rgb(50, 49, 63)" stroke="none" stroke-width="1px">70k</text><text x="208.828125" y="0" dx="0em" dy="0.95em" style="text-anchor: middle; visibility: inherit; font-family: Roboto, sans-serif; font-size: 12px; font-weight: 200;" fill="rgb(50, 49, 63)" stroke="none" stroke-width="1px">80k</text><text x="232.03125" y="0" dx="0em" dy="0.95em" style="text-anchor: middle; visibility: hidden; font-family: Roboto, sans-serif; font-size: 12px; font-weight: 200;" fill="rgb(50, 49, 63)" stroke="none" stroke-width="1px">90k</text><text x="255.234375" y="0" dx="0em" dy="0.95em" style="text-anchor: middle; visibility: inherit; font-family: Roboto, sans-serif; font-size: 12px; font-weight: 200;" fill="rgb(50, 49, 63)" stroke="none" stroke-width="1px">100k</text><text x="278.4375" y="0" dx="0em" dy="0.95em" style="text-anchor: middle; visibility: hidden; font-family: Roboto, sans-serif; font-size: 12px; font-weight: 200;" fill="rgb(50, 49, 63)" stroke="none" stroke-width="1px">110k</text></g><line x1="0" y1="0" x2="278.4375" y2="0" fill="rgb(0, 0, 0)" stroke="rgb(204, 204, 204)" stroke-width="1px"></line></g></g></g></g></svg>