<svg viewBox="0 0 330 200" xmlns="http://www.w3.org/2000/svg"><g><g><g><g><g><line x1="30.78125" y1="178" x2="25.78125" y2="178" style="visibility: inherit;" fill="rgb(0, 0, 0)" stroke="rgb(204, 204, 204)" stroke-width="1px"></line><line x1="30.78125" y1="163.16666666666666" x2="25.78125" y2="163.16666666666666" style="visibility: inherit;" fill="rgb(0, 0, 0)" stroke="rgb(204, 204, 204)" stroke-width="1px"></line><line x1="30.78125" y1="148.33333333333334" x2="25.78125" y2="148.33333333333334" style="visibility: inherit;" fill="rgb(0, 0, 0)" stroke="rgb(204, 204, 204)" stroke-width="1px"></line><line x1="30.78125" y1="133.5" x2="25.78125" y2="133.5" style="visibility: inherit;" fill="rgb(0, 0, 0)" stroke="rgb(204, 204, 204)" stroke-width="1px"></line><line x1="30.78125" y1="118.66666666666669" x2="25.78125" y2="118.66666666666669" style="visibility: inherit;" fill="rgb(0, 0, 0)" stroke="rgb(204, 204, 204)" stroke-width="1px"></line><line x1="30.78125" y1="103.83333333333331" x2="25.78125" y2="103.83333333333331" style="visibility: inherit;" fill="rgb(0, 0, 0)" stroke="rgb(204, 204, 204)" stroke-width="1px"></line><line x1="30.78125" y1="89" x2="25.78125" y2="89" style="visibility: inherit;" fill="rgb(0, 0, 0)" stroke="rgb(204, 204, 204)" stroke-width="1px"></line><line x1="30.78125" y1="74.16666666666666" x2="25.78125" y2="74.16666666666666" style="visibility: inherit;" fill="rgb(0, 0, 0)" stroke="rgb(204, 204, 204)" stroke-width="1px"></line><line x1="30.78125" y1="59.33333333333334" x2="25.78125" y2="59.33333333333334" style="visibility: inherit;" fill="rgb(0, 0, 0)" stroke="rgb(204, 204, 204)" stroke-width="1px"></line><line x1="30.78125" y1="44.5" x2="25.78125" y2="44.5" style="visibility: inherit;" fill="rgb(0, 0, 0)" stroke="rgb(204, 204, 204)" stroke-width="1px"></line><line x1="30.78125" y1="29.66666666666666" x2="25.78125" y2="29.66666666666666" style="visibility: inherit;" fill="rgb(0, 0, 0)" stroke="rgb(204, 204, 204)" stroke-width="1px"></line><line x1="30.78125" y1="14.83333333333334" x2="25.78125" y2="14.83333333333334" style="visibility: inherit;" fill="rgb(0, 0, 0)" stroke="rgb(204, 204, 204)" stroke-width="1px"></line><line x1="30.78125" y1="0" x2="25.78125" y2="0" style="visibility: inherit;" fill="rgb(0, 0, 0)" stroke="rgb(204, 204, 204)" stroke-width="1px"></line></g><g transform="translate(20.78125, 0)"><text x="0" y="178" dx="0em" dy="0.3em" style="text-anchor: end; visibility: hidden; font-family: Roboto, sans-serif; font-size: 12px; font-weight: 200;" fill="rgb(50, 49, 63)" stroke="none" stroke-width="1px">-5</text><text x="0" y="163.16666666666666" dx="0em" dy="0.3em" style="text-anchor: end; visibility: inherit; font-family: Roboto, sans-serif; font-size: 12px; font-weight: 200;" fill="rgb(50, 49, 63)" stroke="none" stroke-width="1px">0</text><text x="0" y="148.33333333333334" dx="0em" dy="0.3em" style="text-anchor: end; visibility: hidden; font-family: Roboto, sans-serif; font-size: 12px; font-weight: 200;" fill="rgb(50, 49, 63)" stroke="none" stroke-width="1px">5</text><text x="0" y="133.5" dx="0em" dy="0.3em" style="text-anchor: end; visibility: inherit; font-family: Roboto, sans-serif; font-size: 12px; font-weight: 200;" fill="rgb(50, 49, 63)" stroke="none" stroke-width="1px">10</text><text x="0" y="118.66666666666669" dx="0em" dy="0.3em" style="text-anchor: end; visibility: hidden; font-family: Roboto, sans-serif; font-size: 12px; font-weight: 200;" fill="rgb(50, 49, 63)" stroke="none" stroke-width="1px">15</text><text x="0" y="103.83333333333331" dx="0em" dy="0.3em" style="text-anchor: end; visibility: inherit; font-family: Roboto, sans-serif; font-size: 12px; font-weight: 200;" fill="rgb(50, 49, 63)" stroke="none" stroke-width="1px">20</text><text x="0" y="89" dx="0em" dy="0.3em" style="text-anchor: end; visibility: hidden; font-family: Roboto, sans-serif; font-size: 12px; font-weight: 200;" fill="rgb(50, 49, 63)" stroke="none" stroke-width="1px">25</text><text x="0" y="74.16666666666666" dx="0em" dy="0.3em" style="text-anchor: end; visibility: inherit; font-family: Roboto, sans-serif; font-size: 12px; font-weight: 200;" fill="rgb(50, 49, 63)" stroke="none" stroke-width="1px">30</text><text x="0" y="59.33333333333334" dx="0em" dy="0.3em" style="text-anchor: end; visibility: hidden; font-family: Roboto, sans-serif; font-size: 12px; font-weight: 200;" fill="rgb(50, 49, 63)" stroke="none" stroke-width="1px">35</text><text x="0" y="44.5" dx="0em" dy="0.3em" style="text-anchor: end; visibility: inherit; font-family: Roboto, sans-serif; font-size: 12px; font-weight: 200;" fill="rgb(50, 49, 63)" stroke="none" stroke-width="1px">40</text><text x="0" y="29.66666666666666" dx="0em" dy="0.3em" style="text-anchor: end; visibility: hidden; font-family: Roboto, sans-serif; font-size: 12px; font-weight: 200;" fill="rgb(50, 49, 63)" stroke="none" stroke-width="1px">45</text><text x="0" y="14.83333333333334" dx="0em" dy="0.3em" style="text-anchor: end; visibility: inherit; font-family: Roboto, sans-serif; font-size: 12px; font-weight: 200;" fill="rgb(50, 49, 63)" stroke="none" stroke-width="1px">50</text><text x="0" y="0" dx="0em" dy="0.3em" style="text-anchor: end; visibility: hidden; font-family: Roboto, sans-serif; font-size: 12px; font-weight: 200;" fill="rgb(50, 49, 63)" stroke="none" stroke-width="1px">55</text></g><line x1="30.78125" y1="0" x2="30.78125" y2="178" fill="rgb(0, 0, 0)" stroke="rgb(204, 204, 204)" stroke-width="1px"></line></g></g><g transform="translate(30, 0)" clip-path="url(#clip_0)"><clipPath id="clip_0"><rect width="299" height="178"></rect></clipPath><g><g><g><line x1="0" y1="0" x2="0" y2="178" fill="rgb(0, 0, 0)" stroke="rgb(60, 60, 60)" stroke-width="1px" opacity="0.25"></line><line x1="24.934895833333332" y1="0" x2="24.934895833333332" y2="178" fill="rgb(0, 0, 0)" stroke="rgb(60, 60, 60)" stroke-width="1px" opacity="0.25"></line><line x1="49.869791666666664" y1="0" x2="49.869791666666664" y2="178" fill="rgb(0, 0, 0)" stroke="rgb(60, 60, 60)" stroke-width="1px" opacity="0.25"></line><line x1="74.8046875" y1="0" x2="74.8046875" y2="178" fill="rgb(0, 0, 0)" stroke="rgb(60, 60, 60)" stroke-width="1px" opacity="0.25"></line><line x1="99.73958333333333" y1="0" x2="99.73958333333333" y2="178" fill="rgb(0, 0, 0)" stroke="rgb(60, 60, 60)" stroke-width="1px" opacity="0.25"></line><line x1="124.67447916666667" y1="0" x2="124.67447916666667" y2="178" fill="rgb(0, 0, 0)" stroke="rgb(60, 60, 60)" stroke-width="1px" opacity="0.25"></line><line x1="149.609375" y1="0" x2="149.609375" y2="178" fill="rgb(0, 0, 0)" stroke="rgb(60, 60, 60)" stroke-width="1px" opacity="0.25"></line><line x1="174.54427083333334" y1="0" x2="174.54427083333334" y2="178" fill="rgb(0, 0, 0)" stroke="rgb(60, 60, 60)" stroke-width="1px" opacity="0.25"></line><line x1="199.47916666666666" y1="0" x2="199.47916666666666" y2="178" fill="rgb(0, 0, 0)" stroke="rgb(60, 60, 60)" stroke-width="1px" opacity="0.25"></line><line x1="224.4140625" y1="0" x2="224.4140625" y2="178" fill="rgb(0, 0, 0)" stroke="rgb(60, 60, 60)" stroke-width="1px" opacity="0.25"></line><line x1="249.34895833333334" y1="0" x2="249.34895833333334" y2="178" fill="rgb(0, 0, 0)" stroke="rgb(60, 60, 60)" stroke-width="1px" opacity="0.25"></line><line x1="274.28385416666663" y1="0" x2="274.28385416666663" y2="178" fill="rgb(0, 0, 0)" stroke="rgb(60, 60, 60)" stroke-width="1px" opacity="0.25"></line><line x1="299.21875" y1="0" x2="299.21875" y2="178" fill="rgb(0, 0, 0)" stroke="rgb(60, 60, 60)" stroke-width="1px" opacity="0.25"></line></g><g><line x1="0" y1="178" x2="299.21875" y2="178" fill="rgb(0, 0, 0)" stroke="rgb(60, 60, 60)" stroke-width="1px" opacity="0.25"></line><line x1="0" y1="163.16666666666666" x2="299.21875" y2="163.16666666666666" fill="rgb(0, 0, 0)" stroke="rgb(60, 60, 60)" stroke-width="1px" opacity="0.25"></line><line x1="0" y1="148.33333333333334" x2="299.21875" y2="148.33333333333334" fill="rgb(0, 0, 0)" stroke="rgb(60, 60, 60)" stroke-width="1px" opacity="0.25"></line><line x1="0" y1="133.5" x2="299.21875" y2="133.5" fill="rgb(0, 0, 0)" stroke="rgb(60, 60, 60)" stroke-width="1px" opacity="0.25"></line><line x1="0" y1="118.66666666666669" x2="299.21875" y2="118.66666666666669" fill="rgb(0, 0, 0)" stroke="rgb(60, 60, 60)" stroke-width="1px" opacity="0.25"></line><line x1="0" y1="103.83333333333331" x2="299.21875" y2="103.83333333333331" fill="rgb(0, 0, 0)" stroke="rgb(60, 60, 60)" stroke-width="1px" opacity="0.25"></line><line x1="0" y1="89" x2="299.21875" y2="89" fill="rgb(0, 0, 0)" stroke="rgb(60, 60, 60)" stroke-width="1px" opacity="0.25"></line><line x1="0" y1="74.16666666666666" x2="299.21875" y2="74.16666666666666" fill="rgb(0, 0, 0)" stroke="rgb(60, 60, 60)" stroke-width="1px" opacity="0.25"></line><line x1="0" y1="59.33333333333334" x2="299.21875" y2="59.33333333333334" fill="rgb(0, 0, 0)" stroke="rgb(60, 60, 60)" stroke-width="1px" opacity="0.25"></line><line x1="0" y1="44.5" x2="299.21875" y2="44.5" fill="rgb(0, 0, 0)" stroke="rgb(60, 60, 60)" stroke-width="1px" opacity="0.25"></line><line x1="0" y1="29.66666666666666" x2="299.21875" y2="29.66666666666666" fill="rgb(0, 0, 0)" stroke="rgb(60, 60, 60)" stroke-width="1px" opacity="0.25"></line><line x1="0" y1="14.83333333333334" x2="299.21875" y2="14.83333333333334" fill="rgb(0, 0, 0)" stroke="rgb(60, 60, 60)" stroke-width="1px" opacity="0.25"></line><line x1="0" y1="0" x2="299.21875" y2="0" fill="rgb(0, 0, 0)" stroke="rgb(60, 60, 60)" stroke-width="1px" opacity="0.25"></line></g></g></g><g><g><line x1="0" y1="163.16666666666666" x2="299.21875" y2="163.16666666666666" fill="rgb(0, 0, 0)" stroke="rgb(153, 153, 153)" stroke-width="1.5px"></line></g></g><g><g><line x1="24.934895833333332" y1="0" x2="24.934895833333332" y2="178" fill="rgb(0, 0, 0)" stroke="rgb(153, 153, 153)" stroke-width="1.5px"></line></g></g><g><g><g><g><g><path stroke="rgb(204, 51, 17)" stroke-width="2px" d="M25.042115885416667,25.182172648111976L25.17177734375,22.64035504659017L25.35380208333333,20.13094914754232L25.508398437500002,25.152171452840175L25.52086588541667,26.826240412394203L25.618111979166663,22.412409337361645L25.710371093750002,18.17202161153157L25.730319010416665,18.088298924764L26.119303385416668,17.01930122375488L26.273899739583335,17.871817270914708L26.381119791666666,15.856316375732417L26.39857421875,15.086029179890954L26.518261718749997,15.534123229980464L26.550677083333333,15.291148630778004L26.717740885416667,17.115382003784177L26.95212890625,17.583642832438148L27.465787760416664,15.271751403808594L27.59544921875,17.474694697062183L28.261210937500003,17.27961336771647L28.271184895833333,17.49402402242024L28.390872395833334,17.187833023071292L28.408326822916663,17.069514465332034L28.51804036458333,18.033287302653L29.153880208333334,14.131988906860359L29.261100260416665,14.234871164957688L29.268580729166665,14.150559997558586L29.617669270833336,13.727544275919605L29.717408854166667,13.286579895019527L30.01413411458333,13.449758783976243L30.163743489583332,13.34787241617838L30.420572916666668,13.08030611673991L30.57766276041667,12.932461675008136L30.689869791666666,12.905255762736012L30.8943359375,13.840306218465168L31.011529947916667,13.555119450887043L31.133710937500002,13.401310984293621L31.136204427083335,13.461528396606438L31.166126302083335,13.705544153849278L31.250904947916666,13.486448287963867L31.632408854166666,13.287043889363613L31.76955078125,13.913357035319017L32.51261067708333,15.467862574259449L32.991360677083335,14.879246139526375L33.03125651041667,14.879019800821942L33.178372395833335,15.102540588378899L33.958834635416665,16.349870554606117L33.96382161458333,16.267098490397135L34.08849609375,16.65163663228352L34.26553385416667,16.815336100260414L34.44755859375,17.205113983154288L34.46501302083333,17.23957405090331L34.73181640625,17.740348434448233L34.80163411458334,17.794748942057286L35.00111328125,17.589097595214835L35.40007161458333,17.83745905558269L35.70178385416667,18.13115615844727L35.90874348958333,18.23747876485188L36.13814453125,17.639548492431643L36.18053385416667,17.85919888814291L36.59694661458334,17.90974032084147L36.876217447916666,17.899736150105788L37.33252604166667,18.055377960205078L37.66914713541667,18.46397590637207L37.73896484375,18.501944224039708L38.26509114583333,18.218421045939127L38.300000000000004,18.37562459309896L38.77376302083333,18.25435231526692L39.09791666666666,18.12382278442382L39.207630208333335,17.787562688191738L39.41957682291667,17.667727661132815L39.55921223958334,17.69124425252279L39.57666666666667,17.814146169026696L39.666432291666666,17.745769246419265L39.87339192708333,17.878731918334964L40.39702473958334,18.062654749552415L40.444401041666666,18.219722493489577L40.6189453125,18.55935503641765L41.32958984375,18.646008809407558L41.40190104166667,18.786497243245446L41.641276041666664,18.464179611206045L41.67119791666667,18.546091588338207L42.02776692708333,18.360437266031898L42.30703776041667,18.388899358113598L42.778307291666664,17.98406995137533L43.34432942708334,17.826922988891592L43.53882161458333,17.91491216023763L43.54630208333333,17.893806076049795L43.665989583333335,17.716277313232425L44.356686197916666,17.861326471964524L44.381621093750006,17.895480982462562L44.46889322916667,17.93859850565592L44.862864583333334,17.728725941975902L45.04987630208333,17.609875488281247L45.33413411458333,17.933811442057298L45.436367187500004,18.15288467407227L45.79044270833333,18.34480857849121L45.8253515625,18.268125025431324L46.127063802083335,18.20177383422852L46.15199869791667,18.162945429484044L46.38389322916667,18.45458285013834L47.07458984375,18.12443389892579L47.19926432291667,18.205678176879886L47.21671875,18.186439387003578L47.361341145833336,18.26376800537109L48.027102864583334,18.02071418762208L48.54574869791667,18.29533093770345L48.760188802083334,18.233121744791664L48.79260416666666,18.337022527058913L49.11925130208333,18.152058537801107L49.480807291666665,18.088106536865244L49.640390624999995,17.917367935180664L50.560488281249995,17.93653882344564L50.57794270833334,17.92000478108724L50.86718750000001,17.771470006306966L51.06666666666666,17.72073618570963L51.173886718750005,17.779414494832363L51.38583333333333,17.60199890136718L51.75985677083333,17.563396835327158L51.81720703125,17.48877296447753L52.12141276041667,17.459066009521475L52.128893229166664,17.44473876953126L52.28099609375,17.63309783935547L52.30094401041667,17.658085632324216L52.41564453125,17.619381713867185L52.62011067708333,17.57208824157715L53.410546874999994,17.742849477132165L53.54270182291667,17.742340215047204L53.692311197916666,17.72719815572102L53.77708984375,17.693043645222982L54.07381510416666,17.803553517659505L54.25833333333334,17.88577105204265L54.78196614583333,17.733082962036136L54.79443359375,17.74426409403484L55.26819661458333,17.747568639119457L55.58237630208333,17.741830952962243L56.53239583333334,17.54903564453124L57.046054687499996,17.666844940185538L57.20065104166667,17.58449160257975L57.43753255208333,17.598581186930335L57.504856770833335,17.604217020670582L57.62454427083333,17.661967341105143L58.35513671875,17.522655868530283L58.714199218750004,17.472171020507815L58.8413671875,17.47317822774252L58.89871744791667,17.479617563883473L59.37248046875,17.72245635986329L59.55699869791667,17.835252253214527L60.04572265625,17.919880294799814L60.397304687500004,18.150021489461263L60.57932942708333,18.164212926228835L60.68904296875,18.15399373372396L60.96083333333333,18.282950210571286L61.43708984375,18.32913462320963L61.51189453125,18.36242904663087L61.55927083333333,18.347762298583987L61.788671875,18.426256561279306L61.8634765625,18.41896845499675L62.023059895833335,18.46337610880534L62.07043619791666,18.48863550821941L63.147623697916664,18.482377243041995L63.51915364583333,18.51434758504231L63.524140624999994,18.513872273763024L63.603932291666666,18.487141672770182L64.18491536458333,18.593260574340817L64.24475911458333,18.606354268391918L65.12246744791668,19.094566853841137L65.4541015625,19.12359479268391L65.6336328125,19.177372868855795L66.57118489583334,19.47041358947755L66.85045572916667,19.563054021199545L66.97014322916667,19.567184702555345L67.07486979166666,19.590531539916995L67.49128255208333,19.848172887166335L67.56858072916667,19.813056437174488L68.05481119791666,20.05712877909342L68.11714843749999,20.09240366617839L68.17200520833333,20.102849197387698L68.68067708333334,20.345948282877604L68.7155859375,20.358453496297194L68.78789713541667,20.307165145874023L68.80784505208332,20.321537653605137L69.98227864583333,20.942045211791992L70.944765625,21.5538387298584L72.20896484375001,21.83572095235189L72.60293619791666,21.94855079650878L72.73509114583334,22.07590026855469L72.98942708333334,22.283871587117513L73.63773437500001,22.42770983378093L73.90952473958333,22.529052988688157L73.94443359375,22.523575592041013L74.13643229166667,22.606325022379554L74.42318359375,22.65845082600911L74.65258463541667,22.681854248046875L74.79471354166667,22.66690457661947L74.89445312500001,22.754905064900722L74.9393359375,22.762589263916013L74.96177734375,22.75164578755696L75.15128255208333,22.83960100809734L75.41559244791667,22.944226074218747L75.43554036458333,22.941023381551098L75.612578125,22.96378173828126L75.90431640624999,23.098668289184573L76.151171875,22.993828201293955L76.15366536458333,22.986211903889977L76.20852213541666,22.963068771362302L76.24841796875,22.98557815551757L76.749609375,23.142283757527675L76.75708984375,23.148225148518886L76.87927083333334,23.192745971679685L76.93911458333334,23.26847890218098L77.50014973958334,23.382497024536136L77.65973307291667,23.384681193033863L77.82180989583334,23.43540369669596L77.87916015625,23.46102523803711L78.09609375000001,23.446686681111654L78.275625,23.500906117757165L78.604765625,23.489102554321292L79.41514973958334,23.67943077087402L79.80912109375,23.737237675984694L80.40506510416667,23.98164952596029L80.52225911458333,23.929093678792324L80.61701171875,24.006603368123375L80.68682942708334,23.995116678873707L80.97108723958334,24.199466578165687L81.88869140625,24.360280227661136L82.63175130208333,24.622222010294596L82.65668619791667,24.605178705851234L82.76639973958333,24.59942970275878L82.83123046875,24.639593505859384L82.9434375,24.729019927978513L83.00078776041666,24.712881978352865L83.18779947916667,24.789101537068685L83.35236979166667,24.78638547261556L83.63413411458335,24.90873285929363L83.95828776041667,24.928594080607105L83.98571614583334,24.94269498189291L84.0355859375,24.909140268961583L84.62654296875,24.852759297688802L84.97812499999999,24.923444875081383L85.14768229166667,24.99331563313802L85.48430338541667,25.21172116597493L85.48929036458334,25.22308336893717L85.58404296875,25.2556308746338L85.64139322916667,25.251884969075512L86.32959635416665,25.460410817464187L86.57395833333334,25.622299575805673L86.59390625,25.654801813761402L87.0277734375,25.603015518188467L87.11005859375001,25.654202016194652L87.29457682291667,25.752670669555673L87.39182291666665,25.812650426228835L87.60626302083334,25.822303771972656L87.90548177083333,25.82882232666016L88.10246744791667,25.75354207356771L88.24958333333333,25.850845082600905L88.98516276041667,25.94952875773112L89.29934244791667,25.998700841267897L89.38661458333334,25.977843729654957L89.5711328125,26.026144409179697L89.93268880208333,26.106143824259437L89.99502604166668,26.16924705505372L90.154609375,26.17553927103679L90.18951822916667,26.158133824666347L90.52364583333333,26.134277725219736L90.77299479166666,26.248771158854176L90.94005859375,26.292726135253897L91.7554296875,26.53482933044434L91.75792317708333,26.539921951293948L91.83522135416666,26.498762257893883L92.61568359374999,26.68666865030925L92.64560546874999,26.703281911214184L92.65557942708332,26.701527786254886L92.65807291666665,26.706552505493164L92.94482421875,26.868588383992513L93.52082031249999,26.99940083821614L93.76518229166668,27.08518320719401L93.80757161458334,27.083010355631504L93.85245442708333,27.06430346171061L94.31873697916666,27.2006612141927L94.54564453125,27.186922454833994L94.63042317708333,27.23557395935059L94.67530598958334,27.227595520019534L95.55550781250001,27.60208422342936L95.84724609375,27.690378952026364L95.87966145833333,27.71057968139648L96.1090625,27.783404159545896L96.18137369791667,27.806592559814444L96.27861979166666,27.82519760131837L97.17378255208332,28.181341552734384L97.23861328125001,28.179598744710287L97.34084635416666,28.24759089152018L97.40318359375,28.292202250162767L97.74977864583333,28.36528701782227L97.904375,28.46840693155925L98.42302083333334,28.71441446940104L98.46291666666667,28.727010218302418L98.64743489583333,28.88290100097656L98.772109375,28.90926946004232L99.11122395833333,29.034400812784828L99.31569010416668,29.144537226359056L99.75454427083332,29.367096074422204L99.81937500000001,29.403898747762035L99.97147786458333,29.507460021972665L100.17594401041666,29.615050125122067L100.34799479166666,29.7137451171875L100.45022786458333,29.786660130818685L100.55744791666667,29.877953847249355L100.88658854166667,30.017287953694655L100.91401692708334,30.036153284708668L101.26809244791666,30.275732803344724L101.50248046875,30.373386637369798L101.53738932291667,30.38562024434408L103.24792317708334,30.8488224029541L103.34018229166666,30.881867853800465L103.97103515625,31.188986841837565L104.25030598958332,31.26196975708008L104.4123828125,31.335495885213216L104.42983723958332,31.364444605509437L104.56947265625,31.400477727254238L104.59191406250001,31.381884002685556L104.73902994791666,31.448710505167643L104.7714453125,31.455862808227536L105.16292317708333,31.637533569335947L105.24520833333334,31.6341271718343L105.81372395833334,31.762981796264658L106.08052734374999,31.839495595296224L106.36727864583332,32.011252721150726L106.48945963541667,32.13518447875977L106.62909505208333,32.178053029378255L106.95823567708334,32.23471692403157L106.97818359374999,32.23949267069499L107.30732421875001,32.34954986572265L107.60155598958333,32.42143503824869L107.66888020833333,32.41158930460611L107.67386718750001,32.41053682963054L107.89828125,32.45214920043945L108.07282552083333,32.55752118428549L108.15760416666666,32.610574976603196L108.227421875,32.622321955362956L109.03780598958333,32.947864913940435L109.06024739583333,32.97380332946777L109.09016927083333,32.9761459350586L109.13754557291668,32.996686172485354L109.17993489583334,33.00071500142415L109.31458333333333,32.9980328877767L109.34450520833333,33.02664210001628L109.40684244791666,33.06138509114583L109.4991015625,33.10710550944011L109.75842447916668,33.15589281717937L109.80580078125,33.19360084533692L110.0676171875,33.34133211771646L110.61867838541666,33.48561172485351L110.67104166666667,33.51304397583007L110.80818359375,33.530596542358396L111.0251171875,33.58229230244954L111.20963541666666,33.64508997599284L111.6684375,33.8781962076823L113.03985677083334,34.37937800089517L113.09222005208333,34.371965408325195L113.11216796875,34.38432350158692L113.14957031249999,34.41377016703289L113.41388020833334,34.53085517883301L113.63829427083333,34.622782643636064L114.13200520833334,34.89473991394043L114.14945963541666,34.886670939127605L114.32649739583333,34.93383992513021L114.5858203125,35.114990107218425L114.62820963541667,35.159012985229495L114.7952734375,35.27351773579915L115.31641276041667,35.487136205037444L115.38872395833333,35.523780441284174L116.27141927083333,35.801667785644526L116.34622395833333,35.80878613789876L116.39360026041668,35.79387041727703L116.61552083333333,35.89240697224934L116.74518229166667,35.919069671630865L116.82248046875,35.9617005666097L116.96460937500001,35.97328910827636L117.61790364583334,36.12756156921387L117.70018880208333,36.1365924835205L118.33104166666668,36.258023198445635L118.4158203125,36.24651387532551L119.10152994791667,36.40873082478842L119.38080078125,36.49375495910644L120.16874348958333,36.69515113830566L120.30588541666667,36.7218817392985L120.78463541666667,36.905827204386384L120.82453124999999,36.927499135335296L120.85195963541666,36.94046834309895L121.29081380208333,37.00867551167806L121.43543619791666,37.06742172241211L121.48530598958334,37.08659261067708L121.78452473958335,37.13240356445313L122.13610677083334,37.27625312805176L122.19595052083334,37.315681330362956L122.53506510416666,37.480105082194L122.77444010416667,37.58347396850586L122.92155598958334,37.658776855468744L122.948984375,37.671259435017895L123.93391276041667,38.25478324890136L124.00373046874999,38.26813723246257L124.1308984375,38.331308364868164L124.37276692708333,38.4489818572998L124.45006510416667,38.50869000752767L124.46253255208333,38.502001698811846L124.72684244791667,38.62463200887044L125.41504557291667,38.80033874511719L125.92371744791667,38.899361928304046L126.29026041666665,38.99844169616699L126.33015625,39.01082242329915L126.34013020833333,39.023033396403L126.42241536458333,39.05079383850098L126.47228515625001,39.06804084777832L126.65430989583334,39.13012555440266L127.27020182291668,39.2477424621582L127.48962890624999,39.32534268697102L127.77887369791667,39.414701207478835L127.84619791666667,39.40220731099446L128.0207421875,39.48977775573731L128.19029947916667,39.528096898396804L128.394765625,39.56509195963542L128.514453125,39.565080642700195L128.55434895833332,39.59124539693196L129.34229166666668,39.87201855977376L129.6963671875,40.083962122599274L129.99807942708333,40.24732208251953L130.27236328125,40.32862294514974L130.50924479166667,40.40804519653321L130.78602213541666,40.519381205240876L130.83090494791665,40.54341837565105L131.35453776041666,40.77142066955567L132.06767578125002,41.13734245300293L132.11006510416667,41.17180252075195L132.20731119791668,41.206534194946286L132.85063151041666,41.645687866210935L133.44906901041668,41.954549662272136L133.53634114583332,42.024714660644534L133.67098958333332,42.079477310180664L133.75078125,42.120682271321606L133.93031249999999,42.23183720906575L133.99763671875,42.265788014729814L134.00761067708333,42.27684466044107L134.16470052083335,42.36267229715984L134.60106119791666,42.492590713500974L134.6334765625,42.508015696207686L134.83295572916666,42.55874951680502L134.8429296875,42.56969299316407L134.93269531250002,42.607582092285156L135.14962890625,42.68380165100098L135.16708333333332,42.68273785909016L135.276796875,42.71538721720378L135.40895182291666,42.785823822021484L136.10962239583333,43.12532056172689L136.25923177083334,43.19361826578777L136.65070963541666,43.335928726196286L136.68561848958333,43.346883519490554L137.05465494791667,43.47735646565754L137.40374348958332,43.598922983805345L137.91740234374998,43.749675877889L137.93984375,43.760302480061846L138.07199869791668,43.808241017659505L138.40861979166667,44.03845011393229L138.49838541666665,44.067478052775066L138.78513671875,44.211508687337236L139.23645833333333,44.577656809488936L139.72019531249998,44.87120679219563L139.86232421875,44.95956942240398L140.05930989583334,45.046166610717776L140.14907552083332,45.093256378173834L140.43083984375,45.317263793945315L140.47073567708333,45.33234926859539L140.66772135416667,45.456201807657884L140.88216145833334,45.53355305989583L142.62511067708334,46.43968874613444L142.73233072916665,46.48941535949707L142.88194010416666,46.54961013793945L142.93180989583334,46.59262580871582L143.22105468750001,46.73384984334311L143.35071614583333,46.80511258443196L143.50032552083331,46.914513397216794L143.59009114583333,46.958819198608396L143.72224609375,47.025826772054046L143.76463541666666,47.054809443155925L143.79954427083334,47.04534848531088L143.85938802083334,47.05401725769043L143.88930989583332,47.077001953125006L143.98655598958334,47.159400558471674L144.02146484375,47.174780273437506L144.33065755208332,47.30786743164063L144.492734375,47.3659346262614L144.55008463541665,47.40290705362955L144.81439453125,47.54707349141439L145.0762109375,47.67589416503907L145.19091145833335,47.71837793986003L145.92649088541668,48.163473002115886L146.72939453125,48.5875525156657L147.07349609375,48.72866338094075L147.79660807291665,49.00481923421225L147.93125651041666,49.05762405395508L147.99359375,49.09138247172039L148.3077734375,49.26796061197917L148.50974609375,49.34637565612793L148.66184895833334,49.402598190307614L148.70922526041667,49.43418375651041L149.62682942708335,49.67195256551108L149.75150390625,49.743837738037115L149.9833984375,49.883183161417634L150.02329427083333,49.89565442403157L150.09809895833334,49.91016273498535L150.28012369791668,49.950699996948245L150.56438151041667,50.05377464294433L151.1802734375,50.359501647949216L151.18526041666667,50.35809834798178L151.65403645833334,50.54774754842122L152.05299479166666,50.71498921712239L152.43948567708333,50.84698994954428L152.67138020833332,51.0045669555664L152.80852213541667,51.07279675801595L152.95813151041668,51.17489814758301L153.97547526041666,51.73106892903647L154.09516276041666,51.80570411682129L154.11511067708332,51.80571543375651L154.4841471354167,52.02016003926596L154.60134114583335,52.09209047953288L154.76591145833333,52.19300359090169L155.18980468750001,52.412167358398435L155.3269466145833,52.46625099182128L155.47904947916666,52.53290774027507L155.56382812500001,52.56507047017416L155.87052734374998,52.70549100240071L155.91541015624998,52.720757548014326L156.29940755208335,52.90282440185547L156.59862630208335,53.02418721516927L156.85794921875,53.083691660563154L156.940234375,53.107479858398435L157.09981770833335,53.19559351603189L157.12475260416667,53.193952560424805L157.32173828125,53.22348976135254L157.359140625,53.248952865600586L158.0922265625,53.387449518839524L158.11217447916667,53.39833641052246L158.25929036458334,53.402942403157546L158.29419921874998,53.392847696940095L158.85274088541667,53.552405166625974L158.87019531250002,53.5611644744873L158.88016927083333,53.558278656005854L158.89014322916668,53.55539283752441L159.24172526041664,53.67709515889485L159.32401041666665,53.6946024576823L159.35143880208335,53.69491933186848L159.76535807291665,53.81154034932454L159.80276041666667,53.82540359497071L159.85512369791664,53.834943771362305L159.89252604166666,53.85976181030273L160.1867578125,53.98269767761231L160.74779296875,54.194075393676755L161.1442578125,54.28317362467448L161.1991145833333,54.305286916096996L161.30882812500002,54.38201573689778L161.37864583333334,54.41600049336751L161.59807291666667,54.493170674641924L161.92222656250001,54.61532567342122L162.03443359375,54.63403256734213L162.56055989583334,54.83931045532226L162.82486979166669,54.92356503804525L162.83235026041666,54.92943852742513L162.89718098958335,54.93740564982097L162.97447916666667,54.976573562622065L163.42081380208333,55.21309750874837L163.43328125,55.217477162679046L163.45322916666666,55.217001851399736L163.85717447916664,55.40841649373372L163.98932942708333,55.48422864278157L164.48802734375002,55.7312094370524L164.79971354166665,55.848984781901045L165.3308268229167,56.11270332336426L165.41311197916664,56.16487439473471L165.51783854166666,56.2235413869222L165.64999348958335,56.28717651367188L165.83700520833335,56.37653503417968L165.8719140625,56.3872408548991L165.88936848958332,56.39521929423015L166.08884765624998,56.483219782511384L166.53518229166667,56.6993392944336L166.61746744791668,56.755946604410816L167.06380208333334,56.980814107259114L167.81184895833331,57.350379943847656L167.82680989583332,57.36145922342937L168.27314453124998,57.56706530253093L168.96134765625,57.94837811787922L170.29536458333334,58.63919779459636L170.42253255208334,58.68480504353841L170.65692057291665,58.79701245625814L170.94616536458332,58.89738235473632L171.08330729166667,58.94966659545898L171.15811197916665,58.99792200724284L171.35260416666665,59.07062199910481L171.41992838541668,59.093210601806646L171.46231770833333,59.10312423706054L171.52465494791667,59.12719535827637L172.08818359375,59.35972442626954L172.12807942708332,59.382833607991536L172.14304036458333,59.38835627237956L172.71155598958333,59.62241312662761L172.82875,59.68946596781414L173.13046223958332,59.800304031372065L173.60921223958334,59.97890790303549L173.64910807291665,59.99664154052735L173.72391276041665,60.028623199462885L173.89097656250001,60.10953928629558L173.9258854166667,60.12375335693359L174.76120442708333,60.51556828816731L174.99309895833332,60.60518709818521L175.00805989583333,60.61540629069011L175.06291666666667,60.64303092956543L175.28733072916665,60.71241505940756L175.731171875,60.950195185343425L175.80098958333335,60.97298749287924L176.03288411458334,61.0710713704427L176.21989583333334,61.163055419921875L177.34445963541665,61.69728266398112L177.55141927083335,61.78155988057454L177.72845703125,61.86030311584473L177.97032552083334,61.981745147705084L178.00024739583333,61.99669481913249L178.13240234375,62.05499966939291L178.37177734375,62.18380902608235L178.73582682291666,62.369927342732744L179.88033854166665,62.93783378601074L180.07981770833334,63.0428549448649L180.82038411458333,63.38564491271973L180.89768229166668,63.4113909403483L180.91763020833335,63.41940333048503L181.71305338541666,63.760326004028315L182.08707682291666,63.92160364786785L182.57580078125,64.13074061075848L182.91990234375,64.2808937072754L183.09444661458335,64.37600123087564L183.09694010416666,64.37755165100097L183.30639322916667,64.46617457071942L183.70036458333334,64.65517870585123L183.9746484375,64.79252103169758L184.18410156250002,64.85222918192545L184.49080078125,64.98093668619791L184.76508463541666,65.0985196431478L184.95209635416666,65.1622792561849L185.0817578125,65.21391843159994L185.79489583333333,65.53779780069986L185.81983072916665,65.54833386739095L185.82481770833334,65.55135548909506L186.23375,65.75756136576334L186.73743489583333,65.90077718098959L186.98678385416667,65.97284342447917L187.01421223958334,65.98016548156738L187.14886067708335,66.02890752156576L187.6251171875,66.1404925028483L187.69742838541669,66.16541239420575L187.74231119791668,66.1921543121338L187.94927083333334,66.22905883789062L188.13628255208332,66.27214241027832L188.21358072916667,66.28177312215168L188.32828124999997,66.30903561909994L188.51279947916666,66.36402460734051L188.61752604166665,66.40336227416992L188.78209635416667,66.44637794494629L189.2758072916667,66.57040023803711L189.3780403645833,66.60346832275391L189.6298828125,66.719681930542L190.25076171875,66.96109479268392L190.83922526041667,67.23545125325519L191.12098958333334,67.34468231201171L191.47007812500001,67.4833600362142L191.87152994791668,67.61597188313803L191.94134765625,67.63819834391278L192.0535546875,67.65808219909668L193.09832682291668,68.07989832560223L193.18310546875,68.09703216552734L193.28035156250002,68.10800959269206L195.15046875,68.79168828328451L195.1529622395833,68.79307460784912L195.1953515625,68.81222286224366L195.43722005208332,68.87665583292643L195.56438802083332,68.90791320800781L195.77134765625001,68.98313121795654L195.96583984375,69.05130443572997L196.81113281249998,69.42379004160563L196.95824869791664,69.48675746917725L197.41455729166665,69.6702615737915L197.41705078125,69.67161394755045L197.44946614583336,69.68918348948161L197.80104817708332,69.82794609069825L197.92572265625,69.86100851694742L198.12270833333335,69.92442296346029L198.17507161458335,69.94833564758301L198.63886067708333,70.12483456929523L198.70618489583333,70.1523630142212L198.78098958333334,70.18813584645589L198.97797526041666,70.2806178410848L199.26971354166668,70.37240950266519L200.62367838541667,70.92332922617594L200.63365234375001,70.92856330871582L200.7109505208333,70.96491896311441L200.80071614583335,70.99936205546061L200.92788411458335,71.03653818766276L201.11738932291667,71.12303918202718L201.763203125,71.3880818049113L201.96517578125,71.4551855723063L202.65337890625,71.71875699361166L202.75810546875002,71.75597839355468L203.04236328125,71.84787190755209L203.35654296875,71.95892499287923L203.42137369791666,71.97961800893148L203.71061848958334,72.09819119771322L204.09461588541666,72.2603459040324L204.23425130208335,72.3228889465332L204.36141927083335,72.3460490544637L204.41627604166666,72.34495697021484L204.49856119791664,72.37833627065024L204.5608984375,72.40984261830648L204.95985677083334,72.52468121846518L205.15434895833332,72.57735023498535L205.20671223958334,72.59955972035726L205.20920572916665,72.60081590016684L205.21419270833331,72.60331694285074L205.46852864583332,72.72680733998617L205.47600911458335,72.73055324554443L205.57574869791665,72.76820468902588L205.86000651041667,72.88978818257648L206.27143229166668,73.04158223470053L206.64545572916666,73.21487846374512L206.83246744791666,73.28702392578126L206.98457031249998,73.34992911020915L207.4084635416667,73.51398506164551L207.75505859375,73.6475305557251L208.82725911458334,74.06489346822103L208.92949218750002,74.10234120686847L208.94195963541665,74.10837313334149L209.05915364583333,74.15702463785807L209.20876302083335,74.20118897755941L209.26611328125,74.2208408355713L209.48304687499999,74.301349512736L209.92190104166667,74.4681781133016L209.93935546875002,74.47255210876465L211.61248697916668,75.07727820078532L211.70225260416666,75.11169865926105L212.29819661458333,75.30491269429525L212.37549479166665,75.33719991048177L213.11855468750002,75.62896747589112L213.16343750000001,75.6498415629069L213.36291666666665,75.73071238199871L213.51751302083335,75.79062423706054L213.6870703125,75.84952322642008L214.26306640625,76.06827958424887L214.26805338541666,76.0705769220988L214.58223307291667,76.18756008148193L214.689453125,76.23280518849691L214.98617838541665,76.34518235524496L215.5172916666667,76.53279450734455L215.64445963541667,76.59056746164957L216.0035221354167,76.73777249654133L216.12071614583334,76.76754169464111L216.2005078125,76.80358613332113L216.41245442708333,76.88372701009115L216.70169921875,76.9791514078776L216.71915364583333,76.986994043986L216.74658203125,76.99545911153156L217.11811197916668,77.13895219167074L217.4297981770833,77.25134633382162L217.74397786458331,77.37216027577719L218.08309244791667,77.48449783325195L218.25763671875,77.55420449574787L218.53940104166668,77.65205071767171L218.93586588541666,77.78868007659912L219.1827213541667,77.87433230082193L219.66147135416665,78.05744031270343L219.76619791666667,78.10318902333576L219.94822265625,78.16741263071695L220.09035156250002,78.22173391977945L221.36203125,78.72271766662598L221.53158854166665,78.7767333984375L221.72358723958334,78.84779243469238L221.75849609375,78.8627477645874L221.85574218750003,78.89686266581217L221.93553385416666,78.92348575592041L222.21231119791665,79.01918176015216L222.69355468749998,79.19776865641278L222.86560546874998,79.24459813435872L222.96534505208334,79.27565746307373L223.4116796875,79.42704410552979L223.46902994791665,79.44750512441L223.65853515625,79.50872974395752L223.94777994791667,79.62660128275553L224.01011718750001,79.65276037851969L224.33676432291665,79.78585885365804L224.35421875,79.7931526184082L224.41156901041666,79.81712754567465L224.49385416666667,79.8440788269043L224.50382812499998,79.84824345906576L224.66590494791666,79.90474325815836L224.82798177083333,79.95745188395182L225.29177083333335,80.13160254160563L225.38901692708333,80.16450653076171L225.42891276041667,80.17733427683514L225.78797526041666,80.31095898946127L225.85280598958332,80.33401158650715L225.94506510416667,80.35731315612793L226.47617838541666,80.52781976064047L226.57342447916668,80.56767800649006L226.57841145833333,80.56972071329754L226.77539713541665,80.61734237670899L226.90007161458334,80.66464150746664L226.94744791666665,80.67666575113934L227.20178385416665,80.76210295359293L227.86006510416667,80.99296843210855L228.14182942708334,81.08142725626627L228.2291015625,81.1130241394043L229.28384765625,81.47862339019775L229.60301432291666,81.58793932596842L230.02690755208334,81.74212690989178L230.47822916666667,81.89931914011639L230.61786458333336,81.94729728698731L230.71511067708332,81.97849241892496L231.01931640625,82.09115250905356L231.12154947916665,82.12776845296224L231.23874348958333,82.16663080851237L231.32352213541665,82.19632078806559L231.47562499999998,82.2487860997518L231.52050781250003,82.26636695861816L231.70751953125,82.32164452870687L232.08403645833332,82.4543073018392L232.21369791666666,82.4869510014852L232.56278645833333,82.61191260019937L233.16870442708336,82.81789213816324L233.79706380208336,83.03482646942139L234.198515625,83.17440954844156L234.318203125,83.21660474141437L234.80194010416665,83.39383926391602L234.88173177083334,83.41710688273112L234.9016796875,83.42468357086182L235.02635416666666,83.46848576863607L235.37294921875,83.59271742502848L235.41035156249998,83.59983011881512L235.574921875,83.64092191060385L235.8891015625,83.74182936350506L236.10104817708333,83.81103808085123L236.23569661458333,83.85460828145345L236.43018880208334,83.91704947153727L236.78426432291667,84.02854957580567L236.93387369791665,84.07742176055908L236.97376953124999,84.09230353037516L237.01366536458332,84.10368836720785L237.10592447916667,84.13458360036215L237.30540364583334,84.19488588968912L237.489921875,84.25647830963135L237.68192057291665,84.31726156870523L238.15069661458332,84.47327117919922L238.22799479166667,84.49485823313397L238.31027994791668,84.52173029581705L238.46986328124999,84.57703615824381L238.567109375,84.60935166676838L238.59453776041667,84.61943505605062L238.75162760416669,84.67022546132407L239.34009114583333,84.86841894785563L239.41240234375,84.89136403401693L239.57946614583332,84.94884274800619L240.50455078125,85.24675540924072L240.89104166666667,85.36908016204833L240.9783138020833,85.39366054534912L240.99576822916666,85.39994144439697L241.32241536458335,85.50366115570068L241.35483072916665,85.51187725067139L241.46953125000002,85.55300865173339L241.53436197916668,85.57624231974283L241.66901041666665,85.62102909088135L241.89093098958332,85.69694309234619L242.85092447916665,85.98051153818766L242.99305338541666,86.0274315516154L243.25736328125,86.11065629323322L243.41944010416665,86.16104494730631L243.53164713541668,86.19380181630453L243.90816406250002,86.30250663757325L243.9380859375,86.30963064829508L244.43678385416666,86.43032576243083L244.5963671875,86.46587225596112L244.67366536458334,86.4928518295288L244.70608072916664,86.50415744781495L245.29703776041669,86.682897122701L245.46410156250002,86.72406247456867L246.04508463541666,86.88812408447265L246.27448567708333,86.96383438110351L246.39666666666668,86.99585564931235L246.6634700520833,87.0775016784668L247.25442708333335,87.26312204996746L247.51125651041667,87.3407392501831L247.723203125,87.39627145131429L247.76309895833333,87.40651893615723L248.71561197916668,87.69923712412516L248.75800130208333,87.71353041330973L249.03477864583334,87.80671971638998L249.08215494791665,87.82264830271403L249.28412760416666,87.88387858072916L249.42376302083335,87.91423060099284L249.43872395833333,87.91924966176352L249.94240885416667,88.08111578623453L250.11445963541667,88.12862993876139L250.146875,88.13943195343018L250.47352213541666,88.23497517903647L251.64546223958334,88.57663911183676L252.02945963541666,88.6864756266276L252.07932942708334,88.6995693206787L252.59298828125,88.86433823903403L252.83735026041668,88.9245330174764L252.95454427083334,88.95620346069336L253.02685546875,88.97648906707764L253.40087890625,89.06880130767823L253.45074869791668,89.08497320810953L253.45822916666665,89.08740069071452L253.61282552083333,89.1277738571167L253.67017578124998,89.14633928934732L253.67765625,89.14876111348468L254.17884765624999,89.30090599060058L254.36087239583333,89.35951073964435L254.57281901041665,89.4276273727417L254.63764973958334,89.44843921661376L254.95182942708334,89.52983627319335L255.10891927083335,89.56081072489422L255.94922526041665,89.77411231994628L256.15618489583335,89.83340740203857L256.30330078125,89.87044207255047L256.30828776041665,89.87202078501383L256.3855859375,89.89649931589764L256.56262369791665,89.95250116984049L257.1461002604167,90.11735496520996L257.38796874999997,90.18699938456217L258.00635416666665,90.35206254323322L258.51003906249997,90.50274753570557L259.0785546875,90.6697006225586L259.4775130208333,90.78356030782065L260.27293619791664,90.99677136739096L260.3627018229167,91.00858058929444L260.3826497395833,91.01469173431397L260.6619205729167,91.10017420450846L260.7566731770833,91.12285900115967L261.2803059895833,91.26369260152181L261.547109375,91.3353910446167L261.8937044270833,91.43733399709066L261.9610286458333,91.45458666483563L262.27770182291664,91.54715353647867L262.61930989583334,91.64075024922687L262.7589453125,91.67963523864746L262.83873697916664,91.70050366719562L263.0157747395833,91.75364799499512L263.10803385416665,91.77820008595785L263.96330078125004,92.02744992574054L264.1852213541667,92.08415908813477L264.24257161458337,92.10119107564292L264.3921809895833,92.14559307098389L264.41212890625,92.15151182810467L264.62158203125,92.20431098937988L265.0629296875,92.32857659657797L265.26240885416667,92.3842955271403L265.47186197916665,92.43670425415038L265.5716015625,92.46602077484131L265.64640625,92.48492005666098L265.80848307291666,92.52940692901612L265.8882747395833,92.55279903411865L266.85076171875,92.79399121602377L267.19486328125,92.88783690134683L267.3694075520833,92.93233509063721L267.54395182291665,92.9798152923584L267.6387044270833,93.0011194229126L267.8431705729167,93.0571382522583L267.95288411458336,93.08574746449789L268.1024934895833,93.12886498769124L268.29199869791665,93.18036270141602L268.4341276041667,93.21817258199057L268.65604817708333,93.27883135477701L268.7832161458333,93.31527754465738L268.79069661458334,93.31742210388184L268.99017578125,93.36845016479492L269.26445963541664,93.44680862426758L269.28939453124997,93.4508940378825L269.6459635416667,93.54038270314533L269.82798828125,93.5891134262085L270.30673828125003,93.71582349141437L270.4812825520833,93.76218331654867L270.60346354166666,93.79368966420492L270.6483463541667,93.80334866841635L270.8079296875,93.84836743672689L271.17945963541666,93.9469492594401L271.76792317708333,94.09998251597086L271.93,94.14530684153239L272.4661002604167,94.2738728841146L273.05456380208335,94.41937472025553L273.10692708333335,94.43090101877847L273.3188736979167,94.48955103556314L273.32386067708336,94.49093170166016L273.9971028645833,94.67359835306803L274.23897135416667,94.74005139668783L274.28385416666663,94.75236422220866" style="fill: none;" fill="none"></path></g></g></g></g></g></g><g transform="translate(30, 178)" clip-path="url(#clip_1)"><clipPath id="clip_1"><rect width="299" height="22"></rect></clipPath><g><g><line x1="0" y1="0" x2="0" y2="5" style="visibility: inherit;" fill="rgb(0, 0, 0)" stroke="rgb(204, 204, 204)" stroke-width="1px"></line><line x1="24.934895833333332" y1="0" x2="24.934895833333332" y2="5" style="visibility: inherit;" fill="rgb(0, 0, 0)" stroke="rgb(204, 204, 204)" stroke-width="1px"></line><line x1="49.869791666666664" y1="0" x2="49.869791666666664" y2="5" style="visibility: inherit;" fill="rgb(0, 0, 0)" stroke="rgb(204, 204, 204)" stroke-width="1px"></line><line x1="74.8046875" y1="0" x2="74.8046875" y2="5" style="visibility: inherit;" fill="rgb(0, 0, 0)" stroke="rgb(204, 204, 204)" stroke-width="1px"></line><line x1="99.73958333333333" y1="0" x2="99.73958333333333" y2="5" style="visibility: inherit;" fill="rgb(0, 0, 0)" stroke="rgb(204, 204, 204)" stroke-width="1px"></line><line x1="124.67447916666667" y1="0" x2="124.67447916666667" y2="5" style="visibility: inherit;" fill="rgb(0, 0, 0)" stroke="rgb(204, 204, 204)" stroke-width="1px"></line><line x1="149.609375" y1="0" x2="149.609375" y2="5" style="visibility: inherit;" fill="rgb(0, 0, 0)" stroke="rgb(204, 204, 204)" stroke-width="1px"></line><line x1="174.54427083333334" y1="0" x2="174.54427083333334" y2="5" style="visibility: inherit;" fill="rgb(0, 0, 0)" stroke="rgb(204, 204, 204)" stroke-width="1px"></line><line x1="199.47916666666666" y1="0" x2="199.47916666666666" y2="5" style="visibility: inherit;" fill="rgb(0, 0, 0)" stroke="rgb(204, 204, 204)" stroke-width="1px"></line><line x1="224.4140625" y1="0" x2="224.4140625" y2="5" style="visibility: inherit;" fill="rgb(0, 0, 0)" stroke="rgb(204, 204, 204)" stroke-width="1px"></line><line x1="249.34895833333334" y1="0" x2="249.34895833333334" y2="5" style="visibility: inherit;" fill="rgb(0, 0, 0)" stroke="rgb(204, 204, 204)" stroke-width="1px"></line><line x1="274.28385416666663" y1="0" x2="274.28385416666663" y2="5" style="visibility: inherit;" fill="rgb(0, 0, 0)" stroke="rgb(204, 204, 204)" stroke-width="1px"></line><line x1="299.21875" y1="0" x2="299.21875" y2="5" style="visibility: inherit;" fill="rgb(0, 0, 0)" stroke="rgb(204, 204, 204)" stroke-width="1px"></line></g><g transform="translate(0, 8)"><text x="0" y="0" dx="0em" dy="0.95em" style="text-anchor: middle; visibility: hidden; font-family: Roboto, sans-serif; font-size: 12px; font-weight: 200;" fill="rgb(50, 49, 63)" stroke="none" stroke-width="1px">-10k</text><text x="24.934895833333332" y="0" dx="0em" dy="0.95em" style="text-anchor: middle; visibility: inherit; font-family: Roboto, sans-serif; font-size: 12px; font-weight: 200;" fill="rgb(50, 49, 63)" stroke="none" stroke-width="1px">0</text><text x="49.869791666666664" y="0" dx="0em" dy="0.95em" style="text-anchor: middle; visibility: hidden; font-family: Roboto, sans-serif; font-size: 12px; font-weight: 200;" fill="rgb(50, 49, 63)" stroke="none" stroke-width="1px">10k</text><text x="74.8046875" y="0" dx="0em" dy="0.95em" style="text-anchor: middle; visibility: inherit; font-family: Roboto, sans-serif; font-size: 12px; font-weight: 200;" fill="rgb(50, 49, 63)" stroke="none" stroke-width="1px">20k</text><text x="99.73958333333333" y="0" dx="0em" dy="0.95em" style="text-anchor: middle; visibility: hidden; font-family: Roboto, sans-serif; font-size: 12px; font-weight: 200;" fill="rgb(50, 49, 63)" stroke="none" stroke-width="1px">30k</text><text x="124.67447916666667" y="0" dx="0em" dy="0.95em" style="text-anchor: middle; visibility: inherit; font-family: Roboto, sans-serif; font-size: 12px; font-weight: 200;" fill="rgb(50, 49, 63)" stroke="none" stroke-width="1px">40k</text><text x="149.609375" y="0" dx="0em" dy="0.95em" style="text-anchor: middle; visibility: hidden; font-family: Roboto, sans-serif; font-size: 12px; font-weight: 200;" fill="rgb(50, 49, 63)" stroke="none" stroke-width="1px">50k</text><text x="174.54427083333334" y="0" dx="0em" dy="0.95em" style="text-anchor: middle; visibility: inherit; font-family: Roboto, sans-serif; font-size: 12px; font-weight: 200;" fill="rgb(50, 49, 63)" stroke="none" stroke-width="1px">60k</text><text x="199.47916666666666" y="0" dx="0em" dy="0.95em" style="text-anchor: middle; visibility: hidden; font-family: Roboto, sans-serif; font-size: 12px; font-weight: 200;" fill="rgb(50, 49, 63)" stroke="none" stroke-width="1px">70k</text><text x="224.4140625" y="0" dx="0em" dy="0.95em" style="text-anchor: middle; visibility: inherit; font-family: Roboto, sans-serif; font-size: 12px; font-weight: 200;" fill="rgb(50, 49, 63)" stroke="none" stroke-width="1px">80k</text><text x="249.34895833333334" y="0" dx="0em" dy="0.95em" style="text-anchor: middle; visibility: hidden; font-family: Roboto, sans-serif; font-size: 12px; font-weight: 200;" fill="rgb(50, 49, 63)" stroke="none" stroke-width="1px">90k</text><text x="274.28385416666663" y="0" dx="0em" dy="0.95em" style="text-anchor: middle; visibility: inherit; font-family: Roboto, sans-serif; font-size: 12px; font-weight: 200;" fill="rgb(50, 49, 63)" stroke="none" stroke-width="1px">100k</text><text x="299.21875" y="0" dx="0em" dy="0.95em" style="text-anchor: middle; visibility: hidden; font-family: Roboto, sans-serif; font-size: 12px; font-weight: 200;" fill="rgb(50, 49, 63)" stroke="none" stroke-width="1px">110k</text></g><line x1="0" y1="0" x2="299.21875" y2="0" fill="rgb(0, 0, 0)" stroke="rgb(204, 204, 204)" stroke-width="1px"></line></g></g></g></g></svg>