<svg viewBox="0 0 330 200" xmlns="http://www.w3.org/2000/svg"><g><g><g><g><g><line x1="51.5625" y1="178" x2="46.5625" y2="178" style="visibility: inherit;" fill="rgb(0, 0, 0)" stroke="rgb(204, 204, 204)" stroke-width="1px"></line><line x1="51.5625" y1="155.75" x2="46.5625" y2="155.75" style="visibility: inherit;" fill="rgb(0, 0, 0)" stroke="rgb(204, 204, 204)" stroke-width="1px"></line><line x1="51.5625" y1="133.5" x2="46.5625" y2="133.5" style="visibility: inherit;" fill="rgb(0, 0, 0)" stroke="rgb(204, 204, 204)" stroke-width="1px"></line><line x1="51.5625" y1="111.24999999999999" x2="46.5625" y2="111.24999999999999" style="visibility: inherit;" fill="rgb(0, 0, 0)" stroke="rgb(204, 204, 204)" stroke-width="1px"></line><line x1="51.5625" y1="88.99999999999999" x2="46.5625" y2="88.99999999999999" style="visibility: inherit;" fill="rgb(0, 0, 0)" stroke="rgb(204, 204, 204)" stroke-width="1px"></line><line x1="51.5625" y1="66.75" x2="46.5625" y2="66.75" style="visibility: inherit;" fill="rgb(0, 0, 0)" stroke="rgb(204, 204, 204)" stroke-width="1px"></line><line x1="51.5625" y1="44.5" x2="46.5625" y2="44.5" style="visibility: inherit;" fill="rgb(0, 0, 0)" stroke="rgb(204, 204, 204)" stroke-width="1px"></line><line x1="51.5625" y1="22.25" x2="46.5625" y2="22.25" style="visibility: inherit;" fill="rgb(0, 0, 0)" stroke="rgb(204, 204, 204)" stroke-width="1px"></line><line x1="51.5625" y1="0" x2="46.5625" y2="0" style="visibility: inherit;" fill="rgb(0, 0, 0)" stroke="rgb(204, 204, 204)" stroke-width="1px"></line></g><g transform="translate(41.5625, 0)"><text x="0" y="178" dx="0em" dy="0.3em" style="text-anchor: end; visibility: hidden; font-family: Roboto, sans-serif; font-size: 12px; font-weight: 200;" fill="rgb(50, 49, 63)" stroke="none" stroke-width="1px">-0.2</text><text x="0" y="155.75" dx="0em" dy="0.3em" style="text-anchor: end; visibility: inherit; font-family: Roboto, sans-serif; font-size: 12px; font-weight: 200;" fill="rgb(50, 49, 63)" stroke="none" stroke-width="1px">0</text><text x="0" y="133.5" dx="0em" dy="0.3em" style="text-anchor: end; visibility: hidden; font-family: Roboto, sans-serif; font-size: 12px; font-weight: 200;" fill="rgb(50, 49, 63)" stroke="none" stroke-width="1px">0.2</text><text x="0" y="111.24999999999999" dx="0em" dy="0.3em" style="text-anchor: end; visibility: inherit; font-family: Roboto, sans-serif; font-size: 12px; font-weight: 200;" fill="rgb(50, 49, 63)" stroke="none" stroke-width="1px">0.4</text><text x="0" y="88.99999999999999" dx="0em" dy="0.3em" style="text-anchor: end; visibility: hidden; font-family: Roboto, sans-serif; font-size: 12px; font-weight: 200;" fill="rgb(50, 49, 63)" stroke="none" stroke-width="1px">0.6</text><text x="0" y="66.75" dx="0em" dy="0.3em" style="text-anchor: end; visibility: inherit; font-family: Roboto, sans-serif; font-size: 12px; font-weight: 200;" fill="rgb(50, 49, 63)" stroke="none" stroke-width="1px">0.8</text><text x="0" y="44.5" dx="0em" dy="0.3em" style="text-anchor: end; visibility: hidden; font-family: Roboto, sans-serif; font-size: 12px; font-weight: 200;" fill="rgb(50, 49, 63)" stroke="none" stroke-width="1px">1</text><text x="0" y="22.25" dx="0em" dy="0.3em" style="text-anchor: end; visibility: inherit; font-family: Roboto, sans-serif; font-size: 12px; font-weight: 200;" fill="rgb(50, 49, 63)" stroke="none" stroke-width="1px">1.2</text><text x="0" y="0" dx="0em" dy="0.3em" style="text-anchor: end; visibility: hidden; font-family: Roboto, sans-serif; font-size: 12px; font-weight: 200;" fill="rgb(50, 49, 63)" stroke="none" stroke-width="1px">1.4</text></g><line x1="51.5625" y1="0" x2="51.5625" y2="178" fill="rgb(0, 0, 0)" stroke="rgb(204, 204, 204)" stroke-width="1px"></line></g></g><g transform="translate(51, 0)" clip-path="url(#clip_0)"><clipPath id="clip_0"><rect width="278" height="178"></rect></clipPath><g><g><g><line x1="0" y1="0" x2="0" y2="178" fill="rgb(0, 0, 0)" stroke="rgb(60, 60, 60)" stroke-width="1px" opacity="0.25"></line><line x1="23.203125" y1="0" x2="23.203125" y2="178" fill="rgb(0, 0, 0)" stroke="rgb(60, 60, 60)" stroke-width="1px" opacity="0.25"></line><line x1="46.40625" y1="0" x2="46.40625" y2="178" fill="rgb(0, 0, 0)" stroke="rgb(60, 60, 60)" stroke-width="1px" opacity="0.25"></line><line x1="69.609375" y1="0" x2="69.609375" y2="178" fill="rgb(0, 0, 0)" stroke="rgb(60, 60, 60)" stroke-width="1px" opacity="0.25"></line><line x1="92.8125" y1="0" x2="92.8125" y2="178" fill="rgb(0, 0, 0)" stroke="rgb(60, 60, 60)" stroke-width="1px" opacity="0.25"></line><line x1="116.015625" y1="0" x2="116.015625" y2="178" fill="rgb(0, 0, 0)" stroke="rgb(60, 60, 60)" stroke-width="1px" opacity="0.25"></line><line x1="139.21875" y1="0" x2="139.21875" y2="178" fill="rgb(0, 0, 0)" stroke="rgb(60, 60, 60)" stroke-width="1px" opacity="0.25"></line><line x1="162.421875" y1="0" x2="162.421875" y2="178" fill="rgb(0, 0, 0)" stroke="rgb(60, 60, 60)" stroke-width="1px" opacity="0.25"></line><line x1="185.625" y1="0" x2="185.625" y2="178" fill="rgb(0, 0, 0)" stroke="rgb(60, 60, 60)" stroke-width="1px" opacity="0.25"></line><line x1="208.828125" y1="0" x2="208.828125" y2="178" fill="rgb(0, 0, 0)" stroke="rgb(60, 60, 60)" stroke-width="1px" opacity="0.25"></line><line x1="232.03125" y1="0" x2="232.03125" y2="178" fill="rgb(0, 0, 0)" stroke="rgb(60, 60, 60)" stroke-width="1px" opacity="0.25"></line><line x1="255.234375" y1="0" x2="255.234375" y2="178" fill="rgb(0, 0, 0)" stroke="rgb(60, 60, 60)" stroke-width="1px" opacity="0.25"></line><line x1="278.4375" y1="0" x2="278.4375" y2="178" fill="rgb(0, 0, 0)" stroke="rgb(60, 60, 60)" stroke-width="1px" opacity="0.25"></line></g><g><line x1="0" y1="178" x2="278.4375" y2="178" fill="rgb(0, 0, 0)" stroke="rgb(60, 60, 60)" stroke-width="1px" opacity="0.25"></line><line x1="0" y1="155.75" x2="278.4375" y2="155.75" fill="rgb(0, 0, 0)" stroke="rgb(60, 60, 60)" stroke-width="1px" opacity="0.25"></line><line x1="0" y1="133.5" x2="278.4375" y2="133.5" fill="rgb(0, 0, 0)" stroke="rgb(60, 60, 60)" stroke-width="1px" opacity="0.25"></line><line x1="0" y1="111.24999999999999" x2="278.4375" y2="111.24999999999999" fill="rgb(0, 0, 0)" stroke="rgb(60, 60, 60)" stroke-width="1px" opacity="0.25"></line><line x1="0" y1="88.99999999999999" x2="278.4375" y2="88.99999999999999" fill="rgb(0, 0, 0)" stroke="rgb(60, 60, 60)" stroke-width="1px" opacity="0.25"></line><line x1="0" y1="66.75" x2="278.4375" y2="66.75" fill="rgb(0, 0, 0)" stroke="rgb(60, 60, 60)" stroke-width="1px" opacity="0.25"></line><line x1="0" y1="44.5" x2="278.4375" y2="44.5" fill="rgb(0, 0, 0)" stroke="rgb(60, 60, 60)" stroke-width="1px" opacity="0.25"></line><line x1="0" y1="22.25" x2="278.4375" y2="22.25" fill="rgb(0, 0, 0)" stroke="rgb(60, 60, 60)" stroke-width="1px" opacity="0.25"></line><line x1="0" y1="0" x2="278.4375" y2="0" fill="rgb(0, 0, 0)" stroke="rgb(60, 60, 60)" stroke-width="1px" opacity="0.25"></line></g></g></g><g><g><line x1="0" y1="155.75" x2="278.4375" y2="155.75" fill="rgb(0, 0, 0)" stroke="rgb(153, 153, 153)" stroke-width="1.5px"></line></g></g><g><g><line x1="23.203125" y1="0" x2="23.203125" y2="178" fill="rgb(0, 0, 0)" stroke="rgb(153, 153, 153)" stroke-width="1.5px"></line></g></g><g><g><g><g><g><path stroke="rgb(204, 51, 17)" stroke-width="2px" d="M23.26461328125,151.0074371546507L23.33468671875,150.21331860963255L23.34907265625,-886.6623811721802L23.360442187500002,150.82316451519728L23.7530390625,-975.3126029968262L23.7938765625,153.61055218428373L24.250978125,154.86321569001302L24.397389843750002,155.5566953200032L24.757270312499998,151.386296980083L24.92827734375,155.74840294892238L25.33758046875,138.6859769448638L25.38491484375,155.18939260556363L25.7132390625,155.3949988835957L25.727392968750003,-913.0929772853851L25.95617578125,154.74236934725195L26.901703125,-448.59656798839575L27.7049953125,-942.9064528942108L27.8015203125,155.54461510985857L27.91034296875,52.080260038375854L27.91916015625,154.51721555716358L27.98227265625,154.15429524541833L28.31918203125,155.5999749948678L28.631728125000002,155.1790221616393L28.733821875,154.1862914552912L28.774195312499998,133.70630883425474L28.86677578125,139.98948895186186L28.9872,152.78044006600976L30.20745234375,154.2794252249878L30.22926328125,140.90939332544804L30.50909296875,122.00157296657562L30.623020312500003,-568.2408516407014L30.793099218749997,155.7308373637461L30.922340625,-694.7172574996949L30.93046171875,122.2654642239213L30.942991406249998,155.4426961495774L31.09938046875,115.9935502037406L31.424456250000002,155.63224959088257L31.5789890625,150.33478350192308L31.585717968749996,150.0263115046546L31.837471875000002,153.5828403364867L31.86322734375,117.52692640572786L32.05558125,133.17314524948597L32.08319296875,150.21658687200397L32.63542734375,140.43032723292708L33.1749,109.88394026458263L33.255646875,139.90561819449067L33.3025171875,154.34720084699802L33.56958515625,150.3288731938228L33.7879265625,86.86927926540375L33.806025,145.6078565940261L34.11068203125,155.55327016673982L34.2102234375,122.49524553120136L35.286152343750004,151.85904620029032L36.11032734375,155.18138254457153L36.6168515625,144.59534675627947L36.94331953125,-1029.176723241806L37.01060859375,154.85807364736684L37.389979687499995,147.57316976599395L37.7398828125,129.40587897598743L37.93316484375,134.08324069157243L38.18886328125,98.36380195617676L38.449434374999996,150.97231058683246L38.503033593750004,136.15292689576745L38.5983984375,140.33577888086438L39.33045703125,154.21239652484655L39.5070328125,155.57183441039524L39.627225,119.03665308654308L39.639754687499995,100.96389987319708L39.86668125,65.56371641159058L41.051896875,125.19280944764614L41.214318750000004,127.01769840717316L41.549139843750005,151.7411976987496L41.600186718749995,114.359299659729L42.510677343750004,64.67677813768387L42.6208921875,149.3754635360092L43.00583203125,152.30535196186975L43.02532265625,155.08360069117043L43.0580390625,122.9646949917078L43.14551484374999,94.15400815010071L43.315129687500004,138.818986851722L43.4376421875,150.64269144833088L43.591478906249996,155.3388395854854L43.595191406249995,133.37519730255008L43.73441015625,120.68194095790386L43.79520234375,136.64785438030958L44.11679765625,130.58531637117267L44.22492421875,148.0392125416547L44.53329375,155.02047449979L44.631675,139.55767051130533L44.9671921875,153.16795274661854L44.990859375,154.16415909002535L45.178340625,141.7516120225191L45.674655468750004,-163.06047844886783L45.99671484375,151.0682149818167L46.21807265625,-1719.1323165893555L46.465650000000004,139.68025148659945L46.706962499999996,145.92816371284425L47.01161953125,153.50522656505927L47.139700781250006,155.74722291368016L47.33971171875,155.71670230091695L47.80934296875,133.54597084969282L47.98058203125,128.52498487383127L48.60335390625,154.64271594118327L48.688509375,-2201.5923624038696L48.96300234375,155.25257718097419L49.462565624999996,147.80036166124046L49.55885859375,150.741260683164L49.906905468750004,154.08493595011532L50.0412515625,-137.95688140392306L50.16770859375,149.11933761369437L50.851736718750004,141.94303704239428L50.88398906250001,154.22916108206846L50.900231250000004,135.46645917743444L50.9986125,140.1622120179236L51.78496640625,146.8405078984797L52.876905468749996,154.38825191743672L53.24397890625,146.18534603901207L53.28899296875,148.77106625400484L53.85909375000001,139.5691736675799L53.861878125,155.07667324726935L53.88136875,148.2904559634626L53.973253125,-1732.1626358032227L54.383020312499994,149.3492718487978L54.384180468749996,152.64974210457876L54.47049609375,138.96990050375462L55.00463203125,155.73797541932618L55.01484140625,155.34289320890093L55.1348015625,127.08194301277399L55.15313203125,150.71496082749218L55.311609374999996,149.64898302964866L55.3659046875,148.2431361991912L55.4188078125,149.74881754536182L55.79910703125,155.29748594900593L56.102835937500004,121.69442758709192L56.11629375,152.5565392272547L56.665511718750004,154.4520935851615L57.116348437499994,155.74528789646774L57.592708593750004,154.51821839483455L57.61683984375,153.7626355891116L57.65721328125,153.57213455997407L57.7103484375,154.1894507203251L58.04981015625,152.42902394663543L58.603668750000004,155.74627222565323L58.93779375,148.4171945862472L59.04708046875,150.0955923674628L59.15938359374999,152.2938442467712L59.759184375,150.60475001391023L60.336478125,146.07769811339676L60.45226171875,153.7293681926094L60.75390234375,153.00254141259938L60.945328125,151.97217880561948L60.97595625,-1891.3673000335693L61.02213046875,147.71304774843156L61.349062499999995,134.3278108239174L61.38595546875,-1803.2337670326233L61.441875,155.74016763329564L61.970442187500005,154.76615677285008L62.02172109375,-1640.61789560318L62.357238281250005,140.3181519806385L62.35955859375,151.66254679486156L62.65655859375,155.3048053481616L62.68393828125,155.74273557385095L62.7899765625,126.56459108740091L63.03941015625,155.6482584712212L63.754066406250004,134.8431717865169L63.84827109375,155.06079905945808L63.9557015625,154.9975951090455L63.964982812500004,128.53707321733236L64.07775,144.23597631789744L64.33275234375,150.6567305540666L64.50027890625,-1266.1150460243225L64.51396875,152.02754986751825L64.73741484375,153.07894212240353L64.93371328125001,155.2380349986488L65.006803125,155.7213578833689L65.081053125,150.53968772105873L65.4147140625,152.27416691184044L65.68317421875,146.4801784493029L65.87900859375,154.12804709095508L65.890378125,155.70316306634777L66.07321875000001,153.32477422012016L66.3883171875,155.64344299319782L66.61918828125,140.5741689056158L67.0472859375,154.02586519531906L67.74964453125,147.4077598825097L67.77284765625001,151.30273290723562L67.82296640625,155.64156808616826L68.07541640625,155.48324600839987L68.65827890625,155.36426619323902L68.86849921875,146.23982232809067L69.14043984375,152.6618658825755L69.2590078125,149.5355031248182L70.2131203125,155.11923810630105L70.427053125,151.77649418637156L70.55420625000001,152.52575659705326L70.81338515625,152.4336886596866L70.85561484375,154.86717254202813L71.09553515625,155.45413985982304L71.14194140625,151.94311878923327L71.80230234375001,151.94388218503445L71.97841406250001,144.6229334436357L72.3125390625,151.5855088857934L72.45477421875,155.05348131805658L72.47055234375,130.1351731158793L72.47704921875001,145.56627100147307L72.89029687499999,-1775.53075838089L73.2647953125,152.14492922462523L73.3436859375,155.74963146735297L73.43626640625,132.03454165533185L73.66620937500001,80.01095128059387L74.1827109375,155.08874677459244L74.480175,-1365.5469827651978L74.79945,154.9024730186211L74.821725,116.27197001874447L74.824509375,122.42601440101862L75.0644296875,151.01128438767046L75.33335390625,155.07656818709802L75.49391953125,134.49180249869823L75.88837265625,148.89475378021598L76.12550859375,155.12543665640987L76.52367421874999,151.70218245405704L76.77705234375,141.7550187073648L76.84480546875,155.6192277893133L77.48985234375,155.49566175835207L77.61909375,152.09340083692223L77.7838359375,155.3090946316952L77.95623515625,131.34649409726262L78.28432734375,143.5719322115183L78.30683437500001,148.76640547811985L78.40498359375,155.1418867065804L78.46856015624999,29.832031846046448L79.05211875,131.42654041573405L79.31454609375,153.19662878569216L79.64635078125,155.5874656336091L79.97653125000001,155.73409489118785L80.13988125,155.29224599525332L80.4113578125,142.02603250555694L80.51321953124999,155.50094292283757L80.6220421875,155.33752503822325L80.6842265625,145.71075008064508L80.99723671875,155.134576632292L81.26175234375,146.6877417061478L81.79542421875,147.75443192385137L82.0838390625,155.16787174437195L82.1167875,150.33777906373143L82.28965078124999,155.16089928208385L82.709859375,155.1978864199482L83.0648671875,146.6050976868719L83.08458984375001,145.57911362312734L83.3924953125,133.97756549343467L83.4532875,149.04661069437861L83.62383046875,155.68344735376013L83.69506406250001,152.27415364980698L83.77047421875,155.749997323755L83.79135703125,131.1259017214179L84.29416875,155.3559969009366L84.47352890625,152.18863301258534L84.90812343750001,153.4149050717242L84.96914765625,154.94896333594806L85.01230546874999,155.64741275108827L85.245496875,152.0885572936386L85.30744921875,155.653747580247L85.44318750000001,152.3113426710479L86.00447109375,-331.4657579660416L86.03277890625,146.9762870837003L86.4701578125,123.3085762038827L86.799178125,147.01555596478283L86.83792734375001,142.33954697661102L86.9370046875,127.51894690841436L87.26115234375,139.38108487799764L87.346771875,154.29571203817613L87.9003984375,144.5917353387922L88.03567265625,150.4114591917023L88.16816250000001,155.66729507120908L88.31596640625,153.11915012123063L88.68211171875,155.1183226633584L89.05011328125,151.52143088448793L89.18840390624999,155.74318547927032L89.5195125,155.67250412986323L90.2049328125,153.31375160533935L90.24461015625,140.27892620116472L90.56434921875,154.4420424143318L90.60193828125,155.4269641400897L90.9005625,-1917.4886255264282L91.23677578125,154.42456025676802L91.4235609375,155.13405200489797L91.49479453125001,149.37266193144023L92.02800234375,155.5517094041279L92.17975078125001,146.35210119001567L92.52733359375,153.46592473611236L93.52831640625,122.67432940006256L93.62855390624999,155.73072342714295L93.66359062500001,150.75716642010957L93.83181328124999,136.49413249269128L93.8705625,153.05122737353668L93.87682734375,154.96404257882386L94.26246328125,154.67777588800527L94.51816171875,147.53044363856316L94.86852890625,148.66571017354727L95.06970000000001,131.01579866185784L95.7152109375,126.86040405929089L95.80639921874999,153.55817274702713L95.9017640625,151.930715886876L95.96626875000001,155.7492340636885L96.04028671875,155.349361558503L96.156534375,111.41069208085537L96.366290625,131.13924166932702L96.485090625,155.59365111595253L96.71364140625,147.7842101622373L96.8642296875,155.35136697482085L97.15078828125,155.56254756785347L97.23849609375,154.12578166625462L97.32318749999999,150.26079461723566L98.23089375,144.84869221039116L98.45851640625,155.74912407765805L98.52348515625,155.24107386928517L98.66850468749999,155.6784084739338L98.82002109375,155.42698841064703L98.89102265625,99.92140126228333L99.18987890625,141.02889585122466L99.46181953125,149.78698526322842L99.46831640625,148.36401631869376L99.90523125,155.56504285053234L99.9808734375,150.73001613654196L100.4319421875,154.8646244702395L100.43820703125,149.60882559232414L100.47277968750001,152.53553216625005L101.4241078125,152.00930338166654L101.751271875,150.32897224463522L101.75800078125,155.12844594649505L101.80092656250001,153.92513860063627L101.92784765625001,151.44482606370002L102.58960078125,-1950.0459628105164L102.85666875,-1600.9497742652893L103.601953125,155.74389632717794L104.8451765625,153.14378082565963L104.87093203124999,155.47702010534704L105.00991875,154.19972299411893L105.14055234375,155.71834289475373L105.23382890625001,155.4400244455901L105.383953125,143.72326610423625L106.2689203125,143.48148928768933L106.37403046875,155.64357529622794L107.1729140625,155.30242450232618L107.7483515625,153.63747204001993L107.81401640625,155.74611779549014L107.95091484375,151.86063142772764L108.55814062500001,155.0517052934738L108.664875,145.83342223241925L108.70965703124999,131.41033089533448L108.82265625,151.90958615206182L109.21710937499999,132.2188010327518L109.23729609375,155.22523278475273L109.7749125,155.34068917291006L109.796259375,125.00604023039341L109.92155625000001,-745.9994189739227L109.98258046875,155.2502769952407L110.49908203125,155.74622605096647L110.54664843750001,155.29052638611756L111.09099375,124.31427267193794L111.26478515625,127.33297009766102L111.57941953125,151.17357603553683L111.5940375,154.5650579284411L111.65598984375,154.67291680327617L111.85205624999999,144.82256268896163L112.02932812499999,155.74472157428954L112.3954734375,150.2723537227139L112.62866484375,155.66932793112937L113.23705078124999,154.39142061094753L113.39460000000001,155.47461043013027L113.68023046875001,138.99675446376204L113.8284984375,155.5898654270568L113.92525546875001,154.94784253870603L113.98465546874999,155.71782190341037L114.2331609375,155.74608671138503L114.4410609375,154.68800360965542L115.10351015625,155.31718061264837L115.17103125,151.61003535892814L115.35131953125,154.14451853651553L115.7274421875,155.54730806677253L116.10797343750001,110.91785502433777L116.2063546875,155.46889260283206L116.95743984375,153.1464900104329L117.143296875,154.5350615917705L117.4936640625,153.60755206365138L117.81317109375,155.42852271394804L117.84031875,136.52894864603877L117.95447812500001,151.47455664165318L118.06121250000001,153.0443056281656L118.301596875,151.63826566934586L118.39371328125,152.54443990113214L118.44916875,151.44978357758373L118.563328125,155.6778020078782L118.76357109375,135.13810780644417L118.9188,155.5410611439147L119.29677890625,155.70850014765892L119.51952890625,155.19680774002336L119.73833437500001,155.7227888684356L119.8037671875,154.23993099294603L120.09682265625,146.8134400881827L120.22908046875,155.41606381058227L120.44672578125001,152.40498816873878L120.5560125,126.69348147511482L120.82957734374999,153.2635257979855L120.901275,148.36523393914104L121.2553546875,154.51522469799966L121.39294921874999,154.45274166343734L121.69899843750001,-426.68508934974676L122.34520546875,152.49279837170616L122.48396015624999,155.31712445622543L122.5176046875,153.00310732843354L122.6401171875,147.38993902504444L123.118565625,150.69399935472757L123.23666953125,155.09791115054395L124.01722265625,142.2929350733757L124.02627187499999,-92.0949130058289L124.10493046875,154.5307929783594L124.20006328125001,154.23963373689912L124.37872734375,152.29955417383462L124.72422187500001,7.984529256820679L125.21403984375,153.91517073195428L125.418459375,155.4746477555018L125.47461093749999,147.2594596799463L125.55582187499999,155.09855425555725L125.60686874999999,152.8097425289452L125.65489921875,149.801843713969L125.8829859375,155.70127882797533L125.89064296875,155.72020290142245L126.36561093750001,153.9434062228538L126.70136015625,-1603.3568863868713L127.07864296875,151.80652357451618L127.71,155.3024768769974L128.0594390625,154.41486353450455L128.14737890625,151.14968655444682L128.29355859375,154.1721297793556L128.8251421875,135.1626757234335L129.49548046875,151.98171172104776L129.67553671875,155.63793594675371L130.02474375,148.4969076961279L130.834996875,145.65414855070412L130.910175,153.98220119345933L130.94567578125,153.20775480289012L130.9700390625,153.55916242627427L131.59118671875,153.84143361868337L131.7840046875,153.8845213437453L131.8099921875,-1949.6678357124329L131.86127109375,152.05748766474426L131.9148703125,149.78358065057546L131.96846953125,155.0258168716682L132.2777671875,151.6444076485932L132.3343828125,153.38152764178813L132.4030640625,76.27906811237335L132.4309078125,151.04661320149899L132.57523125,155.4302062151255L132.88220859375,154.10956986644305L132.91886953125,153.2082084058784L133.7534859375,155.7497436571624L133.7785453125,153.65270327823237L134.10710156250002,155.70762035614462L135.01759218750001,155.67384274693904L135.86032968749998,154.69629942602478L136.9248890625,155.74999708597898L136.97895234375,152.24358714930713L137.33465625,101.60828218609095L137.49591796875,142.58332221582532L137.55671015625,155.44078429276124L138.12008203125,150.03205769509077L139.0140984375,155.06970995443407L139.1690953125,153.1129859695211L139.40437500000002,153.93082221085206L139.40460703125,155.01014689845033L139.57050937499997,134.22530525177717L139.72875468750001,155.71594657546666L139.87029375,151.51718827709556L140.110678125,153.37288867030293L140.47380703125,155.67902375975973L140.71674375,155.74999989755395L140.966409375,154.24276150460355L141.03810703124998,138.59152805805206L141.37385625,-125.57634878158574L141.47177343750002,155.36472546885489L141.51005859375,155.0102386965882L142.54584609375001,155.19095193059184L142.63425,154.58933667093515L143.5646953125,141.94319618679583L143.75936953125,83.32163226604462L143.78883749999997,139.67329389229417L143.8848984375,127.15783168375492L143.91900703125,155.7448310698437L144.11066484375,152.5128315021284L144.13920468749998,155.39998460520292L144.43458046875,155.68484911443375L144.62716640625,151.90862424019724L144.68169375,144.2848701197654L144.80072578125,154.7493652771227L144.9884390625,155.3110760623822L145.0886765625,147.3737460821867L145.43997187500003,149.41648549214005L145.60587421875,-236.60455453395852L146.2836375,150.31120484974235L146.67345,152.78186925733462L146.87230078125,153.0024177026935L147.46838906250002,138.61544281989336L147.94753359375,153.68639423092827L148.01343046875,136.65124117210507L148.2201703125,155.2283146015834L148.45336171875,155.70898557175678L148.513921875,155.23625223943964L149.32835156250002,155.69050317000074L149.63880937500002,147.38773835636675L150.06319453125002,147.4268132802099L150.15136640625,155.7403655179878L150.17433749999998,141.32609802111983L150.27666328125002,151.90820607170463L150.45115078125002,151.29655072744936L150.46576875,155.73794732411625L150.6035953125,99.78283953666687L150.65626640624998,154.88545518764295L150.680165625,152.21170977968723L150.70870546875,153.90712668700144L150.837946875,151.8277100874111L151.42359374999998,144.82345538958907L151.8881203125,152.0175801338628L151.9753640625,154.29669829830527L152.014809375,148.09024318866432L152.06794453125,155.7089466695761L152.20832343749998,134.92251521721482L152.34475781249998,149.9154056776315L152.58769453125,155.7486660145987L152.6204109375,154.51346944714896L152.8839984375,155.2705119572347L152.94432656249998,145.33527124486864L153.18169453125,151.19184738770127L153.83602265624998,134.38840837031603L154.04902734375,152.52611405029893L154.30843828125,155.65217112077517L154.82795625,153.91520927473903L154.91218359375,155.7057942201136L155.7138515625,142.17521131783724L156.12269062500002,153.5906740538776L156.23290546875,147.92431277036667L156.480946875,155.74604924678806L156.59510625000001,155.7435423675197L156.689775,153.1949689593166L156.7208671875,155.72909249328586L156.95591484375,154.90306224662345L157.09815,-608.2891159057618L157.3547765625,153.09827340114862L157.50722109375,155.49418892146787L157.51534218749998,155.26171492924914L157.5329765625,155.27680525835603L157.63437421875,152.69191557820886L157.80538125,155.69175777908822L158.51098828124998,154.3916693776846L159.13027968749998,129.8806133568287L159.92684296874998,155.6074346944224L159.93101953125,155.21070661011618L160.04471484374997,155.42096156760817L160.29484453125,154.24769995431416L160.911815625,137.55873228237033L160.92550546875,16.88897681236267L161.522521875,153.22833064058796L161.97011015625,124.05636590719223L162.05526562499998,125.15147168934345L162.3573703125,153.1200036574155L162.4251234375,-1564.3809370994568L162.80959921874998,155.7265295583711L163.37436328125,153.15653372136876L163.6804125,155.4658372582635L165.23664609374998,152.2471558796242L165.30973593750002,-1834.0316038131714L165.34616484375,139.184931114316L165.5812125,153.6068023443222L165.77449453124999,155.2435166736832L165.88447734375,155.66211701773864L166.08031171874998,132.18912060186267L167.03279999999998,153.54651086078957L167.11841953125,155.7402113128519L167.430965625,151.75426038727164L168.13239609374997,154.20664069871418L169.0055296875,155.74994528116076L169.014346875,115.16919215023518L169.44615703125,149.36328235827386L169.5122859375,144.62803352437913L169.76682421875,155.67580846781493L169.80070078125001,105.41037787497044L170.263603125,155.66094923352648L170.3411015625,155.74682823361354L170.51605312499998,152.07185210473835L170.52138984375,141.8997124657035L170.77059140625,155.4562022096361L170.86711640625,151.28567668888718L171.16272421875,155.43121902522398L171.51958828125,146.0772115625441L171.824709375,153.37574456632137L172.21661015625,144.46148890815675L172.48251796875002,149.64789388515055L172.74007265625,113.64172418415546L173.17188281249997,155.7397830917962L173.29857187500002,154.27085204562172L173.34405,154.2134018491488L173.47445156249998,134.3462748900056L173.69000859375,155.2359258690849L174.23481796875,153.3726308895275L174.40744921875,152.8893984463066L174.46035234374997,155.25855877250433L174.83021015625,153.5842517069541L174.87429609375002,155.30302865011618L175.00237734375003,154.9708254354773L175.30865859375,26.236031472682953L175.338590625,155.7091841169604L175.36573828125,155.29642312135547L175.37989218750002,154.3831009643618L175.4030953125,-1939.5502834320068L175.50959765625,155.73480792137343L175.5924328125,153.92471566610038L175.77504140625,-1598.648546218872L176.5084921875,154.65836286125705L177.4217671875,36.68722999095917L177.63871640625,141.63101537898183L177.9415171875,155.51408313727006L178.55895234375,155.33012842398603L178.6700953125,153.66379261761904L178.6775203125,154.719490370946L179.31537421875,155.12640312709846L179.45041640625,17.125200152397156L179.52165,151.83010429888964L179.67455859375,150.57003622688353L179.8887234375,154.77110309689306L179.9963859375,153.8474228773266L180.10915312499998,138.89032332971692L180.23328984375001,155.2485458336305L180.29779453125,153.48161351447925L181.015003125,152.94234752934426L181.04191875,153.13244655309245L181.30388203125,128.4210088737309L181.36745859375,155.20186414930504L181.44588515625,154.01567011070438L181.5574921875,153.95171385072172L181.60134609375,152.78321701148525L181.63939921875001,155.49067300616298L182.063784375,153.91393736284226L182.39164453125002,150.90716582071036L182.7167203125,146.00855815969408L182.8884234375,152.57182434247807L182.93738203125,151.02381783816963L183.70308515625,154.65078454161994L183.82536562500002,153.74796923063695L183.83766328125,143.11108981072903L184.18408593750002,137.30411118641496L184.54628671875,151.5702140312642L185.02496718749998,71.3341863155365L185.063484375,155.43331188807497L185.12636484375,132.71375669911504L185.51339296875,155.432446695806L185.80760859375002,149.23854215815663L186.01434843750002,154.49914396437816L186.18906796875,153.30539569538087L186.3401203125,154.51839991891757L186.464953125,142.4785886220634L186.64292109375,151.19420098420233L186.8320265625,155.12726780131925L186.97797421875,150.1862532859668L187.14039609374998,155.73351013620777L187.16267109375,154.8847672714619L187.2376171875,152.91141880955547L187.37173124999998,154.55030142958276L188.17177500000003,153.91270337207243L188.32050703125,155.55361152163823L188.5082203125,153.58165504224598L189.17948671874998,144.6548452116549L189.19642499999998,154.89274106908124L189.3453890625,155.51665332971606L189.46720546875,-1988.0772309303284L189.47091796875,152.50690358038992L189.4897125,149.03850551974028L189.99438046875,154.98062649264466L190.12988671875002,126.03447113931179L190.47839765625,152.33538445830345L190.98561796874998,150.690480357036L191.01067734375,153.6219987696968L191.250365625,154.96562454255763L191.2796015625,154.92675999808125L191.716284375,154.71241310751066L192.11561015625,109.51416493207216L192.38940703125002,154.67888409667648L192.42258750000002,154.44415646535344L192.78084375,155.72866038929715L192.96716484375,154.73218783549964L193.0987265625,151.88522462546825L193.9256859375,148.85136828105897L194.24936953125,153.6312438575551L194.2523859375,154.5331479217857L194.2737328125,-611.985032439232L194.37141796875,-333.19316434860235L194.48534531250002,151.83610122464597L194.49346640625,152.73050084291026L194.60275312500002,154.66823913902044L194.75658984375,154.2038825065829L194.9698265625,-1771.054769039154L194.97933984375,155.68300256406656L195.64758984374998,155.36636607564287L195.766621875,150.69633430149406L195.81650859374997,154.92324555921368L195.83112656249997,134.5253372080624L195.98612343750003,155.66313879654626L196.0752234375,147.04974465817213L196.5657375,104.40040440112352L196.8418546875,155.6480360148562L197.16600234375002,154.85999384475872L197.30058046875,155.18595235119574L197.58458671875002,146.41777063533664L197.80037578125,149.78542200103402L198.06721171875,155.43471126572695L198.20271796875,153.4708345895633L198.40783359374998,154.86884252214804L198.8155125,149.4570892797783L198.93454453125,155.39239470718894L199.10903203125,151.31664146482944L199.391878125,-1896.6421942710876L199.69699921875,149.92117673438042L199.785403125,145.75733463093638L200.61491484375,115.32066114991903L200.642990625,153.4247637358494L200.86318828125,155.17465708765667L201.20914687500002,-1146.8791799545288L201.23374218749998,155.5352207334654L201.2959265625,155.59039440605557L202.5377578125,155.48885880142916L202.7976328125,155.65820736638852L203.2663359375,144.85432774573565L203.43200625,155.16778491949663L203.55011015625,155.45904054382117L203.55707109375,155.65981219547393L203.670534375,154.70950219477527L203.694665625,31.377164840698242L203.78956640625,155.53113378660055L203.8250671875,154.20609281095676L203.9531484375,27.370704531669617L204.16731328125002,152.51659273914993L204.32138203125,155.46986472024582L204.55526953125002,127.46275898814201L204.74275078125,105.35041027516127L205.03789453125,155.10500240128022L205.06782656250002,155.6031871267187L205.14230859375,153.3730476074852L205.37944453125002,154.54495113156736L206.2511859375,154.5198834016919L206.77905703125,147.25321989320219L206.82940781250002,155.16330432076938L207.09322734375002,155.52438755595358L207.18047109375,155.4651315989322L207.20460234375,155.50651978922542L207.47097421875,153.34094146778807L207.47979140625,149.53939470276237L207.55473750000002,155.74940757932336L207.700453125,153.57446411903948L208.16567578125,153.18064637761563L208.6708078125,155.22215739171952L208.862465625,155.46711738122394L209.61355078125,132.16533514484763L210.0509296875,155.27480201784056L210.38366249999999,152.62671859283L210.9331125,155.66971332659887L211.15307812499998,154.49325044103898L211.51388671875,155.74859068209616L211.96936406249998,151.43061703816056L212.14129921875,155.72658509799294L212.2450171875,130.68287852033973L212.46196640625,148.7408752348274L212.5215984375,144.58403589949012L212.636221875,155.3354027243331L212.66754609375,155.70341555655614L212.9049140625,154.98879005131312L213.9843234375,152.52943370305002L215.1727875,141.45973124355078L215.3449546875,155.5086140508065L216.18699609375,155.72725181467104L216.44803124999999,155.71118510720407L216.5208890625,153.6986371600069L216.93065625,-3.9163686633110046L217.09841484375,151.21194599941373L217.43161171875002,149.92248180136085L217.675940625,153.7369439220056L217.74624609375,155.1826141005149L218.0949890625,152.55046065710485L218.40660703125,124.47140124440193L219.11198203125002,155.15446724765934L219.48416015625,155.6194951539801L219.741946875,155.73140268058705L219.74403515625002,146.18992144055665L220.21088203125,154.13698445819318L220.65406171875,155.72316535833306L221.43948749999998,155.72817975876387L221.46941953125,149.12871179915965L221.80215234374998,155.71014121421467L221.9077265625,155.44921386917122L222.1759546875,153.84461588505656L222.65231484375,140.58169013634324L223.069275,154.63004603679292L223.16023125,154.47967457398772L223.26812578125,155.63008857879322L223.37903671875,154.25553584750742L223.48113046875002,155.68060282242368L223.68346171875,154.12541903252713L223.71965859374998,155.36044001887785L223.8229125,154.41538127185777L224.38512421875,155.39649169123732L224.39811796875,153.42448171041906L224.81252578124997,155.7480621901841L225.22391718749998,152.01428161747754L225.37566562499998,149.54751023836434L225.60676875,155.73477634471783L226.00470234375,153.79896651534364L226.0712953125,155.44454602192855L227.1154359375,155.25165370828472L227.23353984374998,155.2048196141841L227.2992046875,-23.54919123649597L227.35698046874998,130.83669655770063L227.5479421875,155.7497644011978L227.7038671875,150.76844412181526L228.00341953125,154.2844968130812L228.35100234375003,150.64699829369783L228.58953046874998,155.1336277234368L229.74226171875,155.1371741258772L230.0288203125,-188.88006615638741L230.1596859375,154.0044490834698L230.64439921875,155.74042685732093L230.65507265624998,153.9564036373049L230.82259921875,154.65214130980894L231.43098515625002,154.91879003401846L231.65141484375,155.47345210029744L231.9212671875,151.48842872865498L232.19019140625,155.37031199684134L232.204809375,155.59038872047677L232.44124921875002,155.52907255059108L232.9125046875,98.76038980484009L232.97608125,155.59531723661348L233.167275,154.91412749676965L233.57750625,154.32078650267795L233.77496484374998,-279.69263601303106L233.87473828125,154.88225131866056L233.98750546875,155.74879472043176L234.05943515625,155.74868516922788L234.11210625,153.6950497799553L234.79590234375002,155.7363964594624L235.32122109374998,155.4087324445136L235.46276015625,155.40651001781225L236.5915921875,154.98693968681619L236.86886953125,155.70380123371433L237.24429609375,155.61867162573617L237.40346953124998,96.4890809059143L237.62969999999999,142.67576273344457L238.05849375,154.92783095908817L238.32927421875002,154.9736481764121L238.5814921875,155.74145938643778L239.01098203125,155.04178601771127L239.14857656249998,154.23828732967377L239.46854765625002,155.7433697571032L239.5133296875,155.50406740093604L239.9421234375,148.43104263581336L239.98226484375002,155.27398282825015L240.27160781249998,155.72587120169555L240.40850625,155.31914370442973L240.92152734375,118.02440185844898L240.9890484375,151.950221022591L241.42155468750002,155.61765408844803L241.46981718749998,155.74948391792202L241.61715703125,133.49803357198834L241.8345703125,154.2022669215221L242.45177343749998,155.44539455894846L242.631365625,154.792616187362L243.26805937499998,148.42870768904686L243.57898125,153.90596770960838L243.60891328125,154.6671143528074L244.51453125,155.53409851159086L244.70224453125,154.36738908104599L244.82522109375,155.74999137080465L245.1284859375,155.6491774951719L245.419453125,155.48010694724508L245.9642625,154.23115536035039L245.98305703125,152.49639176111668L246.6171984375,146.09459145739675L246.80769609375,155.6713753870572L247.021396875,155.71955358954438L247.07081953124998,155.43585247406736L247.0780125,153.6768604866229L247.20771796875,155.70864491622342L247.42350703125,154.26809986284934L247.54671562500002,155.62491080377367L247.61655703125,155.73573998880602L247.6483453125,154.51462396932766L247.67526093749998,155.7104445184741L248.031196875,153.93971398985013L248.0474390625,155.48223115201108L248.20823671875,155.57639824651415L248.24721796875,155.5177240835037L248.30499375,154.48772649327293L248.372746875,155.40151466050884L248.71684921875,134.3199099674821L249.1769671875,153.25763662625104L249.79765078125,155.28856205102056L249.93222890625,141.01870729401708L249.972834375,155.131526260986L250.1422171875,155.74449861242283L250.27702734375,155.07845802686643L250.574259375,155.7365470245004L250.84434375,154.1187579690013L251.019759375,155.6339640065853L251.19331875,150.7593911262229L251.441128125,155.70668398081762L251.89637343750002,42.64108729362488L252.01749375,155.74668975710847L252.17643515625,155.7211262964047L252.18664453124998,155.23134637495968L252.57854531249998,155.6052456429752L252.59153906249998,155.61521061058738L252.734934375,155.10333335364703L252.75744140625,155.23814700066578L253.52407265625,155.71820353331714L253.6830140625,151.82314463239163L254.18489765625,155.72520821820217L254.47470468749998,152.91041213832796L254.71068046874998,154.32054840773344L254.77634531249998,155.57959587301593L255.25363359374998,155.6946393508697L255.807028125,152.59453184483573L257.288315625,155.73801282807108L257.32706484375,155.48485993570648L257.50433671875,155.7398462612964L257.90528671875,155.67205004120478L258.89791640625,155.23379197681788L259.0169484375,155.6864663183951L259.01950078125,155.6355807443033L259.606771875,155.268431268516L259.632759375,155.59791967755882L259.799821875,155.35400316660525L259.8383390625,155.02562918281183L259.8531890625,155.419973468408L260.38361249999997,149.4551977822557L260.406815625,155.71893238825578L260.63815078125,154.8174926538486L260.72214609375,152.19949378911406L260.79686015625003,154.66580016817898L260.93561484375,152.47458006767556L260.94164765625,155.74925866576632L261.22658203124996,155.718378319536L262.35239765625,155.36133624223294L262.36794375,155.08782102249097L262.8074109375,152.36125391954556L262.92853125,155.74541254128872L263.22181875,155.16426281351596L263.276578125,155.5009890809306L263.2946765625,147.77400917187333L263.34688359375,155.281295907218L263.55385546875,155.74772695189677L263.65664531249996,154.81218265998177L263.70421171875,155.39852922654245L263.76500390625,155.40656003536424L264.189853125,155.41067427041708L264.40308984374997,155.37998804898234L264.50657578125,155.59998670275672L264.76157812499997,-10.101184278726578L264.76227421875,155.5198411651072L264.8214421875,155.03579966013785L265.15603125,155.66263075964525L265.26554999999996,155.68426686065504L265.3189171875,155.50859309575753L265.5885375,155.63720615932834L265.591321875,153.34237646125257L265.97301328125,155.73360498921102L266.62130859375,155.6349205696024L266.64172734375,155.7499581979131L266.7417328125,154.97801646229345L266.76795234375,155.51739488978637L267.22644609375,155.73100482605878L267.23317499999996,155.48147977492772L267.39768515625,155.2480017276248L267.56846015625,154.77166600804776L267.74619609375003,-340.99755275249487L267.8480578125,155.6975781734509L267.95548828125,155.42020223848522L268.1868234375,155.46743504836923L268.2100265625,154.6393303927034L268.22418046875,155.74280753560015L268.79126484375,155.69156880806258L268.8030984375,154.9816867300542L268.87804453125,155.1683275231626L268.902871875,155.72315370710567L269.04464296875,155.58798710090923L269.416125,155.47433415503474L269.6574375,154.78151855920441L269.76347578125,154.4938563501928L269.80106484375,155.1853646255331L269.81985937499996,155.4797003053245L269.98901015625,149.67190396785736L270.12637265625,155.66741162557446L270.17625937500003,155.45035963633563L270.25027734375,155.72256548605947L270.49947890625,155.6409970157547" style="fill: none;" fill="none"></path></g></g></g></g></g></g><g transform="translate(51, 178)" clip-path="url(#clip_1)"><clipPath id="clip_1"><rect width="278" height="22"></rect></clipPath><g><g><line x1="0" y1="0" x2="0" y2="5" style="visibility: inherit;" fill="rgb(0, 0, 0)" stroke="rgb(204, 204, 204)" stroke-width="1px"></line><line x1="23.203125" y1="0" x2="23.203125" y2="5" style="visibility: inherit;" fill="rgb(0, 0, 0)" stroke="rgb(204, 204, 204)" stroke-width="1px"></line><line x1="46.40625" y1="0" x2="46.40625" y2="5" style="visibility: inherit;" fill="rgb(0, 0, 0)" stroke="rgb(204, 204, 204)" stroke-width="1px"></line><line x1="69.609375" y1="0" x2="69.609375" y2="5" style="visibility: inherit;" fill="rgb(0, 0, 0)" stroke="rgb(204, 204, 204)" stroke-width="1px"></line><line x1="92.8125" y1="0" x2="92.8125" y2="5" style="visibility: inherit;" fill="rgb(0, 0, 0)" stroke="rgb(204, 204, 204)" stroke-width="1px"></line><line x1="116.015625" y1="0" x2="116.015625" y2="5" style="visibility: inherit;" fill="rgb(0, 0, 0)" stroke="rgb(204, 204, 204)" stroke-width="1px"></line><line x1="139.21875" y1="0" x2="139.21875" y2="5" style="visibility: inherit;" fill="rgb(0, 0, 0)" stroke="rgb(204, 204, 204)" stroke-width="1px"></line><line x1="162.421875" y1="0" x2="162.421875" y2="5" style="visibility: inherit;" fill="rgb(0, 0, 0)" stroke="rgb(204, 204, 204)" stroke-width="1px"></line><line x1="185.625" y1="0" x2="185.625" y2="5" style="visibility: inherit;" fill="rgb(0, 0, 0)" stroke="rgb(204, 204, 204)" stroke-width="1px"></line><line x1="208.828125" y1="0" x2="208.828125" y2="5" style="visibility: inherit;" fill="rgb(0, 0, 0)" stroke="rgb(204, 204, 204)" stroke-width="1px"></line><line x1="232.03125" y1="0" x2="232.03125" y2="5" style="visibility: inherit;" fill="rgb(0, 0, 0)" stroke="rgb(204, 204, 204)" stroke-width="1px"></line><line x1="255.234375" y1="0" x2="255.234375" y2="5" style="visibility: inherit;" fill="rgb(0, 0, 0)" stroke="rgb(204, 204, 204)" stroke-width="1px"></line><line x1="278.4375" y1="0" x2="278.4375" y2="5" style="visibility: inherit;" fill="rgb(0, 0, 0)" stroke="rgb(204, 204, 204)" stroke-width="1px"></line></g><g transform="translate(0, 8)"><text x="0" y="0" dx="0em" dy="0.95em" style="text-anchor: middle; visibility: hidden; font-family: Roboto, sans-serif; font-size: 12px; font-weight: 200;" fill="rgb(50, 49, 63)" stroke="none" stroke-width="1px">-100k</text><text x="23.203125" y="0" dx="0em" dy="0.95em" style="text-anchor: middle; visibility: inherit; font-family: Roboto, sans-serif; font-size: 12px; font-weight: 200;" fill="rgb(50, 49, 63)" stroke="none" stroke-width="1px">0</text><text x="46.40625" y="0" dx="0em" dy="0.95em" style="text-anchor: middle; visibility: hidden; font-family: Roboto, sans-serif; font-size: 12px; font-weight: 200;" fill="rgb(50, 49, 63)" stroke="none" stroke-width="1px">100k</text><text x="69.609375" y="0" dx="0em" dy="0.95em" style="text-anchor: middle; visibility: inherit; font-family: Roboto, sans-serif; font-size: 12px; font-weight: 200;" fill="rgb(50, 49, 63)" stroke="none" stroke-width="1px">200k</text><text x="92.8125" y="0" dx="0em" dy="0.95em" style="text-anchor: middle; visibility: hidden; font-family: Roboto, sans-serif; font-size: 12px; font-weight: 200;" fill="rgb(50, 49, 63)" stroke="none" stroke-width="1px">300k</text><text x="116.015625" y="0" dx="0em" dy="0.95em" style="text-anchor: middle; visibility: inherit; font-family: Roboto, sans-serif; font-size: 12px; font-weight: 200;" fill="rgb(50, 49, 63)" stroke="none" stroke-width="1px">400k</text><text x="139.21875" y="0" dx="0em" dy="0.95em" style="text-anchor: middle; visibility: hidden; font-family: Roboto, sans-serif; font-size: 12px; font-weight: 200;" fill="rgb(50, 49, 63)" stroke="none" stroke-width="1px">500k</text><text x="162.421875" y="0" dx="0em" dy="0.95em" style="text-anchor: middle; visibility: inherit; font-family: Roboto, sans-serif; font-size: 12px; font-weight: 200;" fill="rgb(50, 49, 63)" stroke="none" stroke-width="1px">600k</text><text x="185.625" y="0" dx="0em" dy="0.95em" style="text-anchor: middle; visibility: hidden; font-family: Roboto, sans-serif; font-size: 12px; font-weight: 200;" fill="rgb(50, 49, 63)" stroke="none" stroke-width="1px">700k</text><text x="208.828125" y="0" dx="0em" dy="0.95em" style="text-anchor: middle; visibility: inherit; font-family: Roboto, sans-serif; font-size: 12px; font-weight: 200;" fill="rgb(50, 49, 63)" stroke="none" stroke-width="1px">800k</text><text x="232.03125" y="0" dx="0em" dy="0.95em" style="text-anchor: middle; visibility: hidden; font-family: Roboto, sans-serif; font-size: 12px; font-weight: 200;" fill="rgb(50, 49, 63)" stroke="none" stroke-width="1px">900k</text><text x="255.234375" y="0" dx="0em" dy="0.95em" style="text-anchor: middle; visibility: inherit; font-family: Roboto, sans-serif; font-size: 12px; font-weight: 200;" fill="rgb(50, 49, 63)" stroke="none" stroke-width="1px">1M</text><text x="278.4375" y="0" dx="0em" dy="0.95em" style="text-anchor: middle; visibility: hidden; font-family: Roboto, sans-serif; font-size: 12px; font-weight: 200;" fill="rgb(50, 49, 63)" stroke="none" stroke-width="1px">1.1M</text></g><line x1="0" y1="0" x2="278.4375" y2="0" fill="rgb(0, 0, 0)" stroke="rgb(204, 204, 204)" stroke-width="1px"></line></g></g></g></g></svg>