<svg viewBox="0 0 330 200" xmlns="http://www.w3.org/2000/svg"><g><g><g><g><g><line x1="30.78125" y1="178" x2="25.78125" y2="178" style="visibility: inherit;" fill="rgb(0, 0, 0)" stroke="rgb(204, 204, 204)" stroke-width="1px"></line><line x1="30.78125" y1="155.75" x2="25.78125" y2="155.75" style="visibility: inherit;" fill="rgb(0, 0, 0)" stroke="rgb(204, 204, 204)" stroke-width="1px"></line><line x1="30.78125" y1="133.5" x2="25.78125" y2="133.5" style="visibility: inherit;" fill="rgb(0, 0, 0)" stroke="rgb(204, 204, 204)" stroke-width="1px"></line><line x1="30.78125" y1="111.25" x2="25.78125" y2="111.25" style="visibility: inherit;" fill="rgb(0, 0, 0)" stroke="rgb(204, 204, 204)" stroke-width="1px"></line><line x1="30.78125" y1="89" x2="25.78125" y2="89" style="visibility: inherit;" fill="rgb(0, 0, 0)" stroke="rgb(204, 204, 204)" stroke-width="1px"></line><line x1="30.78125" y1="66.75" x2="25.78125" y2="66.75" style="visibility: inherit;" fill="rgb(0, 0, 0)" stroke="rgb(204, 204, 204)" stroke-width="1px"></line><line x1="30.78125" y1="44.5" x2="25.78125" y2="44.5" style="visibility: inherit;" fill="rgb(0, 0, 0)" stroke="rgb(204, 204, 204)" stroke-width="1px"></line><line x1="30.78125" y1="22.25" x2="25.78125" y2="22.25" style="visibility: inherit;" fill="rgb(0, 0, 0)" stroke="rgb(204, 204, 204)" stroke-width="1px"></line><line x1="30.78125" y1="0" x2="25.78125" y2="0" style="visibility: inherit;" fill="rgb(0, 0, 0)" stroke="rgb(204, 204, 204)" stroke-width="1px"></line></g><g transform="translate(20.78125, 0)"><text x="0" y="178" dx="0em" dy="0.3em" style="text-anchor: end; visibility: hidden; font-family: Roboto, sans-serif; font-size: 12px; font-weight: 200;" fill="rgb(50, 49, 63)" stroke="none" stroke-width="1px">-4</text><text x="0" y="155.75" dx="0em" dy="0.3em" style="text-anchor: end; visibility: inherit; font-family: Roboto, sans-serif; font-size: 12px; font-weight: 200;" fill="rgb(50, 49, 63)" stroke="none" stroke-width="1px">-2</text><text x="0" y="133.5" dx="0em" dy="0.3em" style="text-anchor: end; visibility: hidden; font-family: Roboto, sans-serif; font-size: 12px; font-weight: 200;" fill="rgb(50, 49, 63)" stroke="none" stroke-width="1px">0</text><text x="0" y="111.25" dx="0em" dy="0.3em" style="text-anchor: end; visibility: inherit; font-family: Roboto, sans-serif; font-size: 12px; font-weight: 200;" fill="rgb(50, 49, 63)" stroke="none" stroke-width="1px">2</text><text x="0" y="89" dx="0em" dy="0.3em" style="text-anchor: end; visibility: hidden; font-family: Roboto, sans-serif; font-size: 12px; font-weight: 200;" fill="rgb(50, 49, 63)" stroke="none" stroke-width="1px">4</text><text x="0" y="66.75" dx="0em" dy="0.3em" style="text-anchor: end; visibility: inherit; font-family: Roboto, sans-serif; font-size: 12px; font-weight: 200;" fill="rgb(50, 49, 63)" stroke="none" stroke-width="1px">6</text><text x="0" y="44.5" dx="0em" dy="0.3em" style="text-anchor: end; visibility: hidden; font-family: Roboto, sans-serif; font-size: 12px; font-weight: 200;" fill="rgb(50, 49, 63)" stroke="none" stroke-width="1px">8</text><text x="0" y="22.25" dx="0em" dy="0.3em" style="text-anchor: end; visibility: inherit; font-family: Roboto, sans-serif; font-size: 12px; font-weight: 200;" fill="rgb(50, 49, 63)" stroke="none" stroke-width="1px">10</text><text x="0" y="0" dx="0em" dy="0.3em" style="text-anchor: end; visibility: hidden; font-family: Roboto, sans-serif; font-size: 12px; font-weight: 200;" fill="rgb(50, 49, 63)" stroke="none" stroke-width="1px">12</text></g><line x1="30.78125" y1="0" x2="30.78125" y2="178" fill="rgb(0, 0, 0)" stroke="rgb(204, 204, 204)" stroke-width="1px"></line></g></g><g transform="translate(30, 0)" clip-path="url(#clip_0)"><clipPath id="clip_0"><rect width="299" height="178"></rect></clipPath><g><g><g><line x1="0" y1="0" x2="0" y2="178" fill="rgb(0, 0, 0)" stroke="rgb(60, 60, 60)" stroke-width="1px" opacity="0.25"></line><line x1="24.934895833333332" y1="0" x2="24.934895833333332" y2="178" fill="rgb(0, 0, 0)" stroke="rgb(60, 60, 60)" stroke-width="1px" opacity="0.25"></line><line x1="49.869791666666664" y1="0" x2="49.869791666666664" y2="178" fill="rgb(0, 0, 0)" stroke="rgb(60, 60, 60)" stroke-width="1px" opacity="0.25"></line><line x1="74.8046875" y1="0" x2="74.8046875" y2="178" fill="rgb(0, 0, 0)" stroke="rgb(60, 60, 60)" stroke-width="1px" opacity="0.25"></line><line x1="99.73958333333333" y1="0" x2="99.73958333333333" y2="178" fill="rgb(0, 0, 0)" stroke="rgb(60, 60, 60)" stroke-width="1px" opacity="0.25"></line><line x1="124.67447916666667" y1="0" x2="124.67447916666667" y2="178" fill="rgb(0, 0, 0)" stroke="rgb(60, 60, 60)" stroke-width="1px" opacity="0.25"></line><line x1="149.609375" y1="0" x2="149.609375" y2="178" fill="rgb(0, 0, 0)" stroke="rgb(60, 60, 60)" stroke-width="1px" opacity="0.25"></line><line x1="174.54427083333334" y1="0" x2="174.54427083333334" y2="178" fill="rgb(0, 0, 0)" stroke="rgb(60, 60, 60)" stroke-width="1px" opacity="0.25"></line><line x1="199.47916666666666" y1="0" x2="199.47916666666666" y2="178" fill="rgb(0, 0, 0)" stroke="rgb(60, 60, 60)" stroke-width="1px" opacity="0.25"></line><line x1="224.4140625" y1="0" x2="224.4140625" y2="178" fill="rgb(0, 0, 0)" stroke="rgb(60, 60, 60)" stroke-width="1px" opacity="0.25"></line><line x1="249.34895833333334" y1="0" x2="249.34895833333334" y2="178" fill="rgb(0, 0, 0)" stroke="rgb(60, 60, 60)" stroke-width="1px" opacity="0.25"></line><line x1="274.28385416666663" y1="0" x2="274.28385416666663" y2="178" fill="rgb(0, 0, 0)" stroke="rgb(60, 60, 60)" stroke-width="1px" opacity="0.25"></line><line x1="299.21875" y1="0" x2="299.21875" y2="178" fill="rgb(0, 0, 0)" stroke="rgb(60, 60, 60)" stroke-width="1px" opacity="0.25"></line></g><g><line x1="0" y1="178" x2="299.21875" y2="178" fill="rgb(0, 0, 0)" stroke="rgb(60, 60, 60)" stroke-width="1px" opacity="0.25"></line><line x1="0" y1="155.75" x2="299.21875" y2="155.75" fill="rgb(0, 0, 0)" stroke="rgb(60, 60, 60)" stroke-width="1px" opacity="0.25"></line><line x1="0" y1="133.5" x2="299.21875" y2="133.5" fill="rgb(0, 0, 0)" stroke="rgb(60, 60, 60)" stroke-width="1px" opacity="0.25"></line><line x1="0" y1="111.25" x2="299.21875" y2="111.25" fill="rgb(0, 0, 0)" stroke="rgb(60, 60, 60)" stroke-width="1px" opacity="0.25"></line><line x1="0" y1="89" x2="299.21875" y2="89" fill="rgb(0, 0, 0)" stroke="rgb(60, 60, 60)" stroke-width="1px" opacity="0.25"></line><line x1="0" y1="66.75" x2="299.21875" y2="66.75" fill="rgb(0, 0, 0)" stroke="rgb(60, 60, 60)" stroke-width="1px" opacity="0.25"></line><line x1="0" y1="44.5" x2="299.21875" y2="44.5" fill="rgb(0, 0, 0)" stroke="rgb(60, 60, 60)" stroke-width="1px" opacity="0.25"></line><line x1="0" y1="22.25" x2="299.21875" y2="22.25" fill="rgb(0, 0, 0)" stroke="rgb(60, 60, 60)" stroke-width="1px" opacity="0.25"></line><line x1="0" y1="0" x2="299.21875" y2="0" fill="rgb(0, 0, 0)" stroke="rgb(60, 60, 60)" stroke-width="1px" opacity="0.25"></line></g></g></g><g><g><line x1="0" y1="133.5" x2="299.21875" y2="133.5" fill="rgb(0, 0, 0)" stroke="rgb(153, 153, 153)" stroke-width="1.5px"></line></g></g><g><g><line x1="24.934895833333332" y1="0" x2="24.934895833333332" y2="178" fill="rgb(0, 0, 0)" stroke="rgb(153, 153, 153)" stroke-width="1.5px"></line></g></g><g><g><g><g><g><path stroke="rgb(204, 51, 17)" stroke-width="2px" d="M25.042115885416667,21.693747878074646L25.17177734375,21.129030297250292L25.35380208333333,97.79809145604476L25.508398437500002,77.74862575998104L25.52086588541667,65.7736349264217L25.618111979166663,97.67990901021622L25.710371093750002,85.66908213450124L25.730319010416665,76.60896733569736L26.119303385416668,97.53549342050596L26.273899739583335,88.75597422882198L26.381119791666666,81.61898221579384L26.39857421875,97.47316957986777L26.518261718749997,90.80615627506971L26.550677083333333,104.17644069287435L26.717740885416667,97.41116826269534L26.95212890625,91.3840922281916L27.465787760416664,102.7842636541883L27.59544921875,115.37433102760397L28.261210937500003,124.14693394768516L28.271184895833333,117.48278937245769L28.390872395833334,125.47109225010685L28.408326822916663,119.01381844107198L28.51804036458333,113.18430271136151L29.153880208333334,120.82755399118359L29.261100260416665,127.75212856974841L29.268580729166665,134.0891116616641L29.617669270833336,128.1103473492513L29.717408854166667,134.22020346038985L30.01413411458333,128.43112638676587L30.163743489583332,123.1131441129926L30.420572916666668,129.2819048253194L30.57766276041667,124.02349915671283L30.689869791666666,119.33940959120929L30.8943359375,114.76146856628502L31.011529947916667,110.62516642163433L31.133710937500002,106.60905758695328L31.136204427083335,102.80109119360802L31.166126302083335,108.98216085243892L31.250904947916666,105.52236073624066L31.632408854166666,111.4055445210264L31.76955078125,117.0242191234406L32.51261067708333,113.12656307626344L32.991360677083335,109.36505201184086L33.03125651041667,105.86095634749829L33.178372395833335,111.47715828225992L33.958834635416665,107.87678764909184L33.96382161458333,113.44749570360835L34.08849609375,109.85578426215577L34.26553385416667,106.42667664842078L34.44755859375,103.20565910134259L34.46501302083333,100.08312516140971L34.73181640625,97.09078168043192L34.80163411458334,94.26684383437987L35.00111328125,99.81174029495934L35.40007161458333,105.08370459136346L35.70178385416667,110.2281717045749L35.90874348958333,106.99192171873237L36.13814453125,112.29861704754481L36.18053385416667,109.31235900323675L36.59694661458334,106.27158690216498L36.876217447916666,103.23764806242609L37.33252604166667,108.2005446031392L37.66914713541667,105.14720880545383L37.73896484375,102.6055027870622L38.26509114583333,99.83572041561084L38.300000000000004,104.83627245068092L38.77376302083333,102.08459959204755L39.09791666666666,107.07340666536983L39.207630208333335,111.83599423658438L39.41957682291667,116.31064286558637L39.55921223958334,120.63447321087327L39.57666666666667,117.27094243562634L39.666432291666666,113.99950563570292L39.87339192708333,110.87196477658856L40.39702473958334,115.30650437119853L40.444401041666666,119.59691126823627L40.6189453125,123.69030334316228L41.32958984375,120.28377144488104L41.40190104166667,117.0036686253781L41.641276041666664,121.16672506035343L41.67119791666667,118.08464367724757L42.02776692708333,114.91547749502276L42.30703776041667,119.10118430261268L42.778307291666664,115.87949113921223L43.34432942708334,112.93998366076589L43.53882161458333,117.17254587039596L43.54630208333333,121.30880294234922L43.665989583333335,125.36334189737362L44.356686197916666,129.34658074675227L44.381621093750006,125.84800385261214L44.46889322916667,129.6210291952816L44.862864583333334,133.24469679830008L45.04987630208333,136.77421767046093L45.33413411458333,133.10924066363538L45.436367187500004,136.62653404591174L45.79044270833333,140.12489868409028L45.8253515625,136.8203121506142L46.127063802083335,140.18134205806913L46.15199869791667,136.42943367518163L46.38389322916667,140.1181194098256L47.07458984375,136.44257548687662L47.19926432291667,139.79507097967993L47.21671875,136.07035416457154L47.361341145833336,132.51613062703927L48.027102864583334,136.10652255382354L48.54574869791667,132.56732724058952L48.760188802083334,129.12904048479558L48.79260416666666,125.78467837765753L49.11925130208333,129.45633411055664L49.480807291666665,133.24836703125828L49.640390624999995,136.873588245602L50.560488281249995,133.45905926817605L50.57794270833334,129.9573173513959L50.86718750000001,133.44598776303727L51.06666666666666,136.8440452160996L51.173886718750005,133.2443415022571L51.38583333333333,136.7042278594507L51.75985677083333,140.0097467300017L51.81720703125,144.3009774044327L52.12141276041667,147.36703256843938L52.128893229166664,150.50746823134048L52.28099609375,146.53642666135133L52.30094401041667,142.8031640695013L52.41564453125,145.916145818095L52.62011067708333,148.90412441539016L53.410546874999994,151.8018670656968L53.54270182291667,154.60209231806084L53.692311197916666,157.33862755460822L53.77708984375,153.8209026403996L54.07381510416666,156.5575732997012L54.25833333333334,159.2158025160542L54.78196614583333,161.77773200254734L54.79443359375,164.57592373846498L55.26819661458333,166.98510435062727L55.58237630208333,169.4281437627259L56.53239583333334,164.90422988117416L57.046054687499996,167.30318943682005L57.20065104166667,169.63812727551147L57.43753255208333,165.09725556349755L57.504856770833335,161.02152561265567L57.62454427083333,163.95723531212616L58.35513671875,159.6354880708677L58.714199218750004,155.54824329299757L58.8413671875,158.21071563664216L58.89871744791667,160.85214041133867L59.37248046875,163.53398892933595L59.55699869791667,159.22650358265895L60.04572265625,161.94228873022553L60.397304687500004,157.66912645264202L60.57932942708333,153.51339722151693L60.68904296875,149.47479807945277L60.96083333333333,145.59348530085705L61.43708984375,148.9874512296535L61.51189453125,145.1265216018846L61.55927083333333,148.15218092340484L61.788671875,144.31864070443615L61.8634765625,147.3099185597323L62.023059895833335,143.48700192909808L62.07043619791666,139.77725947560876L63.147623697916664,143.08187390065746L63.51915364583333,139.4029296641412L63.524140624999994,142.57279847592733L63.603932291666666,138.9007751154679L64.18491536458333,142.09789515618303L64.24475911458333,138.431658723127L65.12246744791668,134.90035378460598L65.4541015625,138.2297637554453L65.6336328125,134.67902856725348L66.57118489583334,131.24615138719108L66.85045572916667,134.64372547061086L66.97014322916667,138.17314366267297L67.07486979166666,141.84717995161142L67.49128255208333,138.24405874940547L67.56858072916667,134.70317305487785L68.05481119791666,131.4707882101888L68.11714843749999,128.15187548863906L68.17200520833333,131.69600431848636L68.68067708333334,128.38463977564277L68.7155859375,131.85711149400623L68.78789713541667,128.5082475707966L68.80784505208332,131.95600679035894L69.98227864583333,128.6217436927266L70.944765625,125.43183523202131L72.20896484375001,122.28474488573947L72.60293619791666,119.24950176227865L72.73509114583334,116.32940230727166L72.98942708333334,113.6917331537701L73.63773437500001,110.95290527179718L73.90952473958333,108.31351190276247L73.94443359375,112.81423268010622L74.13643229166667,110.04233581955047L74.42318359375,114.30278286524776L74.65258463541667,111.50667414491323L74.79471354166667,108.78821909500559L74.89445312500001,112.83099294594805L74.9393359375,116.76523699245146L74.96177734375,115.11049264742189L75.15128255208333,118.96890072006056L75.41559244791667,116.0271007166991L75.43554036458333,113.180651212309L75.612578125,110.57718383533874L75.90431640624999,114.74139070834441L76.151171875,119.24167420622156L76.15366536458333,123.0211651460878L76.20852213541666,127.13491818167083L76.24841796875,123.9590262854383L76.749609375,120.91220122447824L76.75708984375,117.90695923804213L76.87927083333334,121.67199769458684L76.93911458333334,118.66429730231422L77.50014973958334,122.5399121459849L77.65973307291667,119.46966020031384L77.82180989583334,116.52188426897676L77.87916015625,113.65612211772073L78.09609375000001,110.926717692055L78.275625,114.91357868642726L78.604765625,118.78050613417366L79.41514973958334,116.02115982152038L79.80912109375,113.27797263113114L80.40506510416667,110.5304049181002L80.52225911458333,114.49497161303454L80.61701171875,118.38710043103953L80.68682942708334,122.14215163167206L80.97108723958334,119.10870974946589L81.88869140625,122.87525055416762L82.63175130208333,119.80996583830768L82.65668619791667,123.51512295615335L82.76639973958333,120.55107507259746L82.83123046875,117.61264591070471L82.9434375,121.82107014696246L83.00078776041666,118.79456363153115L83.18779947916667,115.86903073221386L83.35236979166667,119.75870399646519L83.63413411458335,116.80771153920584L83.95828776041667,120.65899150846086L83.98571614583334,117.67442992203527L84.0355859375,114.77285878099522L84.62654296875,118.63820764981831L84.97812499999999,116.26891552923591L85.14768229166667,120.09586950758673L85.48430338541667,118.14712945023487L85.48929036458334,115.2450272879174L85.58404296875,119.10249306497661L85.64139322916667,123.02776694866807L86.32959635416665,126.65481667376511L86.57395833333334,130.18628917767262L86.59390625,126.8963606492313L87.0277734375,130.38707409673026L87.11005859375001,127.12127656941412L87.29457682291667,123.94353378161783L87.39182291666665,120.86455510144619L87.60626302083334,117.88137198378513L87.90548177083333,114.95437604067187L88.10246744791667,112.13864046094679L88.24958333333333,109.40411095157533L88.98516276041667,113.4160731121974L89.29934244791667,110.64327380851591L89.38661458333334,107.96374008022522L89.5711328125,112.03214060840135L89.93268880208333,109.4946162779876L89.99502604166668,113.52700009315716L90.154609375,110.74435051720889L90.18951822916667,114.77920903164951L90.52364583333333,118.63618683188704L90.77299479166666,122.41744436760037L90.94005859375,119.37478706836954L91.7554296875,116.47687961230011L91.75792317708333,114.25686544728975L91.83522135416666,111.44248153433094L92.61568359374999,108.74262073839965L92.64560546874999,106.09709164202518L92.65557942708332,103.53430719589802L92.65807291666665,101.04844450552166L92.94482421875,105.38722110992077L93.52082031249999,102.84913250681215L93.76518229166668,100.45398595812902L93.80757161458334,104.74708411873962L93.85245442708333,109.2384779510672L94.31873697916666,113.2979759944244L94.54564453125,117.33912328188414L94.63042317708333,114.52595996966848L94.67530598958334,111.72378469928763L95.55550781250001,115.98567793475287L95.84724609375,119.83593161251383L95.87966145833333,123.56396155316618L96.1090625,120.48398544653524L96.18137369791667,124.18919545617072L96.27861979166666,121.07379926091659L97.17378255208332,124.7312351380514L97.23861328125001,128.41911090881482L97.34084635416666,125.21355904571737L97.40318359375,122.10420053788062L97.74977864583333,125.74734697222578L97.904375,129.26448063791972L98.42302083333334,126.03027884516086L98.46291666666667,129.6690747952507L98.64743489583333,133.0918682610478L98.772109375,136.39192697695557L99.11122395833333,132.94058660071087L99.31569010416668,129.59948460169235L99.75454427083332,126.51217792452621L99.81937500000001,123.34060417161433L99.97147786458333,120.76487073194427L100.17594401041666,117.87256164096286L100.34799479166666,121.65587173565726L100.45022786458333,125.38907991969639L100.55744791666667,122.26459851460498L100.88658854166667,125.99955042075202L100.91401692708334,122.93353838885321L101.26809244791666,119.93949480351056L101.50248046875,116.97520683476657L101.53738932291667,114.10319880614738L103.24792317708334,111.30067491140873L103.34018229166666,108.6089405697301L103.97103515625,105.98461852990263L104.25030598958332,103.45238758195052L104.4123828125,100.99279597573901L104.42983723958332,98.65372913153L104.56947265625,103.01017989593842L104.59191406250001,107.23925938764377L104.73902994791666,104.69611251466532L104.7714453125,102.1758653677161L105.16292317708333,99.74792228450211L105.24520833333334,97.70656657112106L105.81372395833334,102.09472751728043L106.08052734374999,99.64920420662204L106.36727864583332,97.29374166895953L106.48945963541667,94.99226157447801L106.62909505208333,92.87998734315734L106.95823567708334,97.41292078190459L106.97818359374999,95.13791286442118L107.30732421875001,100.00694813473159L107.60155598958333,97.63743405571081L107.66888020833333,95.63605954593007L107.67386718750001,100.066254262881L107.89828125,97.76839648774764L108.07282552083333,102.16131007726348L108.15760416666666,99.77724019373528L108.227421875,97.54146235039092L109.03780598958333,95.22590732611897L109.06024739583333,92.9931737031811L109.09016927083333,97.52265160703314L109.13754557291668,101.91289949146302L109.17993489583334,99.50291952601901L109.31458333333333,103.88047661117189L109.34450520833333,101.38810876122764L109.40684244791666,98.97719117255336L109.4991015625,96.64194211357946L109.75842447916668,101.06526563628339L109.80580078125,106.12352619722358L110.0676171875,103.57054995941083L110.61867838541666,101.0975037722668L110.67104166666667,98.70198984318029L110.80818359375,103.0367950169318L111.0251171875,107.26157626060555L111.20963541666666,104.67780338030259L111.6684375,102.17154666895674L113.03985677083334,99.75049337840362L113.09222005208333,97.5088761181019L113.11216796875,95.22437035824856L113.14957031249999,93.00840210578478L113.41388020833334,90.85557746682086L113.63829427083333,88.7740148951501L114.13200520833334,86.72152550384439L114.14945963541666,91.67939072834716L114.32649739583333,96.8189331462137L114.5858203125,94.55847117283943L114.62820963541667,92.51935201842522L114.7952734375,90.3778681801456L115.31641276041667,88.3006305207249L115.38872395833333,86.26568648703388L116.27141927083333,84.32516747129974L116.34622395833333,82.44620301719576L116.39360026041668,80.5969085130906L116.61552083333333,85.87199658173864L116.74518229166667,90.60501182709856L116.82248046875,88.52096487401727L116.96460937500001,86.47607796685347L117.61790364583334,84.93976826086401L117.70018880208333,83.00899468559969L118.33104166666668,88.09155856180082L118.4158203125,92.76465317389312L119.10152994791667,97.3042273959737L119.38080078125,95.01920642565621L120.16874348958333,92.80941241528353L120.30588541666667,90.67258816652502L120.78463541666667,88.58318226220086L120.82453124999999,86.60985981576452L120.85195963541666,91.32739776927559L121.29081380208333,89.54542594202266L121.43543619791666,94.16821912872592L121.48530598958334,91.96059577944992L121.78452473958335,97.34531185520332L122.13610677083334,95.02235072728462L122.19595052083334,92.80579187996285L122.53506510416666,97.75129663653047L122.77444010416667,102.11455706782796L122.92155598958334,99.69524481017628L122.948984375,97.3418375093078L123.93391276041667,95.06904562271723L124.00373046874999,92.87445095837394L124.1308984375,90.74235718480821L124.37276692708333,88.65753918913941L124.45006510416667,86.64527876454133L124.46253255208333,91.3550659544385L124.72684244791667,89.25854264822634L125.41504557291667,87.22825284082019L125.92371744791667,85.2321721418278L126.29026041666665,89.99102550175431L126.33015625,87.93542458769481L126.34013020833333,85.92814212303855L126.42241536458333,90.67612714041202L126.47228515625001,88.60664864078458L126.65430989583334,86.57589244090961L127.27020182291668,91.65488211318112L127.48962890624999,89.60276675541056L127.77887369791667,94.213810262486L127.84619791666667,98.67984677989867L128.0207421875,103.03192630094678L128.19029947916667,100.57174928589363L128.394765625,98.17202796229812L128.514453125,103.3703805960726L128.55434895833332,101.03688832009962L129.34229166666668,105.3082422230039L129.6963671875,109.46146732220991L129.99807942708333,106.80840477234833L130.27236328125,104.24828447940077L130.50924479166667,101.7649681351637L130.78602213541666,99.35948886624129L130.83090494791665,103.704525545806L131.35453776041666,101.22417246079019L132.06767578125002,98.82490510724634L132.11006510416667,96.50095363050619L132.20731119791668,94.23003336114417L132.85063151041666,92.01389093271366L133.44906901041668,89.90428303796149L133.53634114583332,87.8880011936862L133.67098958333332,85.90217040296034L133.75078125,83.95922713488946L133.93031249999999,88.76293244418689L133.99763671875,86.74084153056789L134.00761067708333,84.7660635133727L134.16470052083335,82.85386658372865L134.60106119791666,87.66403191050817L134.6334765625,85.67490839589931L134.83295572916666,83.76214632404537L134.8429296875,81.89341725314674L134.93269531250002,80.07407502861325L135.14962890625,84.96095844614979L135.16708333333332,83.04959001063605L135.276796875,81.18221275243462L135.40895182291666,79.43093209622117L136.10962239583333,77.6921399657166L136.25923177083334,82.64714313243552L136.65070963541666,80.86192710365378L136.68561848958333,79.08354249877677L137.05465494791667,77.3418222692601L137.40374348958332,75.65235373936504L137.91740234374998,74.03025661213641L137.93984375,72.44681006087553L138.07199869791668,70.91086698309901L138.40861979166667,69.43435226765135L138.49838541666665,68.00547064007087L138.78513671875,73.2844479654036L139.23645833333333,71.73672586996177L139.72019531249998,70.22208550555713L139.86232421875,68.87637195723866L140.05930989583334,67.45421748390358L140.14907552083332,66.08807769454539L140.43083984375,64.74623457556108L140.47073567708333,63.44798437658303L140.66772135416667,62.19535656699879L140.88216145833334,60.98030763393669L142.62511067708334,66.48005136984145L142.73233072916665,65.13979914363061L142.88194010416666,63.82974210951283L142.93180989583334,62.562324085258254L143.22105468750001,61.32959137874142L143.35071614583333,60.140515525608215L143.50032552083331,58.970424409343266L143.59009114583333,57.82542364226459L143.72224609375,56.741472913317246L143.76463541666666,55.73009071133824L143.79954427083334,54.71233759986254L143.85938802083334,60.40011966850485L143.88930989583332,59.22891566770302L143.98655598958334,58.09284781270527L144.02146484375,57.0075495871195L144.33065755208332,55.951472753254734L144.492734375,54.88702827061103L144.55008463541665,53.89122954034693L144.81439453125,52.92530479081339L145.0762109375,51.978345387583914L145.19091145833335,51.06313236065651L145.92649088541668,56.85705246669694L146.72939453125,55.79881546200378L147.07349609375,56.053926136131444L147.79660807291665,55.01978294475866L147.93125651041666,54.00998922875808L147.99359375,53.030489339196976L148.3077734375,52.08037446039805L148.50974609375,51.14875062803682L148.66184895833334,50.25842551347359L148.70922526041667,49.40816015416603L149.62682942708335,48.58006518936825L149.75150390625,47.776813083733046L149.9833984375,46.99765855088164L150.02329427083333,46.268578642687196L150.09809895833334,52.189647250583675L150.28012369791668,57.94643372522086L150.56438151041667,56.84884054803099L151.1802734375,55.79752516695945L151.18526041666667,61.48278790596671L151.65403645833334,60.275766526265514L152.05299479166666,66.33731943832687L152.43948567708333,64.99133725600258L152.67138020833332,63.67572182041021L152.80852213541667,62.39290002372205L152.95813151041668,61.17192529292065L153.97547526041666,66.70930581721956L154.09516276041666,65.36217648265877L154.11511067708332,64.56609851275192L154.4841471354167,70.05839129654066L154.60134114583335,68.60077698887629L154.76591145833333,67.18689112052553L155.18980468750001,72.51712255035339L155.3269466145833,70.9723963233996L155.47904947916666,69.49069914010572L155.56382812500001,68.05345288138516L155.87052734374998,73.36102496522784L155.91541015624998,71.7943189407793L156.29940755208335,70.53493935887184L156.59862630208335,75.91157909290754L156.85794921875,74.24499405079938L156.940234375,79.44691974121866L157.09981770833335,77.704312032915L157.12475260416667,76.02399497589278L157.32173828125,75.0882876251351L157.359140625,73.49312646726054L158.0922265625,71.93247016288198L158.11217447916667,70.40194598944497L158.25929036458334,75.60568798726774L158.29419921874998,84.32790552187446L158.85274088541667,82.44220583803894L158.87019531250002,87.28473998735859L158.88016927083333,93.00661055404132L158.89014322916668,90.8505369848475L159.24172526041664,88.76582078328696L159.32401041666665,93.40529645158404L159.35143880208335,97.91560024625439L159.76535807291665,95.63228213416481L159.80276041666667,93.42080114893406L159.85512369791664,91.24562704740076L159.89252604166666,89.16240815092452L160.1867578125,87.14502340366296L160.74779296875,85.16479748677966L161.1442578125,83.24731592910393L161.1991145833333,88.84667176030374L161.30882812500002,86.80872156354204L161.37864583333334,84.84525986532852L161.59807291666667,82.94070202259853L161.92222656250001,81.15001844696982L162.03443359375,79.3563178550155L162.56055989583334,77.59974072036735L162.82486979166669,75.91922330228408L162.83235026041666,74.28912141007804L162.89718098958335,72.70792257777585L162.97447916666667,71.17749728988649L163.42081380208333,76.36131012712937L163.43328125,74.7079332247176L163.45322916666666,73.1108327851609L163.85717447916664,71.56164536143075L163.98932942708333,70.06227082108468L164.48802734375002,68.60787751928083L164.79971354166665,73.84207895061574L165.3308268229167,72.2676165697465L165.41311197916664,70.733712909604L165.51783854166666,69.26918907834202L165.64999348958335,67.83858823458637L165.83700520833335,66.45090541799667L165.8719140625,71.75982840314384L165.88936848958332,70.2545083808878L166.08884765624998,77.09804816040993L166.53518229166667,75.42590670958572L166.61746744791668,73.79391709308449L167.06380208333334,72.23424956540066L167.81184895833331,70.71469691228654L167.82680989583332,69.24073084030871L168.27314453124998,67.81098375194179L168.96134765625,66.42412907759173L170.29536458333334,65.07554278660601L170.42253255208334,70.43573903115812L170.65692057291665,77.00350453059716L170.94616536458332,75.35088696086068L171.08330729166667,73.747847919572L171.15811197916665,72.1828873214989L171.35260416666665,77.36991317844495L171.41992838541668,75.69962819890863L171.46231770833333,74.08278934640052L171.52465494791667,72.50444324961178L172.08818359375,70.96343480752499L172.12807942708332,69.49201933641277L172.14304036458333,68.05139634297059L172.71155598958333,66.66066687478832L172.82875,65.3116592914928L173.13046223958332,63.98977194909072L173.60921223958334,62.707541227713115L173.64910807291665,68.1454526420114L173.72391276041665,66.74522665229559L173.89097656250001,72.07535748729359L173.9258854166667,70.55389677555469L174.76120442708333,69.07140473307949L174.99309895833332,67.64006260541196L175.00805989583333,66.25833557677292L175.06291666666667,64.92139793602324L175.28733072916665,70.29623089606821L175.731171875,68.84149397189594L175.80098958333335,67.43039915604113L176.03288411458334,66.06497476163018L176.21989583333334,64.73383794675404L177.34445963541665,63.432622825878646L177.55141927083335,68.8955065715676L177.72845703125,67.47945380263693L177.97032552083334,72.77754507800122L178.00024739583333,71.2350187427958L178.13240234375,69.7521181854771L178.37177734375,68.30035465800071L178.73582682291666,66.90883160052446L179.88033854166665,65.5557166587725L180.07981770833334,64.24319516565534L180.82038411458333,62.973386894095654L180.89768229166668,61.73833529461643L180.91763020833335,60.53699766703654L181.71305338541666,59.378375321390536L182.08707682291666,58.241161659073356L182.57580078125,57.144739241408914L182.91990234375,56.07453466200982L183.09444661458335,55.0397734783423L183.09694010416666,54.036055130407014L183.30639322916667,53.05911107500698L183.70036458333334,52.108137765065955L183.9746484375,51.202381218320994L184.18410156250002,57.095584876550475L184.49080078125,56.040204916180286L184.76508463541666,61.67146123430255L184.95209635416666,60.47212983020002L185.0817578125,65.97376597595574L185.79489583333333,64.64870300585785L185.81983072916665,63.35671677227679L185.82481770833334,62.106827702299384L186.23375,60.877747740908944L186.73743489583333,59.70556531863244L186.98678385416667,65.2368732317547L187.01421223958334,63.917229480930274L187.14886067708335,62.63050020830039L187.6251171875,61.38237281401405L187.69742838541669,60.308526691063776L187.74231119791668,59.14340848988193L187.94927083333334,58.00323110568446L188.13628255208332,56.91394660683089L188.21358072916667,55.84065307937477L188.32828124999997,55.58053341014915L188.51279947916666,54.740817253641126L188.61752604166665,53.719367619766615L188.78209635416667,59.42358662574426L189.2758072916667,58.27500389787754L189.3780403645833,63.81585384019128L189.6298828125,62.55886581227471L190.25076171875,72.99747472534577L190.83922526041667,71.46170049421124L191.12098958333334,76.63364951172646L191.47007812500001,74.98545246059062L191.87152994791668,73.38670132111457L191.94134765625,71.83257513954767L192.0535546875,70.32841031993249L193.09832682291668,75.51767047806635L193.18310546875,73.88960281099457L193.28035156250002,72.32038958493142L195.15046875,70.80826548492823L195.1529622395833,69.3281551207363L195.1953515625,68.01593552948505L195.43722005208332,74.63626990624073L195.56438802083332,73.02796942215339L195.77134765625001,71.47459278717218L195.96583984375,69.9811674386026L196.81113281249998,68.53922000335099L196.95824869791664,67.13385583844462L197.41455729166665,65.77065259855328L197.41705078125,64.42164548136513L197.44946614583336,63.14314612870251L197.80104817708332,61.90633933306782L197.92572265625,60.699961588571725L198.12270833333335,59.52310034196618L198.17507161458335,60.72780734523392L198.63886067708333,59.56012313686084L198.70618489583333,58.400769480229656L198.78098958333334,57.29288399700778L198.97797526041666,56.21489750193072L199.26971354166668,55.16591302535202L200.62367838541667,54.16842322316387L200.63365234375001,53.20085811507382L200.7109505208333,52.25898238386591L200.80071614583335,51.34536292462304L200.92788411458335,50.45915204918453L201.11738932291667,56.26785235040447L201.763203125,55.233966792150376L201.96517578125,54.23109780067193L202.65337890625,53.25163972618261L202.75810546875002,52.33827809767315L203.04236328125,51.425617343493755L203.35654296875,50.52698642468796L203.42137369791666,49.66866442074075L203.71061848958334,48.8360920769313L204.09461588541666,48.001796928907886L204.23425130208335,47.212555457108095L204.36141927083335,46.426966407713515L204.41627604166666,52.35663227737754L204.49856119791664,51.4300709106142L204.5608984375,50.52796880848083L204.95985677083334,49.66294218031002L205.15434895833332,48.82720392738989L205.20671223958334,48.016537822071705L205.20920572916665,47.230191699926515L205.21419270833331,46.470773537848586L205.46852864583332,45.73080034425469L205.47600911458335,45.01636392286999L205.57574869791665,44.31334786496697L205.86000651041667,43.61807230153953L206.27143229166668,42.967017721466235L206.64545572916666,42.332157202413825L206.83246744791666,41.71300492255122L206.98457031249998,41.11576478748237L207.4084635416667,40.53644185647286L207.75505859375,39.947798638858444L208.82725911458334,39.38682712866027L208.92949218750002,38.86270990382508L208.94195963541665,38.33762863207989L209.05915364583333,37.84164978576335L209.20876302083335,37.350537893960556L209.26611328125,36.884171769797476L209.48304687499999,36.41844664209321L209.92190104166667,35.98004325549491L209.93935546875002,35.558129546888324L211.61248697916668,35.14553567315382L211.70225260416666,34.748657192024666L212.29819661458333,34.33698509079215L212.37549479166665,33.95435039797106L213.11855468750002,33.59320747510678L213.16343750000001,33.236223687151686L213.36291666666665,32.893286989227576L213.51751302083335,34.5831633733815L213.6870703125,34.20315606125806L214.26306640625,33.82453623933181L214.26805338541666,33.467287741234784L214.58223307291667,33.114081545303634L214.689453125,32.7748091116422L214.98617838541665,32.442377274602975L215.5172916666667,32.113243558186376L215.64445963541667,31.807333840533747L216.0035221354167,31.510601414412385L216.12071614583334,31.21275823190739L216.2005078125,30.9138379339991L216.41245442708333,30.64391038507819L216.70169921875,30.37206793345751L216.71915364583333,30.108380755386683L216.74658203125,29.859279345438313L217.11811197916668,29.620988554179L217.4297981770833,29.38984648665848L217.74397786458331,29.162301104774997L218.08309244791667,28.938244507959375L218.25763671875,28.720909609049077L218.53940104166668,28.5067571807174L218.93586588541666,28.30904205440498L219.1827213541667,28.117258381882625L219.66147135416665,27.931228219536607L219.76619791666667,27.737428974792394L219.94822265625,27.562793694660286L220.09035156250002,27.3867223201537L221.36203125,27.209258252392708L221.53158854166665,27.04713051754471L221.72358723958334,26.889866614742587L221.75849609375,26.73398305263551L221.85574218750003,26.586113573781507L221.93553385416666,26.446017755682973L222.21231119791665,26.300112082959384L222.69355468749998,26.14857116953833L222.86560546874998,26.021601623568117L222.96534505208334,25.898441163977296L223.4116796875,25.778975518174505L223.46902994791665,25.659756265356588L223.65853515625,25.547451166512896L223.94777994791667,25.435177644245307L224.01011718750001,25.3296099040354L224.33676432291665,25.21719646686371L224.35421875,25.114830585586258L224.41156901041666,25.01219810435787L224.49385416666667,24.91264459756651L224.50382812499998,24.80272770871025L224.66590494791666,24.712795890178064L224.82798177083333,24.622224449812585L225.29177083333335,24.531032576268828L225.38901692708333,24.44925161171031L225.42891276041667,24.36658649969927L225.78797526041666,24.28640134104867L225.85280598958332,24.215296889936493L225.94506510416667,30.79462559796564L226.47617838541666,30.52493684275253L226.57342447916668,30.263338750196162L226.57841145833333,30.00958860041678L226.77539713541665,29.76678853152046L226.90007161458334,29.531272464691337L226.94744791666665,29.289471892598606L227.20178385416665,29.061600172158872L227.86006510416667,28.837227026943218L228.14182942708334,28.61958507608426L228.2291015625,28.41848511291937L229.28384765625,28.223418148649625L229.60301432291666,28.0308656169188L230.02690755208334,27.847427237529402L230.47822916666667,27.66281685674313L230.61786458333336,30.310607336754355L230.71511067708332,30.045426718500593L231.01931640625,29.784863942405305L231.12154947916665,29.535455625982422L231.23874348958333,29.293529559052406L231.32352213541665,29.06887368500973L231.47562499999998,28.854295063577837L231.52050781250003,28.646153800789058L231.70751953125,28.444256775884067L232.08403645833332,28.248416661726367L232.21369791666666,28.055114174604178L232.56278645833333,27.870948338485107L233.16870442708336,27.67561991379178L233.79706380208336,27.502838905497292L234.198515625,27.325228598283687L234.318203125,27.14293418940738L234.80194010416665,26.98613375284471L234.88173177083334,26.834037329379L234.9016796875,26.686503798617313L235.02635416666666,26.543396273778576L235.37294921875,26.397906821906368L235.41035156249998,26.246769642711172L235.574921875,26.106841413381762L235.8891015625,25.981123760100314L236.10104817708333,25.855840060028036L236.23569661458333,25.73431487095796L236.43018880208334,25.61643543756005L236.78426432291667,25.492079976284916L236.93387369791665,25.384805166116593L236.97376953124999,25.28074860025338L237.01366536458332,25.176476154976754L237.10592447916667,25.075331883058475L237.30540364583334,24.977221939297788L237.489921875,24.885392870239254L237.68192057291665,24.79631867325253L238.15069661458332,24.70991670217541L238.22799479166667,24.619431637451967L238.31027994791668,24.531661124670258L238.46986328124999,24.449861303661326L238.567109375,24.37051547728271L238.59453776041667,24.296887602084794L238.75162760416669,24.218793410364203L239.34009114583333,24.14971719717388L239.41240234375,24.082713270379273L239.57946614583332,24.017719461388545L240.50455078125,23.954675466667528L240.89104166666667,23.89352279178817L240.9783138020833,23.830867120765873L240.99576822916666,23.770091119874273L241.32241536458335,23.71447597539875L241.35483072916665,23.65385413247883L241.46953125000002,23.598388521235865L241.53436197916668,23.544586878330193L241.66901041666665,23.489061708322374L241.89093098958332,23.44187744619345L242.85092447916665,23.3961087119284L242.99305338541666,23.351713039691298L243.25736328125,23.308649237621303L243.41944010416665,23.263539773224117L243.53164713541668,23.219783592758862L243.90816406250002,23.170664944928912L243.9380859375,23.12969500931251L244.43678385416666,23.09329174815392L244.5963671875,29.722967855675645L244.67366536458334,29.485428832736464L244.70608072916664,29.25501598048549L245.29703776041669,29.031515513802074L245.46410156250002,28.8180576375085L246.04508463541666,28.600990768335777L246.27448567708333,28.3971110580169L246.39666666666668,28.192672586229L246.6634700520833,34.672704844994634L247.25442708333335,34.279998559597104L247.51125651041667,33.902411039150884L247.723203125,33.53615114431807L247.76309895833333,33.18755419910891L248.71561197916668,32.84607758586674L248.75800130208333,32.51818284741117L249.03477864583334,32.2001249511093L249.08215494791665,31.888271215307196L249.28412760416666,31.575760680700004L249.42376302083335,31.282637873010238L249.43872395833333,30.998308749551157L249.94240885416667,30.72250949979587L250.11445963541667,30.451646651143953L250.146875,30.192247264340917L250.47352213541666,29.933954706363384L251.64546223958334,29.693423654293092L252.02945963541666,29.460108533784958L252.07932942708334,29.23045529050276L252.59298828125,29.004354068129715L252.83735026041668,28.791711035206497L252.95454427083334,28.585447293271017L253.02685546875,35.05035873443106L253.40087890625,34.65633556151869L253.45074869791668,34.27079550740439L253.45822916666665,33.900159231302865L253.61282552083333,33.54064204348438L253.67017578124998,33.188572794911146L253.67765625,32.850403200184445L254.17884765624999,32.495678718762655L254.36087239583333,32.174958369931126L254.57281901041665,31.86719720795388L254.63764973958334,31.56533130444663L254.95182942708334,31.255833814386822L255.10891927083335,30.972308812686627L255.94922526041665,30.697289561037422L256.15618489583335,30.433858463327024L256.30330078125,30.171655145769332L256.30828776041665,29.923993080516986L256.3855859375,29.68042330083291L256.56262369791665,29.434148203660225L257.1461002604167,29.208611346671198L257.38796874999997,28.979827866223886L258.00635416666665,28.76458304296862L258.51003906249997,28.559133140800338L259.0785546875,28.35984673569714L259.4775130208333,28.15986376996838L260.27293619791664,27.959205458721666L260.3627018229167,35.70447938408374L260.3826497395833,35.29083259168195L260.6619205729167,34.889595203052224L260.7566731770833,34.50039493608139L261.2803059895833,34.1228706771197L261.547109375,33.75333456953754L261.8937044270833,33.39822212157219L261.9610286458333,33.05042547065647L262.27770182291664,32.70972514287893L262.61930989583334,32.385920977713326L262.7589453125,32.07183093750271L262.83873697916664,31.767163598498414L263.0157747395833,31.471636279664253L263.10803385416665,31.181637204005813L263.96330078125004,30.903675677006447L264.1852213541667,30.63405299581707L264.24257161458337,30.365843842284733L264.3921809895833,30.10901853974769L264.41212890625,29.86323557267608L264.62158203125,29.624826094616626L265.0629296875,29.390231324509628L265.26240885416667,29.16601197389516L265.47186197916665,28.941844051020517L265.5716015625,28.727738742221405L265.64640625,28.52339416907562L265.80848307291666,28.325179933124204L265.8882747395833,28.12957454786198L266.85076171875,27.93649974776833L267.19486328125,27.75589234445613L267.3694075520833,27.580703163243278L267.54395182291665,27.41076965746683L267.6387044270833,27.24593415686367L267.8431705729167,27.086043721278603L267.95288411458336,26.93094999876108L268.1024934895833,26.780509087919107L268.29199869791665,26.6345814044024L268.4341276041667,26.493031551391166L268.65604817708333,26.355728193970283L268.7832161458333,26.222543937272047L268.79069661458334,26.086680055496103L268.99017578125,25.96156724295208L269.26445963541664,25.840207814784346L269.28939453124997,25.71581401668306L269.6459635416667,25.60182718530342L269.82798828125,25.481247229697242L270.30673828125003,25.374297401927183L270.4812825520833,25.267218492600925L270.60346354166666,25.160014374165133L270.6483463541667,25.06270153206104L270.8079296875,24.96163292244144L271.17945963541666,24.870271523889052L271.76792317708333,24.78165096729325L271.93,24.685676298227385L272.4661002604167,24.602593598401427L273.05456380208335,24.522003379570247L273.10692708333335,24.44383086730399L273.3188736979167,24.364665954016424L273.32386067708336,24.29121356451681L273.9971028645833,24.219964746702182L274.23897135416667,24.147515817032673L274.28385416666663,24.080577931642548" style="fill: none;" fill="none"></path></g></g></g></g><g opacity="0.2"><g><g><g><path stroke="rgb(204, 51, 17)" stroke-width="2px" d="M25.042115885416667,21.693747878074646L25.17177734375,20.581254243850708L25.35380208333333,244.30500042438507L25.508398437500002,21.137495756149292L25.52086588541667,21.36000084877014L25.618111979166663,243.4150012731552L25.710371093750002,20.803748726844788L25.730319010416665,20.35874915122986L26.119303385416668,243.86000084877014L26.273899739583335,20.692496180534363L26.381119791666666,21.026253819465637L26.39857421875,243.4150012731552L26.518261718749997,24.80874490737915L26.550677083333333,245.52874660491943L26.717740885416667,21.471253395080566L26.95212890625,19.91374957561493L27.465787760416664,244.97250509262085L28.261210937500003,243.86000084877014L28.271184895833333,22.806252121925354L28.390872395833334,243.3037487268448L28.408326822916663,20.35874915122986L28.51804036458333,21.137495756149292L29.153880208333334,245.30625212192535L29.268580729166665,243.3037487268448L29.617669270833336,22.361252546310425L29.717408854166667,244.97250509262085L30.01413411458333,21.026253819465637L30.163743489583332,22.25L30.420572916666668,248.75499618053436L30.57766276041667,20.13625466823578L30.689869791666666,25.03125L30.8943359375,20.915001273155212L31.011529947916667,24.36374533176422L31.133710937500002,21.471253395080566L31.136204427083335,20.803748726844788L31.166126302083335,244.08249533176422L31.250904947916666,28.813751697540283L31.632408854166666,243.6374957561493L31.76955078125,244.97250509262085L32.51261067708333,23.251251697540283L32.991360677083335,21.58249533176422L33.03125651041667,23.13999915122986L33.178372395833335,245.52874660491943L33.958834635416665,21.026253819465637L33.96382161458333,249.1999957561493L34.08849609375,21.471253395080566L34.26553385416667,21.248748302459717L34.44755859375,22.47250509262085L34.46501302083333,21.137495756149292L34.73181640625,20.803748726844788L34.80163411458334,21.693747878074646L35.00111328125,243.4150012731552L35.70178385416667,245.41750466823578L35.90874348958333,21.36000084877014L36.13814453125,253.65000212192535L36.18053385416667,29.258751273155212L36.59694661458334,24.252503395080566L36.876217447916666,20.915001273155212L37.33252604166667,243.6374957561493L37.66914713541667,21.36000084877014L37.73896484375,32.48500084877014L38.26509114583333,23.028746604919434L38.300000000000004,244.19374787807465L38.77376302083333,25.03125L39.09791666666666,247.41999745368958L39.55921223958334,243.86000084877014L39.57666666666667,21.026253819465637L39.666432291666666,20.025002121925354L39.87339192708333,20.692496180534363L40.39702473958334,243.6374957561493L40.6189453125,242.97000169754028L41.32958984375,20.692496180534363L41.40190104166667,20.803748726844788L41.641276041666664,243.6374957561493L41.67119791666667,27.14499533176422L42.02776692708333,21.137495756149292L42.30703776041667,243.3037487268448L42.778307291666664,20.025002121925354L43.34432942708334,25.25375509262085L43.53882161458333,243.74874830245972L44.356686197916666,249.31124830245972L44.381621093750006,20.247496604919434L44.46889322916667,243.74874830245972L45.04987630208333,243.97125339508057L45.33413411458333,21.58249533176422L45.436367187500004,243.86000084877014L45.79044270833333,246.97499787807465L45.8253515625,35.71125042438507L46.127063802083335,243.19249618053436L46.15199869791667,21.248748302459717L46.38389322916667,253.53874957561493L47.07458984375,23.251251697540283L47.19926432291667,243.19249618053436L47.21671875,21.026253819465637L47.361341145833336,22.583747029304504L48.027102864583334,247.30874490737915L48.54574869791667,22.806252121925354L48.760188802083334,22.361252546310425L48.79260416666666,21.80500042438507L49.11925130208333,243.74874830245972L49.640390624999995,249.9787529706955L50.560488281249995,26.811248302459717L50.57794270833334,20.470001697540283L50.86718750000001,242.63625466823578L51.06666666666666,243.3037487268448L51.173886718750005,20.35874915122986L51.38583333333333,245.30625212192535L52.128893229166664,249.42250084877014L52.28099609375,21.36000084877014L52.30094401041667,25.03125L52.41564453125,244.19374787807465L53.692311197916666,243.97125339508057L53.77708984375,42.38625466823578L54.07381510416666,243.3037487268448L55.58237630208333,247.08625042438507L56.53239583333334,21.026253819465637L57.046054687499996,243.6374957561493L57.20065104166667,243.97125339508057L57.43753255208333,20.470001697540283L57.504856770833335,31.150002121925354L57.62454427083333,257.5437457561493L58.35513671875,21.80500042438507L58.714199218750004,25.142502546310425L58.8413671875,243.19249618053436L59.37248046875,249.1999957561493L59.55699869791667,21.58249533176422L60.04572265625,248.75499618053436L60.397304687500004,21.026253819465637L60.57932942708333,20.581254243850708L60.68904296875,20.247496604919434L60.96083333333333,21.36000084877014L61.43708984375,257.6549983024597L61.51189453125,21.471253395080566L61.55927083333333,245.0837470293045L61.788671875,21.471253395080566L61.8634765625,243.19249618053436L62.023059895833335,20.915001273155212L62.07043619791666,20.803748726844788L63.147623697916664,249.08875381946564L63.51915364583333,21.36000084877014L63.524140624999994,244.30500042438507L63.603932291666666,21.026253819465637L64.18491536458333,244.75L64.24475911458333,20.692496180534363L65.12246744791668,21.471253395080566L65.4541015625,245.19499957561493L65.6336328125,20.581254243850708L66.57118489583334,20.915001273155212L66.85045572916667,243.86000084877014L67.07486979166666,259.9912487268448L67.49128255208333,22.361252546310425L67.56858072916667,20.803748726844788L68.05481119791666,27.478752970695496L68.11714843749999,21.36000084877014L68.17200520833333,245.75125169754028L68.68067708333334,21.80500042438507L68.7155859375,243.6374957561493L68.78789713541667,20.692496180534363L68.80784505208332,242.97000169754028L69.98227864583333,21.248748302459717L70.944765625,22.69499957561493L72.20896484375001,20.915001273155212L72.60293619791666,21.471253395080566L72.73509114583334,22.25L72.98942708333334,28.70249915122986L73.63773437500001,22.69499957561493L73.90952473958333,23.251251697540283L73.94443359375,257.87750339508057L74.13643229166667,20.692496180534363L74.42318359375,251.6474987268448L74.65258463541667,21.36000084877014L74.79471354166667,21.137495756149292L74.89445312500001,243.19249618053436L74.9393359375,243.6374957561493L74.96177734375,61.743752121925354L75.15128255208333,243.4150012731552L75.41559244791667,21.137495756149292L75.43554036458333,21.36000084877014L75.612578125,26.588753819465637L75.90431640624999,249.08875381946564L76.20852213541666,259.87999618053436L76.24841796875,21.471253395080566L76.749609375,22.583747029304504L76.75708984375,20.915001273155212L76.87927083333334,243.19249618053436L76.93911458333334,21.58249533176422L77.50014973958334,247.64250254631042L77.65973307291667,20.35874915122986L77.82180989583334,21.36000084877014L77.87916015625,21.137495756149292L78.09609375000001,22.806252121925354L78.275625,243.6374957561493L78.604765625,243.6374957561493L79.41514973958334,26.92250084877014L79.80912109375,24.697502970695496L80.40506510416667,21.80500042438507L80.52225911458333,242.52500212192535L80.68682942708334,243.4150012731552L80.97108723958334,21.137495756149292L81.88869140625,244.52749490737915L82.63175130208333,20.803748726844788L82.65668619791667,243.19249618053436L82.76639973958333,24.80874490737915L82.83123046875,22.69499957561493L82.9434375,257.76625084877014L83.00078776041666,21.026253819465637L83.18779947916667,21.36000084877014L83.35236979166667,245.41750466823578L83.63413411458335,21.471253395080566L83.95828776041667,245.0837470293045L83.98571614583334,21.248748302459717L84.0355859375,21.026253819465637L84.62654296875,243.52625381946564L84.97812499999999,39.716246604919434L85.14768229166667,243.74874830245972L85.48430338541667,55.18000042438507L85.48929036458334,21.471253395080566L85.58404296875,243.74874830245972L86.57395833333334,244.30500042438507L86.59390625,20.581254243850708L87.0277734375,243.19249618053436L87.11005859375001,21.58249533176422L87.29457682291667,21.248748302459717L87.39182291666665,21.36000084877014L87.60626302083334,21.471253395080566L87.90548177083333,20.35874915122986L88.10246744791667,21.137495756149292L88.24958333333333,21.026253819465637L88.98516276041667,243.0812542438507L89.29934244791667,21.026253819465637L89.38661458333334,21.36000084877014L89.5711328125,243.52625381946564L89.93268880208333,27.478752970695496L89.99502604166668,243.86000084877014L90.154609375,20.803748726844788L90.18951822916667,245.19499957561493L90.77299479166666,244.63874745368958L90.94005859375,21.026253819465637L91.7554296875,22.806252121925354L91.75792317708333,42.497496604919434L91.83522135416666,20.470001697540283L92.61568359374999,21.471253395080566L92.64560546874999,20.581254243850708L92.65557942708332,20.692496180534363L92.65807291666665,20.692496180534363L92.94482421875,245.63999915122986L93.52082031249999,20.803748726844788L93.76518229166668,23.028746604919434L93.80757161458334,243.52625381946564L94.54564453125,247.97624957561493L94.63042317708333,23.584998726844788L94.67530598958334,21.137495756149292L95.55550781250001,253.76125466823578L95.87966145833333,244.08249533176422L96.1090625,20.915001273155212L96.18137369791667,243.97125339508057L96.27861979166666,20.35874915122986L97.17378255208332,242.97000169754028L97.23861328125001,247.64250254631042L97.34084635416666,21.58249533176422L97.40318359375,21.58249533176422L97.74977864583333,243.52625381946564L97.904375,242.97000169754028L98.42302083333334,21.471253395080566L98.46291666666667,247.30874490737915L98.772109375,243.0812542438507L99.11122395833333,21.36000084877014L99.31569010416668,21.58249533176422L99.75454427083332,26.699995756149292L99.81937500000001,20.803748726844788L99.97147786458333,37.49124872684479L100.17594401041666,24.36374533176422L100.34799479166666,243.97125339508057L100.45022786458333,246.0849987268448L100.55744791666667,21.248748302459717L100.88658854166667,246.75250339508057L100.91401692708334,23.807503819465637L101.26809244791666,23.13999915122986L101.50248046875,21.137495756149292L101.53738932291667,21.248748302459717L103.24792317708334,20.692496180534363L103.34018229166666,21.58249533176422L103.97103515625,21.137495756149292L104.25030598958332,21.58249533176422L104.4123828125,21.471253395080566L104.42983723958332,23.028746604919434L104.56947265625,243.86000084877014L104.59191406250001,243.97125339508057L104.73902994791666,22.47250509262085L104.7714453125,20.692496180534363L105.16292317708333,21.248748302459717L105.24520833333334,31.706254243850708L105.81372395833334,243.97125339508057L106.08052734374999,20.581254243850708L106.36727864583332,21.137495756149292L106.48945963541667,20.581254243850708L106.62909505208333,24.58625042438507L106.95823567708334,243.97125339508057L106.97818359374999,21.58249533176422L107.30732421875001,257.43250381946564L107.60155598958333,21.026253819465637L107.66888020833333,30.927497029304504L107.67386718750001,243.3037487268448L107.89828125,23.473746180534363L108.07282552083333,244.19374787807465L108.15760416666666,22.69499957561493L108.227421875,25.25375509262085L109.03780598958333,20.35874915122986L109.06024739583333,20.803748726844788L109.09016927083333,243.97125339508057L109.13754557291668,243.86000084877014L109.17993489583334,21.58249533176422L109.31458333333333,245.41750466823578L109.34450520833333,20.803748726844788L109.40684244791666,21.026253819465637L109.4991015625,21.137495756149292L109.75842447916668,244.08249533176422L109.80580078125,269.6699974536896L110.0676171875,21.026253819465637L110.61867838541666,21.137495756149292L110.67104166666667,21.248748302459717L110.80818359375,243.19249618053436L111.0251171875,243.86000084877014L111.20963541666666,21.137495756149292L111.6684375,21.137495756149292L113.03985677083334,21.471253395080566L113.09222005208333,25.03125L113.11216796875,21.36000084877014L113.14957031249999,21.36000084877014L113.41388020833334,21.248748302459717L113.63829427083333,21.471253395080566L114.13200520833334,20.35874915122986L114.14945963541666,251.9812457561493L114.32649739583333,262.99500381946564L114.5858203125,21.471253395080566L114.62820963541667,26.588753819465637L114.7952734375,21.137495756149292L115.31641276041667,21.137495756149292L115.38872395833333,20.470001697540283L116.27141927083333,21.58249533176422L116.34622395833333,21.693747878074646L116.39360026041668,20.803748726844788L116.61552083333333,256.43125212192535L116.74518229166667,243.6374957561493L116.82248046875,21.137495756149292L116.96460937500001,20.35874915122986L117.61790364583334,35.26625084877014L117.70018880208333,20.581254243850708L118.33104166666668,252.42624533176422L119.10152994791667,244.08249533176422L119.38080078125,21.137495756149292L120.16874348958333,21.36000084877014L120.30588541666667,21.58249533176422L120.78463541666667,21.026253819465637L120.82453124999999,22.806252121925354L120.85195963541666,243.86000084877014L121.29081380208333,31.928748726844788L121.43543619791666,243.6374957561493L121.48530598958334,20.581254243850708L121.78452473958335,271.4499957561493L122.13610677083334,19.91374957561493L122.19595052083334,21.137495756149292L122.53506510416666,257.6549983024597L122.77444010416667,243.19249618053436L122.92155598958334,21.471253395080566L122.948984375,21.248748302459717L123.93391276041667,21.58249533176422L124.00373046874999,21.916252970695496L124.1308984375,21.80500042438507L124.37276692708333,21.248748302459717L124.45006510416667,21.58249533176422L124.46253255208333,243.6374957561493L124.72684244791667,21.471253395080566L125.41504557291667,21.58249533176422L125.92371744791667,20.692496180534363L126.29026041666665,243.86000084877014L126.33015625,21.471253395080566L126.34013020833333,21.026253819465637L126.42241536458333,244.19374787807465L126.47228515625001,21.693747878074646L126.65430989583334,20.915001273155212L127.27020182291668,255.875L127.48962890624999,23.251251697540283L127.77887369791667,243.3037487268448L128.0207421875,243.74874830245972L128.19029947916667,21.026253819465637L128.394765625,20.581254243850708L128.514453125,271.4499957561493L128.55434895833332,25.587502121925354L129.34229166666668,243.4150012731552L129.6963671875,243.74874830245972L129.99807942708333,21.026253819465637L130.27236328125,21.471253395080566L130.50924479166667,21.471253395080566L130.78602213541666,21.58249533176422L130.83090494791665,244.19374787807465L131.35453776041666,21.026253819465637L132.06767578125002,21.248748302459717L132.11006510416667,21.36000084877014L132.20731119791668,20.803748726844788L132.85063151041666,20.35874915122986L133.44906901041668,21.693747878074646L133.53634114583332,22.69499957561493L133.67098958333332,21.693747878074646L133.75078125,21.137495756149292L133.93031249999999,244.08249533176422L133.99763671875,21.36000084877014L134.00761067708333,20.915001273155212L134.16470052083335,21.026253819465637L134.60106119791666,243.19249618053436L134.6334765625,21.36000084877014L134.83295572916666,21.916252970695496L134.8429296875,21.471253395080566L134.93269531250002,21.248748302459717L135.14962890625,242.97000169754028L135.16708333333332,21.248748302459717L135.276796875,20.803748726844788L135.40895182291666,22.806252121925354L136.10962239583333,21.471253395080566L136.25923177083334,242.85874915122986L136.65070963541666,23.13999915122986L136.68561848958333,21.58249533176422L137.05465494791667,21.026253819465637L137.40374348958332,21.026253819465637L137.91740234374998,21.58249533176422L137.93984375,21.248748302459717L138.07199869791668,21.248748302459717L138.40861979166667,21.693747878074646L138.49838541666665,21.80500042438507L138.78513671875,243.97125339508057L139.23645833333333,21.693747878074646L139.72019531249998,21.248748302459717L139.86232421875,25.364997029304504L140.05930989583334,21.471253395080566L140.14907552083332,21.916252970695496L140.43083984375,21.36000084877014L140.47073567708333,21.471253395080566L140.66772135416667,21.693747878074646L140.88216145833334,21.693747878074646L142.62511067708334,244.30500042438507L142.73233072916665,21.80500042438507L142.88194010416666,21.471253395080566L142.93180989583334,21.58249533176422L143.22105468750001,21.471253395080566L143.35071614583333,21.693747878074646L143.50032552083331,21.137495756149292L143.59009114583333,20.803748726844788L143.72224609375,21.693747878074646L143.76463541666666,23.028746604919434L143.79954427083334,21.80500042438507L143.85938802083334,244.30500042438507L143.88930989583332,21.36000084877014L143.98655598958334,21.36000084877014L144.02146484375,21.916252970695496L144.33065755208332,21.80500042438507L144.492734375,20.470001697540283L144.55008463541665,21.693747878074646L144.81439453125,21.693747878074646L145.0762109375,21.36000084877014L145.19091145833335,21.471253395080566L145.92649088541668,244.19374787807465L146.72939453125,21.58249533176422L147.07349609375,64.30250233411789L147.79660807291665,21.58249533176422L147.93125651041666,21.36000084877014L147.99359375,21.36000084877014L148.3077734375,21.36000084877014L148.50974609375,21.026253819465637L148.66184895833334,21.471253395080566L148.70922526041667,21.916252970695496L149.62682942708335,21.80500042438507L149.75150390625,21.80500042438507L149.9833984375,21.80500042438507L150.02329427083333,22.69499957561493L150.09809895833334,243.6374957561493L150.28012369791668,244.08249533176422L150.56438151041667,21.36000084877014L151.1802734375,21.80500042438507L151.18526041666667,245.30625212192535L151.65403645833334,21.248748302459717L152.05299479166666,262.32749915122986L152.43948567708333,21.471253395080566L152.67138020833332,21.137495756149292L152.80852213541667,20.915001273155212L152.95813151041668,21.693747878074646L153.97547526041666,245.75125169754028L154.09516276041666,21.80500042438507L154.11511067708332,38.826247453689575L154.4841471354167,247.64250254631042L154.60134114583335,21.471253395080566L154.76591145833333,21.471253395080566L155.18980468750001,244.86125254631042L155.3269466145833,21.026253819465637L155.47904947916666,21.58249533176422L155.56382812500001,21.58249533176422L155.87052734374998,244.97250509262085L155.91541015624998,21.137495756149292L156.29940755208335,29.815003395080566L156.59862630208335,249.75624787807465L156.85794921875,20.35874915122986L156.940234375,247.64250254631042L157.09981770833335,21.36000084877014L157.12475260416667,21.693747878074646L157.32173828125,44.83375233411789L157.359140625,21.916252970695496L158.0922265625,21.471253395080566L158.11217447916667,20.915001273155212L158.25929036458334,243.86000084877014L158.29419921874998,366.34625339508057L158.85274088541667,21.471253395080566L158.87019531250002,243.86000084877014L158.88016927083333,278.0137474536896L158.89014322916668,21.137495756149292L159.24172526041664,21.36000084877014L159.32401041666665,243.4150012731552L159.35143880208335,243.74874830245972L159.76535807291665,21.80500042438507L159.80276041666667,21.916252970695496L159.85512369791664,20.915001273155212L159.89252604166666,21.80500042438507L160.1867578125,21.916252970695496L160.74779296875,21.137495756149292L161.1442578125,21.248748302459717L161.1991145833333,269.8925025463104L161.30882812500002,20.915001273155212L161.37864583333334,21.36000084877014L161.59807291666667,21.36000084877014L161.92222656250001,23.251251697540283L162.03443359375,21.36000084877014L162.56055989583334,20.803748726844788L162.82486979166669,21.58249533176422L162.83235026041666,21.58249533176422L162.89718098958335,21.58249533176422L162.97447916666667,21.693747878074646L163.42081380208333,243.97125339508057L163.43328125,21.248748302459717L163.45322916666666,21.471253395080566L163.85717447916664,21.471253395080566L163.98932942708333,21.58249533176422L164.48802734375002,21.58249533176422L164.79971354166665,243.0812542438507L165.3308268229167,21.36000084877014L165.41311197916664,21.137495756149292L165.51783854166666,21.916252970695496L165.64999348958335,21.58249533176422L165.83700520833335,21.58249533176422L165.8719140625,243.4150012731552L165.88936848958332,21.58249533176422L166.08884765624998,298.37249660491943L166.53518229166667,21.36000084877014L166.61746744791668,21.026253819465637L167.06380208333334,21.80500042438507L167.81184895833331,21.58249533176422L167.82680989583332,21.58249533176422L168.27314453124998,21.58249533176422L168.96134765625,21.58249533176422L170.29536458333334,21.471253395080566L170.42253255208334,243.74874830245972L170.65692057291665,289.3612525463104L170.94616536458332,21.916252970695496L171.08330729166667,21.916252970695496L171.15811197916665,21.58249533176422L171.35260416666665,245.0837470293045L171.41992838541668,21.693747878074646L171.46231770833333,21.80500042438507L171.52465494791667,21.471253395080566L172.08818359375,21.137495756149292L172.12807942708332,21.916252970695496L172.14304036458333,21.471253395080566L172.71155598958333,21.693747878074646L172.82875,21.693747878074646L173.13046223958332,21.248748302459717L173.60921223958334,21.248748302459717L173.64910807291665,243.97125339508057L173.72391276041665,21.471253395080566L173.89097656250001,244.4162529706955L173.9258854166667,21.36000084877014L174.76120442708333,21.137495756149292L174.99309895833332,21.36000084877014L175.00805989583333,21.58249533176422L175.06291666666667,21.693747878074646L175.28733072916665,244.08249533176422L175.731171875,21.80500042438507L175.80098958333335,21.80500042438507L176.03288411458334,21.916252970695496L176.21989583333334,21.693747878074646L177.34445963541665,21.36000084877014L177.55141927083335,245.52874660491943L177.72845703125,21.693747878074646L177.97032552083334,244.08249533176422L178.00024739583333,21.36000084877014L178.13240234375,21.80500042438507L178.37177734375,21.36000084877014L178.73582682291666,21.916252970695496L179.88033854166665,21.80500042438507L180.07981770833334,21.80500042438507L180.82038411458333,21.916252970695496L180.89768229166668,21.80500042438507L180.91763020833335,21.693747878074646L181.71305338541666,21.916252970695496L182.08707682291666,21.471253395080566L182.57580078125,21.693747878074646L182.91990234375,21.471253395080566L183.09444661458335,21.58249533176422L183.09694010416666,21.58249533176422L183.30639322916667,21.471253395080566L183.70036458333334,21.36000084877014L183.9746484375,21.916252970695496L184.18410156250002,247.64250254631042L184.49080078125,21.916252970695496L184.76508463541666,243.74874830245972L184.95209635416666,21.693747878074646L185.0817578125,243.86000084877014L185.79489583333333,21.80500042438507L185.81983072916665,21.58249533176422L185.82481770833334,21.693747878074646L186.23375,21.137495756149292L186.73743489583333,21.80500042438507L186.98678385416667,244.08249533176422L187.01421223958334,21.248748302459717L187.14886067708335,21.026253819465637L187.6251171875,21.026253819465637L187.69742838541669,25.587502121925354L187.74231119791668,21.471253395080566L187.94927083333334,21.137495756149292L188.13628255208332,21.693747878074646L188.21358072916667,21.137495756149292L188.32828124999997,47.169997453689575L188.51279947916666,27.58999490737915L188.61752604166665,20.692496180534363L188.78209635416667,243.86000084877014L189.2758072916667,21.137495756149292L189.3780403645833,242.97000169754028L189.6298828125,21.916252970695496L190.25076171875,410.5124957561493L190.83922526041667,21.80500042438507L191.12098958333334,243.86000084877014L191.47007812500001,21.693747878074646L191.87152994791668,21.693747878074646L191.94134765625,21.58249533176422L192.0535546875,21.693747878074646L193.09832682291668,243.3037487268448L193.18310546875,21.248748302459717L193.28035156250002,21.58249533176422L195.15046875,21.916252970695496L195.1529622395833,21.471253395080566L195.1953515625,25.587502121925354L195.43722005208332,288.69374787807465L195.56438802083332,21.026253819465637L195.77134765625001,21.248748302459717L195.96583984375,21.693747878074646L196.81113281249998,21.916252970695496L196.95824869791664,21.693747878074646L197.41455729166665,21.693747878074646L197.41705078125,20.803748726844788L197.44946614583336,21.80500042438507L197.80104817708332,21.916252970695496L197.92572265625,21.693747878074646L198.12270833333335,21.471253395080566L198.17507161458335,99.68000042438507L198.63886067708333,21.80500042438507L198.70618489583333,20.915001273155212L198.78098958333334,21.471253395080566L198.97797526041666,21.36000084877014L199.26971354166668,21.248748302459717L200.62367838541667,21.916252970695496L200.63365234375001,21.916252970695496L200.7109505208333,21.80500042438507L200.80071614583335,21.80500042438507L200.92788411458335,21.80500042438507L201.11738932291667,244.08249533176422L201.763203125,21.80500042438507L201.96517578125,21.80500042438507L202.65337890625,21.58249533176422L202.75810546875002,22.806252121925354L203.04236328125,21.916252970695496L203.35654296875,21.471253395080566L203.42137369791666,21.916252970695496L203.71061848958334,21.916252970695496L204.09461588541666,21.026253819465637L204.23425130208335,21.693747878074646L204.36141927083335,21.026253819465637L204.41627604166666,244.08249533176422L204.49856119791664,21.471253395080566L204.5608984375,21.36000084877014L204.95985677083334,21.693747878074646L205.15434895833332,21.80500042438507L205.20671223958334,21.80500042438507L205.20920572916665,21.80500042438507L205.21419270833331,21.916252970695496L205.46852864583332,21.80500042438507L205.47600911458335,21.916252970695496L205.57574869791665,21.58249533176422L205.86000651041667,21.137495756149292L206.27143229166668,21.916252970695496L206.64545572916666,21.80500042438507L206.83246744791666,21.693747878074646L206.98457031249998,21.80500042438507L207.4084635416667,21.80500042438507L207.75505859375,20.915001273155212L208.82725911458334,21.248748302459717L208.92949218750002,21.916252970695496L208.94195963541665,21.36000084877014L209.05915364583333,21.80500042438507L209.20876302083335,21.471253395080566L209.26611328125,21.80500042438507L209.48304687499999,21.36000084877014L209.92190104166667,21.80500042438507L209.93935546875002,21.916252970695496L211.61248697916668,21.80500042438507L211.70225260416666,21.916252970695496L212.29819661458333,21.026253819465637L212.37549479166665,21.58249533176422L213.11855468750002,21.916252970695496L213.16343750000001,21.693747878074646L213.36291666666665,21.80500042438507L213.51751302083335,89.22249978780746L213.6870703125,21.916252970695496L214.26306640625,21.58249533176422L214.26805338541666,21.916252970695496L214.58223307291667,21.693747878074646L214.689453125,21.80500042438507L214.98617838541665,21.693747878074646L215.5172916666667,21.471253395080566L215.64445963541667,21.916252970695496L216.0035221354167,21.916252970695496L216.12071614583334,21.58249533176422L216.2005078125,21.248748302459717L216.41245442708333,21.916252970695496L216.70169921875,21.58249533176422L216.71915364583333,21.58249533176422L216.74658203125,21.80500042438507L217.11811197916668,21.916252970695496L217.4297981770833,21.916252970695496L217.74397786458331,21.80500042438507L218.08309244791667,21.693747878074646L218.25763671875,21.693747878074646L218.53940104166668,21.58249533176422L218.93586588541666,21.916252970695496L219.1827213541667,21.916252970695496L219.66147135416665,21.916252970695496L219.76619791666667,21.471253395080566L219.94822265625,21.916252970695496L220.09035156250002,21.693747878074646L221.36203125,21.471253395080566L221.53158854166665,21.80500042438507L221.72358723958334,21.80500042438507L221.75849609375,21.693747878074646L221.85574218750003,21.80500042438507L221.93553385416666,21.916252970695496L222.21231119791665,21.58249533176422L222.69355468749998,21.248748302459717L222.86560546874998,21.916252970695496L222.96534505208334,21.916252970695496L223.4116796875,21.916252970695496L223.46902994791665,21.80500042438507L223.65853515625,21.916252970695496L223.94777994791667,21.80500042438507L224.01011718750001,21.916252970695496L224.33676432291665,21.58249533176422L224.35421875,21.80500042438507L224.41156901041666,21.693747878074646L224.49385416666667,21.693747878074646L224.50382812499998,21.248748302459717L224.66590494791666,21.80500042438507L224.82798177083333,21.693747878074646L225.29177083333335,21.58249533176422L225.38901692708333,21.80500042438507L225.42891276041667,21.693747878074646L225.78797526041666,21.693747878074646L225.85280598958332,21.916252970695496L225.94506510416667,243.52625381946564L226.47617838541666,21.80500042438507L226.57342447916668,21.80500042438507L226.57841145833333,21.80500042438507L226.77539713541665,21.916252970695496L226.90007161458334,21.916252970695496L226.94744791666665,21.471253395080566L227.20178385416665,21.693747878074646L227.86006510416667,21.58249533176422L228.14182942708334,21.58249533176422L228.2291015625,21.916252970695496L229.28384765625,21.916252970695496L229.60301432291666,21.80500042438507L230.02690755208334,21.916252970695496L230.47822916666667,21.693747878074646L230.61786458333336,115.9224995225668L230.71511067708332,21.471253395080566L231.01931640625,21.36000084877014L231.12154947916665,21.471253395080566L231.23874348958333,21.471253395080566L231.32352213541665,21.80500042438507L231.47562499999998,21.916252970695496L231.52050781250003,21.916252970695496L231.70751953125,21.916252970695496L232.08403645833332,21.916252970695496L232.21369791666666,21.80500042438507L232.56278645833333,21.916252970695496L233.16870442708336,21.36000084877014L233.79706380208336,21.916252970695496L234.198515625,21.58249533176422L234.318203125,21.248748302459717L234.80194010416665,21.916252970695496L234.88173177083334,21.916252970695496L234.9016796875,21.916252970695496L235.02635416666666,21.916252970695496L235.37294921875,21.693747878074646L235.41035156249998,21.36000084877014L235.574921875,21.58249533176422L235.8891015625,21.916252970695496L236.10104817708333,21.80500042438507L236.23569661458333,21.80500042438507L236.43018880208334,21.80500042438507L236.78426432291667,21.471253395080566L236.93387369791665,21.916252970695496L236.97376953124999,21.916252970695496L237.01366536458332,21.80500042438507L237.10592447916667,21.80500042438507L237.30540364583334,21.80500042438507L237.489921875,21.916252970695496L237.68192057291665,21.916252970695496L238.15069661458332,21.916252970695496L238.22799479166667,21.693747878074646L238.31027994791668,21.693747878074646L238.46986328124999,21.80500042438507L238.567109375,21.80500042438507L238.59453776041667,21.916252970695496L238.75162760416669,21.693747878074646L239.34009114583333,21.916252970695496L239.41240234375,21.916252970695496L239.57946614583332,21.916252970695496L240.50455078125,21.916252970695496L240.89104166666667,21.916252970695496L240.9783138020833,21.80500042438507L240.99576822916666,21.80500042438507L241.32241536458335,21.916252970695496L241.35483072916665,21.693747878074646L241.46953125000002,21.80500042438507L241.53436197916668,21.80500042438507L241.66901041666665,21.693747878074646L241.89093098958332,21.916252970695496L242.85092447916665,21.916252970695496L242.99305338541666,21.916252970695496L243.25736328125,21.916252970695496L243.41944010416665,21.80500042438507L243.53164713541668,21.80500042438507L243.90816406250002,21.58249533176422L243.9380859375,21.80500042438507L244.43678385416666,21.916252970695496L244.5963671875,244.08249533176422L244.67366536458334,21.80500042438507L244.70608072916664,21.80500042438507L245.29703776041669,21.80500042438507L245.46410156250002,21.916252970695496L246.04508463541666,21.58249533176422L246.27448567708333,21.80500042438507L246.39666666666668,21.58249533176422L246.6634700520833,244.19374787807465L247.25442708333335,21.58249533176422L247.51125651041667,21.693747878074646L247.723203125,21.693747878074646L247.76309895833333,21.916252970695496L248.71561197916668,21.80500042438507L248.75800130208333,21.916252970695496L249.03477864583334,21.916252970695496L249.08215494791665,21.80500042438507L249.28412760416666,21.471253395080566L249.42376302083335,21.80500042438507L249.43872395833333,21.80500042438507L249.94240885416667,21.80500042438507L250.11445963541667,21.693747878074646L250.146875,21.80500042438507L250.47352213541666,21.58249533176422L251.64546223958334,21.916252970695496L252.02945963541666,21.916252970695496L252.07932942708334,21.80500042438507L252.59298828125,21.693747878074646L252.83735026041668,21.916252970695496L252.95454427083334,21.916252970695496L253.02685546875,244.08249533176422L253.40087890625,21.916252970695496L253.45074869791668,21.80500042438507L253.45822916666665,21.916252970695496L253.61282552083333,21.916252970695496L253.67017578124998,21.80500042438507L253.67765625,21.916252970695496L254.17884765624999,21.026253819465637L254.36087239583333,21.80500042438507L254.57281901041665,21.916252970695496L254.63764973958334,21.80500042438507L254.95182942708334,21.248748302459717L255.10891927083335,21.80500042438507L255.94922526041665,21.80500042438507L256.15618489583335,21.916252970695496L256.30330078125,21.693747878074646L256.30828776041665,21.916252970695496L256.3855859375,21.80500042438507L256.56262369791665,21.471253395080566L257.1461002604167,21.916252970695496L257.38796874999997,21.58249533176422L258.00635416666665,21.80500042438507L258.51003906249997,21.916252970695496L259.0785546875,21.916252970695496L259.4775130208333,21.693747878074646L260.27293619791664,21.471253395080566L260.3627018229167,286.1350029706955L260.3826497395833,21.916252970695496L260.6619205729167,21.916252970695496L260.7566731770833,21.916252970695496L261.2803059895833,21.916252970695496L261.547109375,21.80500042438507L261.8937044270833,21.916252970695496L261.9610286458333,21.80500042438507L262.27770182291664,21.693747878074646L262.61930989583334,21.916252970695496L262.7589453125,21.916252970695496L262.83873697916664,21.916252970695496L263.0157747395833,21.916252970695496L263.10803385416665,21.80500042438507L263.96330078125004,21.916252970695496L264.1852213541667,21.916252970695496L264.24257161458337,21.693747878074646L264.3921809895833,21.80500042438507L264.41212890625,21.916252970695496L264.62158203125,21.916252970695496L265.0629296875,21.80500042438507L265.26240885416667,21.916252970695496L265.47186197916665,21.693747878074646L265.5716015625,21.80500042438507L265.64640625,21.916252970695496L265.80848307291666,21.916252970695496L265.8882747395833,21.80500042438507L266.85076171875,21.693747878074646L267.19486328125,21.916252970695496L267.3694075520833,21.916252970695496L267.54395182291665,21.916252970695496L267.6387044270833,21.916252970695496L267.8431705729167,21.916252970695496L267.95288411458336,21.916252970695496L268.1024934895833,21.916252970695496L268.29199869791665,21.916252970695496L268.4341276041667,21.916252970695496L268.65604817708333,21.916252970695496L268.7832161458333,21.916252970695496L268.79069661458334,21.693747878074646L268.99017578125,21.916252970695496L269.26445963541664,21.916252970695496L269.28939453124997,21.693747878074646L269.6459635416667,21.916252970695496L269.82798828125,21.58249533176422L270.30673828125003,21.916252970695496L270.4812825520833,21.80500042438507L270.60346354166666,21.693747878074646L270.6483463541667,21.916252970695496L270.8079296875,21.693747878074646L271.17945963541666,21.916252970695496L271.76792317708333,21.916252970695496L271.93,21.58249533176422L272.4661002604167,21.916252970695496L273.05456380208335,21.916252970695496L273.10692708333335,21.916252970695496L273.3188736979167,21.80500042438507L273.32386067708336,21.916252970695496L273.9971028645833,21.916252970695496L274.23897135416667,21.80500042438507L274.28385416666663,21.916252970695496" style="fill: none;" fill="none"></path></g></g></g></g></g></g><g transform="translate(30, 178)" clip-path="url(#clip_1)"><clipPath id="clip_1"><rect width="299" height="22"></rect></clipPath><g><g><line x1="0" y1="0" x2="0" y2="5" style="visibility: inherit;" fill="rgb(0, 0, 0)" stroke="rgb(204, 204, 204)" stroke-width="1px"></line><line x1="24.934895833333332" y1="0" x2="24.934895833333332" y2="5" style="visibility: inherit;" fill="rgb(0, 0, 0)" stroke="rgb(204, 204, 204)" stroke-width="1px"></line><line x1="49.869791666666664" y1="0" x2="49.869791666666664" y2="5" style="visibility: inherit;" fill="rgb(0, 0, 0)" stroke="rgb(204, 204, 204)" stroke-width="1px"></line><line x1="74.8046875" y1="0" x2="74.8046875" y2="5" style="visibility: inherit;" fill="rgb(0, 0, 0)" stroke="rgb(204, 204, 204)" stroke-width="1px"></line><line x1="99.73958333333333" y1="0" x2="99.73958333333333" y2="5" style="visibility: inherit;" fill="rgb(0, 0, 0)" stroke="rgb(204, 204, 204)" stroke-width="1px"></line><line x1="124.67447916666667" y1="0" x2="124.67447916666667" y2="5" style="visibility: inherit;" fill="rgb(0, 0, 0)" stroke="rgb(204, 204, 204)" stroke-width="1px"></line><line x1="149.609375" y1="0" x2="149.609375" y2="5" style="visibility: inherit;" fill="rgb(0, 0, 0)" stroke="rgb(204, 204, 204)" stroke-width="1px"></line><line x1="174.54427083333334" y1="0" x2="174.54427083333334" y2="5" style="visibility: inherit;" fill="rgb(0, 0, 0)" stroke="rgb(204, 204, 204)" stroke-width="1px"></line><line x1="199.47916666666666" y1="0" x2="199.47916666666666" y2="5" style="visibility: inherit;" fill="rgb(0, 0, 0)" stroke="rgb(204, 204, 204)" stroke-width="1px"></line><line x1="224.4140625" y1="0" x2="224.4140625" y2="5" style="visibility: inherit;" fill="rgb(0, 0, 0)" stroke="rgb(204, 204, 204)" stroke-width="1px"></line><line x1="249.34895833333334" y1="0" x2="249.34895833333334" y2="5" style="visibility: inherit;" fill="rgb(0, 0, 0)" stroke="rgb(204, 204, 204)" stroke-width="1px"></line><line x1="274.28385416666663" y1="0" x2="274.28385416666663" y2="5" style="visibility: inherit;" fill="rgb(0, 0, 0)" stroke="rgb(204, 204, 204)" stroke-width="1px"></line><line x1="299.21875" y1="0" x2="299.21875" y2="5" style="visibility: inherit;" fill="rgb(0, 0, 0)" stroke="rgb(204, 204, 204)" stroke-width="1px"></line></g><g transform="translate(0, 8)"><text x="0" y="0" dx="0em" dy="0.95em" style="text-anchor: middle; visibility: hidden; font-family: Roboto, sans-serif; font-size: 12px; font-weight: 200;" fill="rgb(50, 49, 63)" stroke="none" stroke-width="1px">-10k</text><text x="24.934895833333332" y="0" dx="0em" dy="0.95em" style="text-anchor: middle; visibility: inherit; font-family: Roboto, sans-serif; font-size: 12px; font-weight: 200;" fill="rgb(50, 49, 63)" stroke="none" stroke-width="1px">0</text><text x="49.869791666666664" y="0" dx="0em" dy="0.95em" style="text-anchor: middle; visibility: hidden; font-family: Roboto, sans-serif; font-size: 12px; font-weight: 200;" fill="rgb(50, 49, 63)" stroke="none" stroke-width="1px">10k</text><text x="74.8046875" y="0" dx="0em" dy="0.95em" style="text-anchor: middle; visibility: inherit; font-family: Roboto, sans-serif; font-size: 12px; font-weight: 200;" fill="rgb(50, 49, 63)" stroke="none" stroke-width="1px">20k</text><text x="99.73958333333333" y="0" dx="0em" dy="0.95em" style="text-anchor: middle; visibility: hidden; font-family: Roboto, sans-serif; font-size: 12px; font-weight: 200;" fill="rgb(50, 49, 63)" stroke="none" stroke-width="1px">30k</text><text x="124.67447916666667" y="0" dx="0em" dy="0.95em" style="text-anchor: middle; visibility: inherit; font-family: Roboto, sans-serif; font-size: 12px; font-weight: 200;" fill="rgb(50, 49, 63)" stroke="none" stroke-width="1px">40k</text><text x="149.609375" y="0" dx="0em" dy="0.95em" style="text-anchor: middle; visibility: hidden; font-family: Roboto, sans-serif; font-size: 12px; font-weight: 200;" fill="rgb(50, 49, 63)" stroke="none" stroke-width="1px">50k</text><text x="174.54427083333334" y="0" dx="0em" dy="0.95em" style="text-anchor: middle; visibility: inherit; font-family: Roboto, sans-serif; font-size: 12px; font-weight: 200;" fill="rgb(50, 49, 63)" stroke="none" stroke-width="1px">60k</text><text x="199.47916666666666" y="0" dx="0em" dy="0.95em" style="text-anchor: middle; visibility: hidden; font-family: Roboto, sans-serif; font-size: 12px; font-weight: 200;" fill="rgb(50, 49, 63)" stroke="none" stroke-width="1px">70k</text><text x="224.4140625" y="0" dx="0em" dy="0.95em" style="text-anchor: middle; visibility: inherit; font-family: Roboto, sans-serif; font-size: 12px; font-weight: 200;" fill="rgb(50, 49, 63)" stroke="none" stroke-width="1px">80k</text><text x="249.34895833333334" y="0" dx="0em" dy="0.95em" style="text-anchor: middle; visibility: hidden; font-family: Roboto, sans-serif; font-size: 12px; font-weight: 200;" fill="rgb(50, 49, 63)" stroke="none" stroke-width="1px">90k</text><text x="274.28385416666663" y="0" dx="0em" dy="0.95em" style="text-anchor: middle; visibility: inherit; font-family: Roboto, sans-serif; font-size: 12px; font-weight: 200;" fill="rgb(50, 49, 63)" stroke="none" stroke-width="1px">100k</text><text x="299.21875" y="0" dx="0em" dy="0.95em" style="text-anchor: middle; visibility: hidden; font-family: Roboto, sans-serif; font-size: 12px; font-weight: 200;" fill="rgb(50, 49, 63)" stroke="none" stroke-width="1px">110k</text></g><line x1="0" y1="0" x2="299.21875" y2="0" fill="rgb(0, 0, 0)" stroke="rgb(204, 204, 204)" stroke-width="1px"></line></g></g></g></g></svg>