<svg viewBox="0 0 330 200" xmlns="http://www.w3.org/2000/svg"><g><g><g><g><g><line x1="72.34375" y1="178" x2="67.34375" y2="178" style="visibility: inherit;" fill="rgb(0, 0, 0)" stroke="rgb(204, 204, 204)" stroke-width="1px"></line><line x1="72.34375" y1="164.30769230769232" x2="67.34375" y2="164.30769230769232" style="visibility: inherit;" fill="rgb(0, 0, 0)" stroke="rgb(204, 204, 204)" stroke-width="1px"></line><line x1="72.34375" y1="150.6153846153846" x2="67.34375" y2="150.6153846153846" style="visibility: inherit;" fill="rgb(0, 0, 0)" stroke="rgb(204, 204, 204)" stroke-width="1px"></line><line x1="72.34375" y1="136.9230769230769" x2="67.34375" y2="136.9230769230769" style="visibility: inherit;" fill="rgb(0, 0, 0)" stroke="rgb(204, 204, 204)" stroke-width="1px"></line><line x1="72.34375" y1="123.23076923076923" x2="67.34375" y2="123.23076923076923" style="visibility: inherit;" fill="rgb(0, 0, 0)" stroke="rgb(204, 204, 204)" stroke-width="1px"></line><line x1="72.34375" y1="109.53846153846155" x2="67.34375" y2="109.53846153846155" style="visibility: inherit;" fill="rgb(0, 0, 0)" stroke="rgb(204, 204, 204)" stroke-width="1px"></line><line x1="72.34375" y1="95.84615384615384" x2="67.34375" y2="95.84615384615384" style="visibility: inherit;" fill="rgb(0, 0, 0)" stroke="rgb(204, 204, 204)" stroke-width="1px"></line><line x1="72.34375" y1="82.15384615384616" x2="67.34375" y2="82.15384615384616" style="visibility: inherit;" fill="rgb(0, 0, 0)" stroke="rgb(204, 204, 204)" stroke-width="1px"></line><line x1="72.34375" y1="68.46153846153845" x2="67.34375" y2="68.46153846153845" style="visibility: inherit;" fill="rgb(0, 0, 0)" stroke="rgb(204, 204, 204)" stroke-width="1px"></line><line x1="72.34375" y1="54.769230769230774" x2="67.34375" y2="54.769230769230774" style="visibility: inherit;" fill="rgb(0, 0, 0)" stroke="rgb(204, 204, 204)" stroke-width="1px"></line><line x1="72.34375" y1="41.076923076923066" x2="67.34375" y2="41.076923076923066" style="visibility: inherit;" fill="rgb(0, 0, 0)" stroke="rgb(204, 204, 204)" stroke-width="1px"></line><line x1="72.34375" y1="27.384615384615387" x2="67.34375" y2="27.384615384615387" style="visibility: inherit;" fill="rgb(0, 0, 0)" stroke="rgb(204, 204, 204)" stroke-width="1px"></line><line x1="72.34375" y1="13.692307692307683" x2="67.34375" y2="13.692307692307683" style="visibility: inherit;" fill="rgb(0, 0, 0)" stroke="rgb(204, 204, 204)" stroke-width="1px"></line><line x1="72.34375" y1="0" x2="67.34375" y2="0" style="visibility: inherit;" fill="rgb(0, 0, 0)" stroke="rgb(204, 204, 204)" stroke-width="1px"></line></g><g transform="translate(62.34375, 0)"><text x="0" y="178" dx="0em" dy="0.3em" style="text-anchor: end; visibility: hidden; font-family: Roboto, sans-serif; font-size: 12px; font-weight: 200;" fill="rgb(50, 49, 63)" stroke="none" stroke-width="1px">-5e+4</text><text x="0" y="164.30769230769232" dx="0em" dy="0.3em" style="text-anchor: end; visibility: inherit; font-family: Roboto, sans-serif; font-size: 12px; font-weight: 200;" fill="rgb(50, 49, 63)" stroke="none" stroke-width="1px">0</text><text x="0" y="150.6153846153846" dx="0em" dy="0.3em" style="text-anchor: end; visibility: hidden; font-family: Roboto, sans-serif; font-size: 12px; font-weight: 200;" fill="rgb(50, 49, 63)" stroke="none" stroke-width="1px">5e+4</text><text x="0" y="136.9230769230769" dx="0em" dy="0.3em" style="text-anchor: end; visibility: inherit; font-family: Roboto, sans-serif; font-size: 12px; font-weight: 200;" fill="rgb(50, 49, 63)" stroke="none" stroke-width="1px">1e+5</text><text x="0" y="123.23076923076923" dx="0em" dy="0.3em" style="text-anchor: end; visibility: hidden; font-family: Roboto, sans-serif; font-size: 12px; font-weight: 200;" fill="rgb(50, 49, 63)" stroke="none" stroke-width="1px">1.5e+5</text><text x="0" y="109.53846153846155" dx="0em" dy="0.3em" style="text-anchor: end; visibility: inherit; font-family: Roboto, sans-serif; font-size: 12px; font-weight: 200;" fill="rgb(50, 49, 63)" stroke="none" stroke-width="1px">2e+5</text><text x="0" y="95.84615384615384" dx="0em" dy="0.3em" style="text-anchor: end; visibility: hidden; font-family: Roboto, sans-serif; font-size: 12px; font-weight: 200;" fill="rgb(50, 49, 63)" stroke="none" stroke-width="1px">2.5e+5</text><text x="0" y="82.15384615384616" dx="0em" dy="0.3em" style="text-anchor: end; visibility: inherit; font-family: Roboto, sans-serif; font-size: 12px; font-weight: 200;" fill="rgb(50, 49, 63)" stroke="none" stroke-width="1px">3e+5</text><text x="0" y="68.46153846153845" dx="0em" dy="0.3em" style="text-anchor: end; visibility: hidden; font-family: Roboto, sans-serif; font-size: 12px; font-weight: 200;" fill="rgb(50, 49, 63)" stroke="none" stroke-width="1px">3.5e+5</text><text x="0" y="54.769230769230774" dx="0em" dy="0.3em" style="text-anchor: end; visibility: inherit; font-family: Roboto, sans-serif; font-size: 12px; font-weight: 200;" fill="rgb(50, 49, 63)" stroke="none" stroke-width="1px">4e+5</text><text x="0" y="41.076923076923066" dx="0em" dy="0.3em" style="text-anchor: end; visibility: hidden; font-family: Roboto, sans-serif; font-size: 12px; font-weight: 200;" fill="rgb(50, 49, 63)" stroke="none" stroke-width="1px">4.5e+5</text><text x="0" y="27.384615384615387" dx="0em" dy="0.3em" style="text-anchor: end; visibility: inherit; font-family: Roboto, sans-serif; font-size: 12px; font-weight: 200;" fill="rgb(50, 49, 63)" stroke="none" stroke-width="1px">5e+5</text><text x="0" y="13.692307692307683" dx="0em" dy="0.3em" style="text-anchor: end; visibility: hidden; font-family: Roboto, sans-serif; font-size: 12px; font-weight: 200;" fill="rgb(50, 49, 63)" stroke="none" stroke-width="1px">5.5e+5</text><text x="0" y="0" dx="0em" dy="0.3em" style="text-anchor: end; visibility: hidden; font-family: Roboto, sans-serif; font-size: 12px; font-weight: 200;" fill="rgb(50, 49, 63)" stroke="none" stroke-width="1px">6e+5</text></g><line x1="72.34375" y1="0" x2="72.34375" y2="178" fill="rgb(0, 0, 0)" stroke="rgb(204, 204, 204)" stroke-width="1px"></line></g></g><g transform="translate(72, 0)" clip-path="url(#clip_0)"><clipPath id="clip_0"><rect width="257" height="178"></rect></clipPath><g><g><g><line x1="0" y1="0" x2="0" y2="178" fill="rgb(0, 0, 0)" stroke="rgb(60, 60, 60)" stroke-width="1px" opacity="0.25"></line><line x1="21.471354166666664" y1="0" x2="21.471354166666664" y2="178" fill="rgb(0, 0, 0)" stroke="rgb(60, 60, 60)" stroke-width="1px" opacity="0.25"></line><line x1="42.94270833333333" y1="0" x2="42.94270833333333" y2="178" fill="rgb(0, 0, 0)" stroke="rgb(60, 60, 60)" stroke-width="1px" opacity="0.25"></line><line x1="64.4140625" y1="0" x2="64.4140625" y2="178" fill="rgb(0, 0, 0)" stroke="rgb(60, 60, 60)" stroke-width="1px" opacity="0.25"></line><line x1="85.88541666666666" y1="0" x2="85.88541666666666" y2="178" fill="rgb(0, 0, 0)" stroke="rgb(60, 60, 60)" stroke-width="1px" opacity="0.25"></line><line x1="107.35677083333334" y1="0" x2="107.35677083333334" y2="178" fill="rgb(0, 0, 0)" stroke="rgb(60, 60, 60)" stroke-width="1px" opacity="0.25"></line><line x1="128.828125" y1="0" x2="128.828125" y2="178" fill="rgb(0, 0, 0)" stroke="rgb(60, 60, 60)" stroke-width="1px" opacity="0.25"></line><line x1="150.29947916666669" y1="0" x2="150.29947916666669" y2="178" fill="rgb(0, 0, 0)" stroke="rgb(60, 60, 60)" stroke-width="1px" opacity="0.25"></line><line x1="171.77083333333331" y1="0" x2="171.77083333333331" y2="178" fill="rgb(0, 0, 0)" stroke="rgb(60, 60, 60)" stroke-width="1px" opacity="0.25"></line><line x1="193.2421875" y1="0" x2="193.2421875" y2="178" fill="rgb(0, 0, 0)" stroke="rgb(60, 60, 60)" stroke-width="1px" opacity="0.25"></line><line x1="214.71354166666669" y1="0" x2="214.71354166666669" y2="178" fill="rgb(0, 0, 0)" stroke="rgb(60, 60, 60)" stroke-width="1px" opacity="0.25"></line><line x1="236.18489583333331" y1="0" x2="236.18489583333331" y2="178" fill="rgb(0, 0, 0)" stroke="rgb(60, 60, 60)" stroke-width="1px" opacity="0.25"></line><line x1="257.65625" y1="0" x2="257.65625" y2="178" fill="rgb(0, 0, 0)" stroke="rgb(60, 60, 60)" stroke-width="1px" opacity="0.25"></line></g><g><line x1="0" y1="178" x2="257.65625" y2="178" fill="rgb(0, 0, 0)" stroke="rgb(60, 60, 60)" stroke-width="1px" opacity="0.25"></line><line x1="0" y1="164.30769230769232" x2="257.65625" y2="164.30769230769232" fill="rgb(0, 0, 0)" stroke="rgb(60, 60, 60)" stroke-width="1px" opacity="0.25"></line><line x1="0" y1="150.6153846153846" x2="257.65625" y2="150.6153846153846" fill="rgb(0, 0, 0)" stroke="rgb(60, 60, 60)" stroke-width="1px" opacity="0.25"></line><line x1="0" y1="136.9230769230769" x2="257.65625" y2="136.9230769230769" fill="rgb(0, 0, 0)" stroke="rgb(60, 60, 60)" stroke-width="1px" opacity="0.25"></line><line x1="0" y1="123.23076923076923" x2="257.65625" y2="123.23076923076923" fill="rgb(0, 0, 0)" stroke="rgb(60, 60, 60)" stroke-width="1px" opacity="0.25"></line><line x1="0" y1="109.53846153846155" x2="257.65625" y2="109.53846153846155" fill="rgb(0, 0, 0)" stroke="rgb(60, 60, 60)" stroke-width="1px" opacity="0.25"></line><line x1="0" y1="95.84615384615384" x2="257.65625" y2="95.84615384615384" fill="rgb(0, 0, 0)" stroke="rgb(60, 60, 60)" stroke-width="1px" opacity="0.25"></line><line x1="0" y1="82.15384615384616" x2="257.65625" y2="82.15384615384616" fill="rgb(0, 0, 0)" stroke="rgb(60, 60, 60)" stroke-width="1px" opacity="0.25"></line><line x1="0" y1="68.46153846153845" x2="257.65625" y2="68.46153846153845" fill="rgb(0, 0, 0)" stroke="rgb(60, 60, 60)" stroke-width="1px" opacity="0.25"></line><line x1="0" y1="54.769230769230774" x2="257.65625" y2="54.769230769230774" fill="rgb(0, 0, 0)" stroke="rgb(60, 60, 60)" stroke-width="1px" opacity="0.25"></line><line x1="0" y1="41.076923076923066" x2="257.65625" y2="41.076923076923066" fill="rgb(0, 0, 0)" stroke="rgb(60, 60, 60)" stroke-width="1px" opacity="0.25"></line><line x1="0" y1="27.384615384615387" x2="257.65625" y2="27.384615384615387" fill="rgb(0, 0, 0)" stroke="rgb(60, 60, 60)" stroke-width="1px" opacity="0.25"></line><line x1="0" y1="13.692307692307683" x2="257.65625" y2="13.692307692307683" fill="rgb(0, 0, 0)" stroke="rgb(60, 60, 60)" stroke-width="1px" opacity="0.25"></line><line x1="0" y1="0" x2="257.65625" y2="0" fill="rgb(0, 0, 0)" stroke="rgb(60, 60, 60)" stroke-width="1px" opacity="0.25"></line></g></g></g><g><g><line x1="0" y1="164.30769230769232" x2="257.65625" y2="164.30769230769232" fill="rgb(0, 0, 0)" stroke="rgb(153, 153, 153)" stroke-width="1.5px"></line></g></g><g><g><line x1="21.471354166666664" y1="0" x2="21.471354166666664" y2="178" fill="rgb(0, 0, 0)" stroke="rgb(153, 153, 153)" stroke-width="1.5px"></line></g></g><g><g><g><g><g><path stroke="rgb(204, 51, 17)" stroke-width="2px" d="M21.563680989583332,164.29995615384615L21.67533203125,164.29958372290977L21.832072916666664,164.29709446132955L21.9651953125,164.27077236722508L21.975930989583333,164.26246661705605L22.059669270833332,164.27644920100286L22.13911328125,164.29597169251662L22.15629036458333,164.29594156927257L22.491243489583333,164.30065719985373L22.62436588541667,164.29008399916427L22.716692708333333,164.31046636926212L22.73172265625,164.31909800041785L22.83478515625,164.3138072922868L22.862697916666665,164.3163650154055L23.006555989583333,164.29733270719086L23.20838671875,164.28756735443116L23.65069661458333,164.32517738419753L23.76234765625,164.28313378453183L24.335632812500002,164.27720227792594L24.344221354166667,164.2716596302678L24.447283854166667,164.27919587759166L24.462313802083333,164.28351716956504L24.556787760416665,164.25660356989934L25.104307291666665,164.36600784531814L25.196634114583333,164.36495354013294L25.203075520833334,164.36758246070275L25.50367447916667,164.38715150869518L25.589559895833332,164.40499532508264L25.845069010416665,164.40339606454702L25.973897135416667,164.4098314491624L26.195052083333334,164.42424670635518L26.330321614583333,164.43170901404747L26.426942708333332,164.43589338294396L26.6030078125,164.39979224815954L26.703923177083336,164.4153768337778L26.8091328125,164.4240413217398L26.811279947916667,164.4212672588642L26.83704557291667,164.41102541438175L26.910048177083333,164.42217368896485L27.238559895833333,164.43735024648814L27.356652343750003,164.4070601190655L27.996498697916664,164.32958356989934L28.408748697916668,164.36578055250902L28.443102864583334,164.3658764003343L28.569783854166666,164.35231553762583L29.241837239583333,164.27031504464955L29.246131510416667,164.2758631683115L29.353488281249998,164.24937950702375L29.505934895833335,164.23787523160496L29.66267578125,164.208201262207L29.677705729166668,164.20601049297628L29.90744921875,164.16701479398287L29.967569010416668,164.16185280066856L30.139339843749998,164.17616126220702L30.482881510416668,164.1504936675556L30.742684895833335,164.12249015718902L30.920897135416666,164.10836516789362L31.118433593749998,164.15366479398287L31.154934895833335,164.13491455585185L31.51350651041667,164.12380735652044L31.75398567708333,164.11982836388222L32.146911458333335,164.0975400381235L32.436774739583335,164.05366439866285L32.49689453125,164.04835451772837L32.949940104166664,164.0758678494967L32.980000000000004,164.0594836294321L33.38795572916666,164.0615265277569L33.66708333333333,164.06841648963342L33.76155729166667,164.10217351036658L33.944063802083335,164.1133080876277L34.06430338541667,164.1079379685622L34.07933333333334,164.09412790902945L34.15663020833333,164.0999471397987L34.33484244791667,164.08289473445012L34.78574088541667,164.05280177659253L34.82653645833333,164.03356408428485L34.976835937500006,163.98990755183294L35.58876953125,163.96546130033053L35.65103645833333,163.9464289926382L35.85716145833333,163.981549761869L35.882927083333335,163.97095463679386L36.189967447916665,163.98649814716046L36.43044661458333,163.9781212026743L36.836255208333334,164.02720264347957L37.323654947916665,164.03660104548527L37.491131510416665,164.01988L37.49757291666666,164.0226403571965L37.60063541666667,164.04526554180438L38.19539192708333,164.01669242675783L38.216863281250006,164.0109498809345L38.29201302083334,164.00250447490984L38.63126041666667,164.0284897237455L38.792295572916665,164.04222583946816L39.037069010416666,163.9888641819411L39.12510156250001,163.95454031437802L39.429994791666665,163.91915663010818L39.460054687500005,163.93115384615385L39.71985807291667,163.94023185283956L39.741329427083336,163.94557185283955L39.94101302083333,163.8959947344501L40.53576953125,163.93894201472358L40.64312630208333,163.92392978327825L40.65815625,163.9265778876202L40.78269010416667,163.90981300067608L41.35597526041667,163.935759923753L41.80257942708334,163.8804923076923L41.987233072916666,163.8869276923077L42.015145833333335,163.86780776855468L42.29642057291667,163.89782130033052L42.60775520833333,163.90450041203425L42.745171875,163.93819990234374L43.537464843749994,163.9206107692308L43.55249479166667,163.92341221003605L43.8015625,163.9457142581881L43.97333333333333,163.9527301953125L44.065660156250004,163.94106706355169L44.24816666666666,163.97121206956132L44.570236979166665,163.97443524414064L44.61962109375,163.99003076923077L44.88157161458333,163.99331418194112L44.888013020833334,163.99609646822415L45.018988281249996,163.9569145391376L45.03616536458333,163.95132810434194L45.13493359375,163.95699122408354L45.310998697916666,163.9627419933143L45.991640624999995,163.92542497258114L46.105438802083334,163.92452130033053L46.23426692708333,163.92645737792967L46.30726953125,163.93285442007212L46.56277864583333,163.91248029296875L46.72166666666667,163.89249223144532L47.172565104166665,163.91880887357271L47.183300781250004,163.91620459397535L47.59125651041667,163.9101881685697L47.86179557291667,163.9087340628756L48.67985416666667,163.94656865685096L49.1221640625,163.91311011906552L49.25528645833334,163.9302419504958L49.45926432291667,163.9229576160607L49.51723697916667,163.9214870635517L49.62029947916667,163.9084383210637L50.24941015625,163.93442903545673L50.55859765625,163.94558552509014L50.6681015625,163.9452268040114L50.71748567708333,163.94250475585937L51.12544140625,163.87787432241586L51.284329427083335,163.84734595853365L51.70516796875,163.81775690166768L52.0079140625,163.75235694448617L52.16465494791667,163.74533278395432L52.25912890625,163.74546970703125L52.49316666666667,163.70597014047476L52.903269531250004,163.68623402944712L52.96768359375,163.67610994516227L53.00847916666667,163.679040152494L53.206015625,163.65300283879208L53.2704296875,163.65411741135816L53.40784635416667,163.63847254582333L53.44864192708333,163.6301969230769L54.37620442708333,163.61729326021634L54.69612760416666,163.60247822340745L54.700421874999996,163.6025740294471L54.76913020833333,163.60921479867787L55.269412760416664,163.56993432241586L55.32094401041667,163.56452037860578L56.076735677083335,163.402808742488L56.3623046875,163.3890041819411L56.5168984375,163.37008686823918L57.32422135416667,163.26090990234377L57.564700520833334,163.22694475585936L57.667763020833334,163.22173345552883L57.75794270833333,163.21205577524037L58.116514322916665,163.1222204642428L58.183075520833334,163.132941648137L58.60176692708333,163.04172346754808L58.6554453125,163.02764231971153L58.70268229166667,163.0231210501803L59.14069791666667,162.92905770432694L59.1707578125,162.92436661808895L59.233024739583335,162.93797682542066L59.250201822916665,162.93241780198318L60.261502604166665,162.69152892578123L61.090296875,162.44992267427884L62.17889453125,162.30824018329326L62.518141927083335,162.2503080829327L62.63194010416667,162.19854567758412L62.85094791666667,162.1136232842548L63.409203125000005,162.0370832842548L63.64324088541667,161.99002560396633L63.673300781250006,161.99021440805288L63.838630208333335,161.95414614182693L64.08555078125,161.92268137920672L64.28308723958334,161.90845501802886L64.40547395833333,161.90728849759617L64.491359375,161.87001787560095L64.5300078125,161.86564462740384L64.54933203125,161.8691498046875L64.71251432291666,161.82810844951925L64.94011067708334,161.77737015925482L64.95728776041666,161.7774223076923L65.10973437499999,161.7591759705529L65.36094921875,161.69636919471154L65.573515625,161.72403327223557L65.57566276041666,161.72677708233172L65.62289973958333,161.73326996394232L65.65725390625,161.72326094050482L66.088828125,161.6420628816106L66.09526953125,161.63928056189903L66.20047916666667,161.61496307692306L66.25201041666666,161.5838021123798L66.73511588541668,161.51275L66.87253255208333,161.5049151652644L67.01209635416667,161.47819885216344L67.06148046874999,161.46569499399038L67.24828125,161.46255940204327L67.402875,161.43270482271635L67.686296875,161.41996830228365L68.38411588541668,161.30594962139423L68.72336328125,161.25914118389423L69.23652864583333,161.12216060997596L69.33744401041666,161.1386405859375L69.41903515625,161.10057597055288L69.47915494791667,161.10005849759614L69.72392838541667,160.997530390625L70.51407421875,160.87388056189906L71.15392057291666,160.72321329627405L71.17539192708334,160.72897770432692L71.26986588541666,160.72490290564906L71.32569140625,160.7031840174279L71.4223125,160.65837192908654L71.47169661458332,160.66247962139423L71.63273177083335,160.6164678515625L71.77444270833334,160.60820887620193L72.01706901041668,160.54050576322118L72.29619661458334,160.51036904747596L72.31981510416666,160.50296691105768L72.36275781249999,160.5136552013221L72.87162890625,160.5008253485577L73.174375,160.44631926682692L73.32038020833333,160.40474653245192L73.61024348958334,160.29104020733172L73.61453776041667,160.28551942608172L73.69612890625,160.26451537259615L73.74551302083333,160.2628888762019L74.33812239583332,160.12636266225962L74.54854166666667,160.0451207451923L74.56571875,160.02921306490384L74.9393203125,160.0259926983173L75.01017578125001,159.99534653245192L75.16906380208333,159.93651881610577L75.25280208333332,159.90060940204327L75.43745572916667,159.87970670372596L75.69511197916667,159.85844805889423L75.86473567708333,159.88136074519232L75.99141666666667,159.82527978064903L76.62482161458334,159.728738046875L76.89536067708333,159.68357268629808L76.97051041666667,159.68785581129808L77.1293984375,159.65202849759615L77.44073307291666,159.58547265024038L77.49441145833333,159.5504476201923L77.631828125,159.53402273437501L77.66188802083333,159.53934080528848L77.94960416666666,159.52685352764422L78.16431770833333,159.45337771634615L78.30817578125,159.42055736177883L79.0102890625,159.24389075721155L79.01243619791666,159.24165078125L79.07899739583334,159.2566053485577L79.75105078125,159.1018250420673L79.77681640624999,159.0913696814904L79.78540494791666,159.0917307091346L79.78755208333332,159.08895427283653L80.03447265625,158.98277844951923L80.5304609375,158.87422572716346L80.74088020833334,158.81043615384615L80.77738151041666,158.80766185697115L80.81602994791666,158.81339925480768L81.21754427083333,158.71037266225963L81.41293359375,158.70070033052883L81.48593619791666,158.66891224759615L81.52458463541667,158.6686769110577L82.2825234375,158.4055845673077L82.53373828125001,158.33465306490385L82.56165104166666,158.3214565685096L82.7591875,158.26251118389425L82.82145442708334,158.24359654447116L82.90519270833333,158.225541953125L83.67601432291666,157.95857190504807L83.73183984375001,157.9538780108173L83.81987239583333,157.90739583533653L83.87355078125,157.87865536057691L84.17200260416666,157.8068092548077L84.305125,157.73863493389422L84.75172916666668,157.55723111177886L84.78608333333334,157.54603658052883L84.94497135416667,157.4427088641827L85.052328125,157.4168988641827L85.34433854166666,157.31791150240386L85.52040364583334,157.23617965745194L85.89829947916667,157.06967852163461L85.954125,157.042551171875L86.08510026041667,156.96937915865385L86.26116536458333,156.89103455528846L86.40931770833333,156.81877233173077L86.49735026041667,156.76862853365384L86.58967708333334,156.70574500600964L86.87309895833333,156.59739766826925L86.89671744791667,156.5837877283654L87.20161067708332,156.40936698317307L87.40344140625,156.33079506610576L87.43350130208333,156.3199096814904L88.90643619791668,155.8694926622596L88.98588020833333,155.84221501802884L89.52910546874999,155.5964434435096L89.76958463541666,155.52297618990386L89.9091484375,155.46274608173076L89.92417838541667,155.44366189302883L90.04441796875,155.40461153846155L90.06374218750001,155.4139661658654L90.19042317708333,155.35743618990384L90.2183359375,155.3492095733173L90.55543619791666,155.19846314903847L90.62629166666667,155.19135384615385L91.11583854166668,155.0495229326923L91.34558203124999,154.97384084134617L91.59250260416667,154.83783985576923L91.69771223958334,154.74939396634613L91.81795182291667,154.70860372596155L92.10137369791667,154.63861143028848L92.11855078125,154.63299009615383L92.40197265625001,154.52918849759615L92.65533463541666,154.45019243990384L92.71330729166667,154.44842313701923L92.71760156250001,154.4484060216346L92.91084375,154.3941876923077L93.06114322916667,154.30872308894232L93.13414583333333,154.26681393028846L93.194265625,154.25219846153846L93.89208463541667,153.95603919471154L93.91140885416667,153.93722831730767L93.93717447916666,153.9324499158654L93.97797005208334,153.91331384615384L94.01447135416667,153.90490698317308L94.13041666666668,153.8895715985577L94.15618229166667,153.86778692307692L94.20986067708333,153.837779375L94.28930468749999,153.79649064903847L94.51260677083334,153.7331508894231L94.55340234375,153.7032331971154L94.77885156250001,153.57815610576924L95.25336848958332,153.41492775240386L95.29845833333333,153.39019923076924L95.41655078125001,153.36138013221154L95.6033515625,153.30036913461538L95.76223958333333,153.23694379807694L96.15731249999999,153.02971927884616L97.33823697916668,152.53898376201923L97.38332682291667,152.53692242788463L97.40050390625,152.52572682692306L97.43271093749999,152.50147218749999L97.66030729166667,152.38824001201925L97.85354947916666,152.29703854567308L98.27868229166667,152.04996620192307L98.29371223958333,152.05316463942307L98.44615885416667,151.99781990384616L98.6694609375,151.83964700721154L98.70596223958333,151.80385766826925L98.8498203125,151.70219228365383L99.29857161458334,151.48445998798076L99.36083854166667,151.45095234375L100.12092447916666,151.1366015625L100.18533854166667,151.12009698317308L100.22613411458333,151.1235692668269L100.41722916666666,151.0342761658654L100.52888020833333,150.99579543269232L100.59544140625,150.95458693509616L100.71782812500001,150.92588764423078L101.28037760416667,150.72872697115383L101.35123307291666,150.71146610576923L101.89445833333333,150.5343101081731L101.9674609375,150.52899150240384L102.55792317708334,150.31368531249998L102.79840234375001,150.21377532451922L103.47689713541666,149.9532385216346L103.59498958333334,149.91327837740386L104.00723958333333,149.71088681490383L104.04159375,149.68868602163462L104.06521223958333,149.67581846153846L104.44310807291666,149.56161391826922L104.56764192708333,149.4957753125L104.61058463541667,149.47390078125L104.86824088541667,149.39452069711538L105.17098697916667,149.23436455528847L105.22251822916667,149.19665080528847L105.51452864583332,149.02685228365385L105.72065364583334,148.91347141826924L105.84733463541667,148.8357483173077L105.870953125,148.82315995192306L106.71907161458334,148.2408945673077L106.77919140624999,148.21937090144232L106.8886953125,148.15069542067306L107.09696744791667,148.02398915865385L107.16352864583332,147.96759610576922L107.17426432291666,147.97021155048077L107.40186067708333,147.84027689903849L107.99447005208334,147.61165921875L108.43248567708333,147.46018699519232L108.74811458333333,147.32643454326922L108.78246875,147.31122003605768L108.79105729166668,147.30015600961536L108.86191276041666,147.26530373798076L108.90485546875,147.24421009615386L109.06159635416667,147.17185159855768L109.59193880208333,146.98637538461537L109.78088671875,146.89006390625L110.02995442708333,146.77621236778845L110.08792708333334,146.77391141826922L110.2382265625,146.67830381009614L110.38423177083334,146.62065384615383L110.56029687499999,146.55707768028847L110.663359375,146.53996764423079L110.69771354166666,146.51355860576925L111.37620833333334,146.16315747596155L111.6811015625,145.93822709134616L111.94090494791666,145.7615663701923L112.17708984375,145.65695286057692L112.38106770833333,145.55806444711538L112.61939973958333,145.4196116826923L112.65804817708333,145.3930507451923L113.10894661458333,145.122009375L113.72302734375,144.70506790865386L113.75952864583333,144.66916411057693L113.84326692708333,144.62312158653847L114.39722786458333,144.15509283653844L114.91254036458334,143.79267028846155L114.98769010416666,143.7194164423077L115.10363541666666,143.64894598557692L115.17234375,143.60069985576925L115.3269375,143.47371225961538L115.38491015624999,143.4332429326923L115.39349869791667,143.42217783653845L115.52876822916667,143.32045896634614L115.90451692708332,143.12926300480768L115.9324296875,143.1098391826923L116.10420052083333,143.0292321394231L116.1127890625,143.0182440625L116.1900859375,142.9683484375L116.37688671875,142.86469552884617L116.39191666666666,142.8620191105769L116.486390625,142.81539252403846L116.60018880208334,142.73151858173077L117.20353385416666,142.31260028846154L117.33236197916666,142.22569050480772L117.66946223958334,142.02918021634613L117.69952213541666,142.01595002403846L118.01729817708333,141.83520086538462L118.31789713541667,141.66726685096154L118.76020703124999,141.45060747596153L118.77953125,141.43682317307693L118.89332942708334,141.3718574519231L119.18319270833334,141.11032795673077L119.26048958333332,141.06741326923077L119.50741015625,140.88797129807693L119.89604166666666,140.48578757211538L120.31258593749999,140.1398899278846L120.43497265625,140.03634826923079L120.60459635416667,139.92329901442307L120.68189322916666,139.8659389423077L120.92451953125,139.61465942307692L120.95887369791666,139.59246932692307L121.12849739583334,139.44257278846152L121.31315104166667,139.3289244951923L122.81399869791667,138.16621223557692L122.90632552083333,138.10066459134615L123.03515364583333,138.01614454326923L123.07809635416668,137.9676694951923L123.3271640625,137.7787477403846L123.43881510416668,137.68788216346152L123.56764322916666,137.55545829326923L123.64494010416666,137.49644872596153L123.75873828125,137.4051916346154L123.79523958333333,137.37004947115383L123.82529947916666,137.37108709134614L123.87683072916667,137.35060853365385L123.90259635416666,137.32433L123.98633463541667,137.22805596153844L124.01639453125,137.20802240384614L124.28263932291667,137.02199528846154L124.422203125,136.9385085817308L124.47158723958333,136.89178358173075L124.69918359374999,136.70145622596155L124.92463281250001,136.5238584375L125.02340104166667,136.46069411057692L125.65680598958333,135.89463485576923L126.34818359375001,135.31911721153844L126.64448828124999,135.11094920673077L127.26715755208333,134.6968168028846L127.38310286458334,134.61888403846154L127.43678125,134.5731538701923L127.70732031249999,134.33909028846153L127.88123828125,134.21841826923077L128.01221354166668,134.1298247596154L128.05300911458335,134.0895779326923L128.84315494791667,133.65189475961537L128.95051171875,133.55761466346155L129.1501953125,133.37258665865386L129.18454947916666,133.35071319711537L129.24896354166668,133.31849776442309L129.40570442708335,133.23752060096155L129.65047786458334,133.07025408653848L130.1808203125,132.63265221153847L130.18511458333333,132.6326479326923L130.58877604166668,132.33401228365383L130.93231770833333,132.07559137019229L131.26512369791666,131.85771680288462L131.46480729166666,131.64766610576925L131.58289973958333,131.54727153846156L131.71172786458334,131.4111978125L132.58775911458332,130.6158266346154L132.6908216145833,130.51189774038463L132.70799869791665,130.50666685096155L133.02577473958334,130.20663629807692L133.12669010416667,130.10508002403847L133.26840104166666,129.9656238701923L133.6334140625,129.64930375L133.75150651041665,129.56244317307693L133.88248177083332,129.45452211538463L133.955484375,129.3994448076923L134.21958203124998,129.17968540865385L134.25823046874999,129.15245697115384L134.58888932291669,128.87292209134614L134.84654557291668,128.67217360576922L135.06984765625,128.5472783653846L135.140703125,128.50210230769233L135.27811979166668,128.36939389423077L135.29959114583335,128.36394264423078L135.46921484375,128.28795033653847L135.501421875,128.2522733173077L136.1326796875,127.9317321153846L136.14985677083334,127.91526283653846L136.27653776041666,127.87212350961538L136.30659765625,127.8754139423077L136.78755598958332,127.57648519230767L136.8025859375,127.56266451923076L136.81117447916668,127.56443596153846L136.81976302083334,127.56442740384615L137.12250911458332,127.34612067307692L137.19336458333333,127.30646860576923L137.21698307291666,127.29812057692308L137.57340755208332,127.07638649038462L137.60561458333333,127.05242923076925L137.65070442708333,127.02785581730768L137.68291145833334,126.99229004807694L137.9362734375,126.78659307692307L138.41937890625,126.42508620192307L138.7607734375,126.22522557692307L138.80801041666666,126.18852591346153L138.902484375,126.07842692307693L138.96260416666667,126.02324264423076L139.15155208333334,125.88497173076924L139.4306796875,125.6750472596154L139.52730078125,125.62443706730768L139.98034635416667,125.27137663461538L140.20794270833335,125.11051341346155L140.2143841145833,125.10223812500001L140.27020963541668,125.0788585096154L140.33677083333333,125.01542889423077L140.72110807291665,124.64405927884616L140.73184375,124.6360364423077L140.74902083333333,124.63101735576925L141.0968567708333,124.32049721153845L141.21065494791665,124.20255509615384L141.64008203125002,123.80604298076922L141.90847395833333,123.59096250000002L142.36581380208335,123.15961201923076L142.43666927083333,123.07998697115386L142.52684895833335,122.98700336538462L142.64064713541669,122.88199192307691L142.80168229166668,122.73615173076922L142.8317421875,122.71649043269231L142.84677213541664,122.70448826923077L143.01854296874998,122.5532695673077L143.40288020833333,122.19200658653847L143.47373567708334,122.10707576923078L143.85807291666666,121.7386671153846L144.50221354166666,121.11882918269231L144.51509635416664,121.10230427884616L144.89943359375,120.74711725961538L145.49204296875,120.12365514423078L146.64076041666667,118.95779365384617L146.75026432291668,118.86920870192307L146.95209505208334,118.674658125L147.20116276041665,118.47870408653846L147.31925520833332,118.37832235576924L147.3836692708333,118.30118331730769L147.55114583333332,118.16139341346155L147.60911848958335,118.11533163461537L147.64561979166666,118.09086947115384L147.69929817708334,118.04391341346152L148.18455078125,117.61331173076924L148.21890494791666,117.57552951923077L148.23178776041667,117.56487947115383L148.72133463541667,117.12566019230769L148.82225,117.01532586538461L149.08205338541666,116.79930403846153L149.49430338541666,116.4525420673077L149.52865755208333,116.4210583173077L149.59307161458332,116.36106033653847L149.7369296875,116.21928504807693L149.76698958333336,116.19198173076923L150.48627994791667,115.48302826923076L150.68596354166667,115.30680399038462L150.69884635416665,115.29026625L150.74608333333333,115.24138043269231L150.93932552083334,115.08846302884615L151.32151562500002,114.67407817307691L151.38163541666668,114.62534639423076L151.58131901041668,114.43941341346155L151.74235416666667,114.27515706730767L152.71071223958333,113.30063274038461L152.8889244791667,113.1348445673077L153.04137109375,112.98500365384616L153.24964322916668,112.76615350961538L153.27540885416667,112.73881168269232L153.38920703125,112.62760019230771L153.59533203125,112.39825403846153L153.90881380208333,112.06242451923077L154.89434895833332,111.01140298076923L155.06611979166667,110.8218629326923L155.70381901041668,110.16855158653847L155.77038020833334,110.11204942307693L155.78755729166667,110.09549028846155L156.47249348958334,109.41165793269231L156.79456380208333,109.09267850961538L157.21540234375001,108.67632538461538L157.51170703125,108.37779028846154L157.6620065104167,108.20280259615383L157.66415364583332,108.20004701923077L157.84451302083335,108.02129822115384L158.18376041666667,107.6540962019231L158.4199453125,107.3911825L158.6003046875,107.244721875L158.86440234375,106.98274951923077L159.10058723958332,106.74336947115385L159.26162239583334,106.59846206730768L159.37327343750002,106.49321956730769L159.98735416666668,105.84820490384615L160.00882552083334,105.82612177884614L160.01311979166667,105.82061918269231L160.36524999999997,105.42309725961539L160.79897135416667,105.07532975961539L161.01368489583334,104.89695322115384L161.0373033854167,104.87752725961539L161.15324869791667,104.76799735576923L161.5633515625,104.46877764423078L161.62561848958333,104.41326817307691L161.66426692708333,104.36365495192308L161.84247916666666,104.24295725961538L162.00351432291666,104.13058192307692L162.07007552083334,104.09024951923078L162.16884374999998,104.01809105769232L162.32773177083334,103.88457822115386L162.41791145833332,103.80179538461537L162.55962239583334,103.68823908653845L162.98475520833335,103.35813038461538L163.07278776041665,103.27955793269231L163.2896484375,103.0417525L163.82428515625,102.51847956730768L164.33100911458334,101.95454903846155L164.5736354166667,101.71693187499999L164.87423437500001,101.40849125000001L165.21992317708333,101.100606875L165.28004296875,101.04614572115385L165.3766640625,100.98014879807691L166.27631380208334,100.05328653846153L166.34931640625,100.00022028846155L166.4330546875,99.94803120192307L168.04340625,98.37042490384614L168.04555338541664,98.36766932692306L168.0820546875,98.3264683173077L168.29032682291665,98.1529825L168.39983072916667,98.06457725961538L168.57804296875003,97.88803206730769L168.74551953124998,97.72971475961539L169.47339843749998,96.92435461538462L169.60007942708333,96.785441875L169.99300520833333,96.37072754807693L169.99515234375,96.36795485576923L170.02306510416668,96.33216230769231L170.32581119791666,96.01458206730769L170.43316796875,95.92168403846154L170.60279166666666,95.76204028846153L170.64788151041668,95.71204625L171.04724869791667,95.29890225961537L171.10522135416667,95.23545552884616L171.16963541666667,95.15829509615385L171.33925911458334,94.96093331730768L171.59047395833335,94.72637552884616L172.75636848958334,93.463961875L172.76495703125002,93.45296951923078L172.83151822916665,93.37310057692306L172.90881510416668,93.29229028846153L173.0183190104167,93.19160903846154L173.18150130208332,92.99912086538461L173.737609375,92.38904298076923L173.91152734375,92.21982317307692L174.50413671874998,91.5957791346154L174.59431640625002,91.5073696153846L174.83908984375,91.28235365384616L175.10962890625,91.00300490384616L175.16545442708335,90.9505548076923L175.41452213541666,90.67221586538462L175.74518098958333,90.29451355769231L175.8654205729167,90.15224192307691L175.97492447916667,90.06792298076923L176.02216145833333,90.04794076923078L176.0930169270833,89.96897894230769L176.1466953125,89.90014086538461L176.49023697916667,89.59046365384616L176.65771354166665,89.44721644230769L176.70280338541667,89.39487759615383L176.70495052083334,89.39213057692308L176.70924479166666,89.38662798076925L176.92825260416666,89.11291874999999L176.93469401041668,89.1046605769231L177.02057942708333,89.02006778846155L177.26535286458332,88.73882778846153L177.61963020833335,88.36536153846154L177.94170052083334,87.97196442307693L178.10273567708333,87.79705375L178.2337109375,87.64642980769231L178.59872395833335,87.24250673076924L178.89717578124998,86.9141651923077L179.82044401041668,85.88504278846153L179.9084765625,85.78864038461539L179.91921223958332,85.77487961538462L180.02012760416667,85.6565096153846L180.1489557291667,85.53018951923076L180.19833984375,85.4803923076923L180.385140625,85.27550403846153L180.76303645833335,84.85366115384616L180.77806640625002,84.83982336538462L182.21879427083334,83.27963625000001L182.29609114583334,83.19144923076922L182.80925651041665,82.65804826923076L182.87581770833333,82.57970259615385L183.5156640625,81.83870057692307L183.5543125,81.79071759615384L183.72608333333332,81.58724134615386L183.85920572916666,81.447905L184.00521093749998,81.29241173076922L184.50119921875,80.72981192307692L184.50549348958333,80.72431788461539L184.77603255208334,80.42154673076922L184.868359375,80.3086878846154L185.12386848958332,80.01708451923078L185.58120833333334,79.51313057692307L185.69071223958332,79.3727416346154L185.99989973958336,79.00437576923078L186.10081510416668,78.9102925L186.1695234375,78.82225096153846L186.35202994791666,78.61072192307691L186.60109765625,78.34428673076924L186.61612760416665,78.32504048076923L186.63974609375,78.30026596153846L186.95966927083333,77.92887923076923L187.22806119791665,77.62709221153847L187.49860026041665,77.3078389423077L187.79061067708335,76.99052826923077L187.94091015625,76.81128740384615L188.18353645833335,76.54687182692308L188.5249309895833,76.16510461538462L188.73749739583334,75.92589144230769L189.14974739583332,75.43805163461538L189.23992708333336,75.32253990384615L189.39666796875,75.14445432692308L189.51905468750002,74.99849432692307L190.61409375,73.68280903846154L190.76009895833332,73.52705048076922L190.92542838541667,73.33481903846155L190.95548828125,73.29630942307693L191.0392265625,73.20020653846154L191.10793489583335,73.12342692307693L191.34626692708332,72.85279846153847L191.76066406249998,72.36479605769232L191.90881640625,72.21328211538462L191.99470182291668,72.11967807692308L192.3790390625,71.69114307692308L192.42842317708332,71.63382365384616L192.59160546875,71.45323067307692L192.84067317708335,71.13973673076923L192.89435156250002,71.07659807692308L193.17562630208332,70.72178759615385L193.19065625000002,70.70252423076924L193.2400403645833,70.63926576923078L193.31089583333332,70.56092009615385L193.319484375,70.54991490384614L193.45904817708333,70.38800336538462L193.59861197916666,70.23124355769231L193.99797916666668,69.74861538461539L194.08171744791667,69.65229000000001L194.11607161458335,69.61372048076923L194.42525911458333,69.24341201923077L194.48108463541666,69.17736375L194.56052864583333,69.09740923076924L195.01786848958332,68.58527413461537L195.10160677083334,68.47796923076923L195.10590104166667,68.4724751923077L195.27552473958332,68.30500971153845L195.38288151041667,68.17287038461538L195.42367708333333,68.1320673076923L195.64268489583333,67.87926451923077L196.20952864583333,67.20979625L196.45215494791668,66.9387998076923L196.52730468750002,66.84798557692308L197.43554296875,65.7802423076923L197.71037630208335,65.46068951923077L198.07538932291666,65.0161601923077L198.46402083333334,64.55179413461539L198.58426041666667,64.41168759615385L198.66799869791666,64.31652605769231L198.92994921874998,64.00087557692306L199.01798177083333,63.89449490384616L199.11889713541666,63.776296057692306L199.19189973958333,63.688237403846145L199.32287499999998,63.54209769230769L199.3615234375,63.49258288461537L199.52255859375,63.31370144230768L199.84677604166666,62.93269586538462L199.95842708333333,62.82230163461538L200.25902604166666,62.459660865384606L200.78077994791667,61.84056317307692L201.32185807291668,61.185856923076926L201.667546875,60.766247596153846L201.770609375,60.63961942307693L202.18715364583332,60.1186014423077L202.25586197916667,60.041556538461535L202.2730390625,60.01956326923077L202.38039583333332,59.88751807692309L202.67884765625,59.516071442307684L202.7110546875,59.48569163461538L202.852765625,59.339295192307695L203.1233046875,59.02410682692309L203.30581119791665,58.80766567307692L203.42175651041669,58.67390038461538L203.58923307291667,58.47580692307692L203.89412630208335,58.118403461538456L204.02295442708333,57.96749711538462L204.05730859375,57.92350201923076L204.09166276041665,57.885813942307685L204.17110677083332,57.78953134615385L204.3428776041667,57.59226798076922L204.501765625,57.403374038461536L204.6670950520833,57.22500605769231L205.07075651041666,56.74444028846154L205.13731770833334,56.67138326923077L205.20817317708335,56.58732961538462L205.34558984375,56.42448528846154L205.429328125,56.32272576923077L205.45294661458334,56.292474326923085L205.58821614583334,56.13528663461538L206.09494010416665,55.52704865384615L206.15720703124998,55.4545564423077L206.30106510416667,55.277454999999996L207.09765234375,54.33580076923078L207.43045833333335,53.93803923076923L207.50560807291666,53.85275326923077L207.52063802083333,53.83351557692308L207.80191276041668,53.49835355769231L207.82982552083334,53.468059326923076L207.92859375,53.3416023076923L207.98441927083334,53.27011134615385L208.10036458333332,53.12820769230769L208.29145963541666,52.889807499999996L209.11810677083332,51.93722509615385L209.24049348958334,51.785959326923084L209.46808984375,51.51173663461539L209.60765364583332,51.34394596153845L209.70427473958333,51.23140375L210.0284921875,50.87188653846154L210.0542578125,50.84722326923078L210.48368489583333,50.39433307692308L210.6211015625,50.25447471153846L210.68766276041669,50.16916307692307L210.7155755208333,50.1333748076923L211.22444661458334,49.530511057692316L211.3683046875,49.377953076923085L211.86858723958332,48.798717115384605L212.06612369791668,48.55339375L212.17133333333334,48.44412057692308L212.40107682291665,48.16639778846154L212.90994791666668,47.54577682692308L213.13110286458334,47.28555451923076L213.313609375,47.07918576923077L213.34796354166664,47.04068471153847L214.16816927083335,46.068051634615394L214.20467057291665,46.021326634615384L214.44300260416668,45.71622778846153L214.48379817708332,45.664530769230765L214.65771614583332,45.45810211538462L214.77795572916668,45.33487990384615L214.79083854166666,45.31838923076924L215.22455989583335,44.78025586538461L215.37271223958334,44.60697115384616L215.400625,44.57128557692307L215.68189973958334,44.23828009615385L216.69105338541667,43.04587692307692L217.02171223958334,42.654952980769224L217.06465494791667,42.605455288461535L217.50696484375,42.04460980769231L217.71738411458335,41.808015288461526L217.81829947916668,41.68973942307693L217.88056640624998,41.615492884615385L218.20263671875,41.264199615384626L218.24557942708333,41.209447499999996L218.25202083333332,41.201206442307694L218.38514322916666,41.05006903846153L218.43452734374998,40.98685336538461L218.44096875,40.97860375L218.87254296875,40.443747980769224L219.02928385416666,40.244447884615376L219.21179036458332,40.01209798076923L219.2676158854167,39.940615576923086L219.53815494791667,39.64654759615384L219.67342447916667,39.510916730769225L220.39700911458334,38.7048676923077L220.57522135416667,38.50033028846154L220.70190234375,38.35978730769231L220.70619661458332,38.354293269230766L220.7727578125,38.269050096153855L220.92520442708334,38.07386625000001L221.42763411458333,37.46417346153846L221.63590625,37.21315923076922L222.16839583333334,36.59552490384615L222.6021171875,36.05117009615385L223.0916640625,35.456573076923085L223.43520572916665,35.0331898076923L224.12014192708332,34.229776538461536L224.19743880208335,34.159278269230775L224.21461588541666,34.13730211538462L224.45509505208335,33.82945625000001L224.53668619791668,33.73595490384615L224.98758463541668,33.19651221153847L225.217328125,32.93535711538461L225.51577994791668,32.56349115384615L225.57375260416666,32.50433182692308L225.84643880208333,32.16791182692309L226.1405963541667,31.82559557692308L226.2608359375,31.686233557692315L226.3295442708333,31.614468749999993L226.48199088541665,31.419327692307697L226.56143489583332,31.323053653846156L227.29790234375002,30.395442596153842L227.48899739583334,30.16719182692308L227.53838151041668,30.103959038461536L227.66720963541667,29.939069423076926L227.68438671875,29.91706759615385L227.86474609375,29.70603490384615L228.24478906250002,29.231296923076922L228.41655989583333,29.016866826923074L228.59691927083333,28.80866673076923L228.68280468749998,28.698717500000004L228.74721875,28.621732499999997L228.88678255208333,28.448550480769224L228.95549088541668,28.366730384615376L229.78428515625,27.452272500000003L230.08058984374998,27.09067576923076L230.23088932291668,26.909115769230777L230.38118880208333,26.72217298076923L230.46277994791666,26.628680192307684L230.63884505208333,26.408841634615392L230.73331901041666,26.319114230769234L230.86214713541665,26.15422461538462L231.02532942708334,25.950833942307693L231.14771614583333,25.799662307692312L231.33881119791667,25.5605775L231.44831510416665,25.420419615384617L231.45475651041667,25.412170000000007L231.62652734374998,25.211637596153853L231.86271223958332,24.90933711538462L231.88418359374998,24.887292499999994L232.19122395833332,24.535040769230775L232.34796484375,24.33984836538462L232.76021484375002,23.831016538461533L232.91051432291667,23.64400528846154L233.01572395833333,23.51477557692308L233.05437239583333,23.470754807692302L233.1917890625,23.294808653846147L233.51171223958335,22.89615711538461L234.01843619791666,22.27123163461538L234.15800000000002,22.092615480769226L234.61963411458333,21.60236240384615L235.12635807291667,20.98774894230769L235.17144791666666,20.93834538461539L235.35395442708335,20.704754615384612L235.35824869791668,20.699243461538465L235.93797526041666,19.973722307692306L236.14624739583334,19.707133076923085L236.18489583333331,19.657686730769235" style="fill: none;" fill="none"></path></g></g></g></g></g></g><g transform="translate(72, 178)" clip-path="url(#clip_1)"><clipPath id="clip_1"><rect width="257" height="22"></rect></clipPath><g><g><line x1="0" y1="0" x2="0" y2="5" style="visibility: inherit;" fill="rgb(0, 0, 0)" stroke="rgb(204, 204, 204)" stroke-width="1px"></line><line x1="21.471354166666664" y1="0" x2="21.471354166666664" y2="5" style="visibility: inherit;" fill="rgb(0, 0, 0)" stroke="rgb(204, 204, 204)" stroke-width="1px"></line><line x1="42.94270833333333" y1="0" x2="42.94270833333333" y2="5" style="visibility: inherit;" fill="rgb(0, 0, 0)" stroke="rgb(204, 204, 204)" stroke-width="1px"></line><line x1="64.4140625" y1="0" x2="64.4140625" y2="5" style="visibility: inherit;" fill="rgb(0, 0, 0)" stroke="rgb(204, 204, 204)" stroke-width="1px"></line><line x1="85.88541666666666" y1="0" x2="85.88541666666666" y2="5" style="visibility: inherit;" fill="rgb(0, 0, 0)" stroke="rgb(204, 204, 204)" stroke-width="1px"></line><line x1="107.35677083333334" y1="0" x2="107.35677083333334" y2="5" style="visibility: inherit;" fill="rgb(0, 0, 0)" stroke="rgb(204, 204, 204)" stroke-width="1px"></line><line x1="128.828125" y1="0" x2="128.828125" y2="5" style="visibility: inherit;" fill="rgb(0, 0, 0)" stroke="rgb(204, 204, 204)" stroke-width="1px"></line><line x1="150.29947916666669" y1="0" x2="150.29947916666669" y2="5" style="visibility: inherit;" fill="rgb(0, 0, 0)" stroke="rgb(204, 204, 204)" stroke-width="1px"></line><line x1="171.77083333333331" y1="0" x2="171.77083333333331" y2="5" style="visibility: inherit;" fill="rgb(0, 0, 0)" stroke="rgb(204, 204, 204)" stroke-width="1px"></line><line x1="193.2421875" y1="0" x2="193.2421875" y2="5" style="visibility: inherit;" fill="rgb(0, 0, 0)" stroke="rgb(204, 204, 204)" stroke-width="1px"></line><line x1="214.71354166666669" y1="0" x2="214.71354166666669" y2="5" style="visibility: inherit;" fill="rgb(0, 0, 0)" stroke="rgb(204, 204, 204)" stroke-width="1px"></line><line x1="236.18489583333331" y1="0" x2="236.18489583333331" y2="5" style="visibility: inherit;" fill="rgb(0, 0, 0)" stroke="rgb(204, 204, 204)" stroke-width="1px"></line><line x1="257.65625" y1="0" x2="257.65625" y2="5" style="visibility: inherit;" fill="rgb(0, 0, 0)" stroke="rgb(204, 204, 204)" stroke-width="1px"></line></g><g transform="translate(0, 8)"><text x="0" y="0" dx="0em" dy="0.95em" style="text-anchor: middle; visibility: hidden; font-family: Roboto, sans-serif; font-size: 12px; font-weight: 200;" fill="rgb(50, 49, 63)" stroke="none" stroke-width="1px">-10k</text><text x="21.471354166666664" y="0" dx="0em" dy="0.95em" style="text-anchor: middle; visibility: inherit; font-family: Roboto, sans-serif; font-size: 12px; font-weight: 200;" fill="rgb(50, 49, 63)" stroke="none" stroke-width="1px">0</text><text x="42.94270833333333" y="0" dx="0em" dy="0.95em" style="text-anchor: middle; visibility: hidden; font-family: Roboto, sans-serif; font-size: 12px; font-weight: 200;" fill="rgb(50, 49, 63)" stroke="none" stroke-width="1px">10k</text><text x="64.4140625" y="0" dx="0em" dy="0.95em" style="text-anchor: middle; visibility: inherit; font-family: Roboto, sans-serif; font-size: 12px; font-weight: 200;" fill="rgb(50, 49, 63)" stroke="none" stroke-width="1px">20k</text><text x="85.88541666666666" y="0" dx="0em" dy="0.95em" style="text-anchor: middle; visibility: hidden; font-family: Roboto, sans-serif; font-size: 12px; font-weight: 200;" fill="rgb(50, 49, 63)" stroke="none" stroke-width="1px">30k</text><text x="107.35677083333334" y="0" dx="0em" dy="0.95em" style="text-anchor: middle; visibility: inherit; font-family: Roboto, sans-serif; font-size: 12px; font-weight: 200;" fill="rgb(50, 49, 63)" stroke="none" stroke-width="1px">40k</text><text x="128.828125" y="0" dx="0em" dy="0.95em" style="text-anchor: middle; visibility: hidden; font-family: Roboto, sans-serif; font-size: 12px; font-weight: 200;" fill="rgb(50, 49, 63)" stroke="none" stroke-width="1px">50k</text><text x="150.29947916666669" y="0" dx="0em" dy="0.95em" style="text-anchor: middle; visibility: inherit; font-family: Roboto, sans-serif; font-size: 12px; font-weight: 200;" fill="rgb(50, 49, 63)" stroke="none" stroke-width="1px">60k</text><text x="171.77083333333331" y="0" dx="0em" dy="0.95em" style="text-anchor: middle; visibility: hidden; font-family: Roboto, sans-serif; font-size: 12px; font-weight: 200;" fill="rgb(50, 49, 63)" stroke="none" stroke-width="1px">70k</text><text x="193.2421875" y="0" dx="0em" dy="0.95em" style="text-anchor: middle; visibility: inherit; font-family: Roboto, sans-serif; font-size: 12px; font-weight: 200;" fill="rgb(50, 49, 63)" stroke="none" stroke-width="1px">80k</text><text x="214.71354166666669" y="0" dx="0em" dy="0.95em" style="text-anchor: middle; visibility: hidden; font-family: Roboto, sans-serif; font-size: 12px; font-weight: 200;" fill="rgb(50, 49, 63)" stroke="none" stroke-width="1px">90k</text><text x="236.18489583333331" y="0" dx="0em" dy="0.95em" style="text-anchor: middle; visibility: inherit; font-family: Roboto, sans-serif; font-size: 12px; font-weight: 200;" fill="rgb(50, 49, 63)" stroke="none" stroke-width="1px">100k</text><text x="257.65625" y="0" dx="0em" dy="0.95em" style="text-anchor: middle; visibility: hidden; font-family: Roboto, sans-serif; font-size: 12px; font-weight: 200;" fill="rgb(50, 49, 63)" stroke="none" stroke-width="1px">110k</text></g><line x1="0" y1="0" x2="257.65625" y2="0" fill="rgb(0, 0, 0)" stroke="rgb(204, 204, 204)" stroke-width="1px"></line></g></g></g></g></svg>